<?xml version="1.0" standalone="no"?>
<!DOCTYPE svg PUBLIC "-//W3C//DTD SVG 20010904//EN"
 "http://www.w3.org/TR/2001/REC-SVG-20010904/DTD/svg10.dtd">
<svg version="1.0" xmlns="http://www.w3.org/2000/svg"
 width="70pt" height="70pt" viewBox="0 0 512.000000 512.000000"
 preserveAspectRatio="xMidYMid meet">
<metadata>
Created by potrace 1.16, written by Peter Selinger 2001-2019
</metadata>
<g transform="translate(0.000000,512.000000) scale(0.100000,-0.100000)"
fill="#000000" stroke="none">
<path d="M2398 4452 c-31 -4 -59 -10 -63 -14 -4 -3 -2 -55 5 -115 12 -113 27
-195 29 -156 1 19 8 23 61 29 54 6 60 9 60 30 0 23 -2 23 -59 17 -59 -6 -60
-5 -67 21 -3 15 -5 29 -3 31 2 2 42 5 89 7 l85 3 3 -77 c3 -70 5 -78 23 -78
15 0 18 5 15 23 -3 12 -8 70 -11 130 -6 101 -5 107 13 107 129 0 477 -55 565
-89 33 -13 34 -7 -25 -159 -22 -57 -37 -106 -34 -109 11 -11 24 10 61 105 21
50 42 95 47 98 14 9 4 -22 -42 -128 -27 -63 -34 -88 -25 -92 9 -3 32 42 69
133 31 76 56 143 56 148 0 22 -218 90 -375 118 -98 18 -385 28 -477 17z"/>
<path d="M2173 4409 c-115 -25 -308 -91 -427 -146 -55 -26 -102 -48 -104 -49
-2 -1 4 -14 13 -28 10 -14 15 -32 12 -40 -3 -7 -38 -31 -79 -54 -342 -189
-628 -525 -787 -925 -62 -155 -111 -394 -111 -536 l0 -71 40 0 40 0 0 58 c0
31 3 74 6 94 l6 37 48 -24 48 -24 5 27 c7 37 2 42 -42 42 -63 0 -73 15 -61 85
17 92 58 229 102 335 59 142 77 170 107 170 21 1 36 16 79 83 29 45 66 97 81
115 28 32 28 32 64 17 47 -19 47 -6 1 35 l-36 31 23 27 c64 74 123 131 131
126 5 -3 7 0 6 8 -2 7 6 13 17 13 11 0 27 9 36 20 26 31 166 129 252 175 43
23 149 71 235 106 140 57 158 63 167 48 6 -9 19 -28 31 -42 20 -24 22 -24 71
-13 43 10 50 16 46 32 -6 22 -14 23 -61 10 -36 -11 -62 -5 -62 12 0 6 -7 18
-16 28 -15 17 -20 16 -93 -11 -43 -15 -108 -42 -146 -59 -48 -22 -72 -28 -79
-21 -14 14 -5 19 119 72 55 24 101 46 103 50 9 21 117 68 187 83 44 9 90 18
103 21 17 3 22 11 21 37 -1 65 -4 66 -96 46z"/>
<path d="M3336 4243 c-20 -40 -106 -240 -106 -247 0 -3 15 -12 34 -20 19 -8
73 -40 120 -71 47 -31 90 -54 95 -51 15 9 121 143 121 152 0 5 -23 23 -52 39
-28 17 -61 38 -75 48 l-23 19 21 38 c19 33 25 37 41 29 10 -5 18 -8 18 -5 0 6
-163 96 -173 96 -4 0 -13 -12 -21 -27z"/>
<path d="M1445 4103 c-55 -36 -135 -94 -177 -130 -167 -139 -353 -364 -440
-533 -46 -89 -36 -77 33 41 141 239 330 437 574 601 134 90 132 88 119 88 -5
-1 -54 -30 -109 -67z"/>
<path d="M2380 4040 c-300 -31 -564 -143 -819 -348 -34 -28 -68 -53 -75 -55
-8 -3 -7 -9 3 -20 18 -22 28 -21 35 1 12 36 191 167 336 245 227 123 505 177
795 156 336 -24 591 -123 852 -333 211 -170 385 -422 488 -706 41 -115 65
-233 72 -362 6 -115 7 -118 29 -118 20 0 22 3 14 28 -4 15 -11 56 -14 93 -13
144 -91 388 -181 569 -193 385 -544 684 -933 795 -178 50 -423 73 -602 55z"/>
<path d="M3612 3890 c-28 -38 -55 -75 -58 -83 -3 -10 8 -25 32 -43 36 -28 37
-28 48 -9 19 34 73 85 91 85 11 0 1 -18 -36 -60 -52 -59 -52 -60 -33 -81 l19
-21 45 52 c38 43 50 51 68 46 35 -11 131 -98 191 -174 55 -67 131 -142 131
-127 0 20 -44 76 -64 81 -13 3 -44 34 -71 70 -51 70 -205 238 -270 296 l-40
36 -53 -68z"/>
<path d="M2624 3700 c1 -129 2 -222 4 -206 3 27 5 28 48 21 45 -6 136 -28 164
-39 10 -4 24 8 42 39 32 52 48 55 111 24 60 -31 197 -122 197 -131 0 -25 -36
-14 -102 31 -40 28 -90 57 -111 66 l-36 15 -16 -29 c-8 -17 -15 -32 -15 -35 0
-3 26 -19 58 -35 61 -31 142 -90 204 -148 l36 -35 47 43 46 42 -68 64 c-150
142 -297 215 -503 252 l-95 17 -6 140 c-4 109 -5 89 -5 -96z"/>
<path d="M2309 3905 c-123 -20 -191 -39 -321 -91 -148 -59 -263 -137 -372
-251 -40 -43 -47 -47 -65 -36 -18 11 -26 6 -83 -59 -35 -40 -79 -88 -99 -107
-42 -43 -61 -70 -123 -174 l-46 -78 32 3 c29 3 38 13 83 86 28 46 57 87 65 92
12 7 12 10 -3 16 -9 3 -17 13 -17 21 0 11 5 13 18 8 40 -17 48 -15 72 22 59
87 297 293 339 293 25 0 5 -23 -86 -99 -54 -44 -132 -120 -173 -168 -41 -47
-80 -91 -87 -97 -8 -8 -8 -15 3 -27 12 -13 10 -20 -12 -50 -14 -19 -36 -55
-50 -81 -13 -26 -33 -52 -43 -58 -11 -5 -52 -10 -91 -10 -65 0 -71 -2 -82 -25
-8 -18 -19 -25 -38 -25 -23 0 -31 -8 -48 -48 -27 -63 -58 -183 -73 -282 -12
-85 -8 -400 6 -432 5 -13 18 -18 44 -18 20 0 43 -6 50 -12 11 -11 12 -8 7 17
-4 17 -9 80 -13 140 -7 133 5 169 69 215 l43 32 6 -134 c8 -147 42 -318 64
-318 10 0 121 38 133 45 1 1 -5 33 -13 70 -9 37 -14 75 -12 84 1 9 12 -26 22
-76 11 -52 24 -93 31 -93 8 0 7 18 -4 65 -9 35 -13 67 -10 70 3 3 43 8 89 12
l84 6 1 156 c1 189 18 260 98 424 59 120 64 163 9 76 -84 -133 -121 -254 -130
-424 -6 -114 -13 -135 -43 -135 -10 0 -20 -5 -22 -11 -5 -14 -88 -2 -88 12 0
5 -13 9 -29 9 -19 0 -47 14 -80 40 -50 40 -51 41 -51 95 l0 54 -97 3 -98 3 2
50 c2 56 46 218 69 253 8 12 21 22 28 22 11 0 9 -19 -9 -92 -13 -51 -25 -111
-27 -133 -3 -35 0 -40 20 -43 12 -2 21 0 20 5 -5 18 13 127 28 161 17 42 52
82 70 82 11 0 11 -6 3 -27 -11 -30 -48 -190 -49 -210 0 -7 6 -13 14 -13 9 0
19 29 30 91 9 51 23 107 31 126 l15 35 58 -7 57 -6 23 45 c12 25 28 46 36 46
8 0 29 27 47 61 18 34 39 64 47 67 8 3 35 -6 61 -19 65 -33 67 -34 54 -17 -7
8 -32 23 -55 33 -24 11 -45 20 -47 21 -15 11 128 174 215 245 l73 61 -40 80
-40 81 30 31 c16 17 51 42 76 56 45 24 47 24 60 6 8 -10 16 -24 18 -30 3 -8 8
-7 19 2 42 34 280 101 416 115 35 4 42 2 42 -13 0 -14 -12 -19 -69 -24 -82 -8
-226 -45 -317 -82 -35 -14 -68 -22 -74 -19 -11 7 0 -26 26 -76 l16 -31 21 21
c29 26 89 51 124 51 15 0 60 6 98 14 39 8 102 18 142 22 l72 6 3 92 c4 130 6
126 -61 125 -31 -1 -95 -7 -142 -14z m-1224 -1614 c6 -43 5 -53 -6 -49 -29 9
-40 58 -42 180 -1 92 3 129 13 148 14 23 15 16 21 -100 4 -69 10 -149 14 -179z
m302 107 c-3 -8 -6 -5 -6 6 -1 11 2 17 5 13 3 -3 4 -12 1 -19z"/>
<path d="M2714 3905 c-9 -22 1 -185 11 -188 6 -1 11 21 13 50 2 29 9 56 17 63
13 11 15 3 15 -54 0 -64 1 -66 28 -72 76 -16 196 -61 274 -102 l87 -45 40 44
40 44 -26 22 c-14 12 -63 39 -107 61 -71 36 -113 51 -266 100 -32 11 -29 11
28 7 77 -6 213 -50 321 -105 45 -22 87 -37 96 -34 17 7 115 -54 115 -70 0 -18
-112 -158 -141 -175 -30 -18 -30 -18 -7 -26 36 -11 50 -6 88 31 20 19 41 34
47 34 21 0 176 -173 233 -261 32 -50 75 -129 96 -177 21 -48 39 -88 39 -89 1
-2 29 6 63 18 l61 20 -13 37 c-52 148 -166 322 -299 459 -152 157 -334 274
-534 346 -145 52 -311 84 -319 62z"/>
<path d="M1395 3749 c-7 -10 10 -28 28 -29 12 0 8 17 -7 29 -11 9 -16 9 -21 0z"/>
<path d="M1591 3637 c2 -1 15 -11 29 -22 l25 -20 -19 23 c-11 12 -24 22 -29
22 -6 0 -8 -1 -6 -3z"/>
<path d="M2486 3531 c-11 -12 -16 -24 -12 -28 9 -9 39 22 34 37 -2 7 -10 4
-22 -9z"/>
<path d="M3865 3530 c-4 -6 -13 -9 -21 -6 -8 3 14 -36 49 -87 77 -110 136
-217 173 -312 28 -72 40 -93 49 -83 3 3 -9 38 -26 79 -17 41 -33 93 -34 116
-3 39 -1 43 31 58 19 9 51 15 71 13 30 -2 43 -11 70 -46 18 -24 33 -41 33 -38
0 10 -77 160 -92 177 -12 15 -21 12 -97 -32 l-83 -49 -19 23 c-23 27 -23 37
-3 51 14 10 10 20 -28 76 -44 66 -61 79 -73 60z"/>
<path d="M2069 3442 c-25 -15 -74 -48 -110 -73 -96 -69 -215 -199 -183 -199 3
0 39 34 81 75 41 42 120 105 174 141 54 36 99 69 99 74 0 15 -11 12 -61 -18z"/>
<path d="M2385 3356 c-229 -53 -431 -205 -556 -419 -132 -224 -156 -502 -64
-737 53 -135 123 -231 239 -326 l50 -41 -34 -44 c-19 -24 -35 -46 -37 -48 -2
-3 -22 13 -46 35 l-42 39 40 -43 c45 -48 182 -145 263 -186 57 -29 68 -43 58
-79 -12 -46 -18 -48 -77 -31 -109 32 -253 122 -363 225 l-65 61 -106 -72 c-58
-40 -105 -75 -105 -80 0 -4 15 -19 34 -34 33 -25 34 -25 29 -3 l-6 22 24 -20
c58 -50 61 -51 54 -22 -6 21 0 35 24 66 30 38 38 68 23 87 -4 5 14 -12 40 -38
27 -25 48 -52 48 -59 0 -14 -39 -68 -84 -118 -31 -33 -31 -34 -4 -16 28 17 28
17 125 -38 117 -65 199 -107 212 -107 5 0 19 25 31 55 32 78 39 82 105 54 65
-28 67 -40 25 -114 l-30 -53 67 -13 c38 -7 97 -13 133 -13 l65 -1 3 51 c4 67
-8 78 -103 99 -41 9 -79 23 -85 30 -8 10 -2 32 24 89 35 75 37 76 59 62 12 -8
50 -22 85 -30 53 -12 62 -12 62 0 0 10 16 14 63 15 89 1 43 17 -53 19 -95 1
-150 13 -170 39 -8 11 -60 36 -115 55 -91 33 -101 35 -112 20 -14 -19 -49 -13
-83 14 l-23 19 29 36 c16 21 37 37 47 37 10 0 52 -17 95 -37 42 -20 118 -49
167 -64 50 -15 108 -34 130 -43 94 -36 331 -8 452 52 113 57 331 236 338 277
3 24 16 22 72 -7 40 -21 44 -21 59 -6 23 23 12 43 -35 67 l-40 21 45 97 c43
92 74 195 73 238 -1 23 0 24 -29 -74 -12 -40 -23 -71 -25 -69 -3 2 4 35 15 73
11 38 21 93 22 122 1 30 7 53 13 53 35 0 -68 427 -119 496 -8 10 0 -21 19 -71
70 -188 84 -406 36 -573 -83 -288 -313 -524 -594 -611 -302 -93 -635 -3 -843
229 -92 103 -138 182 -175 300 -20 64 -24 94 -23 205 2 154 22 241 83 364 51
103 101 169 187 251 125 119 225 178 365 216 97 27 281 24 383 -5 113 -31 220
-90 306 -169 66 -59 71 -62 41 -24 -76 97 -201 182 -336 228 -98 33 -281 43
-380 20z m975 -1331 c29 -15 41 -45 19 -45 -6 0 -29 10 -50 22 -27 15 -35 24
-27 30 18 11 25 10 58 -7z m-174 -114 c-3 -5 -41 -32 -83 -61 l-78 -52 54 49
c30 26 60 47 67 45 6 -1 17 5 24 13 13 16 25 21 16 6z m-166 -116 c0 -3 -27
-18 -60 -35 -33 -17 -60 -28 -60 -25 0 2 26 18 58 34 64 34 62 33 62 26z
m-255 -105 c-48 -13 -105 -18 -180 -18 l-110 1 130 8 c72 4 144 12 160 18 17
5 39 9 50 9 11 0 -11 -8 -50 -18z"/>
<path d="M711 3196 c-17 -47 -33 -98 -36 -113 -3 -16 12 21 34 82 22 60 39
111 37 113 -2 1 -18 -35 -35 -82z"/>
<path d="M1895 3208 l-40 -43 43 40 c39 36 47 45 39 45 -2 0 -21 -19 -42 -42z"/>
<path d="M2372 3196 c-129 -32 -281 -134 -367 -248 -95 -125 -139 -255 -138
-408 0 -80 5 -110 32 -190 36 -108 91 -206 148 -266 21 -22 33 -33 26 -25 -32
44 -104 195 -118 247 -19 74 -19 247 0 339 8 39 33 108 56 155 74 150 235 287
383 326 84 23 97 15 16 -10 -107 -32 -170 -67 -244 -137 -74 -68 -135 -160
-174 -258 -24 -59 -26 -79 -27 -201 0 -116 3 -145 24 -205 56 -167 177 -312
321 -384 44 -22 96 -43 116 -47 19 -3 37 -11 41 -17 6 -10 -23 -7 -97 8 -14 3
-7 -2 15 -10 22 -9 70 -19 108 -22 l67 -6 2 49 c1 46 2 47 5 9 2 -22 5 -45 7
-51 6 -17 117 1 128 21 5 8 41 31 80 50 93 46 152 90 229 172 111 118 164 246
175 423 12 196 -50 356 -196 502 -73 72 -102 93 -181 131 -52 25 -118 50 -147
56 -70 14 -224 13 -290 -3z m298 -71 c148 -41 261 -121 344 -242 130 -190 139
-429 24 -630 -130 -227 -361 -339 -598 -289 -107 23 -174 60 -255 141 -198
197 -231 484 -84 732 42 70 126 156 179 183 61 31 58 24 -8 -20 -64 -43 -108
-84 -64 -61 12 7 39 24 60 38 63 43 143 73 222 84 41 6 77 13 79 15 2 2 7 30
9 62 4 41 7 50 12 32 5 -21 17 -28 80 -45z"/>
<path d="M2449 2936 c-73 -21 -142 -63 -202 -124 -46 -47 -59 -67 -72 -117
-41 -158 3 -328 111 -425 24 -22 26 -22 19 -5 -79 196 -80 199 -80 280 0 65 5
89 25 130 32 65 132 165 195 196 44 21 63 24 160 24 97 -1 115 -4 147 -23 52
-32 106 -96 137 -161 22 -48 26 -69 26 -151 0 -76 -4 -104 -22 -142 -30 -66
-97 -135 -168 -171 -54 -29 -69 -32 -145 -31 -65 0 -97 5 -135 22 l-50 22 45
-40 c88 -78 220 -103 317 -60 51 22 122 85 154 136 52 85 64 229 28 337 -25
75 -93 181 -145 226 -87 77 -233 109 -345 77z"/>
<path d="M2910 2885 c13 -14 26 -25 28 -25 3 0 -5 11 -18 25 -13 14 -26 25
-28 25 -3 0 5 -11 18 -25z"/>
<path d="M2489 2837 c-39 -11 -109 -51 -109 -62 0 -2 19 5 43 15 65 29 103 32
170 15 69 -18 114 -43 176 -100 52 -47 41 -18 -16 46 -73 81 -169 112 -264 86z"/>
<path d="M2965 2809 c119 -219 91 -446 -76 -604 -118 -111 -251 -156 -401
-135 -99 14 -180 55 -258 132 -74 74 -47 26 35 -60 99 -105 207 -153 347 -153
80 0 97 3 161 33 77 36 165 106 204 164 31 44 77 156 87 207 27 142 -17 333
-100 433 l-24 29 25 -46z"/>
<path d="M2439 2760 c-82 -43 -140 -153 -124 -232 9 -44 46 -106 84 -142 26
-25 29 -26 24 -7 -7 27 -4 27 72 -9 116 -54 203 -31 255 69 17 33 15 108 -3
151 l-15 35 5 -41 c11 -91 -63 -183 -156 -192 -63 -6 -110 10 -151 53 -61 63
-48 176 26 234 58 46 179 60 224 27 8 -6 6 0 -5 13 -51 60 -163 79 -236 41z"/>
<path d="M3509 3110 c62 -131 62 -132 1 -160 -49 -23 -54 -23 -79 -8 l-28 15
19 -50 c37 -97 58 -209 58 -309 0 -77 3 -98 14 -98 16 0 12 83 -9 210 -7 41
-11 78 -9 81 2 4 38 19 80 35 l76 27 -7 36 c-3 20 -30 86 -60 146 -67 135
-113 198 -56 75z"/>
<path d="M4218 3006 c-54 -12 -101 -26 -105 -31 -8 -8 8 -5 82 14 22 5 61 13
88 16 26 3 47 10 47 16 0 11 4 12 -112 -15z"/>
<path d="M651 3004 c0 -11 3 -14 6 -6 3 7 2 16 -1 19 -3 4 -6 -2 -5 -13z"/>
<path d="M4330 2993 c0 -7 -8 -13 -17 -13 -39 0 -42 -12 -22 -100 10 -47 23
-139 30 -205 6 -66 13 -122 16 -125 2 -2 13 1 23 8 11 7 27 12 35 12 8 0 15 2
15 5 0 36 -26 222 -41 299 -18 91 -38 151 -39 119z"/>
<path d="M1577 2883 c-3 -5 -15 -39 -27 -78 -17 -54 -23 -101 -26 -200 -2 -81
0 -119 5 -100 5 17 9 52 10 78 2 68 29 194 53 240 19 38 19 67 -1 67 -5 0 -12
-3 -14 -7z"/>
<path d="M612 2800 c0 -14 2 -19 5 -12 2 6 2 18 0 25 -3 6 -5 1 -5 -13z"/>
<path d="M3810 2780 c-36 -11 -72 -23 -80 -28 -9 -5 -31 -13 -49 -17 l-34 -7
7 -67 c3 -36 6 -87 6 -113 0 -44 2 -48 25 -48 25 0 25 0 26 103 1 87 3 95 9
52 5 -27 9 -74 9 -102 l1 -53 86 0 87 0 -7 100 c-4 55 -4 100 -1 100 4 0 16
-5 27 -11 20 -11 20 -9 13 36 -12 86 -14 87 -125 55z"/>
<path d="M4581 2764 c0 -11 3 -14 6 -6 3 7 2 16 -1 19 -3 4 -6 -2 -5 -13z"/>
<path d="M603 2685 c0 -27 2 -38 4 -22 2 15 2 37 0 50 -2 12 -4 0 -4 -28z"/>
<path d="M4592 2675 c0 -16 2 -22 5 -12 2 9 2 23 0 30 -3 6 -5 -1 -5 -18z"/>
<path d="M4600 2497 c0 -96 -22 -281 -46 -384 -81 -356 -245 -650 -519 -932
-366 -376 -802 -583 -1317 -623 -355 -27 -696 35 -1018 188 -139 65 -117 44
31 -31 137 -70 209 -98 338 -136 143 -41 237 -57 423 -71 414 -31 809 56 1158
255 25 14 59 33 75 43 87 50 275 208 383 323 50 53 182 217 182 226 0 5 7 16
15 25 43 47 174 319 220 455 63 186 97 436 88 645 -2 52 -6 96 -9 99 -2 2 -4
-34 -4 -82z"/>
<path d="M611 2433 c1 -58 1 -58 14 -27 11 24 20 31 43 32 l29 1 13 -107 c12
-99 70 -355 84 -369 6 -6 125 33 139 46 4 4 2 21 -3 38 l-11 30 -51 -14 c-30
-9 -54 -11 -59 -6 -15 15 -38 137 -50 263 -10 105 -9 115 7 127 21 16 58 17
85 3 16 -9 19 -7 19 15 l0 25 -130 0 -130 0 1 -57z"/>
<path d="M4332 2351 c-13 -148 -48 -306 -101 -448 -33 -91 -86 -199 -108 -225
-14 -15 -10 -19 36 -43 58 -29 91 -24 43 7 l-31 19 25 57 c14 31 29 64 32 72
3 8 12 20 19 25 34 26 124 351 148 533 6 49 9 52 35 52 30 0 40 15 40 61 0 29
0 29 -63 29 l-63 0 -12 -139z"/>
<path d="M4050 2414 c0 -49 -41 -229 -76 -334 -40 -119 -139 -316 -210 -417
-66 -94 -232 -255 -344 -335 -211 -150 -479 -260 -687 -283 l-62 -7 -6 -39
c-12 -69 18 -84 96 -50 24 11 73 25 109 32 36 6 70 16 76 21 8 5 13 2 17 -11
4 -19 7 -19 56 -5 27 9 65 14 83 12 29 -3 36 -10 64 -65 17 -35 33 -65 36 -68
3 -3 27 4 53 15 26 11 64 23 84 26 51 8 149 60 273 143 59 39 110 71 114 71
17 0 124 74 169 118 102 99 255 274 255 293 0 7 -71 52 -75 47 -1 -2 -21 -32
-45 -68 -91 -136 -244 -304 -271 -298 -8 1 -72 -36 -144 -84 -162 -108 -312
-185 -334 -171 -9 5 -34 47 -57 94 l-41 84 41 17 c43 17 45 17 72 -28 9 -16
14 -17 44 -4 36 15 295 184 304 198 3 5 -10 27 -30 50 l-35 41 61 59 60 58 38
-22 c45 -28 68 -30 77 -7 4 13 -2 25 -21 40 l-28 22 39 62 c21 34 38 68 38 75
0 9 14 5 42 -12 23 -13 44 -24 47 -24 3 0 8 19 11 42 3 23 30 90 59 148 49 96
55 105 79 102 20 -2 28 2 32 18 4 17 -1 24 -23 32 -23 8 -27 13 -20 26 5 9 21
69 35 133 22 98 32 123 65 168 64 86 52 111 -52 111 -67 0 -68 -1 -68 -26z
m17 -216 c-3 -7 -5 -2 -5 12 0 14 2 19 5 13 2 -7 2 -19 0 -25z m-86 -245 c-12
-20 -14 -14 -5 12 4 9 9 14 11 11 3 -2 0 -13 -6 -23z m-18 -38 c-3 -9 -8 -14
-10 -11 -3 3 -2 9 2 15 9 16 15 13 8 -4z"/>
<path d="M3171 2303 c-41 -91 -103 -177 -199 -278 -57 -60 -89 -84 -153 -115
-86 -41 -114 -59 -64 -40 167 64 319 193 392 335 37 73 69 162 61 170 -2 2
-19 -30 -37 -72z"/>
<path d="M3616 2369 c-3 -8 -13 -45 -22 -83 -20 -82 -60 -182 -101 -251 -37
-62 -150 -210 -191 -248 -26 -25 -32 -27 -51 -16 -18 12 -24 10 -48 -12 -15
-15 -54 -45 -85 -68 -35 -25 -58 -49 -58 -60 0 -32 -157 -94 -172 -68 -29 51
-25 50 -143 20 l-110 -29 0 -149 0 -150 45 2 c65 3 221 46 321 88 97 40 257
136 350 208 l61 49 -53 55 c-51 51 -53 55 -34 65 11 6 48 39 82 74 58 59 83
76 83 55 0 -14 -68 -98 -97 -119 l-28 -21 35 -34 c19 -19 47 -37 61 -41 24 -5
26 -2 43 54 10 33 31 78 47 100 25 34 33 39 54 34 48 -12 24 11 -60 59 -83 47
-84 48 -65 67 20 20 21 20 102 -26 96 -53 101 -54 105 -34 2 10 -24 29 -81 58
l-84 43 38 83 c21 46 46 108 55 137 9 30 25 70 36 89 l20 35 -7 -35 c-3 -19
-17 -68 -29 -108 -17 -52 -20 -75 -12 -78 118 -42 130 -45 150 -27 34 31 43
58 73 202 4 19 10 22 34 19 24 -4 30 -1 30 14 0 20 -6 22 -136 37 -51 6 -106
14 -123 17 -21 5 -32 2 -35 -7z m194 -86 c0 -2 -7 -36 -16 -74 -9 -38 -13 -77
-10 -85 5 -12 1 -14 -17 -8 -12 3 -23 7 -24 9 -2 1 7 40 19 87 16 60 26 84 35
81 7 -3 13 -7 13 -10z m-501 -627 l31 -45 -22 -22 c-42 -40 -162 -121 -233
-156 -137 -70 -327 -130 -343 -110 -6 7 -13 46 -17 87 -3 41 -9 83 -11 92 -4
14 7 21 53 34 32 9 62 17 66 18 5 0 14 -15 20 -34 8 -24 18 -35 32 -35 11 0
25 -7 31 -15 10 -12 16 -12 35 -3 13 7 38 14 54 16 28 3 27 4 -12 12 -53 9
-55 21 -5 29 20 3 61 23 91 43 29 21 83 59 120 85 36 25 69 47 72 47 3 1 20
-19 38 -43z"/>
<path d="M622 2325 c0 -16 2 -22 5 -12 2 9 2 23 0 30 -3 6 -5 -1 -5 -18z"/>
<path d="M631 2264 c0 -11 3 -14 6 -6 3 7 2 16 -1 19 -3 4 -6 -2 -5 -13z"/>
<path d="M641 2214 c0 -11 3 -14 6 -6 3 7 2 16 -1 19 -3 4 -6 -2 -5 -13z"/>
<path d="M1125 2165 c4 -22 11 -47 15 -55 8 -13 9 -13 15 2 4 9 -3 33 -15 55
l-21 38 6 -40z"/>
<path d="M650 2173 c0 -49 133 -403 147 -390 2 2 -14 42 -35 88 -21 46 -54
134 -72 194 -32 108 -40 129 -40 108z"/>
<path d="M1487 2106 c5 -26 -13 -36 -210 -125 l-68 -30 17 -33 c9 -18 28 -51
42 -72 21 -33 26 -37 34 -23 5 10 16 17 23 17 18 0 19 14 4 42 -10 18 -8 25
12 41 13 10 45 30 70 42 l46 24 21 -38 c34 -60 29 -76 -34 -116 l-56 -36 28
-37 c42 -57 87 -102 101 -102 22 0 15 15 -27 54 -22 20 -40 40 -40 45 0 4 23
22 50 39 28 17 50 36 50 42 0 6 -18 44 -41 85 -40 73 -40 74 -19 85 12 6 23
10 24 8 1 -2 15 -25 31 -53 24 -44 114 -175 135 -198 4 -5 17 -4 29 2 20 11
18 15 -47 95 -37 46 -88 122 -115 169 -50 91 -67 111 -60 73z"/>
<path d="M2110 2016 c0 -2 8 -10 18 -17 15 -13 16 -12 3 4 -13 16 -21 21 -21
13z"/>
<path d="M842 1901 c24 -65 15 -63 103 -25 22 9 34 19 27 21 -7 3 -28 -4 -47
-16 l-34 -20 -23 49 c-34 72 -53 65 -26 -9z"/>
<path d="M978 1812 c-108 -57 -128 -79 -69 -74 20 1 34 -3 37 -12 4 -11 22 -5
81 30 41 24 79 44 84 44 4 0 31 -33 58 -74 60 -88 158 -206 172 -206 6 0 -16
30 -49 68 -57 63 -192 257 -192 274 0 14 -12 9 -122 -50z"/>
<path d="M1005 1613 c15 -42 171 -261 179 -253 5 5 -11 34 -36 67 -25 32 -67
91 -93 131 -47 71 -63 89 -50 55z"/>
<path d="M3480 1576 c0 -30 -188 -168 -344 -252 -45 -24 -76 -44 -71 -44 32 0
253 137 363 225 72 58 80 69 62 80 -5 3 -10 0 -10 -9z"/>
<path d="M1365 1490 c10 -11 20 -20 23 -20 3 0 -3 9 -13 20 -10 11 -20 20 -23
20 -3 0 3 -9 13 -20z"/>
<path d="M1690 1439 c0 -20 56 -69 128 -112 248 -150 539 -216 823 -188 67 6
126 14 132 18 21 13 -43 21 -81 11 -58 -17 -303 -13 -417 7 -189 33 -452 145
-542 230 -24 23 -43 38 -43 34z"/>
<path d="M1390 1365 c-63 -73 -87 -86 -107 -59 -13 17 -16 16 -51 -19 l-37
-38 30 -26 c106 -89 241 -193 251 -193 7 0 43 34 80 76 92 102 92 102 162 61
101 -61 215 -114 315 -146 113 -36 143 -39 152 -12 5 16 10 17 54 7 27 -6 52
-13 54 -16 3 -3 1 -26 -4 -52 -9 -40 -14 -47 -36 -50 -22 -2 -28 -11 -38 -51
-7 -26 -14 -49 -17 -52 -6 -7 -183 40 -270 72 -88 31 -195 81 -266 123 l-54
31 24 -31 c23 -32 149 -114 223 -145 87 -37 252 -87 303 -92 44 -5 58 -2 83
16 l29 22 0 -46 c0 -66 25 -61 39 8 9 44 31 198 31 213 0 3 17 4 37 2 l37 -3
-3 -112 -3 -113 169 0 c175 0 300 14 459 51 80 18 91 23 87 40 -11 41 -28 43
-131 20 -137 -30 -228 -41 -373 -44 -159 -3 -159 -3 -159 107 0 44 -4 87 -9
94 -4 8 -51 19 -112 27 -235 31 -391 86 -616 216 -59 35 -143 89 -186 121 -43
32 -81 58 -85 57 -4 0 -32 -29 -62 -64z m120 -32 c0 -8 -82 -123 -88 -123 -10
0 -62 53 -62 63 0 5 18 31 40 58 l41 48 34 -21 c19 -11 35 -22 35 -25z m117
-39 c22 -6 21 -9 -24 -58 -25 -28 -57 -68 -71 -88 -27 -42 -34 -45 -52 -23
-13 16 -13 16 53 108 49 68 55 71 94 61z"/>
<path d="M3020 1270 c-8 -5 -10 -10 -5 -10 6 0 17 5 25 10 8 5 11 10 5 10 -5
0 -17 -5 -25 -10z"/>
<path d="M2920 1235 c-36 -13 -60 -24 -54 -24 13 -1 134 39 134 45 0 7 -12 4
-80 -21z"/>
<path d="M2805 1200 c-13 -5 -14 -9 -5 -9 8 0 24 4 35 9 13 5 14 9 5 9 -8 0
-24 -4 -35 -9z"/>
<path d="M2758 1183 c7 -3 16 -2 19 1 4 3 -2 6 -13 5 -11 0 -14 -3 -6 -6z"/>
<path d="M1540 826 c0 -3 9 -10 20 -16 11 -6 20 -8 20 -6 0 3 -9 10 -20 16
-11 6 -20 8 -20 6z"/>
</g>
</svg>