<?xml version="1.0" standalone="no"?>
<!DOCTYPE svg PUBLIC "-//W3C//DTD SVG 20010904//EN"
 "http://www.w3.org/TR/2001/REC-SVG-20010904/DTD/svg10.dtd">
<svg version="1.0" xmlns="http://www.w3.org/2000/svg"
 width="512.000000pt" height="512.000000pt" viewBox="0 0 512.000000 512.000000"
 preserveAspectRatio="xMidYMid meet">
<metadata>
Created by potrace 1.16, written by Peter Selinger 2001-2019
</metadata>
<g transform="translate(0.000000,512.000000) scale(0.100000,-0.100000)"
fill="#000000" stroke="none">
<path d="M3480 5110 c0 -5 5 -10 10 -10 6 0 10 5 10 10 0 6 -4 10 -10 10 -5 0
-10 -4 -10 -10z"/>
<path d="M3578 5100 c-14 -11 -28 -33 -30 -50 l-5 -30 28 26 c16 15 26 32 22
37 -3 6 -1 7 4 4 6 -4 18 2 28 13 17 19 17 20 -2 20 -11 0 -32 -9 -45 -20z"/>
<path d="M3663 5091 c-22 -16 -57 -50 -79 -76 -21 -26 -61 -72 -88 -101 -27
-30 -45 -54 -41 -54 10 0 257 251 252 256 -2 2 -22 -9 -44 -25z"/>
<path d="M230 5103 c-27 -9 -40 -36 -39 -77 0 -23 3 -34 6 -26 3 8 12 23 21
33 9 10 11 17 4 17 -15 0 -3 31 17 47 17 13 15 15 -9 6z"/>
<path d="M854 5103 c-7 -2 -10 -13 -7 -23 6 -22 18 -26 28 -10 8 14 -7 38 -21
33z"/>
<path d="M3697 5062 c-51 -52 -46 -59 13 -16 59 42 68 54 43 54 -11 0 -36 -17
-56 -38z"/>
<path d="M770 5070 c-20 -6 -21 -8 -5 -8 11 0 31 4 45 8 20 6 21 8 5 8 -11 0
-31 -4 -45 -8z"/>
<path d="M4248 5073 c7 -3 16 -2 19 1 4 3 -2 6 -13 5 -11 0 -14 -3 -6 -6z"/>
<path d="M4420 5055 c-14 -8 -21 -14 -16 -15 5 0 3 -7 -4 -16 -11 -12 -11 -18
1 -30 12 -12 19 -12 42 -2 33 16 43 43 23 63 -17 18 -15 18 -46 0z m26 -39
c-9 -15 -21 -26 -26 -26 -13 0 -13 6 6 42 11 21 19 27 26 20 8 -8 6 -18 -6
-36z"/>
<path d="M708 5053 c6 -2 18 -2 25 0 6 3 1 5 -13 5 -14 0 -19 -2 -12 -5z"/>
<path d="M585 5033 c-38 -8 -77 -15 -85 -15 -8 -1 -24 -7 -35 -15 -19 -12 -18
-13 10 -7 17 3 73 16 125 29 105 26 95 32 -15 8z"/>
<path d="M891 5034 c0 -11 3 -14 6 -6 3 7 2 16 -1 19 -3 4 -6 -2 -5 -13z"/>
<path d="M418 5003 c7 -3 16 -2 19 1 4 3 -2 6 -13 5 -11 0 -14 -3 -6 -6z"/>
<path d="M3609 4984 l-24 -27 28 18 c15 9 27 21 27 26 0 14 -5 11 -31 -17z"/>
<path d="M4301 5001 c-23 -15 3 -20 29 -5 22 12 23 13 5 13 -11 1 -26 -3 -34
-8z"/>
<path d="M3450 4959 c-14 -11 -35 -29 -47 -39 -12 -10 -30 -16 -40 -14 -20 6
-126 -74 -137 -102 -8 -21 1 -34 22 -34 33 0 262 176 262 201 0 16 -34 9 -60
-12z"/>
<path d="M4265 4911 c-49 -38 -90 -73 -90 -77 0 -4 10 -9 22 -10 16 -3 45 16
103 67 69 61 89 89 62 89 -4 0 -47 -31 -97 -69z"/>
<path d="M816 4914 c-3 -9 -6 -45 -6 -80 0 -50 3 -64 15 -64 12 0 15 15 15 74
0 72 -11 104 -24 70z"/>
<path d="M246 4901 c-3 -5 3 -11 15 -14 16 -4 18 -3 8 9 -13 16 -16 17 -23 5z"/>
<path d="M852 4875 c0 -16 2 -22 5 -12 2 9 2 23 0 30 -3 6 -5 -1 -5 -18z"/>
<path d="M237 4860 c3 -11 23 -39 45 -63 22 -23 37 -36 33 -29 -4 7 0 12 9 12
27 0 18 16 -30 59 -52 46 -65 50 -57 21z"/>
<path d="M865 4819 c-4 -26 -3 -45 4 -52 8 -8 11 3 11 41 0 63 -6 67 -15 11z"/>
<path d="M738 4814 c-21 -19 -32 -34 -25 -34 14 0 73 57 66 64 -2 2 -21 -11
-41 -30z"/>
<path d="M350 4812 c0 -4 9 -8 19 -8 11 0 17 4 15 8 -3 4 -12 8 -20 8 -8 0
-14 -4 -14 -8z"/>
<path d="M769 4804 c-10 -13 -10 -17 2 -25 22 -13 29 -11 29 10 0 27 -15 34
-31 15z"/>
<path d="M400 4806 c0 -2 11 -6 25 -8 13 -3 22 -1 19 3 -5 9 -44 13 -44 5z"/>
<path d="M4129 4760 c-9 -5 -20 -20 -23 -32 -3 -13 -21 -32 -39 -43 -29 -18
-33 -27 -28 -66 1 -15 80 56 109 98 30 43 20 66 -19 43z"/>
<path d="M369 4747 c7 -9 10 -17 5 -17 -5 0 12 -14 38 -30 25 -16 53 -39 62
-52 25 -36 18 -8 -14 52 -22 41 -29 49 -30 32 l0 -23 -37 28 c-21 15 -32 20
-24 10z"/>
<path d="M3995 4675 c-57 -62 -165 -210 -165 -227 0 -17 17 -5 85 59 39 36 64
62 56 58 -11 -6 -13 -4 -8 11 7 20 -16 -3 -82 -81 -18 -22 -30 -33 -26 -25 25
46 78 113 142 181 41 43 70 80 66 82 -5 3 -35 -23 -68 -58z"/>
<path d="M3265 4709 c-4 -6 -5 -11 -4 -12 36 -20 159 -76 159 -73 0 3 -24 18
-54 35 -29 17 -59 38 -66 46 -15 18 -26 19 -35 4z"/>
<path d="M3126 4697 c-16 -12 -16 -14 -2 -14 9 0 16 4 16 8 0 4 9 7 20 6 11
-1 20 -4 20 -7 0 -4 -24 -30 -54 -58 -46 -44 -55 -49 -62 -34 -4 9 -6 22 -5
27 4 24 -49 -52 -55 -78 -10 -46 13 -59 40 -22 11 16 50 60 85 97 34 37 60 71
56 77 -9 15 -37 14 -59 -2z"/>
<path d="M3364 4701 c3 -5 15 -7 26 -4 28 7 25 13 -6 13 -14 0 -23 -4 -20 -9z"/>
<path d="M665 4675 c142 -26 205 -30 205 -15 0 6 -8 10 -17 10 -10 0 -79 7
-153 15 -182 20 -190 17 -35 -10z"/>
<path d="M553 4662 c11 -10 20 -11 32 -4 15 8 13 10 -14 14 -28 4 -30 3 -18
-10z"/>
<path d="M622 4648 c4 -13 39 -19 186 -34 40 -4 70 -9 67 -12 -3 -3 -33 -7
-68 -10 -69 -4 -197 -30 -157 -31 14 0 45 4 69 10 25 5 76 10 114 11 62 1 70
4 80 25 5 13 7 26 2 31 -4 4 -10 1 -12 -5 -7 -19 -73 -16 -183 7 -52 11 -96
20 -98 20 -2 0 -2 -6 0 -12z"/>
<path d="M3994 4628 l-19 -23 23 19 c12 11 22 21 22 23 0 8 -8 2 -26 -19z"/>
<path d="M1115 4625 c22 -8 47 -14 55 -14 21 1 -51 27 -75 28 -11 0 -2 -6 20
-14z"/>
<path d="M1046 4615 c-23 -17 -21 -20 19 -29 28 -7 28 -6 11 7 -10 8 -16 19
-12 25 9 15 5 15 -18 -3z"/>
<path d="M926 4595 c-9 -14 -27 -27 -41 -31 -14 -3 -25 -12 -25 -19 0 -8 -29
-38 -64 -67 -36 -29 -63 -54 -61 -56 2 -3 17 6 33 19 132 109 182 154 182 165
0 20 -6 17 -24 -11z"/>
<path d="M1173 4593 c-10 -10 -13 -14 -6 -10 6 5 16 6 21 3 5 -3 9 1 9 9 0 19
-1 19 -24 -2z"/>
<path d="M3550 4555 c47 -24 90 -44 95 -44 6 0 -28 20 -75 44 -47 24 -89 44
-95 44 -5 0 28 -20 75 -44z"/>
<path d="M1015 4570 c-3 -6 1 -7 9 -4 18 7 21 14 7 14 -6 0 -13 -4 -16 -10z"/>
<path d="M945 4537 c-12 -9 -14 -16 -7 -21 6 -3 16 3 22 14 13 24 10 25 -15 7z"/>
<path d="M660 4533 c-18 -7 -72 -62 -96 -98 -31 -47 -27 -17 5 40 17 30 27 55
22 55 -21 0 -79 -124 -62 -134 4 -3 41 29 81 69 41 41 72 75 70 74 -3 0 -12
-3 -20 -6z"/>
<path d="M1288 4483 c7 -3 16 -2 19 1 4 3 -2 6 -13 5 -11 0 -14 -3 -6 -6z"/>
<path d="M465 4440 c4 -12 2 -20 -5 -20 -7 0 -10 -6 -7 -14 3 -8 1 -17 -6 -20
-8 -3 -9 -7 -2 -13 16 -13 16 -33 1 -33 -14 0 -26 -49 -26 -112 0 -33 3 -38
24 -38 36 0 52 25 39 61 -6 16 -7 27 -2 23 5 -3 9 9 9 26 0 19 -4 29 -10 25
-6 -4 -8 -11 -5 -16 4 -5 1 -9 -6 -9 -8 0 -9 10 -4 33 19 83 22 127 8 127 -10
0 -12 -7 -8 -20z"/>
<path d="M2996 4441 c-9 -10 -16 -22 -16 -27 0 -4 7 2 16 14 12 18 19 21 30
11 7 -6 11 -15 8 -20 -3 -5 -1 -9 5 -9 5 0 9 9 8 19 -2 26 -32 33 -51 12z"/>
<path d="M3778 4395 c-5 -22 -3 -24 11 -13 9 7 17 13 19 14 1 1 -4 6 -12 13
-11 9 -15 7 -18 -14z"/>
<path d="M1460 4406 c0 -2 8 -10 18 -17 15 -13 16 -12 3 4 -13 16 -21 21 -21
13z"/>
<path d="M679 4383 c-13 -16 -12 -17 4 -4 9 7 17 15 17 17 0 8 -8 3 -21 -13z"/>
<path d="M3825 4375 c-16 -7 -24 -14 -17 -14 16 -1 -29 -57 -123 -155 -36 -38
-64 -70 -63 -72 2 -2 62 55 133 126 124 124 137 146 70 115z"/>
<path d="M1601 4371 c0 -8 -8 -23 -18 -33 -9 -10 -11 -18 -6 -18 17 0 35 28
30 47 -3 11 -5 12 -6 4z"/>
<path d="M842 4340 c-12 -10 -18 -21 -13 -24 5 -3 16 5 25 19 20 30 18 30 -12
5z"/>
<path d="M3677 4258 c-104 -116 -127 -144 -120 -151 3 -3 44 41 90 98 47 57
90 103 95 102 6 -1 12 6 13 16 2 9 2 17 0 17 -2 0 -37 -37 -78 -82z"/>
<path d="M1657 4313 c-10 -10 -8 -41 3 -48 5 -3 8 0 5 7 -3 7 7 21 22 30 l28
17 -26 1 c-14 0 -29 -3 -32 -7z"/>
<path d="M3843 4242 c2 -34 8 -67 13 -72 14 -14 8 78 -6 111 -8 19 -10 12 -7
-39z"/>
<path d="M3807 4273 c-4 -3 -7 -11 -7 -17 0 -6 5 -5 12 2 6 6 9 14 7 17 -3 3
-9 2 -12 -2z"/>
<path d="M525 4240 c-3 -5 -1 -10 4 -10 6 0 11 5 11 10 0 6 -2 10 -4 10 -3 0
-8 -4 -11 -10z"/>
<path d="M2957 4239 c7 -7 15 -10 18 -7 3 3 -2 9 -12 12 -14 6 -15 5 -6 -5z"/>
<path d="M3800 4225 c0 -8 5 -15 10 -15 6 0 10 7 10 15 0 8 -4 15 -10 15 -5 0
-10 -7 -10 -15z"/>
<path d="M1870 4182 c0 -6 -8 -13 -17 -16 -10 -2 -4 -4 12 -3 17 1 29 6 28 12
-2 13 -23 19 -23 7z"/>
<path d="M2966 4181 c-19 -31 21 -151 50 -151 8 0 12 -4 9 -10 -3 -5 -1 -10 4
-10 19 0 12 30 -6 31 -11 0 -13 3 -5 6 6 2 12 9 12 14 0 6 -4 8 -9 5 -4 -3
-13 6 -20 20 -14 31 -14 47 -1 39 6 -4 10 5 10 19 0 14 -6 26 -12 26 -9 0 -8
4 2 10 12 8 11 10 -7 10 -12 0 -24 -4 -27 -9z"/>
<path d="M473 4143 c-15 -6 -17 -39 -4 -48 6 -3 15 4 21 15 8 14 18 19 28 16
13 -5 12 -2 -2 9 -21 16 -24 16 -43 8z"/>
<path d="M3891 4121 c22 -30 39 -40 39 -23 0 5 -14 19 -31 31 l-31 23 23 -31z"/>
<path d="M1838 4099 c-24 -13 -23 -29 1 -29 21 0 45 23 34 33 -8 9 -15 8 -35
-4z"/>
<path d="M1900 4067 c0 -10 17 -35 38 -55 20 -21 25 -24 10 -7 -15 16 -26 32
-26 35 1 3 -3 14 -10 25 -10 18 -11 18 -12 2z"/>
<path d="M3475 4070 c4 -6 11 -8 16 -5 14 9 11 15 -7 15 -8 0 -12 -5 -9 -10z"/>
<path d="M3591 4060 c-6 -3 60 -14 146 -24 97 -11 173 -25 196 -36 21 -10 33
-12 27 -5 -5 6 -8 14 -5 17 3 3 -56 13 -132 23 -76 9 -157 21 -180 25 -23 4
-46 4 -52 0z"/>
<path d="M3903 4055 c0 -8 9 -15 21 -15 12 0 32 -3 45 -7 17 -4 22 -3 17 5 -4
7 -20 12 -35 12 -15 0 -32 5 -37 10 -7 7 -11 6 -11 -5z"/>
<path d="M2000 4046 c0 -2 8 -10 18 -17 15 -13 16 -12 3 4 -13 16 -21 21 -21
13z"/>
<path d="M3987 3998 c4 -7 8 -16 8 -20 0 -19 20 -11 23 10 3 17 -2 22 -18 22
-14 0 -19 -4 -13 -12z"/>
<path d="M3063 3973 c-18 -7 -16 -27 5 -50 9 -10 14 -14 9 -7 -4 6 0 17 8 24
13 11 21 8 48 -16 l32 -29 -30 33 c-35 39 -55 51 -72 45z"/>
<path d="M4025 3940 c-6 -10 1 -14 19 -11 5 1 23 -11 40 -26 28 -25 28 -24 -3
10 -37 39 -46 43 -56 27z"/>
<path d="M666 3923 c-12 -12 -6 -22 30 -44 33 -20 39 -21 77 -9 l42 13 -30 8
c-16 5 -34 8 -39 8 -5 0 -12 3 -15 9 -8 12 -56 23 -65 15z"/>
<path d="M760 3920 c19 -13 30 -13 30 0 0 6 -10 10 -22 10 -19 0 -20 -2 -8
-10z"/>
<path d="M2010 3926 c0 -2 8 -10 18 -17 15 -13 16 -12 3 4 -13 16 -21 21 -21
13z"/>
<path d="M2064 3905 c-18 -15 -18 -15 5 -13 14 2 26 9 29 16 5 17 -10 15 -34
-3z"/>
<path d="M4061 3855 c20 -22 46 -51 57 -64 12 -14 22 -20 22 -15 0 15 -19 36
-70 80 l-45 38 36 -39z"/>
<path d="M4135 3815 c14 -32 28 -73 31 -90 3 -16 9 -46 14 -65 8 -30 9 -26 6
26 -4 61 -29 130 -60 169 -10 13 -7 -2 9 -40z"/>
<path d="M976 3841 c-17 -6 -17 -8 -4 -14 10 -3 19 0 22 9 3 8 4 14 3 13 -1 0
-11 -4 -21 -8z"/>
<path d="M3147 3839 c7 -7 15 -10 18 -7 3 3 -2 9 -12 12 -14 6 -15 5 -6 -5z"/>
<path d="M821 3831 c-18 -12 85 -44 126 -39 l28 3 -26 17 c-30 21 -108 33
-128 19z"/>
<path d="M2051 3836 c11 -9 69 -15 64 -6 -3 6 -20 10 -37 10 -17 0 -29 -2 -27
-4z"/>
<path d="M2105 3778 c-4 -18 -7 -37 -6 -41 1 -5 -3 -6 -9 -2 -6 4 -10 -6 -10
-24 0 -37 17 -49 38 -27 11 10 12 16 4 16 -7 0 -12 -4 -12 -10 0 -5 -6 -10
-12 -10 -7 1 0 11 15 24 25 20 27 27 21 64 -8 50 -19 54 -29 10z"/>
<path d="M3253 3803 c9 -2 23 -2 30 0 6 3 -1 5 -18 5 -16 0 -22 -2 -12 -5z"/>
<path d="M3220 3784 c0 -7 9 -18 20 -24 17 -9 20 -8 20 8 0 11 -9 22 -20 25
-13 3 -20 0 -20 -9z"/>
<path d="M1458 3783 c12 -2 30 -2 40 0 9 3 -1 5 -23 4 -22 0 -30 -2 -17 -4z"/>
<path d="M930 3750 c0 -5 8 -14 18 -19 14 -7 18 -6 18 10 0 12 -7 19 -18 19
-10 0 -18 -4 -18 -10z"/>
<path d="M997 3744 c3 -9 0 -20 -8 -25 -8 -5 -9 -9 -4 -9 21 0 38 19 32 34 -4
9 -11 16 -16 16 -6 0 -8 -7 -4 -16z"/>
<path d="M4142 3740 c0 -14 2 -19 5 -12 2 6 2 18 0 25 -3 6 -5 1 -5 -13z"/>
<path d="M3312 3727 c-6 -7 -8 -18 -4 -24 5 -7 11 -3 19 13 12 26 3 33 -15 11z"/>
<path d="M3380 3682 c0 -6 -8 -13 -17 -15 -16 -4 -16 -5 -1 -6 18 -1 34 16 24
26 -3 4 -6 1 -6 -5z"/>
<path d="M4150 3676 c0 -9 5 -16 10 -16 6 0 10 4 10 9 0 6 -4 13 -10 16 -5 3
-10 -1 -10 -9z"/>
<path d="M1130 3677 c0 -8 115 -67 130 -67 19 0 10 18 -12 23 -12 4 -20 8 -17
11 5 5 133 -18 162 -29 9 -4 17 -3 17 2 0 5 -42 19 -92 31 -106 25 -188 38
-188 29z"/>
<path d="M3690 3648 c-41 -12 -78 -25 -81 -31 -4 -5 -12 -6 -18 -3 -6 4 -11 4
-10 -1 4 -20 -2 -24 -18 -12 -12 10 -17 11 -20 2 -2 -7 -11 -9 -19 -6 -8 3
-14 3 -14 -1 0 -9 61 -38 68 -32 3 3 2 6 -3 6 -27 0 57 44 131 69 103 34 93
39 -16 9z"/>
<path d="M1031 3648 c1 -23 137 -131 156 -124 19 7 21 5 -67 72 -84 64 -90 68
-89 52z"/>
<path d="M5096 3641 c-4 -5 -2 -12 3 -15 5 -4 12 -2 15 3 4 5 2 12 -3 15 -5 4
-12 2 -15 -3z"/>
<path d="M1130 3626 c37 -34 153 -106 173 -106 17 0 19 2 7 9 -8 6 -18 7 -22
5 -4 -3 -8 0 -8 6 0 6 -5 8 -10 5 -6 -3 -13 1 -16 9 -3 9 -10 14 -14 11 -5 -3
-12 0 -17 7 -9 14 -88 68 -100 68 -4 0 -1 -6 7 -14z"/>
<path d="M4131 3614 c0 -11 3 -14 6 -6 3 7 2 16 -1 19 -3 4 -6 -2 -5 -13z"/>
<path d="M5070 3626 c0 -2 8 -10 18 -17 15 -13 16 -12 3 4 -13 16 -21 21 -21
13z"/>
<path d="M1430 3613 c0 -8 164 -49 166 -42 0 2 7 -1 15 -8 8 -6 20 -8 27 -4 7
4 -30 17 -86 30 -53 13 -103 26 -109 28 -7 3 -13 1 -13 -4z"/>
<path d="M4080 3610 c-8 -5 -12 -12 -9 -15 4 -3 12 1 19 10 14 17 11 19 -10 5z"/>
<path d="M2088 3603 c7 -3 16 -2 19 1 4 3 -2 6 -13 5 -11 0 -14 -3 -6 -6z"/>
<path d="M4156 3594 c-12 -8 -14 -14 -7 -14 8 0 11 -6 7 -15 -3 -8 -2 -15 3
-15 8 0 25 49 19 55 -2 2 -12 -3 -22 -11z"/>
<path d="M3612 3578 c-17 -17 -15 -33 5 -49 15 -13 15 -12 3 8 -11 18 -12 24
-1 37 16 19 10 21 -7 4z"/>
<path d="M3490 3571 c0 -11 136 -101 152 -101 18 0 -58 66 -104 90 -41 22 -48
24 -48 11z"/>
<path d="M4113 3549 c1 -12 -4 -24 -12 -27 -9 -3 -11 0 -6 8 6 9 4 11 -4 5 -9
-5 -9 -11 -3 -17 7 -7 7 -19 2 -33 -8 -20 -6 -22 12 -17 16 4 19 2 13 -8 -5
-8 -4 -11 2 -7 12 8 24 83 16 103 -8 22 -23 16 -20 -7z"/>
<path d="M3793 3509 c-78 -37 -103 -59 -68 -59 12 0 159 81 174 96 15 14 -36
-4 -106 -37z"/>
<path d="M5044 3539 c-4 -7 -3 -9 4 -5 5 3 13 0 15 -6 4 -9 6 -10 6 -1 1 17
-16 25 -25 12z"/>
<path d="M5019 3527 c0 -1 -2 -10 -4 -19 -3 -15 0 -16 16 -8 10 6 19 12 19 14
0 4 -30 17 -31 13z"/>
<path d="M4005 3484 c-22 -20 -34 -33 -26 -28 11 5 13 3 8 -9 -10 -27 -3 -20
32 28 18 25 31 45 29 45 -2 -1 -21 -17 -43 -36z"/>
<path d="M5105 3500 c-4 -6 -10 -8 -14 -6 -4 3 -8 -1 -8 -8 0 -17 23 -10 31
10 6 16 0 19 -9 4z"/>
<path d="M1210 3492 c0 -4 17 -23 37 -42 20 -19 61 -68 90 -107 30 -40 56 -73
59 -73 6 0 -34 78 -58 112 -10 15 -17 32 -16 39 2 7 -3 13 -10 14 -7 0 -16 5
-20 10 -8 13 -67 55 -76 55 -3 0 -6 -4 -6 -8z"/>
<path d="M4166 3469 c-10 -49 -6 -57 9 -19 17 43 17 50 6 50 -5 0 -11 -14 -15
-31z"/>
<path d="M2100 3470 c-6 -11 -8 -20 -6 -20 3 0 10 9 16 20 6 11 8 20 6 20 -3
0 -10 -9 -16 -20z"/>
<path d="M4046 3472 c-3 -5 1 -9 9 -9 8 0 12 4 9 9 -3 4 -7 8 -9 8 -2 0 -6 -4
-9 -8z"/>
<path d="M5045 3460 c-3 -6 1 -7 9 -4 18 7 21 14 7 14 -6 0 -13 -4 -16 -10z"/>
<path d="M5112 3450 c0 -14 2 -19 5 -12 2 6 2 18 0 25 -3 6 -5 1 -5 -13z"/>
<path d="M2010 3433 c0 -12 28 -38 34 -32 2 2 -5 13 -15 23 -11 11 -19 15 -19
9z"/>
<path d="M1348 3405 c5 -11 20 -29 33 -40 22 -20 22 -20 11 0 -5 11 -20 29
-33 40 -22 20 -22 20 -11 0z"/>
<path d="M3746 3393 c-13 -13 -5 -40 17 -60 37 -33 95 -64 101 -54 3 5 -14 21
-39 35 -44 27 -61 53 -27 43 9 -2 24 -6 32 -8 8 -2 18 -8 22 -14 5 -6 8 -5 8
2 0 19 -102 68 -114 56z"/>
<path d="M3824 3388 c10 -6 22 -6 26 -2 5 5 -3 10 -18 11 -22 1 -24 0 -8 -9z"/>
<path d="M3979 3378 c-8 -7 -23 -24 -34 -38 -12 -16 -6 -12 18 9 20 19 37 36
37 38 0 6 -6 3 -21 -9z"/>
<path d="M1418 3349 c6 -9 9 -19 6 -22 -4 -3 3 -18 15 -33 11 -15 21 -22 21
-16 0 29 76 -20 174 -112 58 -56 70 -63 80 -48 7 12 -234 188 -252 184 -8 -2
-11 1 -8 6 3 5 -7 20 -22 33 -14 13 -21 17 -14 8z"/>
<path d="M4120 3345 c0 -22 -28 -75 -53 -103 -14 -15 -17 -26 -11 -32 11 -11
57 42 60 70 1 8 5 30 9 48 4 17 5 32 1 32 -3 0 -6 -7 -6 -15z"/>
<path d="M3890 3322 c0 -4 9 -13 20 -20 19 -12 20 -11 8 8 -13 20 -28 27 -28
12z"/>
<path d="M3954 3319 c-8 -14 14 -19 25 -6 8 10 7 14 -5 14 -8 0 -17 -4 -20 -8z"/>
<path d="M4571 3304 c0 -11 3 -14 6 -6 3 7 2 16 -1 19 -3 4 -6 -2 -5 -13z"/>
<path d="M5112 3300 c0 -14 2 -19 5 -12 2 6 2 18 0 25 -3 6 -5 1 -5 -13z"/>
<path d="M1967 3303 c-5 -4 -13 -9 -18 -9 -5 -1 -13 -2 -19 -3 -5 0 -7 -8 -4
-16 5 -13 9 -13 23 -3 14 12 15 11 2 -5 -12 -15 -16 -16 -30 -3 -22 20 -51 3
-51 -32 -1 -20 -12 -35 -47 -61 -26 -19 -41 -37 -35 -39 30 -10 197 132 191
162 -2 10 -8 14 -12 9z"/>
<path d="M4600 3273 c0 -16 -5 -35 -10 -43 -8 -12 -10 -11 -10 8 0 12 -4 22
-10 22 -5 0 -10 -17 -10 -37 l1 -38 24 28 c22 24 36 87 20 87 -3 0 -5 -12 -5
-27z"/>
<path d="M4682 3278 c-28 -20 -50 -54 -40 -63 1 -2 25 17 51 41 51 46 44 60
-11 22z"/>
<path d="M4120 3245 c-24 -24 -41 -47 -37 -51 6 -6 43 32 75 78 21 30 9 21
-38 -27z"/>
<path d="M4725 3256 c-18 -13 -18 -14 8 -9 15 3 24 9 21 14 -7 12 -7 12 -29
-5z"/>
<path d="M1442 3198 c11 -29 28 -72 37 -95 9 -24 19 -43 23 -43 8 0 -30 108
-56 159 -26 49 -28 36 -4 -21z"/>
<path d="M3945 3241 c6 -11 4 -13 -8 -8 -23 9 -21 0 2 -13 15 -7 19 -7 17 5
-1 8 -6 18 -11 22 -4 5 -5 2 0 -6z"/>
<path d="M3973 3217 c1 -10 6 -17 11 -17 5 1 12 -2 15 -7 10 -15 113 -85 117
-80 6 6 -82 77 -95 77 -6 0 -11 5 -11 10 0 6 -6 10 -14 10 -8 0 -17 6 -20 13
-3 6 -5 4 -3 -6z"/>
<path d="M3913 3203 c4 -3 1 -13 -6 -22 -10 -14 -10 -14 4 -4 9 7 20 9 25 5 4
-4 2 1 -5 11 -7 9 -16 17 -19 17 -3 0 -2 -3 1 -7z"/>
<path d="M4675 3200 c-3 -5 3 -10 15 -10 12 0 18 5 15 10 -3 6 -10 10 -15 10
-5 0 -12 -4 -15 -10z"/>
<path d="M4574 3167 c-3 -9 -4 -24 -2 -34 3 -16 5 -15 17 6 9 16 10 26 2 34
-7 7 -12 6 -17 -6z"/>
<path d="M3912 3147 c-12 -13 -22 -26 -22 -30 0 -16 18 -5 38 23 27 35 15 40
-16 7z"/>
<path d="M5113 3135 c0 -22 2 -30 4 -17 2 12 2 30 0 40 -3 9 -5 -1 -4 -23z"/>
<path d="M3918 3104 c-32 -31 -58 -58 -58 -60 0 -12 89 64 93 80 3 10 10 16
15 12 5 -3 9 1 9 9 0 8 -1 15 -1 15 -1 0 -27 -25 -58 -56z"/>
<path d="M4590 3091 c0 -21 54 -124 58 -111 6 16 -26 96 -44 110 -11 10 -14
10 -14 1z"/>
<path d="M3845 3064 c-9 -15 -12 -23 -6 -20 11 7 35 46 28 46 -3 0 -12 -12
-22 -26z"/>
<path d="M3936 3082 c-3 -5 1 -9 9 -9 8 0 12 4 9 9 -3 4 -7 8 -9 8 -2 0 -6 -4
-9 -8z"/>
<path d="M4681 3076 c19 -11 34 -13 55 -6 l29 8 -30 1 c-16 1 -41 4 -55 7
l-25 5 26 -15z"/>
<path d="M1695 3070 c4 -6 11 -8 16 -5 14 9 11 15 -7 15 -8 0 -12 -5 -9 -10z"/>
<path d="M4571 3072 c-1 -14 37 -92 44 -92 3 0 -3 17 -13 38 -11 20 -22 44
-25 52 -4 10 -6 11 -6 2z"/>
<path d="M1628 3025 c-31 -30 -41 -45 -30 -45 27 1 104 39 98 49 -3 5 2 8 11
7 9 0 18 5 21 13 6 18 -39 4 -55 -18 -10 -13 -11 -14 -10 -1 2 8 6 21 10 28
13 20 4 14 -45 -33z"/>
<path d="M3899 3053 c-13 -16 -12 -17 4 -4 16 13 21 21 13 21 -2 0 -10 -8 -17
-17z"/>
<path d="M13 3000 c0 -36 2 -50 4 -32 2 17 2 47 0 65 -2 17 -4 3 -4 -33z"/>
<path d="M4670 3042 c0 -13 58 -98 78 -113 16 -13 16 -12 2 6 -31 41 -39 62
-28 73 7 7 1 15 -21 26 -17 9 -31 13 -31 8z"/>
<path d="M1445 3006 c-11 -11 -36 -34 -55 -49 l-35 -27 40 16 c50 20 70 38 72
64 1 11 1 20 0 19 -1 -1 -11 -11 -22 -23z"/>
<path d="M1480 3004 c0 -8 5 -12 10 -9 6 4 8 11 5 16 -9 14 -15 11 -15 -7z"/>
<path d="M3835 3000 c-4 -6 -10 -8 -15 -5 -5 3 -11 1 -14 -4 -8 -13 22 -7 36
7 7 7 9 12 6 12 -4 0 -10 -5 -13 -10z"/>
<path d="M4925 2985 c28 -12 54 -20 59 -17 9 5 -81 43 -99 41 -5 0 13 -11 40
-24z"/>
<path d="M1517 2979 c-9 -6 -22 -7 -27 -4 -6 3 -12 0 -15 -7 -3 -8 -15 -14
-26 -15 -27 -2 -35 -11 -23 -22 13 -13 125 31 116 46 -5 8 -13 8 -25 2z"/>
<path d="M4810 2955 c19 -19 36 -35 39 -35 3 0 -10 16 -29 35 -19 19 -36 35
-39 35 -3 0 10 -16 29 -35z"/>
<path d="M4155 2964 c-18 -13 -18 -14 8 -14 15 0 27 4 27 9 0 17 -15 19 -35 5z"/>
<path d="M4682 2940 c37 -47 105 -147 110 -160 2 -6 11 -8 21 -4 17 6 16 9
-10 33 -16 14 -47 51 -69 81 -23 30 -50 62 -60 70 -11 9 -8 1 8 -20z"/>
<path d="M4997 2963 c-4 -6 0 -13 8 -17 8 -3 17 0 21 6 4 6 3 8 -4 4 -5 -3
-12 -1 -14 6 -3 8 -6 9 -11 1z"/>
<path d="M3779 2934 c-12 -14 -11 -16 5 -13 11 2 21 10 24 17 5 17 -13 15 -29
-4z"/>
<path d="M1343 2915 c-34 -13 -65 -20 -69 -17 -4 4 -3 1 1 -7 6 -11 4 -13 -8
-8 -9 3 -17 3 -19 -1 -2 -4 -21 -17 -43 -29 -22 -12 -41 -26 -43 -32 -5 -14
110 29 123 46 6 7 22 14 38 15 15 1 27 6 27 11 0 4 5 5 10 2 6 -3 10 -1 10 5
0 6 5 8 10 5 6 -3 10 -1 10 5 0 6 4 9 8 6 5 -3 9 1 9 9 0 8 -1 15 -1 15 -1 -1
-29 -12 -63 -25z"/>
<path d="M4148 2923 c7 -3 16 -2 19 1 4 3 -2 6 -13 5 -11 0 -14 -3 -6 -6z"/>
<path d="M4205 2911 c-6 -11 9 -23 19 -14 9 9 7 23 -3 23 -6 0 -12 -4 -16 -9z"/>
<path d="M1603 2902 c-8 -5 -8 -15 2 -37 l13 -30 1 38 c1 40 1 40 -16 29z"/>
<path d="M1632 2880 c0 -14 2 -19 5 -12 2 6 2 18 0 25 -3 6 -5 1 -5 -13z"/>
<path d="M4125 2890 c-7 -12 2 -12 30 0 19 8 19 9 -2 9 -12 1 -25 -3 -28 -9z"/>
<path d="M13 2803 c1 -50 5 -86 9 -80 10 16 9 127 -2 152 -5 12 -8 -14 -7 -72z"/>
<path d="M1458 2861 c-54 -14 -98 -30 -98 -34 0 -5 7 -6 16 -3 35 14 177 47
181 42 2 -2 8 -44 12 -93 7 -81 8 -85 14 -43 8 53 -3 152 -18 156 -5 1 -54
-10 -107 -25z"/>
<path d="M3756 2874 c-6 -16 2 -18 22 -5 11 7 11 9 -1 14 -9 3 -18 -1 -21 -9z"/>
<path d="M4890 2887 c0 -9 40 -35 44 -28 3 4 -6 13 -19 19 -14 7 -25 10 -25 9z"/>
<path d="M4790 2876 c0 -2 8 -10 18 -17 15 -13 16 -12 3 4 -13 16 -21 21 -21
13z"/>
<path d="M4213 2850 c-3 -11 -10 -17 -16 -13 -5 3 -7 1 -4 -4 11 -18 57 -3 57
18 0 25 -30 24 -37 -1z"/>
<path d="M4717 2800 c3 -36 6 -66 8 -68 1 -1 14 2 28 9 22 10 24 14 14 36 -8
18 -13 20 -20 11 -6 -9 -7 -6 -4 10 3 14 1 20 -6 15 -7 -4 -8 0 -4 11 4 9 3
14 -2 11 -5 -3 -12 3 -15 12 -3 10 -2 -11 1 -47z"/>
<path d="M1330 2819 c0 -5 5 -7 10 -4 6 3 10 8 10 11 0 2 -4 4 -10 4 -5 0 -10
-5 -10 -11z"/>
<path d="M3711 2812 c-14 -26 -7 -42 10 -25 6 6 9 19 7 29 -3 17 -5 17 -17 -4z"/>
<path d="M4870 2819 c0 -5 5 -7 10 -4 6 3 10 8 10 11 0 2 -4 4 -10 4 -5 0 -10
-5 -10 -11z"/>
<path d="M5091 2816 c-8 -9 -49 -38 -91 -64 -69 -43 -76 -50 -65 -65 11 -15
14 -15 18 -3 3 8 1 17 -6 20 -7 4 2 4 18 1 17 -3 51 -17 77 -30 l47 -24 -2 42
c-3 39 -5 42 -37 47 l-35 6 31 8 c38 9 67 38 62 62 -3 16 -4 16 -17 0z m-48
-97 c20 -5 37 -15 37 -21 0 -6 -8 -7 -17 -3 -10 3 -30 9 -46 12 -29 6 -48 23
-25 23 7 0 30 -5 51 -11z"/>
<path d="M1288 2813 c-10 -2 -18 -8 -18 -13 0 -10 38 -1 46 11 5 9 1 10 -28 2z"/>
<path d="M3740 2780 c0 -11 4 -20 8 -20 4 0 8 9 8 20 0 11 -4 20 -8 20 -4 0
-8 -9 -8 -20z"/>
<path d="M4209 2784 c-7 -9 -14 -23 -16 -33 -1 -11 4 -8 17 9 28 36 27 57 -1
24z"/>
<path d="M4671 2769 c-6 -18 -11 -41 -11 -51 0 -12 -4 -16 -12 -12 -7 4 -8 3
-4 -4 5 -9 13 -9 27 -2 14 8 19 21 19 55 0 25 -2 45 -4 45 -2 0 -9 -14 -15
-31z"/>
<path d="M1395 2770 c3 -6 20 -10 37 -10 38 0 34 5 -10 13 -21 4 -31 3 -27 -3z"/>
<path d="M1115 2760 c4 -6 11 -8 16 -5 14 9 11 15 -7 15 -8 0 -12 -5 -9 -10z"/>
<path d="M1073 2748 c-13 -6 -23 -15 -23 -20 0 -5 -4 -6 -10 -3 -5 3 -10 1
-10 -4 0 -15 16 -14 51 4 16 9 27 20 24 25 -4 6 -7 10 -8 9 -1 0 -12 -5 -24
-11z"/>
<path d="M1252 2751 c-11 -7 -11 -9 0 -14 9 -3 15 1 15 9 0 8 -1 14 -1 14 -1
0 -7 -4 -14 -9z"/>
<path d="M1486 2751 c-4 -5 3 -7 14 -4 23 6 26 13 6 13 -8 0 -17 -4 -20 -9z"/>
<path d="M1425 2730 c3 -5 8 -10 11 -10 2 0 4 5 4 10 0 6 -5 10 -11 10 -5 0
-7 -4 -4 -10z"/>
<path d="M1538 2694 c-5 -42 -1 -64 13 -64 11 0 11 71 0 89 -6 9 -10 1 -13
-25z"/>
<path d="M3771 2711 c7 -11 21 -22 31 -24 24 -7 23 -4 -13 22 -27 20 -29 21
-18 2z"/>
<path d="M4165 2720 c3 -5 8 -10 11 -10 2 0 4 5 4 10 0 6 -5 10 -11 10 -5 0
-7 -4 -4 -10z"/>
<path d="M5101 2704 c0 -11 3 -14 6 -6 3 7 2 16 -1 19 -3 4 -6 -2 -5 -13z"/>
<path d="M4107 2654 c-16 -19 -24 -34 -19 -34 14 0 64 57 55 63 -5 3 -21 -10
-36 -29z"/>
<path d="M1025 2660 c-13 -14 -21 -17 -26 -9 -4 8 -13 1 -23 -20 -9 -17 -13
-31 -9 -31 9 1 90 80 82 80 -3 0 -14 -9 -24 -20z"/>
<path d="M5102 2660 c0 -14 2 -19 5 -12 2 6 2 18 0 25 -3 6 -5 1 -5 -13z"/>
<path d="M1487 2649 c7 -7 15 -10 18 -7 3 3 -2 9 -12 12 -14 6 -15 5 -6 -5z"/>
<path d="M1034 2628 c2 -7 7 -13 12 -13 5 0 16 -4 24 -10 13 -8 13 -7 1 8 -7
9 -17 15 -21 12 -5 -3 -11 0 -13 5 -3 6 -4 5 -3 -2z"/>
<path d="M3900 2619 c0 -6 -4 -7 -10 -4 -5 3 -8 0 -5 -7 2 -7 -2 -22 -11 -33
-15 -20 -16 -20 -29 -1 -8 10 -13 22 -10 25 2 4 -5 7 -15 8 -17 2 -16 -2 7
-28 26 -29 53 -38 53 -19 0 6 11 22 24 35 18 18 21 25 10 29 -8 3 -14 1 -14
-5z"/>
<path d="M4752 2610 c-39 -24 -40 -30 -3 -30 21 0 30 6 34 22 8 30 6 30 -31 8z"/>
<path d="M1498 2613 c7 -3 16 -2 19 1 4 3 -2 6 -13 5 -11 0 -14 -3 -6 -6z"/>
<path d="M5062 2574 c-13 -48 -10 -66 9 -47 14 14 24 93 12 93 -5 0 -14 -21
-21 -46z"/>
<path d="M3970 2595 c14 -8 30 -14 35 -14 6 0 -1 6 -15 14 -14 8 -29 14 -35
14 -5 0 1 -6 15 -14z"/>
<path d="M1050 2596 c0 -2 8 -10 18 -17 15 -13 16 -12 3 4 -13 16 -21 21 -21
13z"/>
<path d="M1467 2561 c-10 -14 -10 -14 4 -4 9 7 18 10 21 7 3 -3 8 -1 12 4 9
16 -24 9 -37 -7z"/>
<path d="M5101 2564 c0 -11 3 -14 6 -6 3 7 2 16 -1 19 -3 4 -6 -2 -5 -13z"/>
<path d="M4621 2546 l-44 -23 45 -31 44 -30 -4 29 c-4 28 11 41 21 19 3 -6 4
-5 3 2 -3 13 -13 14 -56 3 -18 -4 -14 0 13 15 20 11 37 25 37 30 0 14 -10 12
-59 -14z"/>
<path d="M4950 2561 c0 -6 4 -13 10 -16 6 -3 7 1 4 9 -7 18 -14 21 -14 7z"/>
<path d="M984 2544 c3 -9 6 -20 6 -25 0 -6 4 -8 9 -5 12 8 2 46 -11 46 -6 0
-7 -7 -4 -16z"/>
<path d="M4000 2556 c0 -2 8 -10 18 -17 15 -13 16 -12 3 4 -13 16 -21 21 -21
13z"/>
<path d="M4763 2540 c22 -12 41 -19 45 -16 3 3 0 6 -7 6 -7 0 -9 5 -6 10 3 6
0 10 -7 10 -7 0 -24 3 -38 6 -18 4 -15 -1 13 -16z"/>
<path d="M1474 2522 c-11 -41 -11 -41 -13 -54 -2 -7 -6 -4 -11 7 l-9 20 -1
-20 c-2 -11 -2 -23 -2 -26 1 -3 -6 -6 -13 -6 -11 0 -12 4 -3 14 13 16 11 18
-22 27 -14 4 -20 4 -15 -1 6 -4 12 -21 14 -38 4 -42 8 -43 41 -9 33 33 64 100
51 108 -5 3 -12 -6 -17 -22z"/>
<path d="M934 2531 c4 -5 1 -11 -5 -13 -15 -5 -26 -158 -12 -158 6 0 13 33 15
73 3 39 9 80 13 90 4 10 3 17 -5 17 -6 0 -9 -4 -6 -9z"/>
<path d="M4717 2510 c4 -16 8 -18 20 -9 11 10 11 14 1 20 -21 14 -26 10 -21
-11z"/>
<path d="M5086 2477 c-4 -29 -2 -64 3 -77 8 -20 10 -9 10 53 1 42 -1 77 -3 77
-2 0 -7 -24 -10 -53z"/>
<path d="M3953 2509 c9 -6 26 -7 37 -4 15 5 18 3 14 -9 -4 -11 0 -16 15 -16
12 0 21 4 21 10 0 15 -36 30 -72 30 -27 -1 -30 -2 -15 -11z"/>
<path d="M4486 2484 c-35 -19 -45 -28 -36 -34 15 -9 110 34 110 50 0 16 -21
11 -74 -16z"/>
<path d="M5022 2460 c10 -40 21 -49 33 -30 10 15 -4 49 -25 60 -16 9 -17 7 -8
-30z"/>
<path d="M956 2474 c-3 -9 -6 -39 -6 -67 l0 -52 15 29 c8 15 15 33 14 40 0 6
-5 2 -10 -9 -6 -14 -7 -5 -3 28 6 47 2 61 -10 31z"/>
<path d="M1017 2483 c-4 -3 -7 -11 -7 -17 0 -6 5 -5 12 2 6 6 9 14 7 17 -3 3
-9 2 -12 -2z"/>
<path d="M4693 2463 c1 -14 8 -28 14 -30 10 -4 10 3 2 26 -13 38 -18 39 -16 4z"/>
<path d="M5111 2454 c0 -11 3 -14 6 -6 3 7 2 16 -1 19 -3 4 -6 -2 -5 -13z"/>
<path d="M4995 2430 c3 -5 8 -10 11 -10 2 0 4 5 4 10 0 6 -5 10 -11 10 -5 0
-7 -4 -4 -10z"/>
<path d="M4985 2393 c3 -10 10 -56 15 -102 5 -46 11 -86 14 -89 11 -10 26 52
26 109 0 46 -4 63 -20 79 -25 25 -45 26 -35 3z"/>
<path d="M4315 2365 c-33 -19 -53 -34 -45 -34 8 -1 40 15 70 34 71 45 53 45
-25 0z"/>
<path d="M1356 2375 c17 -13 17 -14 2 -15 -10 0 -18 -5 -18 -11 0 -6 -6 -9
-14 -6 -8 3 -19 0 -26 -7 -21 -26 19 -26 50 0 35 30 39 54 8 54 -21 0 -21 0
-2 -15z"/>
<path d="M1294 2358 l-19 -23 23 19 c21 18 27 26 19 26 -2 0 -12 -10 -23 -22z"/>
<path d="M1003 2335 c-10 -11 -7 -16 12 -29 21 -14 24 -14 19 -1 -4 8 -10 15
-15 15 -4 0 -6 7 -3 15 7 18 3 19 -13 0z"/>
<path d="M5101 2285 c-7 -33 -22 -86 -32 -119 -22 -67 -22 -66 -11 -66 7 0 46
64 48 79 0 3 4 13 8 22 4 9 6 45 4 80 l-3 64 -14 -60z"/>
<path d="M4160 2298 c-42 -29 -53 -54 -19 -43 52 16 87 16 117 1 48 -25 49
-19 7 24 -45 46 -60 48 -105 18z"/>
<path d="M1132 2295 c-7 -8 -9 -16 -5 -16 4 -1 18 -3 31 -4 21 -2 22 -1 6 16
-10 11 -18 19 -18 19 -1 -1 -7 -7 -14 -15z"/>
<path d="M1225 2289 c-46 -21 -40 -24 16 -7 22 6 39 15 39 20 0 11 -9 9 -55
-13z"/>
<path d="M4827 2285 c12 -17 40 -64 62 -105 38 -69 41 -73 41 -42 0 52 -23 94
-76 137 -46 38 -47 38 -27 10z"/>
<path d="M1078 2273 c7 -3 16 -2 19 1 4 3 -2 6 -13 5 -11 0 -14 -3 -6 -6z"/>
<path d="M4347 2209 c7 -7 15 -10 18 -7 3 3 -2 9 -12 12 -14 6 -15 5 -6 -5z"/>
<path d="M2210 2206 c0 -2 15 -6 34 -8 19 -2 32 0 30 4 -5 8 -64 12 -64 4z"/>
<path d="M4949 2205 c-8 -7 22 -115 32 -115 4 0 9 16 11 35 3 25 -2 42 -17 61
-11 14 -23 23 -26 19z"/>
<path d="M2178 2193 c7 -3 16 -2 19 1 4 3 -2 6 -13 5 -11 0 -14 -3 -6 -6z"/>
<path d="M2390 2181 c0 -11 4 -22 9 -25 4 -3 6 6 3 19 -5 30 -12 33 -12 6z"/>
<path d="M3929 2149 c-75 -58 -99 -84 -99 -110 0 -13 7 -19 24 -19 18 0 34 13
57 45 34 47 76 79 147 109 23 11 40 21 38 23 -2 2 -15 -2 -30 -8 -19 -9 -32
-9 -49 -2 -21 10 -32 5 -88 -38z"/>
<path d="M2110 2140 c-8 -5 -10 -10 -5 -10 6 0 17 5 25 10 8 5 11 10 5 10 -5
0 -17 -5 -25 -10z"/>
<path d="M2192 2113 c18 -21 44 -55 57 -76 13 -21 25 -36 28 -33 12 11 -89
146 -110 146 -5 0 6 -17 25 -37z"/>
<path d="M2458 2143 c7 -3 16 -2 19 1 4 3 -2 6 -13 5 -11 0 -14 -3 -6 -6z"/>
<path d="M2705 2140 c3 -5 11 -10 16 -10 6 0 7 5 4 10 -3 6 -11 10 -16 10 -6
0 -7 -4 -4 -10z"/>
<path d="M5111 2143 c0 -7 -17 -31 -37 -53 -48 -53 -39 -61 10 -11 25 25 36
45 33 57 -3 11 -5 13 -6 7z"/>
<path d="M2335 2119 c-4 -6 -4 -13 -1 -16 3 -4 6 -1 6 5 0 6 8 13 18 15 15 4
15 5 0 6 -9 0 -20 -4 -23 -10z"/>
<path d="M2679 2103 c-13 -17 -13 -17 6 -3 11 8 22 16 24 17 2 2 0 3 -6 3 -6
0 -17 -8 -24 -17z"/>
<path d="M2790 2110 c0 -5 12 -8 28 -8 15 1 38 -2 52 -6 22 -6 23 -5 6 5 -22
14 -86 21 -86 9z"/>
<path d="M4407 2067 c-3 -9 7 -24 24 -36 16 -12 29 -17 29 -12 0 5 -7 12 -16
15 -8 3 -13 10 -10 15 3 5 0 14 -8 20 -10 9 -15 8 -19 -2z"/>
<path d="M2668 1998 c-51 -103 -57 -138 -9 -49 22 41 45 79 51 85 5 5 10 16
10 23 0 30 -19 9 -52 -59z"/>
<path d="M2005 2011 c27 -28 51 -51 53 -51 13 0 -68 96 -84 98 -13 3 -4 -12
31 -47z"/>
<path d="M4887 2053 c-3 -5 1 -21 8 -38 l13 -30 1 32 c1 30 -12 52 -22 36z"/>
<path d="M3930 2018 c17 -18 80 -40 80 -29 0 6 -20 15 -85 40 -5 2 -3 -3 5
-11z"/>
<path d="M3056 1978 c10 -15 22 -28 27 -28 12 0 8 -28 -5 -33 -7 -3 1 -10 17
-16 17 -7 54 -35 84 -64 l54 -52 -32 46 c-17 25 -61 74 -98 110 -36 35 -57 52
-47 37z"/>
<path d="M3727 1958 c-52 -66 -79 -108 -69 -108 12 0 122 126 122 139 0 22
-19 10 -53 -31z"/>
<path d="M3855 1980 c-4 -6 -11 -7 -17 -4 -15 10 -128 -111 -128 -137 l0 -22
23 19 c12 11 52 46 90 78 37 32 67 62 67 67 0 12 -27 11 -35 -1z"/>
<path d="M4030 1980 c0 -6 7 -10 15 -10 8 0 15 2 15 4 0 2 -7 6 -15 10 -8 3
-15 1 -15 -4z"/>
<path d="M2913 1965 c0 -8 4 -12 9 -9 5 3 6 10 3 15 -9 13 -12 11 -12 -6z"/>
<path d="M2342 1945 c6 -14 18 -25 27 -24 11 0 12 2 3 6 -6 2 -10 9 -6 14 3 5
0 9 -6 9 -6 0 -8 5 -5 10 3 6 -1 10 -9 10 -13 0 -14 -4 -4 -25z"/>
<path d="M2870 1865 c-47 -47 -79 -85 -73 -85 6 0 45 34 87 75 72 72 99 87 56
32 -18 -23 -18 -25 -3 -23 10 2 25 15 33 29 13 24 13 28 0 42 -14 13 -24 6
-100 -70z"/>
<path d="M4520 1946 c0 -2 8 -10 18 -17 15 -13 16 -12 3 4 -13 16 -21 21 -21
13z"/>
<path d="M1635 1920 c-10 -11 -15 -20 -10 -20 4 0 2 -7 -5 -15 -7 -8 -10 -15
-7 -15 5 0 59 23 85 36 6 3 -11 34 -20 34 -5 0 -6 -4 -3 -10 3 -5 -1 -10 -10
-10 -9 0 -13 5 -10 10 10 17 -1 11 -20 -10z"/>
<path d="M4866 1923 c-6 -14 -5 -15 5 -6 7 7 10 15 7 18 -3 3 -9 -2 -12 -12z"/>
<path d="M2378 1881 c9 -16 18 -28 20 -27 5 6 -21 56 -29 56 -5 0 0 -13 9 -29z"/>
<path d="M4831 1874 c0 -11 3 -14 6 -6 3 7 2 16 -1 19 -3 4 -6 -2 -5 -13z"/>
<path d="M4566 1855 c9 -14 21 -25 27 -25 6 0 0 11 -13 25 -13 14 -25 25 -27
25 -2 0 4 -11 13 -25z"/>
<path d="M4635 1831 c27 -28 51 -51 52 -51 8 0 -19 37 -44 61 -52 49 -58 42
-8 -10z"/>
<path d="M4640 1867 c0 -2 15 -16 33 -33 l32 -29 -29 33 c-28 30 -36 37 -36
29z"/>
<path d="M1539 1843 c-13 -16 -12 -17 4 -4 9 7 17 15 17 17 0 8 -8 3 -21 -13z"/>
<path d="M1583 1845 c-3 -9 -3 -18 -1 -21 3 -3 8 4 11 16 6 23 -1 27 -10 5z"/>
<path d="M2894 1808 l-19 -23 23 19 c12 11 22 21 22 23 0 8 -8 2 -26 -19z"/>
<path d="M3090 1814 c0 -8 5 -12 10 -9 6 4 8 11 5 16 -9 14 -15 11 -15 -7z"/>
<path d="M1564 1788 l-19 -23 23 19 c21 18 27 26 19 26 -2 0 -12 -10 -23 -22z"/>
<path d="M4789 1793 c-13 -16 -12 -17 4 -4 9 7 17 15 17 17 0 8 -8 3 -21 -13z"/>
<path d="M3587 1768 c-46 -62 -49 -74 -36 -134 16 -73 34 -82 32 -16 -1 6 4
12 10 12 6 0 8 3 4 6 -3 4 1 13 9 21 8 9 13 22 10 30 -3 8 -2 12 2 9 9 -6 42
56 42 78 0 13 -20 26 -40 26 -5 0 -20 -15 -33 -32z"/>
<path d="M2185 1760 c10 -11 20 -20 23 -20 3 0 -3 9 -13 20 -10 11 -20 20 -23
20 -3 0 3 -9 13 -20z"/>
<path d="M3163 1740 c1 -20 8 -25 20 -14 7 8 -3 34 -13 34 -5 0 -8 -9 -7 -20z"/>
<path d="M1391 1695 c-24 -26 -39 -50 -35 -57 4 -6 7 -26 6 -45 -1 -20 3 -31
8 -28 6 3 10 22 10 42 0 30 8 44 44 79 34 32 41 44 30 48 -9 3 -17 6 -19 6 -1
0 -21 -20 -44 -45z"/>
<path d="M4722 1719 c-5 -13 -13 -39 -17 -58 -9 -44 10 -38 39 12 20 34 20 37
4 53 -16 17 -18 16 -26 -7z"/>
<path d="M2230 1713 c0 -5 13 -17 28 -27 l27 -19 -24 26 c-26 28 -31 32 -31
20z"/>
<path d="M3220 1716 c0 -3 29 -51 65 -106 88 -135 87 -131 29 -125 l-49 5 45
-13 c25 -8 54 -18 64 -22 16 -7 9 11 -28 81 -65 119 -126 207 -126 180z"/>
<path d="M2988 1678 c-21 -21 -21 -23 -4 -26 10 -2 23 1 30 8 8 8 6 10 -9 5
-20 -7 -20 -6 -1 9 11 9 17 18 14 22 -4 3 -17 -5 -30 -18z"/>
<path d="M3135 1680 l-40 -19 35 6 c49 7 60 11 60 23 0 14 -9 12 -55 -10z"/>
<path d="M2811 1654 c0 -11 3 -14 6 -6 3 7 2 16 -1 19 -3 4 -6 -2 -5 -13z"/>
<path d="M3224 1637 c-6 -16 -104 -19 -104 -4 0 5 -8 6 -17 2 -10 -4 -35 -7
-55 -6 -20 1 -39 -3 -43 -9 -5 -8 13 -11 57 -9 34 1 93 -2 131 -6 60 -7 67 -6
61 9 -3 9 -10 16 -16 16 -5 0 -6 5 -3 10 3 6 4 10 0 10 -3 0 -8 -6 -11 -13z"/>
<path d="M3390 1647 c0 -12 29 -77 34 -77 7 0 -13 63 -24 74 -5 5 -10 7 -10 3z"/>
<path d="M3498 1615 c-34 -85 -40 -122 -23 -154 23 -45 33 -46 50 -5 19 46 12
57 -10 15 -18 -36 -30 -41 -20 -8 9 28 13 55 14 87 1 20 3 22 11 10 8 -12 9
-10 9 10 -1 14 -4 39 -8 55 l-6 30 -17 -40z"/>
<path d="M2818 1618 c-32 -6 -58 -15 -58 -20 0 -6 8 -7 18 -3 9 4 54 10 100
13 45 2 82 8 82 13 0 11 -67 9 -142 -3z"/>
<path d="M2616 1595 c-26 -24 -26 -25 -6 -25 14 0 19 4 14 12 -5 8 -2 9 9 5
10 -3 17 -5 17 -3 0 3 3 11 6 20 9 24 -9 19 -40 -9z"/>
<path d="M1412 1590 c0 -14 2 -19 5 -12 2 6 2 18 0 25 -3 6 -5 1 -5 -13z"/>
<path d="M2715 1590 c-4 -6 -12 -7 -18 -4 -8 5 -9 4 -2 -4 12 -13 58 -4 49 9
-7 12 -21 11 -29 -1z"/>
<path d="M2888 1583 c7 -3 16 -2 19 1 4 3 -2 6 -13 5 -11 0 -14 -3 -6 -6z"/>
<path d="M2510 1565 c0 -8 5 -15 10 -15 6 0 10 7 10 15 0 8 -4 15 -10 15 -5 0
-10 -7 -10 -15z"/>
<path d="M3017 1573 c-10 -3 -16 -10 -14 -16 5 -15 67 -20 87 -7 30 20 -22 36
-73 23z"/>
<path d="M3136 1571 c5 -5 38 -14 74 -19 36 -6 73 -14 83 -18 17 -6 18 -5 6
14 -13 21 -55 32 -128 32 -27 0 -41 -4 -35 -9z"/>
<path d="M2613 1552 c-29 -8 -53 -18 -53 -23 0 -7 55 9 120 34 32 12 -15 5
-67 -11z"/>
<path d="M1324 1528 l-19 -23 23 19 c21 18 27 26 19 26 -2 0 -12 -10 -23 -22z"/>
<path d="M2880 1541 c-24 -4 -31 -9 -22 -15 16 -10 82 1 82 14 0 11 -6 11 -60
1z"/>
<path d="M2798 1513 c7 -3 16 -2 19 1 4 3 -2 6 -13 5 -11 0 -14 -3 -6 -6z"/>
<path d="M3606 1508 c73 -122 167 -233 187 -221 11 7 -62 83 -81 83 -7 0 -10
4 -7 10 5 8 -90 140 -102 140 -2 0 -1 -6 3 -12z"/>
<path d="M2535 1480 c10 -11 28 -20 39 -19 15 0 17 2 6 6 -8 3 -19 12 -23 19
-4 8 -15 14 -24 14 -14 0 -14 -2 2 -20z"/>
<path d="M3213 1493 c9 -2 25 -2 35 0 9 3 1 5 -18 5 -19 0 -27 -2 -17 -5z"/>
<path d="M3556 1457 c-32 -77 -36 -69 80 -185 59 -59 99 -97 89 -85 -9 12 -15
29 -12 38 4 8 3 14 -2 12 -10 -3 -115 94 -129 120 -9 15 -8 25 3 39 13 18 14
18 40 -6 27 -25 27 -24 -5 28 -17 28 -36 52 -41 52 -6 0 -7 5 -4 10 3 6 4 10
1 10 -3 0 -12 -15 -20 -33z"/>
<path d="M1241 1456 c-13 -14 -29 -22 -36 -20 -7 3 -16 0 -21 -7 -5 -8 -3 -10
7 -5 8 4 3 -1 -10 -12 -18 -14 -21 -21 -11 -27 9 -5 11 -4 6 3 -4 7 -2 12 3
12 6 0 11 -6 11 -12 0 -7 6 -4 12 7 6 11 24 35 41 53 17 17 29 32 26 32 -3 0
-16 -11 -28 -24z"/>
<path d="M2439 1433 c-13 -16 -12 -17 4 -4 9 7 17 15 17 17 0 8 -8 3 -21 -13z"/>
<path d="M4402 1362 c-26 -32 -56 -55 -86 -66 -27 -11 -43 -22 -40 -30 3 -7
-47 -61 -111 -120 -63 -59 -115 -114 -115 -122 0 -8 92 72 205 178 113 106
205 196 205 200 0 19 -19 5 -58 -40z"/>
<path d="M3404 1323 c-23 -81 -53 -258 -54 -320 0 -41 4 -53 15 -53 11 0 15
11 15 38 0 59 26 165 54 220 32 63 52 142 30 121 -7 -8 -25 -46 -38 -84 -30
-85 -34 -57 -6 43 23 81 24 92 11 92 -5 0 -17 -26 -27 -57z"/>
<path d="M3665 1301 c-3 -5 -2 -12 3 -15 5 -3 9 1 9 9 0 17 -3 19 -12 6z"/>
<path d="M2025 1290 c-4 -6 -3 -16 3 -22 13 -13 23 4 13 21 -7 10 -10 10 -16
1z"/>
<path d="M3500 1296 c0 -2 8 -10 18 -17 15 -13 16 -12 3 4 -13 16 -21 21 -21
13z"/>
<path d="M2096 1274 c-5 -14 -4 -15 9 -4 17 14 19 20 6 20 -5 0 -12 -7 -15
-16z"/>
<path d="M3705 1270 c-3 -5 -5 -10 -3 -11 33 -8 38 -7 27 7 -14 17 -16 17 -24
4z"/>
<path d="M1915 1250 c-3 -5 -1 -10 4 -10 6 0 11 5 11 10 0 6 -2 10 -4 10 -3 0
-8 -4 -11 -10z"/>
<path d="M2058 1253 c7 -3 16 -2 19 1 4 3 -2 6 -13 5 -11 0 -14 -3 -6 -6z"/>
<path d="M3837 1215 c20 -25 39 -45 40 -45 7 0 -20 46 -40 68 -38 41 -38 22 0
-23z"/>
<path d="M1943 1219 c-18 -12 -33 -27 -33 -35 0 -27 30 -26 66 1 57 43 28 73
-33 34z"/>
<path d="M1027 1188 c-44 -76 -66 -125 -60 -132 4 -3 1 -6 -6 -6 -7 0 -9 -4
-6 -10 3 -5 1 -10 -6 -10 -7 0 -9 -3 -6 -7 4 -3 3 -11 -2 -17 -4 -6 -11 -19
-14 -28 -5 -14 -1 -18 17 -18 20 0 26 10 45 65 11 36 21 77 21 91 0 16 11 35
28 49 52 45 68 60 57 54 -30 -17 -47 -19 -41 -4 10 28 -2 15 -27 -27z"/>
<path d="M1059 1153 c-1 -4 -1 -11 0 -15 0 -4 -6 -5 -14 -2 -31 12 -14 -22 18
-37 31 -14 33 -14 34 4 1 10 -5 21 -13 24 -7 3 -12 9 -9 13 3 5 1 11 -5 15 -5
3 -11 3 -11 -2z"/>
<path d="M3965 1149 c-4 -6 -4 -13 -1 -16 3 -4 6 -1 6 6 0 7 5 9 12 5 7 -4 8
-3 4 4 -9 15 -13 15 -21 1z"/>
<path d="M1755 1119 c-27 -16 -76 -41 -109 -56 -49 -23 -55 -28 -38 -34 16 -6
37 3 86 36 36 24 81 49 101 56 19 7 35 17 35 21 0 15 -25 7 -75 -23z"/>
<path d="M3920 1125 c0 -6 20 -33 45 -60 24 -28 44 -45 44 -40 0 6 -20 33 -44
60 -25 28 -45 45 -45 40z"/>
<path d="M3866 1094 c-3 -8 6 -20 24 -29 39 -20 41 -19 29 9 -13 28 -45 40
-53 20z"/>
<path d="M1726 1062 c-58 -36 -81 -62 -54 -62 7 0 38 23 68 50 30 27 53 49 50
49 -3 0 -32 -17 -64 -37z"/>
<path d="M3696 1091 c-3 -5 -53 -37 -111 -72 -58 -35 -101 -65 -96 -67 10 -3
209 83 235 103 16 12 17 17 6 30 -14 17 -26 19 -34 6z"/>
<path d="M1046 1062 c-2 -4 4 -8 14 -8 10 0 16 4 14 8 -3 4 -9 8 -14 8 -5 0
-11 -4 -14 -8z"/>
<path d="M1578 993 c7 -3 16 -2 19 1 4 3 -2 6 -13 5 -11 0 -14 -3 -6 -6z"/>
<path d="M1000 943 c0 -5 11 -20 25 -33 14 -13 25 -19 25 -13 0 5 -11 20 -25
33 -14 13 -25 19 -25 13z"/>
<path d="M980 920 c0 -15 6 -32 13 -39 10 -11 7 -12 -15 -7 -27 6 -39 -6 -19
-19 10 -6 61 14 61 24 0 3 -9 20 -20 36 l-20 30 0 -25z"/>
<path d="M1519 923 c-13 -16 -12 -17 4 -4 16 13 21 21 13 21 -2 0 -10 -8 -17
-17z"/>
<path d="M1580 931 c0 -5 6 -11 13 -14 9 -3 9 -8 -2 -23 -14 -18 -14 -18 3 -2
11 9 16 23 13 32 -7 17 -27 22 -27 7z"/>
<path d="M3950 936 c0 -2 8 -10 18 -17 15 -13 16 -12 3 4 -13 16 -21 21 -21
13z"/>
<path d="M3408 914 c-31 -16 -41 -51 -36 -134 2 -40 7 -56 18 -58 14 -2 15 8
12 62 -4 54 0 72 17 102 12 20 21 38 19 39 -2 2 -15 -3 -30 -11z"/>
<path d="M1539 903 c-13 -16 -12 -17 4 -4 16 13 21 21 13 21 -2 0 -10 -8 -17
-17z"/>
<path d="M4030 871 c0 -11 14 -30 32 -42 17 -13 28 -18 25 -12 -4 7 2 14 14
18 19 6 18 9 -15 31 -42 29 -56 30 -56 5z"/>
<path d="M3899 769 c-59 -55 -51 -55 26 -1 69 49 72 52 49 52 -11 0 -45 -23
-75 -51z"/>
<path d="M1376 796 c3 -9 11 -16 16 -16 13 0 5 23 -10 28 -7 2 -10 -2 -6 -12z"/>
<path d="M1438 773 c-9 -42 -63 -103 -87 -98 -14 3 -17 -1 -14 -15 12 -45 29
-41 74 17 39 50 44 63 39 93 l-6 35 -6 -32z"/>
<path d="M3592 771 c-29 -9 -49 -21 -45 -25 4 -5 -3 -6 -17 -2 -14 3 -19 3
-12 0 6 -3 10 -10 7 -14 -3 -5 23 4 57 19 35 16 70 31 78 34 37 14 -18 4 -68
-12z"/>
<path d="M839 737 c-8 -25 -12 -53 -8 -67 l7 -25 1 24 c1 13 16 38 36 57 39
36 45 50 16 34 -15 -8 -22 -7 -28 5 -6 10 -12 3 -24 -28z"/>
<path d="M4230 766 c0 -2 8 -10 18 -17 15 -13 16 -12 3 4 -13 16 -21 21 -21
13z"/>
<path d="M1349 723 c-13 -16 -12 -17 4 -4 16 13 21 21 13 21 -2 0 -10 -8 -17
-17z"/>
<path d="M3468 729 c-24 -14 -23 -29 3 -29 12 0 18 4 13 11 -3 6 0 15 7 20 20
12 -2 11 -23 -2z"/>
<path d="M4190 736 c0 -2 8 -10 18 -17 15 -13 16 -12 3 4 -13 16 -21 21 -21
13z"/>
<path d="M4284 723 c11 -13 16 -31 13 -43 -3 -11 -1 -18 4 -14 16 10 9 41 -13
60 l-23 19 19 -22z"/>
<path d="M1260 697 c0 -19 16 -31 24 -18 3 5 -1 14 -9 21 -12 10 -15 10 -15
-3z"/>
<path d="M3385 649 c-4 -6 -4 -13 -1 -16 3 -4 6 -1 6 6 0 7 5 9 12 5 7 -4 8
-3 4 4 -9 15 -13 15 -21 1z"/>
<path d="M4340 630 c0 -11 8 -24 18 -27 9 -4 28 -15 41 -25 20 -15 27 -16 40
-6 14 11 14 11 5 -2 -10 -12 0 -28 52 -83 59 -63 84 -76 84 -42 0 34 -187 205
-223 205 -10 0 -17 -8 -17 -20z"/>
<path d="M802 610 c0 -14 2 -19 5 -12 2 6 2 18 0 25 -3 6 -5 1 -5 -13z"/>
<path d="M3381 594 c0 -11 3 -14 6 -6 3 7 2 16 -1 19 -3 4 -6 -2 -5 -13z"/>
<path d="M831 564 c0 -11 3 -14 6 -6 3 7 2 16 -1 19 -3 4 -6 -2 -5 -13z"/>
<path d="M4350 572 c0 -5 38 -44 85 -86 102 -93 113 -86 15 10 -72 70 -100 92
-100 76z"/>
<path d="M1170 482 c-80 -97 -181 -202 -196 -202 -7 0 -21 15 -33 33 -11 18
-32 44 -47 57 -20 18 -14 6 19 -41 37 -52 44 -68 34 -79 -10 -10 -8 -10 8 -2
24 12 209 201 249 255 49 65 23 49 -34 -21z"/>
<path d="M801 525 c-3 -76 63 -312 79 -284 6 8 9 8 13 -2 4 -11 8 -10 23 4 18
17 18 18 0 52 -11 19 -23 35 -28 35 -8 0 -12 -31 -8 -60 3 -20 -9 -7 -15 16
-3 11 -13 47 -22 81 -17 62 -17 62 5 86 26 28 28 37 6 37 -10 0 -14 5 -10 16
4 9 2 13 -5 8 -6 -3 -9 -17 -6 -30 8 -43 -12 -25 -21 19 -6 23 -10 33 -11 22z"/>
<path d="M3557 483 c-13 -12 -7 -23 11 -22 10 0 12 3 4 6 -6 2 -10 9 -6 14 6
10 0 12 -9 2z"/>
<path d="M892 430 c0 -14 2 -19 5 -12 2 6 2 18 0 25 -3 6 -5 1 -5 -13z"/>
<path d="M4504 392 c3 -5 0 -13 -6 -15 -9 -4 -10 -6 -1 -6 17 -1 25 16 12 25
-7 4 -9 3 -5 -4z"/>
<path d="M3496 371 c-3 -5 1 -32 10 -60 17 -59 40 -70 31 -15 l-6 37 23 -22
c30 -28 38 -27 30 7 -10 45 -71 82 -88 53z"/>
<path d="M1029 353 c-13 -16 -12 -17 4 -4 16 13 21 21 13 21 -2 0 -10 -8 -17
-17z"/>
<path d="M4605 360 c-8 -13 78 -121 89 -110 21 21 -31 120 -63 120 -11 0 -22
-4 -26 -10z"/>
<path d="M3554 273 c3 -6 -2 -16 -11 -22 -14 -8 -16 -12 -5 -22 10 -11 12 -10
12 4 0 9 3 17 8 17 7 0 31 -33 44 -60 4 -10 7 -7 7 11 1 16 -10 36 -31 55 -17
16 -28 24 -24 17z"/>
<path d="M912 183 c5 -25 28 -28 28 -4 0 12 -6 21 -16 21 -9 0 -14 -7 -12 -17z"/>
<path d="M999 183 c-11 -13 -9 -19 16 -39 35 -27 39 -25 30 14 -7 36 -28 47
-46 25z"/>
<path d="M3630 165 c0 -6 29 -40 65 -75 36 -35 65 -70 65 -77 0 -7 12 -13 27
-13 25 0 26 0 8 20 -10 11 -20 18 -22 16 -2 -2 -35 29 -73 68 -38 39 -70 66
-70 61z"/>
<path d="M4705 93 c7 -78 14 -99 22 -75 3 6 14 12 25 12 19 0 20 4 14 47 -7
53 -29 93 -52 93 -14 0 -15 -11 -9 -77z"/>
<path d="M970 148 c0 -6 3 -8 7 -5 3 4 12 -1 20 -11 13 -15 13 -15 3 6 -11 23
-30 30 -30 10z"/>
<path d="M935 127 c-10 -8 -14 -17 -9 -20 6 -3 15 3 22 14 14 23 12 24 -13 6z"/>
<path d="M4638 133 c7 -3 16 -2 19 1 4 3 -2 6 -13 5 -11 0 -14 -3 -6 -6z"/>
<path d="M3585 110 c-8 -13 35 -101 53 -107 32 -13 20 29 -20 74 -11 12 -17
26 -13 32 3 6 2 11 -4 11 -5 0 -13 -5 -16 -10z"/>
<path d="M3666 63 c51 -63 80 -84 50 -37 -25 39 -57 74 -79 86 -10 5 3 -17 29
-49z"/>
<path d="M488 93 c7 -3 16 -2 19 1 4 3 -2 6 -13 5 -11 0 -14 -3 -6 -6z"/>
<path d="M750 50 l-55 -50 43 0 c36 0 44 4 54 25 6 14 15 25 19 25 5 0 13 9
19 20 9 16 8 18 -5 14 -8 -4 -15 -10 -15 -15 0 -5 -7 -9 -17 -9 -14 0 -14 2 2
20 30 33 13 22 -45 -30z m35 -18 c-8 -8 -25 10 -19 20 4 6 9 5 15 -3 4 -7 6
-15 4 -17z"/>
<path d="M438 83 c7 -3 16 -2 19 1 4 3 -2 6 -13 5 -11 0 -14 -3 -6 -6z"/>
<path d="M910 48 c0 -27 5 -48 10 -48 13 0 13 60 0 80 -7 11 -10 2 -10 -32z"/>
<path d="M4448 83 c7 -3 16 -2 19 1 4 3 -2 6 -13 5 -11 0 -14 -3 -6 -6z"/>
<path d="M881 57 c17 -32 19 -33 19 -10 0 12 -7 23 -15 27 -13 5 -14 2 -4 -17z"/>
<path d="M940 70 c0 -5 5 -10 11 -10 5 0 7 5 4 10 -3 6 -8 10 -11 10 -2 0 -4
-4 -4 -10z"/>
<path d="M276 55 c-3 -8 -1 -15 4 -15 5 0 11 -10 13 -22 3 -14 5 -9 6 15 1 37
-12 50 -23 22z"/>
<path d="M418 53 c6 -2 18 -2 25 0 6 3 1 5 -13 5 -14 0 -19 -2 -12 -5z"/>
<path d="M950 23 c0 -13 5 -23 10 -23 13 0 13 11 0 30 -8 12 -10 11 -10 -7z"/>
<path d="M335 10 c-4 -6 14 -10 47 -9 42 1 48 3 28 9 -36 12 -68 12 -75 0z"/>
<path d="M830 9 c0 -5 5 -7 10 -4 6 3 10 8 10 11 0 2 -4 4 -10 4 -5 0 -10 -5
-10 -11z"/>
</g>
</svg>