<?xml version="1.0" standalone="no"?>
<!DOCTYPE svg PUBLIC "-//W3C//DTD SVG 20010904//EN"
 "http://www.w3.org/TR/2001/REC-SVG-20010904/DTD/svg10.dtd">
<svg version="1.0" xmlns="http://www.w3.org/2000/svg"
 width="70pt" height="70pt" viewBox="0 0 512.000000 512.000000"
 preserveAspectRatio="xMidYMid meet">
<metadata>
Created by potrace 1.16, written by Peter Selinger 2001-2019
</metadata>
<g transform="translate(0.000000,512.000000) scale(0.100000,-0.100000)"
fill="#000000" stroke="none">
<path d="M2575 4683 c91 -4 293 -22 325 -30 17 -4 22 -2 15 4 -15 15 -201 33
-313 31 -80 -2 -85 -2 -27 -5z"/>
<path d="M2190 4658 c-213 -37 -453 -129 -665 -253 -211 -125 -476 -350 -618
-525 -142 -176 -295 -445 -304 -535 -3 -28 -13 -73 -24 -102 -32 -90 -69 -244
-85 -360 -18 -123 -14 -143 32 -143 27 0 28 4 44 130 14 105 53 269 86 356 13
35 24 81 24 101 0 44 91 223 185 363 78 117 232 300 251 300 8 0 48 34 90 75
168 166 445 341 679 429 111 41 291 85 400 97 151 16 160 19 160 54 l0 30 -70
2 c-38 1 -122 -7 -185 -19z"/>
<path d="M3038 4505 c135 -41 261 -93 347 -142 102 -59 226 -142 242 -162 11
-15 12 -15 13 0 0 20 -208 158 -325 214 -107 51 -252 102 -315 110 -34 4 -24
-1 38 -20z"/>
<path d="M2360 4513 c-80 -7 -188 -25 -239 -39 l-53 -15 7 -45 c6 -41 4 -45
-20 -54 -68 -26 -73 -25 -85 19 -6 22 -15 43 -19 46 -10 5 -169 -59 -185 -76
-6 -5 -20 -9 -33 -9 -19 0 -23 -5 -23 -31 0 -62 22 -110 61 -134 33 -22 38
-31 53 -99 13 -58 23 -80 44 -97 34 -26 57 -23 182 26 102 40 249 75 318 75
l42 0 0 -50 c0 -28 5 -59 12 -70 19 -29 -12 -56 -73 -64 -82 -11 -207 -54
-305 -105 -88 -46 -225 -141 -253 -174 -24 -29 -3 -18 53 27 148 120 341 208
529 241 67 11 77 30 77 148 0 56 -4 108 -9 116 -20 31 -209 2 -394 -61 -66
-22 -123 -36 -127 -32 -5 5 -17 49 -26 98 -11 54 -25 97 -36 108 -20 20 -59
23 -88 8 -15 -8 -21 -6 -30 10 -6 11 -8 25 -4 31 4 7 50 32 102 57 90 42 96
44 109 26 7 -10 13 -25 13 -35 0 -37 26 -43 85 -19 l56 23 -7 42 c-6 40 -5 43
25 53 79 28 241 43 420 40 179 -3 231 3 129 16 -53 6 -242 6 -308 -1z"/>
<path d="M2800 4489 c0 -4 7 -10 16 -13 24 -9 56 -7 50 3 -7 11 -66 20 -66 10z"/>
<path d="M2981 4456 c2 -2 47 -18 99 -36 117 -39 323 -138 369 -177 41 -35 38
-53 -25 -124 -66 -74 -63 -81 56 -175 92 -72 280 -259 280 -278 0 -7 -15 -25
-34 -40 -19 -14 -42 -33 -50 -42 -15 -15 -18 -14 -38 13 -26 35 -183 188 -220
215 -57 40 -25 -1 50 -65 206 -177 338 -373 412 -617 43 -141 50 -158 65 -164
8 -3 19 1 25 9 8 10 7 13 -7 11 -14 -1 -26 24 -59 124 -49 151 -103 268 -173
375 l-53 80 49 42 c26 24 50 43 53 43 17 0 220 -315 220 -342 0 -5 -21 -18
-46 -29 -26 -11 -44 -22 -41 -25 3 -3 25 3 49 13 24 11 55 23 71 26 36 10 35
32 -4 110 -73 145 -183 288 -332 435 -98 96 -107 103 -128 91 -20 -10 -26 -8
-51 20 -36 40 -35 68 2 134 46 82 42 98 -37 157 -84 61 -257 148 -379 189 -79
27 -136 39 -123 27z"/>
<path d="M2373 4433 c-16 -6 -17 -55 -1 -71 8 -8 60 -12 170 -12 145 0 158 1
168 19 7 13 7 28 0 45 l-10 26 -157 -1 c-87 0 -164 -3 -170 -6z"/>
<path d="M2910 4360 c-24 -24 -25 -38 -4 -68 17 -24 62 -30 82 -10 20 20 14
65 -10 82 -30 21 -44 20 -68 -4z"/>
<path d="M3911 4356 c-15 -18 -3 -46 20 -46 25 0 35 26 19 45 -15 19 -24 19
-39 1z"/>
<path d="M863 4329 c-12 -4 -24 -16 -27 -27 -20 -63 71 -98 95 -35 17 45 -21
80 -68 62z"/>
<path d="M2052 4278 c-17 -17 -15 -42 7 -69 l18 -23 94 22 c145 34 214 42 351
42 194 0 415 -45 561 -116 41 -19 45 -36 26 -95 -17 -51 -47 -79 -84 -79 -85
0 -114 -32 -136 -152 -7 -37 -18 -69 -25 -72 -7 -3 -36 2 -64 9 -29 8 -77 17
-106 21 -59 7 -72 -3 -60 -50 5 -20 15 -25 76 -35 155 -25 303 -98 443 -216
l79 -67 22 21 c30 29 57 26 90 -8 24 -26 26 -31 14 -50 -17 -27 -21 -27 -62 9
-19 17 -37 27 -40 22 -3 -5 11 -36 31 -68 89 -144 133 -232 159 -313 32 -103
38 -111 78 -111 56 0 62 11 47 77 -7 32 -14 77 -15 99 -5 85 -168 337 -294
455 -89 84 -165 135 -274 186 -42 20 -79 42 -82 49 -7 19 24 142 40 155 9 7
40 16 70 20 69 9 78 17 104 87 36 96 21 111 -160 170 -158 52 -255 66 -445 65
-146 0 -187 -4 -292 -27 -94 -20 -128 -24 -143 -16 -22 12 -26 40 -8 58 7 7 8
12 2 12 -5 0 -15 -5 -22 -12z m948 -613 c28 -14 50 -28 50 -30 0 -5 -99 42
-109 51 -12 11 15 1 59 -21z m136 -86 c3 -6 -5 -3 -20 6 -14 10 -26 19 -26 22
0 7 39 -17 46 -28z"/>
<path d="M3111 4286 c15 -13 109 -51 109 -44 0 10 -77 47 -99 48 -8 0 -12 -2
-10 -4z"/>
<path d="M1450 4172 c-97 -72 -142 -112 -126 -112 3 0 34 23 68 51 35 27 86
66 115 85 51 34 72 54 56 54 -4 0 -55 -35 -113 -78z"/>
<path d="M1626 4227 c-15 -11 -16 -18 -8 -34 10 -17 7 -22 -23 -36 -18 -9 -81
-52 -139 -96 -107 -82 -124 -89 -170 -72 -27 11 -33 7 -150 -87 -36 -30 -66
-61 -66 -69 0 -8 -24 -47 -53 -87 -153 -203 -254 -421 -321 -691 -18 -74 -50
-284 -44 -290 2 -2 54 -7 115 -11 l112 -7 5 24 c2 13 9 60 15 104 6 44 23 128
37 187 l26 108 -22 35 c-21 34 -22 43 -5 90 7 20 6 20 -9 1 -21 -26 -20 -58 3
-98 19 -33 19 -33 -9 -145 -15 -61 -33 -151 -40 -199 -6 -49 -12 -89 -13 -90
-1 -1 -47 1 -102 4 l-100 7 3 40 c6 75 51 281 87 396 65 210 178 413 342 618
2 3 18 -2 35 -11 l33 -15 76 69 c42 38 96 83 121 101 25 18 84 62 133 98 48
37 107 77 132 89 49 25 61 43 43 65 -15 18 -21 19 -44 2z"/>
<path d="M3042 4228 c2 -5 39 -25 83 -43 91 -37 98 -51 71 -132 -18 -53 -19
-63 -8 -63 5 0 17 34 27 75 17 66 17 77 5 90 -20 19 -182 86 -178 73z"/>
<path d="M3263 4224 c-3 -8 2 -23 11 -32 15 -15 17 -15 33 0 13 14 14 20 3 32
-16 20 -39 20 -47 0z"/>
<path d="M3334 4128 c-26 -40 -54 -93 -61 -119 -13 -43 -18 -48 -46 -51 l-32
-4 28 -8 c37 -11 53 4 72 70 9 31 36 81 65 119 30 40 44 65 35 65 -8 0 -35
-32 -61 -72z"/>
<path d="M2536 4162 c-12 -36 3 -50 57 -54 29 -2 57 -1 63 4 6 5 19 6 28 2 10
-4 18 0 22 10 4 9 18 16 34 16 36 0 214 -46 240 -62 24 -15 26 -41 5 -58 -13
-10 -33 -8 -113 13 -103 27 -209 44 -307 49 -51 3 -60 0 -63 -15 -5 -24 14
-44 48 -52 l29 -6 3 -97 c3 -82 6 -97 20 -100 16 -3 17 6 11 98 l-6 102 59 -7
c32 -4 92 -13 132 -21 68 -14 76 -14 141 6 38 11 72 27 75 35 11 29 -12 62
-56 80 -75 29 -250 67 -335 72 -74 4 -82 3 -87 -15z"/>
<path d="M3675 4152 c31 -31 136 -113 129 -100 -11 19 -89 85 -118 100 -12 6
-17 6 -11 0z"/>
<path d="M1706 4143 c-3 -3 6 -14 19 -25 39 -31 32 -62 -21 -98 -25 -18 -43
-34 -40 -37 8 -9 86 47 98 71 17 31 -33 111 -56 89z"/>
<path d="M3615 4097 c74 -55 87 -72 90 -116 2 -39 9 -49 77 -116 113 -109 189
-204 182 -229 -3 -15 12 -46 49 -103 69 -102 177 -323 210 -429 25 -79 67
-276 67 -315 0 -18 -8 -19 -184 -19 -200 0 -216 -4 -216 -55 0 -24 -17 -47
-48 -64 -9 -5 -14 -13 -10 -16 4 -4 21 3 37 15 22 15 33 32 37 60 l6 40 197 2
196 3 -3 45 c-5 68 -39 227 -67 316 -14 43 -58 144 -98 224 -39 80 -71 153
-69 164 1 12 -3 16 -12 13 -21 -8 -66 63 -53 84 8 12 3 27 -20 60 -46 66 -127
157 -196 220 l-61 56 11 37 11 36 -70 55 c-38 30 -75 55 -82 55 -6 0 2 -11 19
-23z"/>
<path d="M1615 4101 c-7 -12 12 -24 25 -16 11 7 4 25 -10 25 -5 0 -11 -4 -15
-9z"/>
<path d="M1655 4074 c-19 -20 -16 -48 6 -52 17 -3 49 22 49 38 0 5 -9 14 -19
20 -15 7 -24 6 -36 -6z"/>
<path d="M4067 4006 c103 -117 239 -327 340 -526 117 -231 168 -389 217 -675
13 -77 24 -126 25 -108 1 40 -43 282 -71 388 -56 213 -224 553 -380 769 -75
105 -150 196 -161 196 -5 0 9 -20 30 -44z"/>
<path d="M2348 4020 c-3 -19 -16 -25 -94 -45 -104 -26 -206 -65 -284 -108 -89
-48 -180 -109 -180 -119 0 -10 -1 -11 90 48 127 82 289 149 418 174 46 9 63
17 68 32 3 11 1 25 -4 30 -7 7 -11 3 -14 -12z"/>
<path d="M1514 3974 c-131 -105 -193 -166 -203 -197 -16 -46 -69 -148 -91
-172 -22 -24 -82 -121 -97 -155 -9 -22 -8 -26 6 -27 10 -1 38 31 71 80 92 136
223 288 324 376 53 46 96 87 96 91 0 3 -11 17 -24 29 l-24 22 -58 -47z"/>
<path d="M3565 4009 c-9 -14 -7 -15 35 -24 l35 -7 -19 21 c-21 23 -41 27 -51
10z"/>
<path d="M3864 3966 c-4 -10 35 -60 104 -135 114 -126 192 -231 242 -327 32
-59 37 -98 19 -137 -9 -20 -3 -48 34 -163 45 -138 80 -287 93 -396 4 -32 11
-58 16 -58 5 0 6 15 4 33 -3 17 -13 74 -21 125 -16 95 -72 301 -100 367 -19
46 -19 69 -1 120 l15 40 26 -60 c75 -167 127 -371 147 -578 l12 -119 -42 -39
c-48 -44 -52 -70 -17 -104 31 -31 46 -31 84 0 26 23 30 33 34 88 2 36 4 14 5
-53 7 -425 -169 -927 -443 -1265 -163 -202 -297 -322 -499 -447 -130 -81 -147
-98 -130 -125 20 -32 49 -25 158 42 488 296 808 736 963 1325 33 125 36 148
40 320 5 167 3 200 -21 340 -61 360 -161 629 -336 898 -73 113 -162 233 -168
227 -2 -2 23 -41 56 -87 33 -46 85 -135 117 -198 64 -129 61 -131 -15 -15 -86
129 -138 194 -239 298 -91 93 -125 114 -137 83z m633 -1133 c-3 -10 -5 -4 -5
12 0 17 2 24 5 18 2 -7 2 -21 0 -30z m10 -95 c-2 -13 -4 -3 -4 22 0 25 2 35 4
23 2 -13 2 -33 0 -45z m70 -320 c-2 -35 -3 -7 -3 62 0 69 1 97 3 63 2 -35 2
-91 0 -125z m-10 -155 c-3 -10 -5 -4 -5 12 0 17 2 24 5 18 2 -7 2 -21 0 -30z"/>
<path d="M3350 3953 c0 -5 23 -23 50 -41 27 -19 78 -61 114 -93 35 -32 70 -59
78 -59 15 0 -47 57 -154 140 -77 60 -88 67 -88 53z"/>
<path d="M1723 3877 c-40 -28 -73 -56 -73 -61 0 -5 10 -1 23 7 12 9 48 33 79
54 53 34 71 53 51 53 -5 0 -41 -24 -80 -53z"/>
<path d="M2684 3896 c-10 -26 4 -48 28 -44 17 2 23 10 23 28 0 18 -6 26 -23
28 -13 2 -25 -3 -28 -12z"/>
<path d="M3126 3874 c-36 -35 -6 -96 55 -109 37 -8 154 -92 223 -159 31 -30
56 -49 56 -43 0 17 -107 114 -192 174 l-77 54 17 29 c16 27 15 30 -2 49 -23
25 -58 27 -80 5z"/>
<path d="M3250 3833 c0 -5 30 -28 67 -53 73 -49 215 -179 264 -242 l32 -39
-28 -29 c-16 -17 -26 -32 -23 -35 3 -3 20 11 37 30 l31 36 -19 27 c-34 49
-215 217 -284 265 -70 49 -77 52 -77 40z"/>
<path d="M1193 3746 c-40 -44 -49 -60 -46 -83 3 -22 -7 -41 -47 -90 -31 -38
-59 -63 -70 -63 -23 0 -27 -25 -5 -33 9 -4 25 8 43 31 91 116 102 134 102 167
0 28 8 40 45 71 43 35 56 54 36 54 -5 0 -31 -24 -58 -54z"/>
<path d="M2440 3769 c-158 -18 -343 -91 -473 -185 -54 -39 -65 -58 -47 -79 20
-24 41 -18 114 31 77 52 182 104 209 104 20 0 52 -63 43 -85 -2 -7 -40 -32
-83 -54 -85 -45 -196 -128 -191 -143 2 -5 -14 -28 -35 -51 -47 -51 -136 -183
-144 -215 -3 -15 1 -30 13 -43 24 -27 7 -43 -29 -24 -41 21 -46 -3 -7 -35 l33
-27 -13 -68 c-8 -43 -11 -104 -7 -169 8 -133 13 -148 46 -144 24 3 26 7 24 43
-13 248 -5 299 64 445 40 84 57 106 142 190 72 71 115 104 171 133 84 42 166
67 225 67 77 1 87 7 85 59 -4 79 -3 81 33 81 102 0 298 -74 410 -154 62 -43
190 -171 223 -221 16 -25 16 -27 -10 -53 -14 -16 -26 -33 -26 -39 0 -5 14 -40
30 -77 43 -93 60 -176 59 -286 0 -90 -18 -223 -32 -237 -4 -3 -25 -1 -46 6
-26 7 -53 8 -78 3 -45 -10 -103 3 -103 23 0 26 31 47 59 39 14 -4 36 -8 49 -9
12 -1 28 -7 34 -13 30 -30 68 0 48 38 -15 28 -43 34 -60 13 -12 -15 -21 -17
-47 -10 -44 13 -77 2 -91 -28 -20 -43 -14 -71 19 -99 l31 -26 -38 -46 c-57
-67 -68 -84 -60 -91 4 -4 10 -2 15 5 27 45 107 129 118 125 18 -7 -2 -43 -75
-135 -122 -154 -293 -237 -484 -238 -103 0 -166 14 -265 60 -51 24 -85 35 -89
28 -4 -5 -13 1 -23 15 -22 33 -131 132 -131 118 0 -5 25 -34 56 -64 53 -50 55
-56 58 -108 l2 -54 73 -37 c247 -124 562 -85 768 95 106 93 169 175 227 297
19 39 40 78 47 86 18 22 38 146 38 239 1 98 -18 188 -59 291 l-31 79 23 18
c22 19 23 18 29 -5 4 -12 19 -50 34 -83 14 -32 37 -102 49 -155 l22 -95 124
-3 123 -3 -7 -117 c-7 -127 -22 -211 -56 -311 -21 -64 -20 -101 2 -43 9 22 19
32 33 32 22 0 70 38 61 48 -3 3 -14 -2 -24 -11 -10 -10 -26 -17 -34 -17 -14 0
-14 8 3 73 26 97 47 322 33 345 -9 14 -32 18 -112 22 -55 3 -103 7 -105 10 -3
3 -15 45 -26 93 -24 100 -75 217 -126 288 -19 27 -32 55 -29 64 7 17 -107 128
-195 190 -124 87 -294 149 -406 148 -77 0 -251 -19 -293 -32 -30 -9 -33 -7
-47 19 -8 16 -15 33 -15 39 0 12 127 41 183 41 25 0 59 3 76 6 27 6 31 11 31
39 0 33 -15 46 -48 44 -9 -1 -51 -5 -92 -10z m-140 -253 c0 -3 -31 -21 -69
-41 -37 -20 -96 -59 -131 -86 -34 -28 -64 -48 -66 -46 -9 8 80 75 167 127 79
47 99 56 99 46z m255 -26 c-3 -5 -23 -10 -43 -10 -59 0 -189 -37 -255 -72 -34
-18 -90 -59 -124 -92 -76 -70 -85 -61 -10 11 66 65 133 107 213 133 100 34
232 51 219 30z m-495 -244 c0 -3 -4 -8 -10 -11 -5 -3 -10 -1 -10 4 0 6 5 11
10 11 6 0 10 -2 10 -4z"/>
<path d="M1596 3719 c-46 -36 -23 -109 35 -109 60 0 90 69 47 110 -28 25 -48
25 -82 -1z"/>
<path d="M1105 3720 c-4 -6 -3 -16 3 -22 6 -6 12 -6 17 2 4 6 3 16 -3 22 -6 6
-12 6 -17 -2z"/>
<path d="M1453 3704 c-3 -8 -1 -20 5 -26 16 -16 42 -2 42 22 0 24 -38 28 -47
4z"/>
<path d="M997 3580 c-70 -108 -143 -247 -135 -256 4 -3 20 23 37 58 17 35 60
110 96 167 36 57 64 108 63 112 -2 5 -29 -32 -61 -81z"/>
<path d="M3241 3633 c2 -6 39 -42 83 -80 60 -52 88 -84 116 -138 20 -38 59
-108 86 -155 62 -107 96 -184 125 -282 25 -83 47 -105 77 -74 14 14 13 24 -12
112 -54 193 -153 345 -322 498 -105 94 -159 136 -153 119z"/>
<path d="M1431 3549 c-78 -98 -157 -229 -171 -280 -12 -42 -3 -75 27 -102 26
-23 181 -90 287 -122 121 -38 122 -39 108 -111 -6 -32 -15 -96 -18 -142 -8
-102 -9 -102 -165 -102 -61 0 -119 -5 -130 -10 -25 -14 -25 -92 0 -216 18 -85
81 -263 104 -292 21 -27 16 -2 -14 64 -62 138 -111 372 -88 415 7 15 29 18
136 21 71 2 135 7 144 11 13 7 18 -3 29 -55 15 -80 37 -135 57 -142 21 -8 97
35 101 58 4 16 1 16 -26 -4 -17 -13 -37 -20 -45 -17 -16 6 -31 84 -42 207 -5
59 13 221 29 261 5 12 -3 19 -35 28 -31 9 -39 15 -28 22 8 5 23 9 34 9 15 0
27 16 48 62 27 61 28 90 2 55 -11 -15 -21 -17 -45 -12 -26 6 -32 3 -36 -12 -3
-10 -13 -35 -22 -55 l-17 -37 -62 21 c-44 14 -63 26 -63 37 0 58 177 338 207
327 8 -3 17 -6 19 -6 10 0 3 -35 -10 -49 -13 -16 -135 -193 -151 -220 -5 -8
-4 -12 3 -10 13 5 192 255 192 269 0 10 -97 90 -110 90 -27 0 -171 -210 -215
-313 -15 -37 -34 -67 -41 -67 -7 0 -38 9 -69 21 -58 22 -85 49 -85 86 0 50
129 262 211 348 16 17 29 34 29 38 0 19 -21 0 -79 -74z"/>
<path d="M1386 3556 c-24 -32 -28 -34 -56 -24 -40 14 -54 7 -86 -44 -16 -24
-36 -53 -47 -65 -19 -21 -19 -21 4 -33 17 -10 23 -10 30 1 31 56 72 99 92 99
13 0 36 14 53 33 44 47 58 67 46 67 -5 0 -21 -16 -36 -34z"/>
<path d="M2105 3540 c-96 -59 -120 -78 -113 -85 2 -3 24 9 48 26 24 18 70 47
102 66 32 19 58 36 58 38 0 12 -21 2 -95 -45z"/>
<path d="M3771 3566 c-10 -11 -6 -21 17 -48 16 -18 51 -66 77 -106 26 -40 49
-71 52 -68 6 6 -44 88 -98 161 -28 37 -35 53 -27 62 7 8 7 13 0 13 -5 0 -15
-6 -21 -14z"/>
<path d="M2660 3526 c0 -2 33 -11 73 -21 39 -9 101 -30 136 -46 71 -32 75 -33
65 -18 -19 31 -274 110 -274 85z"/>
<path d="M1523 3484 c-3 -8 -1 -20 4 -25 14 -14 43 0 43 22 0 24 -38 26 -47 3z"/>
<path d="M2660 3461 c0 -4 30 -16 67 -26 115 -31 214 -88 307 -176 46 -43 89
-79 95 -79 16 0 -133 139 -191 179 -28 18 -69 41 -92 51 -56 25 -186 61 -186
51z"/>
<path d="M1816 3414 c-21 -21 -20 -47 2 -67 27 -24 59 -21 78 8 15 23 15 27 0
50 -19 29 -56 33 -80 9z"/>
<path d="M964 3409 c-8 -14 18 -31 30 -19 9 9 0 30 -14 30 -5 0 -12 -5 -16
-11z"/>
<path d="M1100 3402 c0 -10 33 -42 43 -42 15 0 5 19 -18 34 -14 9 -25 13 -25
8z"/>
<path d="M995 3326 c-16 -44 -24 -82 -20 -94 8 -28 143 -81 144 -57 0 6 -16
16 -37 23 -20 7 -40 16 -44 20 -4 4 6 39 23 77 l29 70 -21 18 c-12 9 -27 17
-34 17 -7 0 -25 -33 -40 -74z"/>
<path d="M1387 3353 c-35 -56 -59 -104 -54 -109 3 -3 25 29 50 70 45 76 49
110 4 39z"/>
<path d="M1428 3325 c-46 -82 -33 -86 16 -4 38 64 40 69 29 69 -5 0 -25 -30
-45 -65z"/>
<path d="M3010 3385 c0 -9 162 -167 166 -162 7 6 -54 73 -110 121 -31 26 -56
45 -56 41z"/>
<path d="M3680 3381 c0 -5 15 -34 34 -65 19 -31 46 -87 62 -124 28 -67 44 -96
50 -89 6 6 -63 161 -100 225 -36 60 -46 72 -46 53z"/>
<path d="M2428 3349 c-117 -27 -261 -136 -338 -253 -117 -181 -131 -390 -39
-584 35 -72 160 -212 209 -232 29 -12 53 -7 132 25 15 6 16 3 7 -30 -6 -20 -8
-39 -5 -42 12 -12 24 10 31 54 13 96 6 90 103 90 110 0 145 13 140 51 l-3 27
-100 5 c-157 9 -245 63 -307 188 -29 59 -33 76 -33 147 0 67 5 90 29 142 16
35 35 68 42 74 16 13 18 29 5 29 -5 0 -26 -23 -46 -50 -30 -41 -40 -48 -51
-39 -20 17 -17 31 14 75 20 28 27 45 22 59 -10 28 3 48 57 88 76 55 91 56 129
11 30 -35 35 -37 58 -26 20 9 25 19 28 54 3 42 4 43 43 46 63 5 154 -17 225
-54 89 -47 125 -77 117 -98 -12 -30 -35 -28 -83 5 -44 30 -131 69 -154 69 -27
0 -4 -20 40 -35 31 -10 71 -36 104 -66 30 -27 58 -49 64 -49 6 0 24 13 40 30
26 26 32 28 42 15 10 -13 9 -19 -4 -34 -16 -18 -16 -21 -1 -52 10 -18 23 -48
30 -68 10 -28 14 -32 20 -19 4 9 -3 37 -14 64 -17 37 -19 49 -9 56 21 13 24
10 52 -51 40 -89 62 -250 37 -265 -13 -8 -74 14 -88 32 -8 9 -13 43 -13 79 0
86 -44 212 -67 190 -3 -4 4 -38 17 -75 13 -37 27 -101 30 -142 5 -74 6 -75 40
-92 19 -9 65 -25 103 -34 93 -25 100 -17 99 103 -2 256 -171 482 -424 567 -65
22 -93 26 -185 25 -59 -1 -125 -5 -145 -10z m0 -47 c2 -6 -27 -25 -65 -42 -37
-17 -89 -49 -115 -70 -49 -42 -68 -49 -68 -26 0 21 95 94 165 127 61 30 76 32
83 11z m-266 -369 c18 -16 24 -57 12 -87 -6 -15 -74 -24 -74 -10 0 16 32 114
37 114 4 0 15 -7 25 -17z m1 -169 c4 -21 16 -64 25 -95 12 -37 15 -61 8 -71
-11 -18 41 -99 80 -124 29 -20 32 -54 4 -54 -44 0 -140 135 -171 239 -11 38
-11 44 4 53 14 7 16 17 11 43 -3 19 -3 39 1 45 13 20 30 4 38 -36z"/>
<path d="M1163 3304 c-8 -20 8 -36 26 -25 15 10 8 41 -9 41 -6 0 -13 -7 -17
-16z"/>
<path d="M3634 3308 c3 -7 9 -21 12 -30 6 -16 24 -26 24 -13 0 13 -25 55 -32
55 -6 0 -7 -6 -4 -12z"/>
<path d="M1192 3217 c-12 -40 -27 -91 -32 -114 -6 -23 -18 -47 -28 -52 -15 -9
-15 -10 -1 -11 25 0 37 20 54 91 8 36 21 84 29 107 8 23 11 44 7 46 -4 3 -17
-27 -29 -67z"/>
<path d="M3661 3234 c0 -11 3 -14 6 -6 3 7 2 16 -1 19 -3 4 -6 -2 -5 -13z"/>
<path d="M1386 3223 c-12 -12 -6 -33 9 -33 8 0 15 6 15 14 0 17 -14 28 -24 19z"/>
<path d="M4023 3213 c-76 -6 -79 -14 -49 -134 14 -56 26 -110 26 -119 0 -27
25 -42 55 -34 25 6 27 9 21 48 -4 22 -16 72 -27 110 l-21 69 29 23 c15 13 32
22 38 20 21 -6 58 -150 59 -230 l1 -80 -35 -9 c-19 -5 -72 -7 -117 -5 -44 1
-79 0 -76 -4 8 -13 228 -9 241 4 19 19 14 97 -13 203 -26 102 -47 146 -68 143
-6 -1 -35 -3 -64 -5z"/>
<path d="M2052 3155 c-57 -64 -132 -220 -132 -272 0 -30 16 0 39 70 22 71 74
161 119 210 14 15 21 27 15 27 -6 0 -25 -16 -41 -35z"/>
<path d="M811 3147 c-6 -8 -21 -60 -35 -118 -42 -180 -42 -181 6 -192 31 -8
58 13 58 46 0 12 12 71 27 131 l27 109 -23 18 c-27 22 -44 24 -60 6z"/>
<path d="M1100 3089 c0 -5 5 -7 10 -4 6 3 10 8 10 11 0 2 -4 4 -10 4 -5 0 -10
-5 -10 -11z"/>
<path d="M991 3053 c-19 -70 -41 -227 -44 -303 l-2 -75 -132 -3 -131 -3 -31
-35 c-24 -26 -31 -44 -31 -74 0 -54 15 -51 17 3 2 33 8 48 33 70 l30 27 258 0
c197 0 262 -3 276 -13 14 -10 20 -35 27 -99 11 -106 22 -160 55 -261 28 -83
46 -110 69 -101 19 8 19 24 0 24 -8 0 -21 10 -29 23 -25 38 -64 189 -77 298
-7 63 -18 111 -27 122 -13 15 -34 17 -154 17 l-138 0 0 61 c0 73 25 249 44
314 8 25 10 45 5 45 -4 0 -13 -17 -18 -37z"/>
<path d="M1228 3049 c-21 -10 -42 -27 -47 -37 -17 -32 -45 -222 -32 -222 4 0
12 40 19 89 6 49 16 100 21 114 12 31 99 76 111 57 10 -17 -4 -64 -29 -96 -17
-22 -21 -40 -20 -98 l2 -71 11 75 c6 41 19 87 29 101 21 31 36 79 30 97 -7 18
-53 14 -95 -9z"/>
<path d="M1380 3021 c-6 -12 -10 -40 -8 -63 8 -102 138 -98 155 4 5 36 4 39
-28 52 -19 8 -50 17 -71 21 -31 6 -38 4 -48 -14z"/>
<path d="M2484 3026 c-38 -17 -49 -33 -46 -67 3 -29 -18 -44 -48 -34 -13 4
-22 -5 -35 -37 -63 -156 48 -327 213 -328 65 0 108 17 162 66 106 96 113 237
17 343 -56 61 -188 89 -263 57z m163 -77 c15 -5 43 -24 60 -41 131 -127 -15
-346 -191 -288 -82 27 -139 126 -117 206 12 45 61 100 106 120 37 16 104 18
142 3z"/>
<path d="M2526 2930 c-90 -27 -135 -145 -83 -220 51 -76 131 -99 202 -58 114
66 115 217 2 268 -45 21 -75 23 -121 10z m104 -35 c40 -21 60 -53 60 -98 0
-74 -45 -121 -116 -121 -45 0 -86 32 -104 82 -13 37 -12 45 3 77 18 39 69 75
105 75 13 0 36 -7 52 -15z"/>
<path d="M1106 3002 c-9 -15 -27 -143 -21 -153 13 -20 25 4 19 40 -3 20 -1 55
5 76 10 37 9 56 -3 37z"/>
<path d="M1581 2986 c-9 -10 -9 -16 -1 -21 17 -10 37 12 24 25 -8 8 -15 6 -23
-4z"/>
<path d="M3817 2962 c-20 -22 -22 -75 -4 -90 30 -24 58 -24 83 -1 29 27 31 62
4 89 -25 25 -62 26 -83 2z"/>
<path d="M1793 2913 c-11 -53 -8 -283 4 -313 8 -18 9 15 6 120 -3 80 -1 164 5
188 5 23 6 42 1 42 -4 0 -12 -17 -16 -37z"/>
<path d="M1337 2884 c-4 -4 -7 -16 -7 -26 0 -14 6 -19 23 -16 14 2 22 10 22
23 0 20 -25 32 -38 19z"/>
<path d="M1927 2853 c-10 -9 -7 -144 3 -168 6 -13 9 14 9 78 1 97 0 103 -12
90z"/>
<path d="M1474 2795 c-9 -23 3 -45 24 -45 25 0 44 23 36 44 -8 20 -53 21 -60
1z"/>
<path d="M3828 2803 c-16 -2 -28 -9 -28 -14 0 -15 56 -10 70 6 13 16 13 16
-42 8z"/>
<path d="M1052 2753 c2 -22 8 -28 28 -28 20 0 25 5 25 25 0 20 -6 26 -28 28
-26 3 -28 1 -25 -25z"/>
<path d="M3798 2713 c-23 -28 -36 -72 -42 -145 -15 -167 -79 -341 -182 -493
-29 -45 -54 -89 -54 -97 0 -23 48 -58 79 -58 30 1 53 16 69 47 19 35 14 54
-22 88 l-34 32 52 105 c57 114 88 221 110 380 7 55 20 108 30 123 20 31 16 43
-6 18z"/>
<path d="M3990 2691 c-5 -11 -7 -27 -3 -37 4 -12 -2 -24 -21 -39 -26 -21 -30
-33 -47 -150 -33 -227 -98 -416 -189 -550 -15 -22 -35 -57 -44 -77 -24 -51
-204 -238 -257 -267 -310 -170 -469 -224 -694 -239 -69 -5 -100 -11 -101 -19
-1 -7 -2 -18 -3 -24 0 -6 -17 -9 -38 -7 -31 2 -39 7 -41 25 -4 27 -24 34 -111
36 -58 2 -65 0 -83 -25 -27 -35 -20 -62 39 -137 36 -45 58 -63 85 -71 36 -10
37 -12 40 -63 l3 -52 120 3 c66 2 124 8 129 12 4 5 -46 6 -113 3 -104 -5 -121
-4 -121 9 0 9 -3 29 -6 45 l-6 30 134 6 c162 7 325 38 444 84 19 7 18 -27 -1
-54 -10 -14 -38 -26 -87 -38 -40 -9 -81 -19 -90 -22 -15 -3 -18 -16 -18 -62
l0 -59 -113 -12 c-62 -6 -183 -10 -269 -8 -86 1 -154 0 -152 -4 2 -3 50 -9
106 -13 l103 -7 -3 -48 c-3 -41 -7 -49 -28 -54 -48 -12 -39 -86 10 -86 39 0
45 17 39 105 l-6 83 79 6 c116 10 234 25 245 32 6 3 8 28 4 59 l-7 53 58 12
c141 27 164 45 164 129 0 37 -2 42 -17 36 -136 -52 -335 -85 -518 -85 -180 0
-225 22 -179 88 14 21 22 22 142 22 225 0 392 31 583 106 50 20 92 34 93 32 1
-1 7 -15 14 -31 6 -15 23 -33 37 -39 56 -26 108 60 71 117 -15 23 -14 25 27
55 31 22 49 29 68 25 40 -9 81 28 77 70 -2 29 9 46 95 144 83 94 103 111 127
111 30 0 50 -22 50 -56 0 -10 -21 -40 -47 -66 -39 -40 -44 -49 -33 -63 18 -21
38 -19 76 10 40 30 62 31 112 5 l37 -20 18 21 c9 12 17 25 17 29 0 4 -30 20
-67 36 -85 34 -87 37 -73 63 11 22 19 22 68 4 6 -3 12 -1 12 5 0 5 -11 13 -25
16 -32 8 -31 15 4 79 67 120 151 397 151 496 0 53 28 71 113 71 73 0 73 0 114
-42 60 -63 66 -79 53 -145 -5 -32 -18 -64 -30 -75 -10 -10 -24 -37 -30 -61
-23 -91 -62 -202 -95 -274 -42 -92 -44 -113 -10 -113 21 0 30 12 64 83 57 120
101 269 112 372 15 154 16 149 -49 215 l-58 60 -72 0 c-63 0 -76 -3 -96 -23
-14 -14 -26 -42 -30 -68 -16 -101 -40 -208 -62 -278 -25 -77 -110 -260 -138
-296 -15 -20 -15 -20 -31 3 -12 16 -26 22 -56 22 l-40 0 26 43 c15 23 45 81
68 129 34 72 46 88 66 90 32 4 49 48 86 219 46 215 50 219 198 219 l100 0 67
-50 c37 -28 73 -57 80 -65 7 -8 19 -15 26 -15 16 0 -27 39 -128 119 -38 29
-68 57 -68 62 0 21 -66 49 -116 49 -44 0 -52 3 -62 25 -14 31 -56 34 -72 6z"/>
<path d="M4260 2675 c13 -14 29 -25 36 -25 16 0 74 33 74 43 0 13 -27 8 -40
-8 -7 -8 -18 -15 -25 -15 -7 0 -18 7 -25 15 -7 8 -19 15 -28 15 -12 0 -10 -6
8 -25z"/>
<path d="M3485 2630 c-8 -26 6 -43 31 -38 13 2 19 12 19 28 0 34 -40 41 -50
10z"/>
<path d="M2861 2597 c-16 -24 -51 -62 -77 -84 -34 -28 -46 -45 -41 -57 5 -12
13 -15 32 -10 25 6 35 -8 15 -21 -5 -3 -10 -21 -10 -39 0 -19 -8 -40 -18 -49
-20 -19 -79 -41 -134 -51 -37 -7 -38 -6 -38 24 0 28 -2 30 -38 30 -44 0 -82
-23 -82 -49 0 -36 25 -44 114 -39 88 6 158 30 196 68 13 13 26 18 33 13 41
-30 105 -4 131 52 15 31 15 38 1 71 -20 49 -19 70 5 94 26 26 25 55 -2 74 -36
25 -55 19 -87 -27z"/>
<path d="M1410 2600 c0 -71 65 -304 100 -360 19 -30 21 0 2 37 -34 66 -72 202
-79 279 -6 72 -23 104 -23 44z"/>
<path d="M3334 2595 c-4 -9 -2 -21 4 -27 15 -15 44 -1 40 19 -4 23 -36 29 -44
8z"/>
<path d="M1086 2548 c26 -272 111 -517 250 -723 61 -91 188 -243 210 -252 8
-3 29 7 47 21 17 15 49 38 69 52 43 30 60 25 108 -36 44 -55 185 -146 310
-198 58 -25 108 -47 111 -51 4 -3 9 -37 12 -74 l6 -68 -27 19 c-45 32 -92 53
-92 42 0 -6 29 -24 63 -41 59 -29 66 -31 93 -18 28 14 29 16 29 89 -1 96 -17
123 -88 146 -69 23 -196 86 -282 142 -86 55 -204 168 -297 285 -75 92 -99 105
-132 68 -16 -17 -14 -21 31 -82 25 -35 69 -88 96 -117 28 -29 48 -54 46 -57
-3 -2 -26 16 -53 41 -65 59 -75 46 -11 -15 l50 -48 -44 -39 -44 -38 -69 73
c-203 217 -346 543 -374 854 -4 42 -10 77 -15 77 -4 0 -6 -24 -3 -52z m894
-1064 c0 -2 -9 0 -20 6 -11 6 -20 13 -20 16 0 2 9 0 20 -6 11 -6 20 -13 20
-16z"/>
<path d="M1514 2587 c-38 -22 10 -184 103 -348 24 -42 43 -78 43 -81 0 -11
-137 -88 -156 -88 -10 0 -32 16 -47 35 -39 49 -80 47 -107 -4 -10 -20 -9 -27
7 -50 23 -30 64 -39 83 -17 7 9 28 16 48 16 24 0 58 13 103 40 74 44 90 48
109 25 15 -18 39 -19 63 -1 22 17 22 35 -2 60 -56 63 -149 258 -166 349 -7 34
-5 39 10 35 12 -2 25 -25 40 -69 25 -76 71 -171 116 -241 45 -69 49 -51 5 21
-48 78 -100 192 -120 263 l-16 56 -51 4 c-28 1 -57 -1 -65 -5z"/>
<path d="M702 2574 c-26 -18 -30 -74 -6 -98 24 -24 80 -20 98 6 23 33 19 64
-10 87 -32 25 -52 26 -82 5z"/>
<path d="M1130 2580 c0 -5 13 -10 29 -10 34 0 34 -1 51 -110 7 -41 26 -117 43
-169 29 -90 30 -94 12 -107 -10 -8 -15 -17 -11 -21 3 -4 16 2 27 14 l21 20
-31 90 c-17 49 -38 134 -47 189 -9 54 -22 102 -28 106 -16 11 -66 10 -66 -2z"/>
<path d="M3677 2583 c-4 -3 -7 -34 -6 -67 0 -67 11 -55 23 27 7 43 0 58 -17
40z"/>
<path d="M924 2558 c-12 -5 -27 -22 -34 -37 -37 -79 -46 -94 -71 -107 -16 -8
-37 -14 -49 -14 -31 0 -34 -22 -15 -123 53 -280 193 -567 276 -567 37 0 38 18
2 22 -22 2 -34 14 -55 53 -75 139 -158 393 -183 559 -6 39 -5 42 24 52 30 12
71 66 71 95 0 9 12 28 27 43 33 33 36 29 52 -84 7 -47 21 -99 31 -117 10 -17
30 -75 45 -128 32 -117 85 -255 98 -255 5 0 7 6 4 13 -43 102 -62 154 -88 244
-17 60 -37 117 -44 129 -7 11 -20 58 -29 105 -29 147 -23 136 -62 117z"/>
<path d="M472 2548 c-23 -23 -10 -197 29 -393 47 -234 167 -518 296 -699 53
-76 56 -78 89 -73 31 5 36 2 85 -61 92 -116 228 -265 307 -335 259 -227 590
-384 927 -437 383 -60 684 -17 1072 153 86 37 98 46 98 67 0 30 -26 38 -48 15
-24 -24 -75 -42 -205 -75 -157 -39 -298 -59 -470 -67 l-143 -6 -32 30 c-29 27
-42 32 -132 43 -421 50 -872 262 -1183 554 -46 44 -97 80 -149 105 -117 57
-191 150 -299 374 -99 207 -154 415 -176 672 -6 71 -16 133 -22 137 -16 11
-30 10 -44 -4z m773 -1438 c10 -11 16 -20 13 -20 -3 0 -13 9 -23 20 -10 11
-16 20 -13 20 3 0 13 -9 23 -20z m335 -228 c110 -62 199 -104 340 -158 47 -18
80 -33 73 -34 -15 0 -171 60 -263 103 -127 58 -424 244 -445 277 -3 5 38 -21
92 -59 54 -38 145 -96 203 -129z m476 -202 c16 -6 81 -21 144 -34 63 -14 105
-25 92 -25 -27 -1 -225 43 -262 58 -33 13 -11 14 26 1z m1041 -26 c-3 -3 -12
-4 -19 -1 -8 3 -5 6 6 6 11 1 17 -2 13 -5z m-40 -10 c-3 -3 -12 -4 -19 -1 -8
3 -5 6 6 6 11 1 17 -2 13 -5z m-60 -10 c-3 -3 -12 -4 -19 -1 -8 3 -5 6 6 6 11
1 17 -2 13 -5z m-64 -11 c-7 -2 -19 -2 -25 0 -7 3 -2 5 12 5 14 0 19 -2 13 -5z
m-550 -10 c-13 -2 -33 -2 -45 0 -13 2 -3 4 22 4 25 0 35 -2 23 -4z m490 0 c-7
-2 -21 -2 -30 0 -10 3 -4 5 12 5 17 0 24 -2 18 -5z m-415 -10 c-10 -2 -26 -2
-35 0 -10 3 -2 5 17 5 19 0 27 -2 18 -5z m335 0 c-13 -2 -33 -2 -45 0 -13 2
-3 4 22 4 25 0 35 -2 23 -4z m-155 -10 c-26 -2 -71 -2 -100 0 -29 2 -8 3 47 3
55 0 79 -1 53 -3z"/>
<path d="M1940 2549 c0 -21 61 -125 100 -173 52 -62 52 -41 1 24 -22 28 -51
75 -66 105 -25 54 -35 66 -35 44z"/>
<path d="M3385 2518 c-2 -7 -16 -44 -30 -82 -27 -75 -29 -86 -16 -86 10 0 71
140 71 164 0 19 -19 21 -25 4z"/>
<path d="M3470 2488 c-27 -107 -102 -280 -153 -351 -18 -26 -18 -30 -4 -44 22
-22 41 -12 81 44 76 104 169 334 153 377 -4 10 -18 16 -36 16 -27 0 -31 -4
-41 -42z"/>
<path d="M3817 2493 c-12 -11 -8 -23 8 -23 8 0 15 7 15 15 0 16 -12 20 -23 8z"/>
<path d="M1828 2408 c-38 -13 -36 -46 5 -111 48 -75 62 -84 88 -61 40 36 42
52 13 102 -48 84 -55 89 -106 70z"/>
<path d="M565 2399 c-10 -15 3 -25 16 -12 7 7 7 13 1 17 -6 3 -14 1 -17 -5z"/>
<path d="M680 2395 c0 -16 45 -211 62 -270 31 -106 79 -235 88 -235 4 0 -8 42
-28 93 -37 100 -87 285 -98 366 -4 28 -10 51 -15 51 -5 0 -9 -2 -9 -5z"/>
<path d="M4116 2333 c-9 -81 -50 -230 -90 -331 -19 -46 -29 -81 -23 -79 14 4
65 136 91 237 l23 85 74 3 c85 3 99 14 99 74 0 45 -13 53 -108 64 l-59 6 -7
-59z"/>
<path d="M3810 2370 c0 -5 5 -10 10 -10 6 0 10 5 10 10 0 6 -4 10 -10 10 -5 0
-10 -4 -10 -10z"/>
<path d="M896 2308 c-10 -16 -13 -38 -10 -68 9 -81 101 -330 122 -330 5 0 -3
26 -18 58 -33 68 -90 232 -90 257 0 11 5 15 16 11 9 -3 28 -6 42 -6 25 0 29
-5 44 -65 10 -36 34 -104 54 -150 36 -84 36 -85 20 -124 -21 -54 -6 -98 40
-117 39 -16 74 -7 98 28 38 54 7 117 -63 127 l-43 6 -38 90 c-20 50 -48 133
-61 185 -12 52 -27 101 -32 108 -16 21 -65 14 -81 -10z"/>
<path d="M3566 2301 c-4 -5 -2 -12 3 -15 5 -4 12 -2 15 3 4 5 2 12 -3 15 -5 4
-12 2 -15 -3z"/>
<path d="M2830 2266 c-70 -46 -158 -71 -252 -71 -87 0 -112 -9 -62 -21 37 -9
140 4 209 27 71 23 190 89 160 88 -11 0 -36 -11 -55 -23z"/>
<path d="M3776 2244 c-9 -24 -7 -28 9 -14 17 14 20 30 6 30 -5 0 -12 -7 -15
-16z"/>
<path d="M2062 2214 c-29 -20 -26 -61 5 -81 20 -14 24 -13 48 11 30 30 31 40
5 66 -24 24 -29 24 -58 4z"/>
<path d="M3220 2210 c-25 -46 5 -89 53 -76 30 7 46 49 30 75 -16 26 -69 26
-83 1z"/>
<path d="M1523 2204 c-15 -39 38 -67 60 -32 8 12 7 21 -2 32 -17 21 -50 20
-58 0z"/>
<path d="M616 2173 c37 -158 145 -422 216 -533 44 -68 103 -126 112 -111 4 6
3 11 -2 11 -31 0 -123 134 -183 267 -43 93 -104 266 -119 336 -7 31 -17 57
-22 57 -5 0 -5 -12 -2 -27z"/>
<path d="M1827 2193 c-20 -19 2 -54 94 -149 94 -97 101 -107 95 -136 -11 -55
37 -80 68 -36 31 43 21 74 -37 117 -29 21 -89 77 -134 125 -44 47 -83 83 -86
79z"/>
<path d="M3490 2147 c-19 -29 -37 -56 -39 -62 -8 -20 40 29 60 62 34 55 16 55
-21 0z"/>
<path d="M4155 2160 c-3 -5 1 -10 10 -10 9 0 13 5 10 10 -3 6 -8 10 -10 10 -2
0 -7 -4 -10 -10z"/>
<path d="M3720 2135 c-20 -24 -6 -28 15 -5 10 11 13 20 8 20 -6 0 -16 -7 -23
-15z"/>
<path d="M4163 2093 c-11 -26 -29 -70 -38 -96 -12 -32 -26 -52 -41 -58 -14 -5
-34 -30 -50 -61 -14 -29 -37 -67 -50 -85 -13 -17 -24 -35 -24 -39 0 -15 43 33
68 76 14 25 27 47 29 49 1 2 12 -4 23 -14 10 -9 26 -15 34 -12 21 8 32 56 18
78 -9 14 -6 31 14 78 13 34 33 70 45 82 20 20 22 40 2 46 -6 2 -19 -18 -30
-44z"/>
<path d="M2000 2116 c0 -14 76 -75 143 -115 49 -30 60 -52 48 -96 -9 -33 -8
-34 37 -55 119 -56 308 -82 453 -61 184 27 348 105 494 234 43 39 48 47 36 61
-23 27 -49 18 -124 -45 -78 -66 -215 -138 -312 -164 -94 -26 -275 -31 -374
-11 -100 20 -175 49 -178 67 -2 8 1 21 6 29 8 12 17 13 53 2 236 -67 433 -51
628 49 60 31 131 70 159 87 2 1 2 4 -1 7 -3 3 -50 -19 -104 -49 -226 -126
-432 -153 -648 -85 -33 10 -69 19 -79 19 -20 0 -112 56 -174 106 -44 36 -63
42 -63 20z"/>
<path d="M1820 2070 c34 -42 130 -130 142 -130 5 0 -31 38 -78 85 -47 47 -88
85 -91 85 -2 0 10 -18 27 -40z"/>
<path d="M3447 2063 c-13 -12 -7 -33 8 -33 8 0 15 9 15 20 0 20 -11 26 -23 13z"/>
<path d="M1625 2040 c-17 -19 -16 -21 33 -77 64 -73 170 -178 180 -177 4 0 40
-24 80 -53 74 -56 86 -78 56 -107 -14 -15 -18 -15 -45 1 -48 28 -64 50 -50 67
7 8 8 17 3 20 -12 7 -22 -3 -22 -25 0 -18 75 -89 94 -89 6 0 22 -9 36 -20 14
-11 34 -19 45 -19 14 0 10 5 -17 19 l-37 20 20 34 20 35 112 -55 c114 -55 276
-104 347 -104 55 0 70 -8 70 -39 0 -35 17 -51 55 -51 41 0 55 16 55 62 0 61
-21 74 -131 81 -254 17 -482 127 -709 344 -41 39 -88 89 -105 112 -33 45 -62
52 -90 21z"/>
<path d="M3240 2004 c-25 -25 -78 -70 -117 -100 -74 -56 -78 -60 -67 -88 16
-43 111 10 256 143 62 57 70 57 116 8 l23 -24 -97 -92 c-53 -50 -92 -91 -86
-91 22 0 202 165 202 185 0 14 -87 81 -123 94 -46 18 -61 13 -107 -35z"/>
<path d="M2847 1955 c-121 -50 -116 -60 9 -14 48 18 100 49 79 47 -5 0 -45
-15 -88 -33z"/>
<path d="M1407 1893 c-26 -25 21 -116 111 -218 55 -61 48 -31 -8 36 -58 70
-100 133 -100 150 0 7 8 18 18 25 15 12 15 13 1 14 -9 0 -19 -3 -22 -7z"/>
<path d="M3530 1864 c0 -9 5 -14 12 -12 18 6 21 28 4 28 -9 0 -16 -7 -16 -16z"/>
<path d="M824 1849 c-9 -15 11 -33 30 -26 9 4 13 13 10 22 -7 17 -30 20 -40 4z"/>
<path d="M3615 1834 c-9 -14 -32 -43 -52 -65 -19 -21 -31 -39 -25 -39 15 0
102 99 102 116 0 20 -5 17 -25 -12z"/>
<path d="M2090 1803 c0 -13 10 -29 25 -39 14 -9 25 -25 25 -35 0 -16 3 -17 25
-7 18 8 32 8 55 -2 17 -7 41 -14 53 -16 12 -2 49 -11 82 -20 38 -10 113 -17
203 -19 79 -2 145 -5 146 -7 1 -1 7 -18 12 -37 9 -33 20 -44 57 -55 15 -5 17
-19 17 -101 0 -57 4 -95 10 -95 6 0 10 36 10 88 0 92 -9 118 -44 124 -20 3
-29 16 -43 63 l-8 30 -155 6 c-149 6 -176 9 -247 31 -33 10 -44 34 -20 44 7 2
46 -2 86 -11 82 -17 262 -20 342 -5 83 15 179 44 179 54 0 4 -10 5 -22 1 -124
-38 -180 -47 -308 -48 -92 0 -158 5 -208 16 -74 17 -92 16 -92 -6 -1 -34 -16
-37 -71 -15 -69 29 -83 38 -97 63 -11 19 -11 19 -12 -2z"/>
<path d="M3149 1736 c-13 -27 -7 -61 14 -90 18 -25 34 -14 46 31 18 64 -35
115 -60 59z"/>
<path d="M3396 1738 c-22 -31 -20 -64 4 -88 26 -26 51 -25 84 1 50 40 24 109
-42 109 -21 0 -36 -7 -46 -22z"/>
<path d="M2766 1705 c4 -11 7 -35 6 -52 -2 -29 3 -35 40 -54 l42 -22 79 23 79
23 18 -22 c24 -33 54 -24 58 17 2 18 -2 40 -9 49 -28 33 -55 33 -145 3 -104
-35 -134 -38 -134 -11 0 10 -9 29 -21 42 -18 21 -20 21 -13 4z"/>
<path d="M912 1699 c2 -7 10 -15 17 -17 8 -3 12 1 9 9 -2 7 -10 15 -17 17 -8
3 -12 -1 -9 -9z"/>
<path d="M3267 1704 c-8 -8 1 -24 13 -24 4 0 10 7 14 15 5 15 -14 21 -27 9z"/>
<path d="M4215 1688 c-4 -13 -20 -44 -36 -70 -16 -27 -25 -48 -20 -48 5 0 22
24 38 53 36 64 45 87 33 87 -5 0 -12 -10 -15 -22z"/>
<path d="M4055 1636 c-36 -61 -62 -95 -182 -236 -29 -33 -53 -65 -53 -70 0 -5
18 -30 40 -55 45 -51 48 -68 22 -107 -37 -58 -243 -211 -387 -287 -33 -18 -64
-36 -69 -42 -47 -46 195 93 306 176 45 35 104 83 131 107 41 39 47 50 47 84 0
33 -7 46 -35 74 -19 19 -35 40 -35 47 0 8 36 54 80 104 110 124 204 269 176
269 -2 0 -20 -29 -41 -64z"/>
<path d="M1084 1635 c-21 -32 -12 -67 22 -85 55 -30 111 44 68 91 -25 28 -70
25 -90 -6z"/>
<path d="M1281 1646 c-10 -12 -10 -22 0 -49 11 -31 10 -38 -9 -65 -36 -50 -29
-70 49 -139 97 -87 111 -80 16 8 -42 39 -77 75 -77 81 0 6 15 27 33 47 l32 36
90 -92 c88 -90 120 -109 131 -78 4 10 -34 57 -111 137 -65 68 -123 124 -130
126 -6 2 -17 -4 -24 -12z"/>
<path d="M3835 1650 c-4 -6 -11 -8 -16 -5 -5 4 -67 -49 -137 -117 -78 -76
-165 -148 -222 -186 -52 -34 -105 -68 -116 -77 -13 -8 -27 -34 -33 -62 -7 -26
-21 -66 -31 -88 l-19 -40 -1 50 c0 28 -6 60 -14 71 -13 19 -12 22 15 38 16 9
29 21 29 27 0 13 -11 11 -31 -7 -24 -22 -39 -10 -39 31 0 19 -4 37 -10 40 -6
4 -8 -6 -5 -25 3 -16 7 -43 10 -60 3 -19 0 -30 -8 -31 -6 0 -2 -5 10 -11 27
-13 33 -35 33 -130 0 -68 -3 -80 -26 -107 -28 -33 -54 -41 -54 -16 0 9 -11 27
-26 41 -19 20 -31 24 -52 19 -39 -10 -62 -34 -62 -67 0 -64 92 -95 126 -43 9
14 24 25 33 25 10 0 30 14 46 30 23 24 30 40 30 73 0 25 9 56 21 77 12 19 29
60 38 92 15 51 20 59 69 86 99 56 222 155 325 261 62 63 102 98 100 86 -2 -15
9 -26 45 -44 26 -13 47 -30 47 -38 0 -8 -57 -71 -127 -142 -130 -129 -269
-233 -407 -303 -33 -17 -55 -33 -48 -36 16 -5 150 71 256 147 149 105 376 341
376 390 0 35 -108 79 -125 51z"/>
<path d="M955 1636 c-17 -12 -18 -17 -7 -40 6 -15 19 -29 27 -32 39 -15 63 56
26 76 -25 13 -23 13 -46 -4z"/>
<path d="M1680 1615 c0 -9 64 -64 74 -65 6 0 -5 16 -24 35 -31 32 -50 43 -50
30z"/>
<path d="M3171 1578 c-1 -42 29 -53 76 -29 46 24 82 50 68 51 -5 0 -28 -11
-50 -25 -52 -32 -71 -31 -83 3 l-10 27 -1 -27z"/>
<path d="M3540 1512 c-31 -26 -67 -55 -80 -65 -19 -13 -21 -17 -7 -15 19 3
156 108 157 121 0 14 -16 5 -70 -41z"/>
<path d="M1000 1537 c0 -23 241 -247 364 -339 143 -107 205 -144 228 -135 17
6 62 135 71 199 9 65 -56 119 -83 69 -14 -27 -14 -26 27 -72 l37 -41 -25 -71
c-20 -58 -28 -71 -43 -69 -25 5 -169 102 -271 183 -44 34 -131 113 -192 175
-62 61 -113 107 -113 101z"/>
<path d="M3072 1538 c-34 -34 6 -90 48 -68 35 19 20 80 -20 80 -9 0 -21 -5
-28 -12z"/>
<path d="M2928 1522 c-32 -9 -58 -20 -58 -25 0 -4 8 -6 18 -3 9 2 36 10 60 17
23 7 42 16 42 21 0 4 -1 8 -2 7 -2 0 -29 -8 -60 -17z"/>
<path d="M2184 1515 c-10 -26 6 -38 27 -19 15 13 17 19 7 26 -19 11 -28 10
-34 -7z"/>
<path d="M3731 1486 c-21 -25 -4 -58 27 -54 23 2 27 8 27 33 0 23 -5 31 -21
33 -11 2 -26 -4 -33 -12z"/>
<path d="M1547 1483 c-21 -20 6 -46 141 -135 81 -53 159 -102 175 -109 24 -11
27 -16 21 -44 -6 -32 -6 -32 68 -59 96 -35 207 -66 235 -66 21 0 23 4 21 48
l-1 47 -4 -43 c-4 -40 -5 -42 -31 -36 -74 18 -202 57 -240 74 -40 18 -42 21
-31 42 10 19 9 24 -6 33 -103 59 -260 174 -263 190 -8 42 -64 80 -85 58z"/>
<path d="M1791 1436 c-10 -12 -9 -13 8 -9 12 3 37 -7 66 -27 26 -18 49 -30 52
-27 5 5 -96 77 -108 77 -4 0 -12 -6 -18 -14z"/>
<path d="M2888 1433 c-16 -2 -28 -9 -28 -15 0 -6 10 -8 23 -4 12 3 28 6 35 6
6 0 12 5 12 10 0 6 -3 9 -7 9 -5 -1 -20 -4 -35 -6z"/>
<path d="M4018 1413 c-23 -27 -30 -43 -20 -43 11 0 46 50 39 56 -2 2 -11 -4
-19 -13z"/>
<path d="M1770 1402 c0 -10 21 -32 32 -32 16 0 8 19 -12 30 -11 6 -20 7 -20 2z"/>
<path d="M2004 1398 c-4 -6 0 -16 9 -23 15 -10 15 -16 1 -61 -17 -54 -11 -114
11 -114 22 0 27 18 9 28 -13 7 -15 18 -10 48 19 120 19 121 2 127 -8 3 -18 1
-22 -5z"/>
<path d="M3577 1312 c-94 -70 -112 -99 -23 -37 71 49 122 92 116 98 -3 2 -44
-25 -93 -61z"/>
<path d="M1432 1318 c-28 -28 -3 -88 37 -88 21 0 51 30 51 52 0 36 -62 62 -88
36z"/>
<path d="M989 1198 c72 -88 121 -136 121 -120 0 7 -3 12 -7 12 -5 0 -41 41
-82 90 -41 50 -78 90 -83 90 -5 0 18 -33 51 -72z"/>
<path d="M2893 1254 c-3 -8 1 -22 9 -30 12 -12 17 -12 33 -1 23 17 14 47 -15
47 -11 0 -23 -7 -27 -16z"/>
<path d="M3407 1234 c-4 -4 -7 -16 -7 -26 0 -14 6 -19 23 -16 14 2 22 10 22
23 0 20 -25 32 -38 19z"/>
<path d="M2583 1214 c-8 -21 13 -42 28 -27 13 13 5 43 -11 43 -6 0 -13 -7 -17
-16z"/>
<path d="M3770 1204 c-55 -59 -242 -188 -355 -245 -66 -33 -126 -66 -133 -73
-14 -14 -7 -42 12 -49 28 -11 277 131 401 228 101 80 138 118 133 141 -5 29
-31 28 -58 -2z"/>
<path d="M1743 1174 c-3 -8 1 -22 8 -29 24 -23 307 -130 317 -120 3 2 -4 7
-14 11 -128 44 -223 89 -251 119 -35 38 -50 43 -60 19z"/>
<path d="M2278 1065 l3 -96 -38 6 c-21 4 -51 11 -68 15 -28 8 -75 13 -102 11
-18 -1 -16 -36 2 -51 8 -7 31 -10 51 -8 20 2 63 -1 97 -8 33 -7 64 -11 69 -8
4 3 8 50 8 105 0 99 0 99 25 99 14 0 25 5 25 10 0 6 -11 10 -24 10 -13 0 -30
2 -38 5 -10 4 -12 -14 -10 -90z"/>
<path d="M2386 1077 c-22 -16 -18 -55 7 -71 39 -24 79 44 41 71 -10 7 -21 13
-24 13 -3 0 -14 -6 -24 -13z"/>
<path d="M1737 1054 c-12 -12 -8 -51 7 -64 8 -6 25 -10 38 -8 19 2 23 9 23 38
0 32 -3 35 -30 38 -17 2 -34 0 -38 -4z"/>
<path d="M1836 949 c7 -13 160 -68 258 -94 109 -29 273 -55 336 -54 42 2 40 2
-20 11 -179 25 -314 55 -440 97 -76 26 -137 44 -134 40z"/>
<path d="M2822 880 c-53 -22 -51 -97 3 -122 22 -10 30 -8 53 9 39 29 41 74 6
102 -30 23 -30 23 -62 11z"/>
</g>
</svg>