<?xml version="1.0" standalone="no"?>
<!DOCTYPE svg PUBLIC "-//W3C//DTD SVG 20010904//EN"
 "http://www.w3.org/TR/2001/REC-SVG-20010904/DTD/svg10.dtd">
<svg version="1.0" xmlns="http://www.w3.org/2000/svg"
 width="70pt" height="70pt" viewBox="0 0 512.000000 512.000000"
 preserveAspectRatio="xMidYMid meet">
<metadata>
Created by potrace 1.16, written by Peter Selinger 2001-2019
</metadata>
<g transform="translate(0.000000,512.000000) scale(0.100000,-0.100000)"
fill="#000000" stroke="none">
<path d="M2511 4233 c-1 -9 -22 -13 -71 -13 -314 0 -636 -101 -890 -279 -51
-36 -99 -69 -105 -73 -6 -5 -4 -13 7 -24 16 -16 19 -15 55 17 192 173 536 300
886 327 107 9 134 18 124 44 -4 9 -6 10 -6 1z"/>
<path d="M2843 4076 c9 -7 71 -32 137 -55 204 -71 347 -145 490 -253 47 -35
54 -39 25 -13 -117 107 -350 235 -539 296 -131 43 -139 45 -113 25z"/>
<path d="M2760 4034 c0 -7 -51 -9 -153 -6 -428 13 -782 -124 -1069 -412 -97
-97 -116 -112 -134 -105 -19 7 -27 0 -58 -53 -20 -34 -36 -65 -36 -69 0 -5 21
15 47 42 26 28 64 60 85 70 21 11 70 49 110 85 314 284 659 416 1066 408 129
-2 154 0 159 12 3 9 1 20 -6 27 -7 7 -11 7 -11 1z"/>
<path d="M2555 3970 c3 -5 8 -10 11 -10 2 0 4 5 4 10 0 6 -5 10 -11 10 -5 0
-7 -4 -4 -10z"/>
<path d="M2503 3963 c9 -2 23 -2 30 0 6 3 -1 5 -18 5 -16 0 -22 -2 -12 -5z"/>
<path d="M2450 3829 c-132 -13 -379 -91 -349 -110 7 -4 20 -4 29 1 30 16 184
52 240 56 30 2 82 8 115 14 82 14 164 12 270 -4 50 -8 108 -17 130 -20 22 -3
78 -21 125 -41 122 -52 129 -52 19 1 -78 38 -98 52 -107 77 l-11 30 -18 -22
c-18 -22 -19 -23 -81 -7 -53 14 -237 38 -267 34 -5 0 -48 -4 -95 -9z"/>
<path d="M1476 3812 c2 -3 -34 -44 -80 -93 -120 -126 -170 -194 -226 -311 -69
-143 -131 -373 -147 -544 -4 -39 -10 -61 -16 -57 -7 4 -8 -38 -4 -128 7 -155
13 -185 33 -168 9 8 10 17 3 35 -29 79 17 487 66 584 7 14 23 66 34 115 26
108 79 228 97 221 8 -3 11 0 8 9 -3 8 4 28 15 44 12 16 21 32 21 36 0 14 64
91 139 167 49 51 72 81 65 87 -6 5 -9 6 -8 3z"/>
<path d="M1394 3638 c-110 -150 -127 -177 -131 -203 -3 -17 -1 -16 13 5 31 45
67 80 85 80 10 0 19 10 23 24 3 14 29 53 56 87 38 47 50 71 50 96 0 18 -1 33
-3 33 -2 0 -43 -55 -93 -122z"/>
<path d="M2295 3705 c-256 -40 -330 -72 -531 -232 -141 -112 -282 -208 -292
-198 -12 13 135 139 228 194 49 30 99 65 112 78 21 22 17 22 -32 -8 -261 -154
-352 -251 -451 -480 -48 -110 -94 -279 -110 -399 -12 -91 -27 -125 -90 -199
-52 -62 -61 -98 -48 -180 20 -130 141 -442 176 -455 17 -7 17 -7 -19 65 -46
92 -80 189 -76 224 1 21 -4 41 -14 52 -48 52 -71 237 -32 250 6 2 16 -32 23
-77 6 -44 18 -97 26 -117 16 -44 19 -26 5 32 -16 68 22 205 57 205 7 0 13 8
13 18 0 10 5 23 10 28 6 6 15 55 20 110 19 193 89 409 166 514 43 59 128 125
146 114 5 -3 7 -1 6 4 -3 10 178 182 192 182 4 0 13 -7 20 -15 11 -13 15 -12
31 10 11 13 54 47 97 75 42 27 82 53 87 58 6 4 16 8 23 9 7 2 20 11 31 22 19
19 104 55 158 67 43 9 183 55 183 60 0 6 -25 4 -115 -11z"/>
<path d="M3625 3630 c44 -44 82 -80 85 -80 2 0 -31 36 -75 80 -44 44 -82 80
-85 80 -2 0 31 -36 75 -80z"/>
<path d="M3159 3646 c19 -20 37 -36 39 -36 8 0 -44 59 -58 65 -8 3 1 -10 19
-29z"/>
<path d="M3254 3589 c1 -26 7 -33 39 -44 39 -13 158 -132 245 -244 41 -52 72
-81 72 -66 0 27 -213 263 -311 346 l-47 39 2 -31z"/>
<path d="M2505 3590 c-12 -14 -31 -20 -59 -20 -63 0 -213 -35 -293 -68 -39
-16 -117 -57 -172 -91 -104 -64 -119 -69 -140 -48 -29 28 -226 -223 -290 -370
-57 -131 -75 -229 -75 -403 0 -142 2 -162 28 -240 83 -254 289 -476 569 -611
90 -43 111 -47 126 -22 9 17 11 17 45 0 20 -9 36 -21 36 -27 0 -20 -41 -91
-56 -97 -36 -13 -236 74 -367 162 -47 31 -116 85 -153 118 l-68 62 39 -53 c26
-36 34 -56 27 -61 -30 -18 291 -215 443 -271 65 -24 70 -28 68 -54 -4 -55 -17
-58 -104 -25 -132 48 -266 119 -469 246 -47 29 -89 53 -93 53 -13 0 -7 -20 18
-61 16 -25 24 -47 20 -60 -4 -11 -2 -19 5 -19 6 0 34 -21 63 -47 48 -44 49
-44 13 -6 -29 31 -36 46 -31 62 3 12 10 21 15 21 10 0 158 -77 175 -90 19 -15
230 -118 297 -144 36 -14 76 -26 87 -26 24 0 24 -2 21 -87 -2 -70 1 -74 70
-76 22 -1 40 -5 40 -8 0 -4 11 -9 24 -11 17 -4 23 -1 19 9 -3 7 -14 13 -24 13
-11 0 -22 6 -25 14 -3 8 -15 11 -29 8 -21 -4 -25 2 -39 49 -9 29 -16 89 -16
136 0 77 2 84 25 99 18 12 40 15 82 11 66 -5 185 -36 194 -50 17 -25 313 37
434 90 79 35 218 115 270 155 l42 32 -15 38 -15 37 -39 -32 c-144 -116 -290
-193 -443 -233 -117 -30 -314 -44 -373 -26 -20 6 -54 14 -75 17 -21 3 -35 10
-32 14 3 5 24 5 47 0 43 -10 58 -2 58 32 0 14 19 17 128 22 224 9 430 82 606
216 66 49 83 58 95 48 12 -10 14 -9 8 6 -4 10 -7 46 -7 79 l0 60 -77 -71 c-42
-39 -79 -68 -83 -66 -5 3 -10 -2 -14 -10 -3 -8 -12 -15 -21 -15 -8 0 -15 -4
-15 -9 0 -5 -11 -12 -25 -15 -14 -4 -24 -10 -21 -14 2 -4 -6 -8 -17 -9 -12 -1
-56 -14 -97 -29 -70 -27 -85 -29 -220 -29 -124 0 -156 3 -220 23 -41 13 -89
32 -107 42 -27 16 -31 16 -26 3 4 -11 2 -14 -5 -9 -7 4 -12 3 -12 -3 0 -11 94
-48 162 -62 51 -11 98 -50 98 -80 0 -23 -61 -31 -138 -18 -144 23 -293 98
-417 210 -44 39 -34 26 38 -50 53 -57 95 -106 92 -109 -9 -9 -171 76 -232 122
-34 26 -77 66 -95 89 -18 23 -46 55 -62 72 -55 58 -94 110 -120 163 -25 49
-56 149 -59 192 -1 10 -4 17 -9 14 -32 -20 -48 188 -24 323 16 89 48 177 80
218 14 18 15 18 16 2 0 -14 4 -16 19 -7 11 5 28 10 39 10 11 0 22 9 25 20 4
14 0 20 -12 20 -10 0 -26 9 -35 19 -17 19 -17 22 15 68 114 169 260 302 417
382 43 22 73 18 85 -11 6 -18 -9 -54 -25 -61 -43 -16 -226 -168 -283 -235
-116 -135 -154 -208 -189 -357 -11 -44 10 -19 22 28 12 44 59 127 71 127 5 0
12 11 15 25 4 14 11 25 16 25 6 0 10 5 10 11 0 26 76 121 123 154 29 20 79 56
112 80 33 24 82 54 109 67 28 13 64 35 80 51 17 15 37 28 46 29 8 1 22 2 30 3
74 9 105 24 80 40 -5 3 -10 22 -10 41 0 41 -6 42 -115 14 -92 -23 -110 -25
-73 -5 14 8 62 22 105 32 43 9 83 24 89 32 8 10 37 17 83 22 79 7 87 10 74 34
-8 14 -11 14 -28 -5z m-195 -155 c0 -8 -7 -15 -15 -15 -8 0 -15 7 -15 15 0 8
7 15 15 15 8 0 15 -7 15 -15z m520 -1664 c0 -21 -228 -90 -251 -75 -12 7 15
40 45 56 10 6 49 12 85 15 36 3 68 7 70 9 8 8 51 4 51 -5z"/>
<path d="M2860 3602 c0 -4 31 -19 68 -35 37 -15 76 -34 87 -43 20 -15 20 -16
1 -29 -10 -8 -38 -17 -62 -21 l-43 -6 59 -44 c33 -24 62 -44 64 -44 2 0 2 9
-1 19 -6 24 13 61 33 61 31 0 98 -44 171 -113 63 -59 70 -64 38 -25 -60 73
-208 193 -291 236 -43 23 -124 51 -124 44z"/>
<path d="M1849 3583 c-13 -16 -12 -17 4 -4 16 13 21 21 13 21 -2 0 -10 -8 -17
-17z"/>
<path d="M3240 3524 c0 -4 33 -41 73 -83 134 -141 248 -342 285 -506 12 -53
23 -76 44 -93 l28 -23 -36 98 c-74 202 -77 213 -65 239 14 30 25 30 39 0 9
-19 21 -26 59 -32 26 -3 57 -11 68 -16 16 -7 16 -5 -4 11 -13 12 -37 21 -55
21 -27 0 -35 6 -49 36 -15 30 -22 35 -40 30 -12 -3 -31 -9 -42 -12 -17 -4 -30
9 -72 73 -66 100 -149 198 -191 223 -18 11 -30 25 -27 30 3 6 1 10 -4 10 -6 0
-11 -3 -11 -6z"/>
<path d="M2400 3463 c0 -16 49 -31 125 -38 128 -11 223 -31 315 -66 22 -8 25
-15 22 -44 -3 -22 -8 -32 -17 -29 -7 3 -16 1 -20 -5 -11 -19 -58 -12 -122 19
-35 16 -63 27 -63 25 0 -2 25 -18 55 -35 31 -18 70 -44 88 -58 18 -15 26 -19
19 -10 -12 15 -10 19 20 32 18 9 40 21 49 28 26 18 99 -15 167 -75 l57 -51
-60 63 c-105 108 -239 190 -371 226 -73 19 -264 32 -264 18z"/>
<path d="M3780 3451 c0 -7 30 -53 66 -104 56 -78 124 -194 124 -211 0 -11 -39
-26 -53 -20 -8 3 -34 32 -57 65 -24 32 -45 59 -47 59 -2 0 8 -22 22 -49 44
-87 86 -202 113 -310 24 -97 27 -123 27 -309 0 -198 0 -203 20 -198 11 3 27 6
35 6 12 1 11 3 -2 11 -15 8 -18 25 -18 95 0 108 -16 256 -40 364 -10 47 -21
99 -24 115 -3 17 -8 42 -11 57 -5 19 -1 32 14 47 26 26 32 26 59 1 29 -27 28
-21 -8 50 -69 136 -220 364 -220 331z"/>
<path d="M2424 3394 c34 -19 153 -33 142 -16 -6 10 -31 15 -128 27 l-43 6 29
-17z"/>
<path d="M3090 3327 c0 -2 15 -16 33 -33 l32 -29 -29 33 c-28 30 -36 37 -36
29z"/>
<path d="M3310 3266 c0 -2 8 -10 18 -17 15 -13 16 -12 3 4 -13 16 -21 21 -21
13z"/>
<path d="M1181 3244 c0 -11 3 -14 6 -6 3 7 2 16 -1 19 -3 4 -6 -2 -5 -13z"/>
<path d="M2365 3244 c-143 -32 -223 -85 -417 -273 l-106 -103 -23 -82 c-44
-160 -24 -363 51 -524 56 -119 153 -244 243 -313 28 -22 15 -5 -39 52 -103
107 -171 219 -221 364 -18 52 -26 101 -30 191 -5 106 -3 130 16 192 20 67 62
134 75 121 4 -3 0 -24 -8 -46 -60 -169 -35 -400 59 -558 69 -115 239 -264 286
-250 10 4 17 11 14 16 -4 5 -1 9 6 9 18 0 129 -52 129 -60 0 -4 13 -13 30 -20
16 -7 28 -17 27 -23 -2 -12 9 -14 111 -23 192 -17 456 111 575 279 61 86 120
206 109 220 -5 7 -14 41 -21 77 -7 36 -17 84 -22 107 -5 23 -10 54 -11 70 0
15 -4 -33 -8 -107 -9 -153 -31 -233 -66 -238 -14 -2 -29 -20 -45 -55 -38 -82
-166 -206 -261 -251 -113 -54 -246 -75 -325 -51 -6 2 -9 13 -6 24 4 16 14 19
62 20 248 1 503 218 541 461 21 135 3 240 -55 325 -37 56 -38 55 -10 -13 73
-181 47 -377 -72 -531 -188 -242 -513 -288 -758 -107 l-50 37 59 -55 c51 -47
58 -57 52 -80 l-7 -27 -41 23 c-99 56 -258 240 -263 305 -2 16 -11 57 -21 93
-12 45 -18 98 -17 171 0 99 3 112 33 178 22 47 49 86 81 116 45 43 79 60 63
33 -5 -9 -2 -8 9 1 16 12 21 11 48 -15 48 -45 49 -59 13 -132 -62 -123 -65
-257 -10 -378 30 -65 43 -73 16 -9 -49 115 -47 217 9 350 39 94 137 253 176
288 33 28 74 48 109 51 18 2 38 6 44 10 7 4 31 11 54 16 35 8 26 9 -47 6 -100
-4 -148 -20 -209 -68 -30 -24 -36 -26 -27 -10 15 28 14 42 -4 42 -7 0 -19 8
-24 18 -10 16 -10 16 -11 0 0 -10 -4 -18 -9 -18 -6 0 -37 -25 -71 -57 -58 -53
-61 -55 -54 -27 8 34 44 75 82 95 15 8 45 26 66 42 22 15 77 39 123 54 79 24
93 25 226 20 78 -3 157 -10 175 -16 18 -5 30 -6 27 -1 -3 5 -36 19 -73 30 -91
29 -262 35 -357 14z m-126 -208 l23 -25 -21 -33 c-24 -38 -57 -78 -64 -78 -3
0 -17 16 -31 35 l-27 35 42 45 c23 25 45 45 49 45 3 0 17 -11 29 -24z"/>
<path d="M3760 3144 c13 -33 40 -84 44 -84 10 0 -29 100 -40 104 -10 4 -11 -1
-4 -20z"/>
<path d="M3294 3068 c13 -25 21 -50 18 -54 -4 -4 -1 -3 7 1 10 6 13 4 9 -7 -4
-8 0 -15 7 -15 15 0 -23 78 -51 107 -8 8 -4 -6 10 -32z"/>
<path d="M2571 2996 c2 -2 39 -18 83 -36 43 -18 101 -48 129 -67 61 -41 43
-17 -25 33 -27 20 -76 45 -109 55 -58 18 -87 24 -78 15z"/>
<path d="M3331 2975 c0 -5 6 -21 14 -35 8 -14 14 -20 14 -15 0 6 -6 21 -14 35
-8 14 -14 21 -14 15z"/>
<path d="M3216 2950 c13 -46 53 -145 54 -132 0 25 -30 119 -46 138 -14 18 -15
18 -8 -6z"/>
<path d="M1597 2885 c-4 -8 -2 -17 3 -20 6 -4 10 3 10 14 0 25 -6 27 -13 6z"/>
<path d="M3149 2865 c5 -11 14 -45 21 -76 l13 -57 28 33 c34 39 39 61 10 45
-20 -10 -27 -4 -69 56 -12 18 -12 18 -3 -1z"/>
<path d="M1581 2828 c-12 -35 -22 -138 -13 -138 5 0 15 36 23 80 15 75 9 108
-10 58z"/>
<path d="M3108 2767 c17 -48 25 -96 26 -144 1 -47 5 -73 12 -73 7 0 14 8 16
18 7 25 -3 142 -12 142 -4 0 -17 27 -29 60 -31 85 -42 83 -13 -3z"/>
<path d="M3721 2799 c-1 -28 5 -40 23 -52 l24 -16 -18 37 c-9 20 -20 44 -23
52 -3 8 -6 -1 -6 -21z"/>
<path d="M3521 2804 c0 -11 3 -14 6 -6 3 7 2 16 -1 19 -3 4 -6 -2 -5 -13z"/>
<path d="M4210 2785 c0 -8 4 -15 10 -15 5 0 7 7 4 15 -4 8 -8 15 -10 15 -2 0
-4 -7 -4 -15z"/>
<path d="M4227 2710 c3 -30 7 -57 9 -59 7 -8 2 64 -6 89 -6 16 -7 6 -3 -30z"/>
<path d="M3605 2693 c-11 -20 -33 -53 -49 -72 -64 -81 -138 -270 -117 -303 15
-24 14 -55 -3 -65 -15 -9 -66 -132 -66 -160 0 -11 7 -61 16 -112 19 -109 48
-172 85 -185 64 -22 170 86 264 268 26 50 38 80 27 66 -12 -14 -23 -22 -27
-19 -3 4 3 60 14 125 11 66 22 153 26 194 3 41 11 99 16 129 11 51 10 55 -12
72 -13 10 -27 19 -30 19 -3 0 -9 -64 -12 -142 -3 -79 -13 -173 -21 -211 -34
-147 -127 -349 -201 -434 -27 -31 -33 -33 -56 -25 -40 16 -40 33 -2 93 61 95
133 254 160 356 22 85 26 120 27 260 1 178 -7 207 -39 146z m6 -198 c-5 -42
-14 -82 -19 -87 -6 -6 -23 -7 -37 -4 -25 6 -27 10 -21 44 3 20 6 55 6 76 0 22
3 36 6 33 4 -4 21 5 38 20 38 32 41 25 27 -82z m-52 -252 c-15 -90 -74 -237
-90 -227 -20 12 -7 73 31 145 5 9 13 35 20 57 9 34 32 72 44 72 2 0 -1 -21 -5
-47z"/>
<path d="M3720 2722 c0 -4 7 -17 15 -29 20 -28 76 -69 71 -51 -2 7 -7 26 -10
41 -4 15 -10 26 -15 23 -4 -3 -17 1 -27 9 -21 16 -34 19 -34 7z"/>
<path d="M4241 2493 c-4 -418 -218 -853 -436 -888 -38 -6 -42 -5 -54 21 -12
27 -14 28 -26 11 -8 -11 -16 -14 -19 -8 -4 5 27 35 69 66 73 53 90 70 61 59
-32 -12 -20 32 46 167 39 79 81 173 94 209 14 39 36 76 54 93 32 28 66 35 72
15 3 -7 10 15 16 47 11 54 11 61 -5 73 -15 11 -19 10 -26 -6 -5 -11 -36 -35
-69 -53 -77 -43 -98 -70 -98 -124 0 -84 -138 -323 -255 -440 -62 -62 -96 -82
-153 -91 -60 -9 -105 10 -160 71 l-49 54 -21 -28 c-18 -25 -19 -30 -5 -44 14
-13 8 -20 -58 -65 -95 -63 -191 -112 -301 -150 -135 -48 -229 -64 -408 -71
l-165 -6 49 -17 c57 -21 288 -25 378 -8 29 6 87 17 128 25 41 8 86 16 100 19
34 5 100 38 100 48 0 5 5 6 10 3 6 -3 10 -1 10 5 0 6 4 9 9 6 5 -3 11 0 14 8
3 8 29 26 59 41 29 14 75 42 102 61 27 19 54 33 60 31 19 -6 47 -68 40 -89 -4
-14 -3 -18 6 -13 7 4 26 -6 46 -26 l34 -33 70 69 c38 38 72 66 76 62 4 -3 14
-2 24 3 24 13 60 -13 43 -31 -6 -6 -9 -18 -6 -25 7 -18 -148 -170 -248 -245
-255 -191 -532 -293 -853 -315 -84 -5 -104 -9 -90 -18 29 -16 218 -11 316 8
122 23 319 90 408 139 197 107 461 317 489 388 8 22 24 31 94 52 95 30 141 63
214 152 84 104 152 256 197 444 29 118 42 329 27 421 -7 48 -9 38 -10 -77z
m-696 -939 c14 -6 12 -11 -11 -35 -33 -34 -44 -36 -66 -10 -15 18 -15 20 15
35 37 18 39 18 62 10z"/>
<path d="M1593 2555 c0 -33 2 -45 4 -27 2 18 2 45 0 60 -2 15 -4 0 -4 -33z"/>
<path d="M3301 2475 c0 -17 -5 -46 -11 -65 -5 -19 -6 -38 -2 -42 5 -5 14 11
21 34 7 24 15 51 18 62 3 11 1 16 -5 12 -6 -3 -13 2 -15 11 -3 10 -5 5 -6 -12z"/>
<path d="M1314 2420 c12 -152 98 -423 137 -433 19 -5 26 7 10 17 -31 19 -92
207 -126 391 -10 50 -20 92 -23 95 -2 3 -2 -29 2 -70z"/>
<path d="M1602 2440 c0 -14 2 -19 5 -12 2 6 2 18 0 25 -3 6 -5 1 -5 -13z"/>
<path d="M1611 2384 c0 -11 3 -14 6 -6 3 7 2 16 -1 19 -3 4 -6 -2 -5 -13z"/>
<path d="M3882 2345 c0 -16 2 -22 5 -12 2 9 2 23 0 30 -3 6 -5 -1 -5 -18z"/>
<path d="M1631 2304 c0 -11 3 -14 6 -6 3 7 2 16 -1 19 -3 4 -6 -2 -5 -13z"/>
<path d="M1646 2260 c8 -32 72 -162 86 -175 5 -5 -8 26 -29 70 -22 44 -45 91
-51 105 l-12 25 6 -25z"/>
<path d="M2410 1939 c0 -5 5 -7 10 -4 6 3 10 8 10 11 0 2 -4 4 -10 4 -5 0 -10
-5 -10 -11z"/>
<path d="M2247 1859 c7 -7 15 -10 18 -7 3 3 -2 9 -12 12 -14 6 -15 5 -6 -5z"/>
<path d="M1280 1805 c1 -5 14 -26 31 -45 17 -19 26 -26 20 -15 -15 30 -51 71
-51 60z"/>
<path d="M3884 1788 l-19 -23 23 19 c12 11 22 21 22 23 0 8 -8 2 -26 -19z"/>
<path d="M1375 1670 c10 -11 20 -20 23 -20 3 0 -3 9 -13 20 -10 11 -20 20 -23
20 -3 0 3 -9 13 -20z"/>
<path d="M1411 1622 c12 -19 12 -24 0 -31 -19 -12 -4 -35 61 -96 29 -27 41
-36 26 -20 -29 34 -68 107 -68 128 0 8 -7 21 -17 28 -15 13 -15 12 -2 -9z"/>
<path d="M1575 1530 c38 -38 72 -70 74 -70 3 0 -26 32 -64 70 -38 39 -72 70
-74 70 -3 0 26 -31 64 -70z"/>
<path d="M3352 1493 c-19 -13 -27 -14 -50 -4 l-27 13 24 -26 25 -26 28 27 c39
37 39 43 0 16z"/>
<path d="M1767 1480 c11 -14 9 -20 -12 -40 -33 -31 -32 -37 10 -54 19 -8 35
-19 35 -24 0 -6 6 -12 13 -15 10 -4 9 5 -5 31 -10 20 -16 44 -13 53 3 10 -4
27 -17 41 -13 13 -17 17 -11 8z"/>
<path d="M3200 1359 c-170 -96 -349 -156 -536 -180 -94 -11 -211 -9 -248 7
-17 6 -16 3 5 -25 20 -27 21 -33 9 -41 -34 -22 -122 -6 -304 55 -116 38 -173
64 -221 99 -16 12 -37 26 -45 31 -13 8 -13 7 -1 -8 21 -27 141 -108 189 -128
62 -27 282 -99 301 -99 9 0 40 -6 68 -13 58 -15 64 -11 71 51 2 9 30 12 105
12 56 0 131 5 167 11 36 6 97 12 135 14 103 4 250 65 413 171 77 50 101 71 68
58 -9 -3 -21 5 -31 20 -10 14 -22 26 -29 25 -6 0 -58 -27 -116 -60z"/>
<path d="M1937 1156 c-6 -14 39 -41 61 -37 8 1 20 -3 28 -10 12 -9 13 -9 9 3
-3 8 -25 24 -50 36 -34 16 -44 18 -48 8z"/>
<path d="M1904 1064 c63 -33 118 -52 134 -47 15 6 16 45 0 61 -19 19 -28 14
-28 -13 0 -32 -19 -32 -88 0 -70 32 -81 31 -18 -1z"/>
<path d="M2245 971 c66 -24 142 -35 149 -22 4 6 -10 13 -31 16 -21 4 -60 11
-86 16 -73 14 -88 10 -32 -10z"/>
</g>
</svg>