<?xml version="1.0" standalone="no"?>
<!DOCTYPE svg PUBLIC "-//W3C//DTD SVG 20010904//EN"
 "http://www.w3.org/TR/2001/REC-SVG-20010904/DTD/svg10.dtd">
<svg version="1.0" xmlns="http://www.w3.org/2000/svg"
 width="70pt" height="70pt" viewBox="0 0 512.000000 512.000000"
 preserveAspectRatio="xMidYMid meet">
<metadata>
Created by potrace 1.16, written by Peter Selinger 2001-2019
</metadata>
<g transform="translate(0.000000,512.000000) scale(0.100000,-0.100000)"
fill="#000000" stroke="none">
<path d="M4775 5053 c-38 -36 -122 -105 -185 -151 -179 -133 -275 -218 -346
-306 -92 -114 -93 -122 -5 -36 42 42 164 141 271 221 182 136 249 196 329 298
50 63 15 49 -64 -26z"/>
<path d="M4275 5050 c-3 -11 -11 -20 -16 -20 -5 0 -12 -7 -15 -15 -8 -19 -112
-119 -229 -219 -49 -43 -89 -82 -87 -87 1 -6 -2 -8 -7 -5 -12 8 -173 -163
-166 -175 4 -5 2 -9 -4 -9 -5 0 -20 -14 -32 -32 -14 -18 -17 -28 -8 -24 7 4 6
1 -3 -7 -10 -8 -15 -17 -11 -20 3 -4 1 -7 -5 -7 -7 0 -11 -3 -10 -7 1 -5 -6
-22 -15 -40 -30 -56 -19 -47 50 39 77 95 170 188 294 294 47 41 108 100 136
131 55 63 157 223 143 223 -5 0 -12 -9 -15 -20z"/>
<path d="M5069 4964 c-39 -47 -237 -181 -348 -236 -119 -59 -215 -122 -256
-169 -11 -12 14 3 56 33 41 31 127 82 190 113 63 31 156 89 208 128 99 76 180
146 170 147 -4 0 -12 -7 -20 -16z"/>
<path d="M4915 4680 c-33 -36 -166 -122 -253 -162 -88 -41 -196 -111 -223
-144 -7 -10 4 -5 26 12 22 17 50 34 63 38 12 4 22 11 22 15 0 5 42 27 93 51
111 51 208 114 262 169 21 23 37 41 34 41 -3 0 -14 -9 -24 -20z"/>
<path d="M5004 4542 c-50 -37 -120 -94 -157 -127 -36 -34 -108 -85 -160 -114
-52 -30 -112 -69 -133 -88 -46 -41 -37 -37 53 22 37 25 71 45 76 45 17 0 95
57 152 110 33 31 106 89 163 129 56 39 102 76 102 81 0 13 8 18 -96 -58z"/>
<path d="M0 4479 c0 -37 143 -168 256 -234 54 -32 146 -86 202 -119 57 -34
153 -98 213 -143 59 -45 141 -100 181 -122 66 -36 217 -92 325 -120 55 -15 83
-39 94 -81 7 -28 7 -24 3 22 l-5 57 51 -25 c90 -43 220 -82 370 -109 163 -30
270 -62 348 -106 29 -16 57 -27 62 -24 6 4 11 -10 11 -32 1 -21 3 -30 6 -20 3
13 10 16 26 11 27 -8 79 -44 90 -61 16 -26 27 -12 13 15 -19 37 -88 100 -162
147 -127 82 -227 116 -464 160 -47 9 -184 49 -305 90 -121 41 -260 86 -310
100 -121 36 -199 77 -335 177 -140 103 -186 132 -364 232 -76 43 -177 107
-222 142 -73 56 -84 61 -84 43z"/>
<path d="M461 4486 c2 -2 85 -25 184 -49 243 -61 418 -126 520 -195 125 -84
158 -97 327 -131 193 -38 254 -64 375 -164 51 -41 109 -81 130 -88 49 -16 140
-6 238 28 66 22 98 27 180 28 95 0 103 -2 163 -34 59 -32 94 -64 134 -121 l18
-25 -11 30 c-28 81 -91 155 -164 193 -38 19 -70 26 -132 30 -71 4 -95 0 -188
-28 -174 -53 -253 -37 -385 76 -36 30 -86 67 -112 80 -62 32 -197 68 -325 88
-115 17 -139 27 -234 97 -36 27 -92 61 -124 75 -64 29 -287 77 -470 99 -135
17 -130 16 -124 11z"/>
<path d="M4399 4323 l-24 -28 28 24 c25 23 32 31 24 31 -2 0 -14 -12 -28 -27z"/>
<path d="M4344 4258 l-29 -33 33 29 c17 17 32 31 32 33 0 8 -8 1 -36 -29z"/>
<path d="M3405 3797 c-27 -34 -63 -73 -80 -87 -106 -86 -235 -240 -287 -345
-34 -67 -31 -65 33 20 24 32 96 111 159 175 63 63 138 149 166 190 44 64 69
110 61 110 -1 0 -24 -28 -52 -63z"/>
<path d="M5060 3810 c-25 -16 -101 -55 -170 -87 -69 -31 -151 -72 -183 -91
-83 -48 -176 -139 -256 -250 -66 -93 -122 -150 -315 -326 -48 -43 -113 -113
-145 -155 -77 -101 -161 -178 -306 -280 -140 -99 -237 -195 -350 -346 -90
-120 -173 -203 -280 -279 -110 -78 -194 -147 -275 -226 -76 -73 -72 -71 80 47
36 27 99 73 141 101 76 51 160 122 209 177 15 17 64 71 109 122 90 101 194
191 313 269 111 72 213 167 343 318 61 72 147 164 191 204 43 40 86 84 94 96
47 73 214 289 265 344 93 100 161 141 450 272 80 36 145 81 145 102 0 24 -6
22 -60 -12z"/>
<path d="M95 3704 c-11 -3 -37 -10 -57 -15 -35 -9 -38 -13 -38 -45 0 -30 3
-34 23 -29 340 74 566 -8 927 -339 58 -53 131 -124 163 -158 31 -33 57 -54 57
-46 0 9 26 -10 63 -44 126 -118 222 -165 313 -151 22 3 75 17 118 31 104 32
193 28 323 -17 l91 -32 68 16 c38 9 105 33 149 55 67 32 84 45 100 77 38 75
38 80 3 47 -82 -78 -198 -121 -298 -111 -30 4 -89 18 -130 33 -111 40 -205 38
-329 -5 -185 -66 -239 -39 -617 306 -308 282 -387 339 -552 396 -78 28 -101
31 -222 33 -74 2 -144 0 -155 -2z"/>
<path d="M3519 3542 c-46 -49 -99 -111 -117 -138 -19 -27 -24 -38 -12 -24 12
14 56 61 98 105 72 74 129 145 119 145 -3 0 -42 -40 -88 -88z"/>
<path d="M4974 3505 c-173 -76 -226 -111 -362 -238 -58 -55 -158 -142 -222
-192 -115 -92 -275 -250 -339 -335 -19 -25 12 3 70 61 57 58 153 142 212 187
60 44 155 124 213 177 167 156 246 207 457 295 93 38 120 59 115 86 -3 19 -13
16 -144 -41z"/>
<path d="M1346 3425 c42 -56 84 -71 203 -78 102 -5 106 -6 213 -61 84 -43 119
-56 153 -56 46 0 111 25 119 45 2 7 -11 4 -32 -7 -52 -26 -100 -23 -168 13
-32 17 -69 36 -81 42 -13 7 -23 16 -23 20 0 5 -4 5 -10 2 -5 -3 -10 -1 -10 5
0 6 -4 8 -10 5 -5 -3 -10 -2 -10 4 0 6 -7 8 -15 5 -8 -4 -15 -2 -15 3 0 5 -13
8 -30 5 -19 -3 -30 0 -30 7 0 9 -28 11 -93 10 -75 -2 -98 1 -120 15 -15 10
-27 21 -27 25 0 3 -9 12 -21 19 -18 11 -17 8 7 -23z"/>
<path d="M7 3424 c-4 -4 -7 -17 -7 -29 0 -22 4 -23 128 -28 129 -5 209 -24
303 -72 94 -48 239 -177 296 -262 44 -66 54 -69 18 -5 -107 185 -256 313 -440
378 -53 18 -284 33 -298 18z"/>
<path d="M2898 3118 c-122 -183 -453 -399 -888 -582 -63 -26 -239 -109 -390
-184 -238 -118 -282 -137 -332 -140 -79 -6 -139 13 -208 64 -86 63 -154 152
-254 332 -48 88 -108 185 -132 216 -91 115 -238 206 -346 214 -42 3 -82 -3
-150 -23 -51 -15 -101 -31 -111 -37 -12 -6 -23 -6 -31 1 -6 6 -22 9 -34 8 -17
-1 -22 -8 -22 -29 0 -25 3 -28 38 -29 63 -2 84 2 167 28 92 29 157 27 247 -7
165 -62 243 -151 432 -495 141 -258 233 -339 381 -339 65 0 81 4 151 40 241
124 303 154 311 152 4 -2 53 29 108 68 103 73 229 141 373 200 255 106 536
300 642 443 29 40 94 151 87 151 -2 0 -20 -24 -39 -52z m-2535 -95 c-7 -2 -19
-2 -25 0 -7 3 -2 5 12 5 14 0 19 -2 13 -5z"/>
<path d="M3539 2893 l-24 -28 28 24 c25 23 32 31 24 31 -2 0 -14 -12 -28 -27z"/>
<path d="M3051 2820 c-43 -50 -216 -204 -231 -205 -3 0 -39 -19 -80 -41 -41
-23 -122 -63 -180 -89 -298 -135 -419 -200 -549 -298 -39 -29 -146 -127 -238
-218 -93 -90 -233 -224 -313 -298 -80 -74 -282 -268 -449 -430 -168 -163 -302
-286 -299 -275 8 33 -31 18 -51 -19 -9 -16 -30 -53 -48 -83 -17 -30 -29 -54
-25 -54 20 0 -146 -150 -218 -198 -47 -30 -149 -101 -227 -156 -141 -99 -143
-102 -143 -138 0 -21 3 -38 6 -38 26 0 378 227 441 284 30 27 92 99 137 160
80 106 129 159 187 202 47 36 192 174 187 179 -2 3 -36 -23 -75 -58 -38 -34
-81 -71 -94 -82 -150 -123 -182 -147 -169 -131 8 11 76 73 150 139 74 66 165
147 201 181 36 34 112 104 170 156 169 154 261 242 504 482 356 350 406 386
875 612 248 120 394 226 507 370 77 97 76 96 71 96 -3 0 -24 -23 -47 -50z"/>
<path d="M3479 2823 l-24 -28 28 24 c25 23 32 31 24 31 -2 0 -14 -12 -28 -27z"/>
<path d="M5060 2810 c-25 -16 -99 -50 -165 -76 -302 -118 -412 -169 -512 -240
-60 -43 -138 -123 -128 -132 3 -3 14 7 25 21 52 66 264 179 569 301 172 70
271 122 271 143 0 18 -9 16 -60 -17z"/>
<path d="M3399 2754 c-42 -44 -121 -105 -204 -159 -34 -22 -134 -88 -221 -146
-88 -59 -229 -148 -314 -199 -215 -128 -339 -224 -430 -332 -49 -57 -46 -63 6
-10 35 35 36 35 19 7 -10 -17 4 -6 34 27 51 56 141 119 453 318 150 95 250
165 323 226 28 22 91 68 140 101 78 52 251 201 234 203 -3 0 -21 -16 -40 -36z"/>
<path d="M1529 2663 c-84 -51 -100 -57 -151 -58 -48 0 -64 5 -105 33 l-48 33
47 -45 c42 -41 52 -46 93 -46 25 0 59 7 76 15 28 15 179 111 188 121 13 13
-15 -2 -100 -53z"/>
<path d="M5055 2649 c-117 -27 -232 -74 -314 -129 -105 -71 -265 -214 -389
-349 -104 -113 -205 -197 -369 -308 -62 -41 -138 -101 -170 -132 -60 -58 -124
-128 -133 -146 -7 -13 -63 -99 -70 -105 -3 -3 -6 -12 -8 -20 -2 -8 -10 -22
-18 -31 -8 -8 -14 -20 -14 -26 0 -6 -6 -14 -12 -16 -7 -3 -8 -6 -2 -6 6 -1 31
32 56 72 64 100 180 211 333 319 194 136 256 191 422 375 83 92 160 175 170
183 10 8 43 36 73 61 101 85 254 171 345 193 99 24 165 49 165 61 0 17 -7 17
-65 4z"/>
<path d="M0 2481 c0 -50 3 -63 17 -68 27 -10 169 -108 225 -156 46 -39 153
-172 209 -262 38 -60 65 -123 106 -246 42 -126 54 -131 23 -11 -64 252 -160
432 -324 609 -69 74 -126 120 -208 167 l-48 28 0 -61z"/>
<path d="M0 2244 c0 -6 39 -51 88 -101 142 -147 297 -344 359 -458 18 -33 33
-56 33 -51 1 37 -171 283 -295 421 -113 126 -185 200 -185 189z"/>
<path d="M5055 2228 c-84 -33 -224 -67 -344 -82 -122 -16 -218 -52 -259 -97
-12 -12 -22 -21 -22 -18 0 23 -328 -303 -411 -409 -33 -42 -66 -84 -74 -94 -7
-9 -11 -19 -8 -22 4 -3 1 -6 -5 -6 -7 0 -12 -6 -12 -14 0 -8 -6 -17 -12 -19
-7 -3 -8 -6 -3 -6 6 -1 38 39 73 87 67 96 253 286 372 382 106 86 213 135 330
155 129 21 261 52 329 76 111 40 111 40 111 65 0 28 0 28 -65 2z"/>
<path d="M3917 2167 c-74 -103 -209 -224 -333 -296 -60 -35 -167 -105 -239
-156 -71 -51 -155 -106 -185 -123 -72 -40 -188 -78 -281 -93 -93 -14 -141 -39
-179 -91 -35 -48 -33 -58 7 -30 36 25 83 39 161 47 148 15 258 66 452 209 69
51 176 123 238 161 113 67 222 162 289 250 37 49 124 185 119 185 -2 0 -24
-28 -49 -63z"/>
<path d="M2815 2171 c-37 -23 -175 -130 -175 -135 0 -1 9 -2 20 -3 12 -1 27 9
36 23 9 13 20 22 24 19 5 -3 16 5 25 17 8 13 20 23 25 23 6 0 9 3 8 7 -5 11
51 50 62 43 6 -4 9 -1 8 6 -2 7 2 13 9 14 16 0 26 12 11 12 -7 0 -31 -12 -53
-26z"/>
<path d="M4985 1996 c-71 -29 -145 -60 -164 -70 -41 -22 -115 -89 -143 -130
-12 -19 -6 -14 17 12 46 53 101 91 185 127 186 80 226 98 235 106 13 13 14 13
-130 -45z"/>
<path d="M2554 1958 l-29 -33 33 29 c30 28 37 36 29 36 -2 0 -16 -15 -33 -32z"/>
<path d="M0 1967 c0 -3 14 -21 31 -39 65 -69 184 -225 221 -288 41 -70 51 -75
17 -7 -44 87 -269 366 -269 334z"/>
<path d="M4915 1684 c-392 -237 -492 -317 -678 -537 -94 -113 -243 -249 -307
-282 -36 -19 -40 -28 -6 -15 98 37 160 89 361 302 132 140 299 259 665 477
161 96 165 99 168 135 2 20 0 36 -5 35 -4 0 -93 -52 -198 -115z"/>
<path d="M4616 1721 c-21 -22 -91 -69 -155 -105 -156 -88 -183 -111 -46 -40
127 66 196 113 226 155 28 39 20 37 -25 -10z"/>
<path d="M602 1595 c0 -16 2 -22 5 -12 2 9 2 23 0 30 -3 6 -5 -1 -5 -18z"/>
<path d="M1929 1354 c-50 -52 -115 -90 -194 -114 -263 -80 -352 -127 -453
-235 -34 -35 -80 -97 -103 -137 -109 -187 -165 -252 -351 -404 -48 -39 -115
-104 -149 -145 -90 -109 -114 -132 -227 -230 l-103 -89 64 0 64 0 49 53 c28
28 80 89 117 134 38 45 103 111 146 146 155 128 202 182 337 386 149 226 228
288 480 379 88 32 181 70 205 84 59 35 159 128 183 169 16 27 10 23 -29 -19
-26 -29 -71 -66 -99 -83 -54 -31 -87 -40 -46 -13 35 23 108 93 131 127 27 37
20 34 -22 -9z"/>
<path d="M632 1308 c-34 -146 -158 -309 -278 -365 -50 -24 -72 -28 -144 -28
-72 0 -94 4 -144 28 -32 15 -60 27 -62 27 -2 0 -4 -13 -4 -29 0 -22 8 -34 33
-49 124 -75 279 -59 433 45 33 22 73 48 91 57 28 14 36 28 58 99 23 71 48 267
34 267 -2 0 -10 -24 -17 -52z"/>
<path d="M2150 1285 c0 -8 2 -15 4 -15 2 0 6 7 10 15 3 8 1 15 -4 15 -6 0 -10
-7 -10 -15z"/>
<path d="M3979 1233 c-13 -16 -12 -17 4 -4 9 7 17 15 17 17 0 8 -8 3 -21 -13z"/>
<path d="M2092 1210 c0 -14 2 -19 5 -12 2 6 2 18 0 25 -3 6 -5 1 -5 -13z"/>
<path d="M3855 1098 c-38 -40 -97 -111 -132 -158 -136 -181 -255 -275 -421
-333 -79 -28 -99 -31 -207 -30 -76 0 -145 6 -188 16 -217 53 -415 240 -498
470 -10 29 -18 43 -19 33 0 -21 26 -127 40 -161 4 -11 14 -35 21 -53 43 -115
197 -285 321 -355 97 -55 181 -72 308 -64 112 8 144 14 211 43 178 74 306 193
430 398 30 49 89 129 132 178 43 48 76 88 73 88 -2 0 -34 -33 -71 -72z"/>
<path d="M2666 1120 c25 -103 127 -224 230 -272 58 -27 73 -30 142 -27 64 3
89 10 146 39 79 40 153 103 196 166 17 23 30 45 30 48 0 3 -33 -28 -74 -69
-102 -104 -178 -140 -296 -140 -72 0 -94 4 -143 27 -73 34 -171 127 -208 198
-16 30 -27 44 -23 30z"/>
<path d="M2120 1082 c-1 -50 114 -245 182 -308 31 -28 31 -27 -3 12 -62 70
-122 166 -151 239 -15 38 -27 64 -28 57z"/>
</g>
</svg>