<?xml version="1.0" standalone="no"?>
<!DOCTYPE svg PUBLIC "-//W3C//DTD SVG 20010904//EN"
 "http://www.w3.org/TR/2001/REC-SVG-20010904/DTD/svg10.dtd">
<svg version="1.0" xmlns="http://www.w3.org/2000/svg"
 width="70pt" height="70pt" viewBox="0 0 512.000000 512.000000"
 preserveAspectRatio="xMidYMid meet">
<metadata>
Created by potrace 1.16, written by Peter Selinger 2001-2019
</metadata>
<g transform="translate(0.000000,512.000000) scale(0.100000,-0.100000)"
fill="#000000" stroke="none">
<path d="M980 5066 c0 -40 -26 -83 -55 -90 -14 -4 -24 -10 -21 -14 5 -8 -86
-8 -100 0 -5 3 -31 -24 -58 -61 -27 -36 -40 -57 -28 -47 12 11 22 15 22 9 0
-13 -40 -50 -48 -43 -3 3 -6 -4 -8 -14 -1 -11 -15 -31 -30 -45 l-28 -26 19 25
20 25 -22 -18 c-12 -11 -20 -24 -17 -31 3 -7 -8 -23 -23 -36 l-28 -25 20 25
c10 14 -9 -2 -43 -35 -34 -33 -62 -62 -62 -64 0 -3 20 15 45 39 25 24 45 39
45 33 0 -6 -20 -29 -44 -51 -30 -28 -41 -44 -35 -54 5 -7 9 -25 9 -40 0 -35
16 -36 24 -2 6 21 122 182 230 317 l31 39 92 -4 93 -3 81 -80 c44 -44 97 -105
116 -135 32 -49 37 -53 44 -34 9 26 36 37 43 18 10 -25 25 -15 28 18 3 31 8
34 118 81 193 80 250 87 293 35 l18 -22 -7 30 c-14 59 -23 72 -51 77 -15 3
-39 9 -52 13 -17 5 -22 4 -17 -4 4 -7 -6 -20 -26 -32 -36 -22 -53 -26 -43 -10
4 6 -23 -4 -59 -22 -36 -17 -62 -36 -59 -42 4 -5 -1 -7 -10 -3 -10 3 -17 2
-17 -4 0 -6 -4 -7 -10 -4 -5 3 -10 1 -10 -6 0 -7 -3 -10 -6 -6 -3 3 -19 1 -35
-5 -19 -7 -29 -17 -29 -31 0 -11 -3 -17 -7 -14 -3 4 -12 -2 -19 -12 -31 -43
-85 -27 -99 30 -3 14 -45 63 -91 110 -47 46 -92 97 -100 112 -16 30 -10 51 12
43 12 -4 13 5 8 52 -7 62 -14 81 -14 38z m-210 -166 c-12 -17 -24 -29 -27 -26
-3 2 5 18 18 35 29 40 38 32 9 -9z m726 -95 c-11 -8 -25 -15 -30 -15 -6 1 0 7
14 15 32 19 40 18 16 0z"/>
<path d="M2176 5065 c-5 -16 -15 -42 -22 -57 -11 -21 -11 -33 -3 -55 11 -27
12 -27 26 32 7 33 12 71 10 85 -3 24 -3 24 -11 -5z"/>
<path d="M2091 5004 c-27 -28 -48 -30 -78 -9 -16 11 -24 12 -29 4 -4 -8 -3 -9
4 -5 7 4 12 1 12 -9 0 -20 -38 -35 -128 -48 -61 -8 -75 -8 -82 4 -7 11 -13 10
-30 -9 -11 -12 -17 -22 -13 -22 10 0 -16 -25 -28 -26 -5 -1 -14 -2 -21 -3 -7
-1 -6 -6 5 -13 9 -7 25 -35 36 -63 14 -34 20 -43 20 -27 2 48 37 89 106 122
55 27 119 25 183 -5 80 -37 83 -35 65 32 -11 45 -12 62 -3 76 17 28 8 29 -19
1z"/>
<path d="M1818 4953 c7 -3 16 -2 19 1 4 3 -2 6 -13 5 -11 0 -14 -3 -6 -6z"/>
<path d="M1554 4854 c-18 -14 -18 -15 4 -4 12 6 22 13 22 15 0 8 -5 6 -26 -11z"/>
<path d="M2230 4782 c0 -5 -9 -20 -20 -32 -28 -33 -85 -33 -111 -1 -23 28 -24
20 -4 -19 29 -56 77 -72 143 -49 31 11 31 11 17 40 -14 27 -9 39 9 22 4 -5 12
-8 16 -8 5 0 16 -9 24 -20 9 -11 16 -15 16 -9 0 7 -20 28 -45 48 -25 21 -45
33 -45 28z"/>
<path d="M2351 4683 c4 -11 149 -128 149 -120 0 2 -34 33 -76 68 -43 34 -75
58 -73 52z"/>
<path d="M1777 4632 c-15 -3 -16 -5 -2 -25 8 -12 15 -29 15 -39 0 -9 4 -19 8
-22 4 -2 6 12 4 32 -5 56 -6 58 -25 54z"/>
<path d="M3330 4630 c-13 -8 -12 -10 3 -10 9 0 17 5 17 10 0 12 -1 12 -20 0z"/>
<path d="M3581 4614 c-1 -35 -21 -57 -74 -79 -28 -12 -37 -12 -37 -3 -1 7 -7
-3 -14 -22 -8 -19 -43 -106 -78 -192 -36 -87 -62 -158 -59 -158 3 0 29 55 58
123 55 128 71 149 101 131 18 -12 28 -37 37 -97 5 -29 15 -44 46 -67 22 -16
88 -74 146 -130 58 -55 107 -99 108 -98 1 2 7 13 13 25 9 17 9 22 -4 27 -9 4
-12 2 -8 -5 3 -6 -51 46 -122 115 -71 69 -134 126 -141 126 -20 0 -35 39 -28
70 4 19 -1 45 -15 76 -30 70 -9 77 31 10 19 -30 38 -56 42 -56 5 0 6 4 3 9 -3
5 -1 33 5 63 8 37 8 72 1 109 -7 38 -10 45 -11 23z"/>
<path d="M3361 4614 c0 -7 -46 -13 -123 -17 -140 -7 -275 -24 -300 -38 -10 -5
-24 -9 -32 -9 -8 0 -22 -10 -31 -22 -8 -13 -16 -21 -18 -18 -1 2 -13 -3 -27
-13 -13 -9 -18 -17 -11 -17 11 0 11 -3 0 -17 -7 -10 2 -4 21 13 19 18 45 37
57 43 45 23 172 43 310 48 l141 6 16 -31 c9 -17 16 -39 17 -49 0 -14 3 -12 10
6 7 17 5 30 -5 46 -8 12 -16 35 -19 51 -2 16 -5 24 -6 18z m-501 -108 c0 -2
-8 -10 -17 -17 -16 -13 -17 -12 -4 4 13 16 21 21 21 13z"/>
<path d="M5031 4535 c-66 -42 -80 -56 -26 -26 40 22 94 61 85 61 -3 0 -29 -16
-59 -35z"/>
<path d="M2535 4530 c10 -11 20 -20 23 -20 3 0 -3 9 -13 20 -10 11 -20 20 -23
20 -3 0 3 -9 13 -20z"/>
<path d="M1351 4494 c0 -11 3 -14 6 -6 3 7 2 16 -1 19 -3 4 -6 -2 -5 -13z"/>
<path d="M4940 4481 c-8 -6 -17 -8 -20 -6 -3 2 -5 -17 -4 -41 1 -28 -2 -41 -9
-37 -6 4 -8 0 -4 -11 4 -9 3 -15 -2 -12 -4 3 -19 -6 -32 -21 -13 -14 -37 -34
-54 -44 -16 -11 -25 -19 -20 -19 6 0 11 -40 13 -93 2 -57 8 -97 16 -105 10
-11 12 -8 9 15 -6 39 25 76 94 109 46 23 70 28 125 28 l68 -1 0 31 0 32 -102
19 c-105 20 -131 41 -50 39 23 0 38 2 32 6 -6 3 -4 17 5 34 8 16 15 30 15 32
0 2 -18 4 -39 4 -46 0 -61 15 -35 35 21 16 17 20 -6 6z"/>
<path d="M474 4468 c-5 -7 -3 -8 6 -3 8 5 11 4 7 -2 -4 -6 -17 -8 -31 -6 -13
3 -27 0 -30 -6 -4 -6 -14 -11 -22 -11 -8 0 -13 4 -10 9 3 5 -7 9 -21 9 -31 0
-76 -26 -68 -38 3 -5 -15 -23 -40 -40 -25 -17 -45 -29 -45 -26 0 3 18 18 40
32 22 15 38 29 36 32 -3 2 -23 -10 -45 -27 -40 -32 -40 -32 -25 -66 16 -40 18
-81 4 -90 -6 -4 -8 -11 -4 -16 3 -5 2 -9 -3 -8 -12 3 -63 -23 -59 -30 2 -3
-16 -7 -40 -9 -36 -2 -49 2 -69 22 -21 21 -26 22 -42 11 -10 -7 -15 -17 -11
-21 4 -4 14 -1 22 5 26 22 30 -9 5 -37 l-24 -27 23 20 c23 19 23 19 45 -7 16
-19 39 -30 81 -38 62 -13 79 -25 143 -105 61 -76 33 -17 -33 68 -63 83 -77
122 -44 122 21 0 30 15 30 52 0 51 15 77 61 108 37 24 59 30 146 38 l103 9
108 -36 c59 -21 119 -46 135 -57 21 -15 27 -17 27 -5 0 27 -27 42 -173 95 -81
30 -145 57 -142 60 2 4 -5 12 -15 19 -14 9 -21 9 -26 0z"/>
<path d="M1329 4454 c-26 -25 -84 -34 -109 -17 -24 17 -51 10 -164 -43 -84
-39 -81 -45 4 -9 72 30 103 31 155 5 22 -11 58 -24 80 -30 39 -9 199 -133 301
-232 23 -22 44 -36 47 -31 2 4 -38 44 -90 88 -133 112 -221 207 -219 236 1 16
7 24 19 23 10 -1 16 3 14 9 -6 18 -21 18 -38 1z"/>
<path d="M1841 4444 c0 -11 3 -14 6 -6 3 7 2 16 -1 19 -3 4 -6 -2 -5 -13z"/>
<path d="M1691 4400 c7 -19 24 -52 39 -73 l28 -38 4 41 c3 32 0 40 -14 40 -9
0 -28 15 -42 33 l-26 32 11 -35z"/>
<path d="M2819 4382 c-5 -42 -13 -60 -39 -87 -39 -40 -81 -62 -129 -67 -19 -2
-46 -14 -61 -28 -14 -14 -39 -35 -55 -48 l-30 -23 33 21 c44 29 40 11 -9 -39
-26 -25 -51 -41 -65 -41 -24 0 -24 1 8 31 20 18 8 12 -29 -15 -33 -25 -68 -46
-76 -46 -12 0 -33 -66 -29 -92 1 -3 -3 -41 -8 -85 -8 -68 -34 -149 -72 -217
-8 -15 -5 -23 12 -40 13 -13 19 -15 15 -6 -3 9 6 45 20 80 14 36 29 96 32 134
5 56 11 72 32 92 14 13 30 24 35 24 4 0 5 25 1 55 -7 60 10 79 20 23 3 -18 10
-53 14 -78 9 -45 9 -45 10 -9 1 41 50 120 94 153 22 16 45 21 115 23 64 2 102
9 145 26 42 18 70 23 105 19 62 -6 205 -47 264 -76 52 -25 63 -18 41 26 -11
20 -27 31 -71 43 -95 27 -306 98 -318 107 -8 6 -9 21 -2 52 5 24 8 66 6 92
l-3 49 -6 -53z"/>
<path d="M3613 4334 c-7 -15 -10 -24 -6 -21 3 4 11 0 18 -9 9 -13 10 -9 7 20
-2 20 -5 36 -6 36 0 0 -6 -12 -13 -26z"/>
<path d="M0 4301 c0 -22 5 -43 10 -46 6 -4 10 8 10 29 0 20 0 39 1 43 0 4 -4
9 -10 11 -7 2 -11 -12 -11 -37z"/>
<path d="M4652 4333 c-6 -3 -10 -8 -7 -13 8 -13 -46 -53 -134 -99 -45 -23 -92
-53 -106 -67 -13 -13 -33 -24 -44 -24 -23 0 -51 25 -51 46 0 8 -7 14 -15 14
-18 0 -75 -27 -75 -36 0 -2 9 0 19 6 11 5 27 10 36 10 16 0 15 -10 -2 -56 -2
-6 8 -15 22 -18 15 -4 38 -19 51 -33 l24 -26 0 41 c0 22 4 43 9 46 11 7 31
-93 31 -152 0 -25 3 -42 7 -39 3 4 5 31 4 61 -1 30 5 70 13 90 18 43 82 90
152 113 45 14 60 14 94 4 23 -7 50 -21 61 -32 19 -19 19 -18 19 40 l0 59 -44
22 c-25 12 -46 27 -48 34 -2 7 -9 11 -16 9z"/>
<path d="M906 4304 c-3 -7 -16 -16 -29 -19 -19 -5 -23 -12 -19 -33 2 -15 -8
-73 -22 -129 -26 -102 -31 -131 -20 -120 3 3 15 47 26 99 19 91 21 94 74 143
l55 50 -30 12 c-24 8 -31 8 -35 -3z"/>
<path d="M4604 4304 c-18 -14 -18 -15 4 -4 12 6 22 13 22 15 0 8 -5 6 -26 -11z"/>
<path d="M1930 4256 c-12 -24 -25 -34 -65 -45 -47 -13 -52 -18 -74 -67 -21
-48 -21 -55 -8 -74 l15 -21 6 25 c5 20 14 26 44 31 20 3 61 15 90 27 35 13 65
18 88 15 39 -7 225 -89 267 -119 22 -16 31 -18 40 -9 9 10 6 18 -14 35 -14 12
-24 28 -21 36 3 11 1 12 -5 2 -7 -9 -23 -5 -66 19 -32 17 -55 35 -52 40 4 5
-2 6 -11 2 -12 -4 -15 -3 -10 5 5 8 1 10 -10 5 -13 -5 -15 -3 -9 7 5 8 4 11
-2 7 -13 -8 -183 69 -183 83 0 13 6 13 31 0 10 -6 19 -8 19 -6 0 3 -12 12 -27
20 -27 13 -29 13 -43 -18z"/>
<path d="M4554 4274 c-18 -14 -18 -15 4 -4 12 6 22 13 22 15 0 8 -5 6 -26 -11z"/>
<path d="M2555 4230 c-3 -6 1 -7 9 -4 18 7 21 14 7 14 -6 0 -13 -4 -16 -10z"/>
<path d="M4792 4150 c0 -19 2 -27 5 -17 2 9 2 25 0 35 -3 9 -5 1 -5 -18z"/>
<path d="M3320 4122 c0 -36 -16 -52 -54 -53 -17 0 -25 -3 -18 -6 16 -6 15 -38
-4 -102 -12 -40 -13 -56 -4 -65 8 -8 10 -7 5 5 -4 10 11 38 40 74 42 54 45 63
45 117 0 32 -2 58 -5 58 -3 0 -5 -13 -5 -28z"/>
<path d="M4841 4053 c-1 -12 -13 -31 -27 -42 -15 -12 -23 -21 -19 -21 5 0 18
8 29 18 21 17 21 17 2 -5 -11 -13 -25 -23 -33 -23 -12 0 -12 -3 1 -16 12 -11
16 -35 16 -85 0 -72 13 -85 26 -26 3 17 13 41 20 52 8 11 14 31 14 45 -1 33
-28 131 -29 103z"/>
<path d="M4096 4037 c3 -10 9 -15 12 -12 3 3 0 11 -7 18 -10 9 -11 8 -5 -6z"/>
<path d="M1787 3980 c-9 -11 -14 -20 -11 -20 4 0 1 -7 -6 -15 -7 -8 -16 -12
-21 -9 -5 3 -9 2 -9 -3 0 -10 -86 -11 -96 0 -14 13 -26 7 -19 -10 5 -13 -20
-43 -99 -119 -89 -86 -106 -107 -108 -136 -4 -59 12 -63 39 -9 24 50 109 137
168 173 17 10 46 18 65 18 58 0 107 19 134 50 13 17 33 30 42 30 11 0 2 10
-24 27 -55 36 -46 41 17 9 28 -15 51 -24 51 -21 0 4 -94 55 -102 55 -2 0 -11
-9 -21 -20z"/>
<path d="M4714 3978 l-19 -23 21 18 c26 21 36 13 23 -21 -12 -31 -5 -52 16
-52 13 0 15 10 13 47 -3 56 -23 67 -54 31z"/>
<path d="M568 3933 c7 -3 16 -2 19 1 4 3 -2 6 -13 5 -11 0 -14 -3 -6 -6z"/>
<path d="M810 3930 c0 -20 -41 -50 -67 -50 -23 0 -25 -2 -13 -11 11 -8 8 -9
-15 -4 -16 3 -39 16 -51 29 -18 21 -23 22 -40 9 -19 -14 -66 -16 -138 -6 -27
4 -35 8 -25 14 11 7 11 9 -2 9 -16 0 -34 -26 -30 -43 1 -5 -2 -6 -6 -4 -5 3
-21 -1 -38 -8 -16 -7 -24 -14 -16 -14 10 -1 12 -10 7 -33 l-6 -33 15 25 c23
41 17 15 -19 -80 -36 -92 -56 -173 -39 -155 5 6 15 30 22 55 28 99 51 137 109
181 88 65 167 76 217 29 33 -31 73 -39 125 -24 24 7 56 11 70 7 28 -7 189 -77
293 -129 l68 -34 -3 26 c-3 21 -22 33 -153 93 -202 91 -246 114 -237 120 5 4
0 14 -10 24 -10 9 -18 13 -18 7z"/>
<path d="M4079 3901 c-29 -42 -82 -71 -143 -78 -55 -7 -106 -54 -106 -99 0
-40 -57 -126 -88 -134 -16 -3 -32 -23 -50 -60 -16 -30 -45 -85 -66 -122 -42
-75 -40 -98 13 -116 25 -9 29 -8 24 4 -9 23 63 132 139 210 37 40 68 76 68 82
0 26 59 62 153 96 57 20 113 36 126 36 52 0 100 -47 92 -90 -4 -18 0 -15 27
31 21 35 21 37 5 50 -17 13 -17 13 -3 -6 14 -19 14 -19 -3 -6 -10 8 -16 20
-13 28 3 7 1 13 -4 13 -6 0 -10 12 -10 28 0 24 -7 31 -65 56 -67 29 -72 36
-66 99 3 24 0 22 -30 -22z m11 -25 c0 -2 -8 -10 -17 -17 -16 -13 -17 -12 -4 4
13 16 21 21 21 13z"/>
<path d="M4664 3918 l-19 -23 23 19 c12 11 22 21 22 23 0 8 -8 2 -26 -19z"/>
<path d="M498 3923 c7 -3 16 -2 19 1 4 3 -2 6 -13 5 -11 0 -14 -3 -6 -6z"/>
<path d="M1940 3926 c0 -2 7 -7 16 -10 8 -3 12 -2 9 4 -6 10 -25 14 -25 6z"/>
<path d="M2411 3894 c0 -11 3 -14 6 -6 3 7 2 16 -1 19 -3 4 -6 -2 -5 -13z"/>
<path d="M4114 3903 c6 -7 88 -39 141 -57 11 -3 -11 9 -50 28 -65 32 -108 46
-91 29z"/>
<path d="M1549 3863 l-34 -38 38 34 c34 33 42 41 34 41 -2 0 -19 -17 -38 -37z"/>
<path d="M2040 3875 c14 -8 30 -14 35 -14 6 0 -1 6 -15 14 -14 8 -29 14 -35
14 -5 0 1 -6 15 -14z"/>
<path d="M4618 3858 c-10 -10 -14 -18 -9 -18 10 0 36 29 30 34 -2 1 -12 -6
-21 -16z"/>
<path d="M330 3860 c0 -5 5 -10 11 -10 5 0 7 5 4 10 -3 6 -8 10 -11 10 -2 0
-4 -4 -4 -10z"/>
<path d="M2100 3853 c20 -8 30 -24 30 -49 0 -16 11 -24 47 -35 37 -11 49 -20
53 -39 6 -24 6 -24 12 -3 3 12 -3 38 -14 61 -16 30 -25 38 -42 35 -11 -2 -30
3 -41 12 -19 15 -18 16 17 13 20 -2 34 0 32 4 -3 4 -29 8 -57 7 -29 0 -45 -3
-37 -6z"/>
<path d="M2451 3834 c0 -11 3 -14 6 -6 3 7 2 16 -1 19 -3 4 -6 -2 -5 -13z"/>
<path d="M4533 3827 c-50 -9 -54 -12 -63 -47 -15 -57 -69 -98 -134 -102 -31
-3 -35 -7 -42 -38 -3 -19 -8 -46 -9 -60 -3 -35 -77 -185 -120 -244 -38 -52
-42 -81 -11 -81 13 0 36 33 82 120 35 66 74 128 85 138 24 20 84 22 115 4 40
-22 104 -87 104 -104 0 -15 1 -15 13 1 12 16 10 22 -10 44 -13 14 -23 29 -23
34 0 6 -10 24 -22 41 -16 25 -9 21 32 -18 l54 -50 -45 53 c-77 93 -109 134
-109 143 0 22 28 4 89 -58 36 -37 58 -58 48 -46 -25 29 -14 43 33 43 54 0 91
-16 98 -42 4 -17 9 -7 19 37 10 42 10 61 3 63 -6 2 -15 14 -20 26 -5 14 -18
22 -35 24 l-27 2 23 -19 23 -18 -23 -8 c-31 -9 -87 2 -112 23 -19 16 -18 17
28 23 l48 6 -55 2 c-65 2 -75 7 -82 42 -5 26 -3 26 26 18 38 -11 56 -11 55 -1
-4 26 2 41 16 36 11 -5 13 -2 9 10 -3 9 -7 15 -8 15 0 -1 -25 -6 -53 -12z"/>
<path d="M1445 3768 l-40 -43 43 40 c39 36 47 45 39 45 -2 0 -21 -19 -42 -42z"/>
<path d="M5014 3785 c-29 -22 -31 -28 -27 -72 5 -61 -23 -97 -79 -102 -56 -4
-78 12 -78 59 l0 39 -23 -22 c-13 -12 -22 -25 -20 -29 2 -5 -3 -8 -11 -8 -11
0 -13 -8 -9 -32 2 -18 -1 -69 -7 -113 -7 -44 -11 -84 -11 -90 1 -5 4 -35 7
-65 l5 -55 -42 -27 c-24 -16 -51 -28 -61 -28 -10 0 -18 -4 -18 -10 0 -5 -7
-10 -15 -10 -8 0 -15 5 -15 11 0 5 -5 7 -10 4 -6 -4 -22 0 -35 9 -13 9 -30 16
-37 16 -9 0 -9 -3 2 -10 17 -10 15 -12 -25 -33 -79 -40 -418 -46 -354 -6 10 6
6 11 -13 18 -14 5 -28 18 -31 28 -3 10 -6 -11 -7 -47 -1 -49 -4 -59 -10 -40
l-8 25 -1 -23 c-2 -57 -81 -121 -147 -123 -31 0 -35 -2 -19 -9 11 -5 14 -9 7
-9 -7 -1 -27 6 -43 15 l-30 15 -66 -68 c-37 -37 -60 -59 -53 -48 7 11 -8 -2
-33 -29 -26 -26 -47 -56 -47 -65 0 -29 -25 -53 -59 -56 -18 -1 -38 -8 -44 -15
-9 -10 -9 -11 1 -6 15 9 15 1 2 -24 -11 -21 -113 -101 -159 -125 -22 -11 -31
-23 -31 -41 0 -14 -4 -23 -9 -20 -22 14 -23 -53 0 -80 19 -23 27 -16 34 25 4
26 21 56 46 85 23 26 34 46 27 48 -6 2 2 13 18 24 36 26 64 36 64 25 0 -5 15
-4 34 1 49 15 80 4 136 -50 44 -42 50 -53 50 -89 0 -52 10 -103 21 -103 4 0 3
14 -3 31 -6 17 -8 55 -5 84 5 51 3 57 -35 112 -22 32 -54 75 -70 95 -17 22
-24 39 -18 43 5 3 10 16 10 27 0 18 5 16 33 -17 l33 -38 19 42 c10 23 36 58
58 78 l40 35 71 -7 c122 -11 149 -22 230 -91 41 -36 78 -74 81 -85 7 -20 26
-22 32 -2 2 5 -17 33 -42 61 -45 50 -56 69 -32 56 6 -4 -23 29 -65 72 -64 65
-77 84 -74 107 1 15 6 30 11 35 4 4 5 2 1 -5 -6 -11 15 -38 59 -75 19 -16 20
-15 21 11 1 16 10 46 20 67 16 33 28 42 73 57 78 26 286 35 326 14 36 -18 61
-45 68 -72 2 -11 5 1 6 28 1 46 15 64 24 30 4 -14 5 -12 6 5 2 39 19 24 30
-28 6 -28 11 -57 11 -65 0 -8 7 -11 20 -8 24 6 24 5 5 50 -12 27 -13 38 -4 44
8 4 10 22 6 51 -4 29 -1 49 9 62 14 19 16 19 56 -20 23 -21 37 -32 30 -23 -7
9 -16 36 -21 60 -5 24 -15 69 -22 99 -11 49 -10 60 5 92 36 76 104 53 212 -71
74 -83 76 -87 72 -132 -3 -41 -1 -45 14 -35 12 7 14 14 6 23 -6 7 -8 27 -6 45
5 28 -6 45 -99 160 -80 98 -100 128 -85 128 11 0 32 -16 47 -36 l28 -37 17 34
c10 19 23 58 30 88 11 45 19 58 56 84 34 24 44 37 44 59 0 15 -2 28 -5 28 -3
0 -32 -13 -65 -29 -67 -33 -76 -29 -28 11 41 34 34 37 -8 3z"/>
<path d="M1090 3790 c8 -5 20 -10 25 -10 6 0 3 5 -5 10 -8 5 -19 10 -25 10 -5
0 -3 -5 5 -10z"/>
<path d="M3633 3773 c9 -2 23 -2 30 0 6 3 -1 5 -18 5 -16 0 -22 -2 -12 -5z"/>
<path d="M3558 3763 c6 -2 18 -2 25 0 6 3 1 5 -13 5 -14 0 -19 -2 -12 -5z"/>
<path d="M4618 3763 c7 -3 16 -2 19 1 4 3 -2 6 -13 5 -11 0 -14 -3 -6 -6z"/>
<path d="M3478 3753 c6 -2 18 -2 25 0 6 3 1 5 -13 5 -14 0 -19 -2 -12 -5z"/>
<path d="M3398 3743 c6 -2 18 -2 25 0 6 3 1 5 -13 5 -14 0 -19 -2 -12 -5z"/>
<path d="M1210 3736 c0 -2 7 -7 16 -10 8 -3 12 -2 9 4 -6 10 -25 14 -25 6z"/>
<path d="M3323 3733 c-7 -2 -13 -14 -13 -26 -1 -12 -8 -35 -16 -52 -8 -16 -12
-21 -8 -10 19 66 14 77 -11 25 -53 -111 -127 -162 -238 -164 -69 -1 -69 -1
-105 39 -20 22 -29 28 -20 14 16 -25 16 -25 -68 -99 -84 -75 -88 -81 -84 -149
1 -18 -2 -31 -7 -28 -5 3 -17 -7 -27 -24 -23 -40 -65 -59 -127 -59 -42 0 -50
-3 -45 -16 3 -8 2 -13 -2 -11 -4 3 -16 -7 -26 -21 -11 -14 -14 -22 -8 -18 21
13 13 0 -20 -30 -28 -24 -30 -25 -13 -4 17 21 15 20 -13 -4 -32 -30 -45 -50
-17 -26 23 19 18 -4 -5 -25 l-21 -19 28 -22 c36 -30 51 -30 78 0 12 13 40 29
61 35 56 16 159 13 201 -4 40 -17 63 -14 63 8 0 8 -31 44 -69 80 -48 45 -66
68 -59 75 8 8 25 2 57 -20 27 -18 39 -23 29 -12 -31 36 9 155 60 176 50 19
121 7 145 -26 5 -6 6 22 4 62 -3 57 -1 75 10 79 7 3 16 4 18 1 2 -2 11 -80 20
-173 12 -118 21 -175 32 -185 12 -13 13 -12 4 11 -5 14 -11 57 -14 95 l-5 70
33 23 c19 12 51 25 73 28 83 11 221 -85 209 -145 -5 -25 -4 -26 9 -7 9 11 12
29 9 40 -4 11 -9 31 -12 44 -3 13 -43 62 -89 109 -65 67 -80 87 -71 97 10 11
18 8 42 -13 29 -26 28 -25 -2 8 -38 42 -41 62 -13 108 l21 34 87 -78 c48 -43
72 -62 53 -42 -31 33 -33 40 -27 80 6 39 4 47 -19 68 -14 13 -25 27 -25 30 0
4 24 12 53 17 l52 10 -60 2 c-55 1 -85 12 -85 32 0 4 8 10 18 12 11 3 12 5 2
5 -8 0 -21 -2 -27 -5z m-93 -187 c0 -2 -8 -10 -17 -17 -16 -13 -17 -12 -4 4
13 16 21 21 21 13z m-370 -116 c-24 -33 -58 -60 -77 -60 -24 0 -13 17 34 54
56 44 72 46 43 6z"/>
<path d="M3595 3719 c-65 -17 -57 -18 38 -2 39 6 48 -5 22 -27 -20 -16 -19
-33 3 -53 16 -15 19 -15 30 3 13 21 6 74 -12 88 -7 6 -39 2 -81 -9z"/>
<path d="M2490 3695 c-10 -12 -10 -15 4 -15 9 0 16 7 16 15 0 8 -2 15 -4 15
-2 0 -9 -7 -16 -15z"/>
<path d="M2632 3676 c-7 -16 -22 -26 -44 -31 -38 -7 -98 -36 -98 -47 0 -4 7
-5 17 -1 12 5 10 -1 -7 -25 -29 -39 -23 -46 21 -28 19 7 50 17 69 21 19 4 46
16 61 27 14 11 45 22 67 25 35 5 48 1 76 -20 58 -45 66 1 10 63 -35 39 -39 40
-99 40 -56 0 -63 -2 -73 -24z m137 1 c36 -18 36 -34 0 -41 -26 -5 -41 -1 -71
20 -21 15 -38 28 -38 30 0 10 88 2 109 -9z"/>
<path d="M3488 3693 c6 -2 18 -2 25 0 6 3 1 5 -13 5 -14 0 -19 -2 -12 -5z"/>
<path d="M2840 3641 c0 -5 5 -13 10 -16 6 -3 10 -2 10 4 0 5 -4 13 -10 16 -5
3 -10 2 -10 -4z"/>
<path d="M1375 3625 c-12 -8 -42 -15 -68 -16 -26 -1 -47 -7 -47 -13 0 -6 -25
-49 -56 -95 -65 -97 -94 -156 -93 -191 0 -17 12 0 39 56 22 45 59 103 83 129
l43 48 69 -14 c57 -11 78 -21 112 -52 23 -21 45 -48 49 -59 3 -11 8 -17 11
-15 8 8 -22 58 -76 127 -32 42 -47 68 -41 74 12 12 13 36 3 35 -5 0 -17 -6
-28 -14z"/>
<path d="M2442 3599 c1 -12 9 -24 16 -27 9 -3 13 3 10 19 -1 12 -9 24 -16 27
-9 3 -13 -3 -10 -19z"/>
<path d="M4257 3555 c-24 -50 -20 -58 4 -12 11 22 19 41 17 43 -3 2 -12 -12
-21 -31z"/>
<path d="M2225 3566 c-16 -6 -41 -21 -55 -34 -14 -12 -31 -20 -37 -17 -7 2
-12 -1 -10 -8 1 -7 -6 -11 -15 -11 -10 1 -16 -2 -13 -6 6 -9 -49 -58 -81 -72
-12 -6 -25 -19 -27 -29 -7 -25 -35 -35 -58 -21 -10 7 -33 12 -51 12 -57 -1
-198 -29 -221 -45 -12 -8 -34 -15 -49 -15 -25 0 -28 -3 -22 -25 3 -14 1 -31
-4 -38 -12 -15 -8 -22 32 -57 25 -22 27 -22 16 -4 -20 33 -7 49 67 86 64 31
73 33 178 33 l110 0 16 35 c21 44 50 70 114 104 42 22 62 26 130 26 95 -1 113
-9 163 -76 l38 -51 10 32 c9 27 7 31 -9 32 -29 3 -57 33 -57 62 0 23 -9 30
-70 54 -39 16 -68 33 -64 38 3 5 4 9 2 8 -2 -1 -16 -6 -33 -13z m-315 -216 c0
-6 -40 -9 -102 -9 -72 1 -92 4 -68 9 54 11 170 11 170 0z"/>
<path d="M240 3513 c0 -23 29 -43 70 -47 29 -4 51 -13 63 -27 10 -12 17 -16
17 -8 0 7 -16 30 -36 50 -32 33 -39 36 -60 27 -17 -8 -27 -8 -39 2 -8 7 -15 8
-15 3z"/>
<path d="M4226 3485 c-9 -26 -7 -32 5 -12 6 10 9 21 6 23 -2 3 -7 -2 -11 -11z"/>
<path d="M4990 3486 c0 -2 8 -10 18 -17 15 -13 16 -12 3 4 -13 16 -21 21 -21
13z"/>
<path d="M390 3374 c0 -24 47 -80 82 -97 36 -18 38 -18 85 3 42 18 64 20 153
17 58 -3 118 -10 133 -16 34 -13 44 -14 31 -2 -15 15 -154 52 -166 45 -7 -5
-8 -3 -3 6 6 9 2 10 -15 5 -16 -5 -20 -4 -15 5 5 9 1 10 -15 5 -17 -5 -21 -4
-15 6 6 9 3 11 -8 6 -10 -3 -17 -3 -17 2 0 5 -12 12 -26 15 -19 5 -33 2 -48
-12 -55 -49 -106 -49 -140 0 -9 12 -16 18 -16 12z"/>
<path d="M4125 3328 l-40 -43 43 40 c39 36 47 45 39 45 -2 0 -21 -19 -42 -42z"/>
<path d="M3420 3340 c-23 -7 -23 -8 -3 -9 12 -1 25 4 28 9 3 6 5 10 3 9 -2 -1
-14 -5 -28 -9z"/>
<path d="M2442 3300 c0 -14 2 -19 5 -12 2 6 2 18 0 25 -3 6 -5 1 -5 -13z"/>
<path d="M7 3266 c-7 -47 -4 -66 9 -54 3 3 4 28 2 54 l-3 49 -8 -49z"/>
<path d="M3602 3263 c3 -18 1 -30 -4 -27 -7 5 -12 -10 -9 -29 1 -5 -3 -6 -8
-2 -6 3 -25 -2 -42 -11 -30 -15 -34 -15 -61 0 l-28 17 18 -30 c11 -20 19 -26
24 -18 4 7 5 -6 1 -28 -8 -51 -21 -68 -51 -62 -29 6 -115 -40 -106 -55 4 -7 2
-8 -4 -4 -16 10 -41 -6 -55 -35 -8 -15 -26 -27 -51 -34 -34 -8 -40 -7 -57 14
-11 13 -19 31 -19 41 0 11 -10 20 -25 24 -14 4 -25 11 -25 16 0 6 -9 1 -20
-10 -21 -21 -65 -27 -75 -10 -7 11 -44 -21 -38 -33 3 -4 1 -6 -4 -5 -4 1 -17
-3 -29 -9 -16 -9 -27 -9 -48 3 -33 16 -71 20 -46 4 17 -11 16 -12 -36 -38 -86
-43 -275 -55 -260 -16 4 11 -5 14 -38 14 -63 0 -80 8 -64 29 19 24 -29 -16
-83 -71 -26 -27 -53 -48 -59 -48 -8 0 -10 -9 -6 -25 6 -25 -3 -41 -50 -91 -12
-13 -20 -25 -18 -27 3 -2 -8 -2 -23 0 -22 4 -25 2 -13 -6 12 -9 10 -11 -11
-11 -14 0 -38 11 -52 24 -25 23 -25 23 -31 3 -7 -27 7 -87 38 -162 22 -55 24
-58 28 -30 2 24 12 35 53 57 63 34 91 67 105 121 20 76 32 98 78 133 45 34 46
34 151 34 58 0 133 5 166 12 33 6 105 13 160 14 55 1 123 6 150 11 82 15 157
-17 168 -71 2 -11 5 4 6 35 1 48 4 58 21 62 19 5 20 0 20 -66 0 -85 9 -147 21
-147 5 0 9 8 9 18 0 44 33 111 75 152 37 36 51 44 94 48 39 3 58 0 86 -17 35
-21 55 -21 55 0 0 6 -20 42 -45 80 -33 52 -43 74 -37 89 7 19 11 17 40 -24 28
-38 67 -78 49 -50 -8 13 16 64 47 102 24 28 34 32 77 32 58 0 94 -27 87 -65
-4 -20 -3 -22 14 -12 11 7 16 18 12 27 -4 8 -9 30 -13 49 -5 30 -11 35 -61 50
-30 10 -64 23 -75 30 -19 11 -18 12 5 7 69 -16 70 -14 6 9 -39 14 -74 31 -79
37 -5 8 -7 1 -5 -19z"/>
<path d="M783 3264 c1 -2 47 -17 102 -34 55 -18 113 -39 128 -47 37 -19 42
-12 22 26 -14 29 -33 37 -72 32 -7 -1 -13 2 -13 7 0 5 -6 9 -12 10 -23 3 -157
8 -155 6z"/>
<path d="M2455 3245 c4 -16 11 -34 16 -39 15 -16 10 16 -7 44 l-15 25 6 -30z"/>
<path d="M3033 3235 c0 -22 2 -30 4 -17 2 12 2 30 0 40 -3 9 -5 -1 -4 -23z"/>
<path d="M4081 3234 c0 -11 3 -14 6 -6 3 7 2 16 -1 19 -3 4 -6 -2 -5 -13z"/>
<path d="M4428 3243 c6 -2 18 -2 25 0 6 3 1 5 -13 5 -14 0 -19 -2 -12 -5z"/>
<path d="M4323 3233 c9 -2 25 -2 35 0 9 3 1 5 -18 5 -19 0 -27 -2 -17 -5z"/>
<path d="M1265 3219 c-24 -7 -21 -7 17 -4 26 3 50 1 52 -4 7 -11 -72 -31 -123
-31 -49 0 -55 17 -8 23 l32 4 -34 1 c-24 2 -40 -5 -57 -23 -13 -14 -32 -25
-42 -25 -11 0 -37 -17 -58 -37 l-39 -37 37 23 38 22 11 -25 c15 -33 23 -33
101 4 83 39 121 38 206 -6 67 -35 70 -36 149 -29 80 7 80 7 75 34 -5 24 -4 25
13 11 17 -13 16 -11 -2 15 -11 17 -30 39 -42 49 -12 11 -21 26 -21 35 0 12 -4
10 -15 -5 -16 -24 -53 -40 -108 -48 -33 -4 -43 0 -76 30 -39 35 -54 38 -106
23z m202 -65 c-3 -3 -12 -4 -19 -1 -8 3 -5 6 6 6 11 1 17 -2 13 -5z"/>
<path d="M4198 3223 c12 -2 32 -2 45 0 12 2 2 4 -23 4 -25 0 -35 -2 -22 -4z"/>
<path d="M3775 3210 c27 -12 43 -12 25 0 -8 5 -22 9 -30 9 -10 0 -8 -3 5 -9z"/>
<path d="M5095 3188 c-11 -6 -23 -16 -27 -22 -4 -6 -8 -7 -8 -2 0 6 -7 1 -16
-10 -8 -10 -13 -13 -9 -7 10 21 -24 3 -36 -19 -6 -11 -17 -17 -25 -14 -8 3
-12 1 -9 -4 3 -5 -27 -25 -67 -45 -66 -33 -72 -32 -21 2 10 7 1 5 -19 -4 -33
-15 -36 -19 -32 -47 10 -61 16 -72 66 -116 28 -25 45 -35 38 -23 -12 18 -11
25 4 47 20 31 17 39 -24 56 -16 7 -30 18 -30 25 0 7 37 38 83 67 106 71 126
81 143 74 10 -4 14 3 14 24 0 17 -1 30 -2 30 -2 0 -12 -6 -23 -12z"/>
<path d="M4857 3139 c-8 -30 -50 -53 -81 -43 -19 6 -20 5 -6 -12 8 -10 15 -20
16 -22 1 -2 25 8 54 23 37 19 49 30 42 38 -5 7 -11 19 -14 27 -3 10 -7 6 -11
-11z"/>
<path d="M13 3113 c-7 -2 -13 -18 -13 -34 0 -25 6 -32 38 -45 72 -27 143 -69
234 -136 51 -37 95 -68 98 -68 7 1 -30 29 -160 122 -133 96 -192 146 -184 159
6 10 5 10 -13 2z"/>
<path d="M4663 3065 c0 -22 2 -30 4 -17 2 12 2 30 0 40 -3 9 -5 -1 -4 -23z"/>
<path d="M974 3074 c-18 -14 -18 -15 4 -4 12 6 22 13 22 15 0 8 -5 6 -26 -11z"/>
<path d="M924 3044 c-18 -14 -18 -15 4 -4 12 6 22 13 22 15 0 8 -5 6 -26 -11z"/>
<path d="M874 3014 c-18 -14 -18 -15 4 -4 12 6 22 13 22 15 0 8 -5 6 -26 -11z"/>
<path d="M2345 2958 l-70 -73 73 70 c67 64 77 75 69 75 -1 0 -34 -33 -72 -72z"/>
<path d="M824 2984 c-18 -14 -18 -15 4 -4 12 6 22 13 22 15 0 8 -5 6 -26 -11z"/>
<path d="M4668 2983 c6 -2 18 -2 25 0 6 3 1 5 -13 5 -14 0 -19 -2 -12 -5z"/>
<path d="M2768 2963 c7 -3 16 -2 19 1 4 3 -2 6 -13 5 -11 0 -14 -3 -6 -6z"/>
<path d="M2728 2953 c7 -3 16 -2 19 1 4 3 -2 6 -13 5 -11 0 -14 -3 -6 -6z"/>
<path d="M744 2934 c-18 -14 -18 -15 4 -4 12 6 22 13 22 15 0 8 -5 6 -26 -11z"/>
<path d="M2688 2943 c7 -3 16 -2 19 1 4 3 -2 6 -13 5 -11 0 -14 -3 -6 -6z"/>
<path d="M4785 2939 c-4 -6 -13 -8 -20 -5 -10 4 -10 -1 1 -22 8 -15 14 -34 14
-42 -1 -19 -39 -64 -67 -79 -27 -14 -86 -14 -100 0 -7 7 -21 5 -47 -7 -35 -17
-41 -28 -38 -67 1 -10 -3 -15 -8 -12 -6 3 -10 2 -10 -4 0 -25 -53 -69 -97 -82
-27 -7 -52 -14 -58 -14 -15 -1 -94 78 -88 88 3 5 -27 -8 -66 -28 -39 -19 -71
-38 -71 -40 0 -3 27 8 60 25 69 35 70 35 70 15 0 -32 -121 -115 -167 -115 -33
0 -39 20 -12 42 l24 19 -27 -12 c-24 -11 -28 -18 -28 -53 0 -66 -38 -111 -112
-135 -37 -12 -52 -31 -24 -31 11 0 11 -9 0 -57 -14 -59 -44 -259 -44 -292 0
-10 11 -23 24 -29 24 -11 24 -10 36 56 15 88 38 138 86 187 61 62 82 97 98
166 16 68 37 92 94 108 42 12 92 -2 122 -34 36 -39 43 -31 36 38 -7 59 -6 63
13 63 20 0 21 -6 21 -103 0 -100 11 -134 24 -73 3 19 15 34 30 41 35 16 110
-21 145 -72 14 -21 32 -38 38 -39 20 0 -2 44 -66 133 -32 45 -64 92 -70 104
-18 34 6 39 32 6 12 -15 35 -42 52 -58 16 -17 27 -26 23 -21 -15 19 -8 73 12
98 12 17 34 28 61 32 62 10 96 32 125 81 14 25 30 45 35 45 34 0 187 -104 202
-137 l11 -25 8 23 c7 19 11 21 18 9 6 -11 10 -7 16 16 4 16 11 34 16 41 6 7 8
18 5 25 -3 8 -10 2 -17 -14 -7 -16 -16 -28 -19 -28 -3 0 -24 16 -46 36 l-40
36 40 -28 c61 -42 31 -15 -80 73 -55 44 -111 92 -124 106 -13 15 -27 24 -32
22 -4 -3 -5 4 -2 15 6 21 -2 27 -12 9z m-102 -176 c-7 -2 -21 -2 -30 0 -10 3
-4 5 12 5 17 0 24 -2 18 -5z m-183 -117 c0 -2 -8 -10 -17 -17 -16 -13 -17 -12
-4 4 13 16 21 21 21 13z"/>
<path d="M2603 2933 c15 -2 37 -2 50 0 12 2 0 4 -28 4 -27 0 -38 -2 -22 -4z"/>
<path d="M4549 2883 c-13 -16 -12 -17 4 -4 9 7 17 15 17 17 0 8 -8 3 -21 -13z"/>
<path d="M634 2864 c-18 -14 -18 -15 4 -4 12 6 22 13 22 15 0 8 -5 6 -26 -11z"/>
<path d="M4200 2866 c0 -2 8 -10 18 -17 15 -13 16 -12 3 4 -13 16 -21 21 -21
13z"/>
<path d="M1990 2840 c0 -5 5 -10 11 -10 5 0 7 5 4 10 -3 6 -8 10 -11 10 -2 0
-4 -4 -4 -10z"/>
<path d="M1971 2824 c0 -11 3 -14 6 -6 3 7 2 16 -1 19 -3 4 -6 -2 -5 -13z"/>
<path d="M3536 2813 c-6 -14 -5 -15 5 -6 7 7 10 15 7 18 -3 3 -9 -2 -12 -12z"/>
<path d="M645 2778 c11 -20 20 -36 21 -35 1 1 4 18 8 38 6 35 5 36 -22 35
l-28 -1 21 -37z"/>
<path d="M1937 2765 c-35 -44 -125 -88 -179 -87 -30 1 -38 -2 -28 -8 20 -13 8
-12 -25 0 -23 9 -28 7 -32 -8 -2 -10 -38 -49 -79 -86 -54 -49 -80 -67 -94 -63
-12 3 -20 0 -20 -6 0 -7 -7 -25 -15 -41 -13 -24 -13 -31 -3 -37 9 -6 15 -1 19
14 4 16 7 7 11 -28 3 -27 13 -73 21 -100 10 -34 12 -63 7 -90 -4 -22 -8 -36
-9 -31 0 5 -12 -3 -25 -17 -32 -34 -70 -43 -115 -27 -28 10 -36 10 -39 0 -3
-7 -16 -26 -31 -42 -35 -39 -97 -48 -143 -21 l-33 19 -70 -32 c-79 -38 -81
-44 -4 -14 28 12 54 18 57 16 12 -12 -26 -38 -126 -87 -130 -63 -223 -81 -165
-32 16 13 15 13 -7 0 -17 -9 -26 -25 -28 -46 -2 -18 -10 -35 -18 -38 -7 -3
-12 -9 -9 -13 3 -5 0 -12 -6 -16 -8 -5 -9 -3 -4 6 6 10 4 11 -11 6 -10 -5 -27
-11 -37 -14 -15 -4 -16 -7 -5 -13 20 -13 -36 -11 -65 2 -21 10 -32 6 -81 -26
-31 -21 -56 -40 -56 -42 0 -5 15 4 53 30 16 10 30 17 33 14 6 -6 -38 -37 -86
-62 -34 -18 -35 -18 -20 0 14 18 13 17 -12 0 -15 -11 -31 -30 -37 -42 -6 -13
-15 -23 -21 -23 -5 0 -10 -11 -10 -25 0 -36 31 -32 59 6 29 39 101 72 156 71
77 -2 149 -37 208 -103 51 -56 67 -68 67 -51 0 4 -38 52 -85 106 -81 95 -84
100 -67 117 16 17 18 17 32 0 8 -9 22 -27 30 -40 l15 -22 1 24 c2 36 52 133
77 149 12 8 57 27 99 43 58 21 90 26 125 23 63 -6 164 -56 180 -88 l13 -25 0
25 c0 14 -6 53 -14 88 l-13 62 28 0 c30 0 28 7 45 -155 4 -33 13 -71 20 -85
13 -24 13 -24 12 15 -2 74 36 124 85 111 37 -9 54 -30 62 -76 6 -34 9 -39 21
-29 13 10 12 14 -1 29 -8 9 -15 31 -15 48 0 21 -17 60 -48 110 l-48 77 30 30
c16 17 24 22 16 12 -11 -15 -7 -25 26 -75 l38 -57 12 85 c11 71 10 97 -2 155
-8 39 -14 86 -14 105 1 46 30 108 68 143 40 39 67 30 84 -26 16 -57 32 -73 94
-97 145 -54 248 -122 263 -173 l9 -32 1 40 c1 22 3 49 6 60 4 14 -3 26 -22 40
-26 18 -27 18 -13 0 14 -17 14 -18 -8 -6 -12 7 -20 16 -17 20 2 5 -3 15 -13
22 -15 13 -16 12 -3 -3 7 -10 9 -18 3 -18 -11 0 -30 21 -30 33 0 5 -4 12 -8
15 -4 4 -4 1 0 -5 10 -18 2 -16 -54 12 -27 14 -55 35 -61 47 -13 25 -20 28 64
-27 15 -9 27 -15 27 -12 0 3 -27 22 -60 43 -33 22 -60 43 -60 48 0 6 -6 2 -13
-8 -16 -21 -60 -24 -82 -6 -20 17 -19 49 5 104 23 50 40 60 41 24 0 -15 17
-35 48 -59 l47 -36 27 23 c28 24 85 44 125 44 42 0 77 -27 111 -89 19 -33 36
-59 38 -57 2 1 -23 64 -56 139 -32 75 -56 139 -52 143 3 4 1 4 -5 1 -6 -3 -25
3 -42 13 -39 24 -44 66 -9 80 12 5 18 9 12 10 -5 1 -17 3 -26 5 -9 1 -28 -12
-42 -30z m-160 -111 c-3 -3 -12 -4 -19 -1 -8 3 -5 6 6 6 11 1 17 -2 13 -5z
m-396 -523 c27 -22 25 -27 -13 -36 -30 -8 -46 11 -34 40 7 20 19 19 47 -4z"/>
<path d="M1614 2767 c3 -10 6 -28 6 -40 0 -15 3 -18 11 -10 8 8 6 19 -6 39 -9
16 -14 21 -11 11z"/>
<path d="M3509 2753 c-13 -16 -12 -17 4 -4 9 7 17 15 17 17 0 8 -8 3 -21 -13z"/>
<path d="M671 2686 c-1 -27 -4 -47 -7 -43 -3 3 -17 -7 -30 -22 -26 -31 -56
-45 -121 -60 -27 -5 -43 -5 -43 1 0 5 -4 7 -8 4 -14 -9 -71 32 -92 66 -28 45
-25 29 6 -35 14 -30 37 -66 52 -81 35 -33 139 -96 146 -88 11 11 6 63 -9 85
-13 21 -13 22 13 24 15 0 35 -3 44 -8 21 -11 22 -6 7 22 -8 15 -6 25 10 46
l21 26 0 -29 c0 -16 9 -40 20 -54 l19 -25 -4 80 c-2 44 -9 94 -14 110 -9 28
-9 27 -10 -19z"/>
<path d="M3359 2643 c-13 -16 -12 -17 4 -4 16 13 21 21 13 21 -2 0 -10 -8 -17
-17z"/>
<path d="M5063 2480 c-28 -30 -70 -80 -93 -110 -39 -52 -40 -53 -3 -10 21 25
65 73 97 108 33 34 57 63 55 65 -2 1 -27 -22 -56 -53z"/>
<path d="M3311 2517 c-6 -8 -7 -18 -3 -23 4 -5 3 -6 -1 -2 -5 3 -26 0 -48 -7
-42 -15 -59 -12 -102 18 -22 15 -31 17 -40 8 -9 -9 -7 -11 8 -5 18 7 18 5 -4
-19 -27 -30 -156 -110 -254 -158 -56 -28 -69 -31 -77 -19 -5 8 -6 18 -3 24 3
5 1 6 -5 2 -6 -4 -9 -13 -5 -21 8 -22 -6 -87 -18 -80 -5 4 -9 1 -9 -4 0 -21
-2 -26 -12 -38 -6 -7 -14 -11 -18 -8 -11 7 -41 -5 -36 -14 2 -3 -18 -6 -45 -6
-32 1 -58 8 -76 21 -20 14 -35 18 -53 13 -14 -4 -18 -8 -10 -9 8 -1 4 -5 -10
-9 -18 -5 -30 -2 -43 12 -17 20 -17 19 -17 -19 0 -44 -13 -73 -24 -55 -4 6 -2
11 4 11 6 0 9 4 6 9 -3 5 -25 -11 -49 -34 -30 -31 -58 -48 -97 -59 -110 -31
-107 -31 -139 3 -23 25 -30 28 -35 15 -3 -8 -2 -12 4 -9 6 3 10 4 10 1 0 -3
-18 -15 -41 -27 -23 -11 -38 -15 -34 -9 6 9 2 9 -14 1 -11 -7 -21 -14 -21 -17
0 -3 5 -2 12 2 7 5 8 3 4 -5 -5 -7 -15 -10 -23 -7 -8 3 -11 2 -8 -4 3 -5 -3
-14 -14 -19 -26 -14 -34 -14 -25 1 4 7 3 8 -5 4 -6 -4 -9 -11 -6 -16 3 -4 -11
-18 -31 -29 -27 -16 -35 -18 -31 -7 4 10 1 13 -8 10 -12 -5 -12 -10 2 -30 14
-21 14 -24 0 -24 -8 0 -18 6 -20 13 -3 6 -6 -4 -6 -24 -1 -26 -10 -45 -33 -70
-35 -36 -51 -42 -111 -43 -32 -1 -35 -3 -20 -13 9 -7 25 -13 36 -13 10 0 15
-4 12 -10 -3 -5 -17 -10 -30 -10 -22 0 -43 20 -88 84 -21 30 -41 35 -32 7 4
-12 -9 -36 -42 -76 -47 -57 -48 -59 -46 -124 2 -36 0 -60 -3 -53 -4 8 -13 1
-27 -19 -27 -39 -80 -68 -144 -78 -45 -8 -47 -9 -23 -19 20 -9 21 -11 6 -11
-11 -1 -36 18 -58 41 -27 29 -38 36 -38 24 0 -30 -55 -76 -90 -76 -33 0 -80
37 -80 65 0 8 -9 15 -20 15 -12 0 -20 7 -20 17 0 13 -3 14 -12 5 -19 -19 -63
-14 -83 8 -22 24 -55 29 -35 5 6 -8 16 -13 22 -12 5 1 15 -6 21 -16 10 -14 9
-20 -3 -27 -13 -9 -12 -13 7 -29 12 -10 39 -22 60 -26 21 -4 53 -18 71 -31 17
-13 47 -35 65 -49 l34 -25 53 66 c47 58 55 64 68 50 33 -33 -90 -175 -309
-358 -147 -123 -143 -118 -130 -165 15 -51 14 -86 -1 -77 -8 5 -9 0 -6 -14 4
-12 3 -20 -2 -17 -4 3 -15 -6 -24 -20 -21 -32 -59 -51 -124 -63 -54 -10 -88 2
-121 41 -12 15 -32 16 -164 12 l-150 -6 -46 -38 c-25 -20 -76 -54 -114 -75
-56 -31 -67 -41 -67 -63 0 -29 -13 -32 150 27 214 77 327 81 430 14 19 -13 67
-33 105 -45 96 -31 136 -58 237 -160 62 -63 90 -99 99 -128 18 -59 22 -43 9
30 -7 38 -19 71 -31 82 -10 10 -19 21 -19 26 0 4 -56 64 -125 133 l-124 125
24 23 25 24 43 -42 42 -41 0 108 c0 105 1 108 30 142 17 19 50 52 75 73 25 21
101 91 169 155 68 64 134 122 148 129 13 7 41 12 61 10 36 -3 38 -6 82 -95 56
-113 71 -131 31 -38 -26 62 -101 270 -101 281 0 2 8 4 18 4 12 0 26 -24 51
-84 29 -73 36 -83 48 -71 27 28 78 -9 88 -63 4 -20 14 -50 23 -65 21 -36 94
-74 158 -83 27 -3 54 -10 59 -14 6 -5 26 -40 45 -79 18 -39 35 -69 37 -67 3 2
-23 59 -57 125 -33 67 -58 126 -55 132 4 5 3 8 -2 7 -4 -2 -18 4 -31 13 -16
12 -20 22 -15 35 5 15 1 13 -18 -6 -53 -56 -131 -29 -133 45 -1 27 -12 45 -48
82 -73 74 -110 178 -39 109 l38 -37 7 47 c3 26 6 63 6 83 0 20 9 51 20 69 16
26 26 32 55 32 72 0 180 -65 225 -136 25 -40 28 -42 33 -22 4 15 -1 31 -17 48
-41 45 -116 152 -116 165 0 12 21 25 39 25 4 0 12 -15 19 -34 7 -18 21 -41 31
-50 17 -16 18 -16 14 7 -6 31 40 87 72 87 27 0 71 -33 95 -72 15 -25 19 -27
30 -13 10 13 3 27 -44 90 -51 68 -116 169 -116 180 0 17 21 -1 40 -32 21 -36
23 -37 31 -16 14 38 77 59 157 54 13 0 37 -15 52 -31 l28 -30 7 65 c4 36 5 74
2 85 -4 17 0 20 31 19 21 -1 30 -3 21 -6 -21 -5 -35 -184 -16 -214 14 -23 30
-24 47 -4 20 24 59 18 92 -15 16 -16 37 -30 47 -30 9 0 22 -5 29 -12 7 -7 12
-9 12 -5 0 15 -74 154 -116 220 -26 39 -38 67 -31 67 15 0 82 71 79 83 -1 5 2
5 9 2 7 -5 1 -18 -18 -37 l-28 -29 59 -114 c58 -115 103 -186 70 -113 -20 44
-14 64 21 71 41 7 95 -11 128 -44 33 -34 34 -33 46 9 10 34 3 48 -42 76 -15 9
-25 21 -22 26 3 6 0 7 -8 4 -8 -3 -18 0 -23 7 -5 8 -3 10 6 4 8 -5 11 -4 6 3
-4 6 -14 8 -23 5 -12 -5 -14 -3 -8 8 4 8 5 11 0 7 -9 -8 -65 18 -65 31 0 4 -6
8 -13 8 -26 0 -67 35 -67 59 0 12 4 25 9 28 4 3 42 -14 84 -37 71 -41 78 -43
131 -37 86 9 147 67 161 150 9 52 58 94 184 159 118 60 138 65 190 46 23 -8
69 -19 104 -25 104 -18 146 -43 191 -113 22 -34 43 -80 47 -102 6 -38 7 -37 8
18 1 50 3 57 21 57 36 0 36 0 3 -297 -3 -29 -2 -53 3 -53 5 0 10 19 11 43 5
113 19 212 29 210 6 -1 18 15 26 36 21 53 77 93 138 99 33 3 50 1 50 -7 0 -6
4 -11 9 -11 4 0 14 27 20 60 11 55 10 63 -7 85 l-19 24 -52 -25 c-34 -15 -50
-28 -45 -36 5 -8 2 -9 -10 -5 -11 5 -15 3 -10 -5 5 -8 2 -9 -10 -5 -11 5 -15
3 -10 -5 5 -8 2 -9 -10 -5 -11 5 -15 3 -10 -5 5 -8 2 -9 -9 -5 -11 4 -20 -1
-27 -13 -14 -27 -7 -25 56 10 58 34 77 27 42 -15 -18 -20 -33 -26 -68 -28 -29
-1 -50 -8 -58 -19 -8 -11 -26 -18 -48 -18 -28 0 -37 5 -47 28 -6 15 -24 37
-39 50 -15 13 -42 42 -59 65 l-33 42 45 -40 c24 -22 14 -8 -23 30 -52 53 -67
76 -63 93 5 25 2 27 -14 9z m434 -147 c-3 -5 -12 -10 -18 -10 -7 0 -6 4 3 10
19 12 23 12 15 0z m-1092 -217 c-7 -2 -19 -2 -25 0 -7 3 -2 5 12 5 14 0 19 -2
13 -5z m-1073 -434 c0 -5 -5 -9 -11 -9 -6 0 -25 -10 -42 -22 l-31 -23 28 37
c26 32 56 41 56 17z m-429 -507 c-31 -58 -278 -272 -313 -272 -23 0 2 27 100
108 59 49 131 110 161 135 61 52 66 55 52 29z"/>
<path d="M5070 2435 c-121 -156 -168 -210 -195 -225 -24 -13 -30 -23 -30 -49
0 -31 4 -34 59 -57 63 -25 83 -30 53 -13 -14 8 -17 18 -12 40 11 49 77 158
128 211 46 48 48 52 45 100 l-3 51 -45 -58z"/>
<path d="M666 2441 c-11 -12 -26 -21 -35 -21 -9 0 -24 -12 -33 -28 -10 -15
-41 -54 -69 -87 -28 -33 -55 -69 -60 -80 -6 -11 0 -7 13 10 13 16 46 57 73 90
l50 60 3 -43 3 -43 53 31 c49 27 61 30 147 30 106 1 104 5 -21 47 -107 35 -82
40 99 19 136 -15 218 -44 208 -71 -3 -7 0 -21 7 -30 11 -15 15 -14 39 18 15
20 25 42 22 50 -7 16 -104 33 -275 47 -63 5 -135 12 -160 16 -38 4 -49 2 -64
-15z"/>
<path d="M2888 2394 c-38 -19 -68 -37 -68 -39 0 -3 32 11 70 30 39 19 70 37
70 40 0 7 3 8 -72 -31z"/>
<path d="M3460 2346 c0 -2 8 -10 18 -17 15 -13 16 -12 3 4 -13 16 -21 21 -21
13z"/>
<path d="M4873 2328 c-11 -13 -26 -34 -33 -48 -15 -29 -5 -20 34 33 30 41 30
49 -1 15z"/>
<path d="M4411 2340 c-6 -17 -31 -170 -31 -196 0 -18 7 -38 17 -45 13 -11 15
-11 9 -1 -4 7 -3 50 4 95 10 65 10 170 1 147z"/>
<path d="M4910 2295 c-7 -9 -11 -17 -9 -20 3 -2 10 5 17 15 14 24 10 26 -8 5z"/>
<path d="M4880 2240 c-6 -11 -8 -20 -6 -20 3 0 10 9 16 20 6 11 8 20 6 20 -3
0 -10 -9 -16 -20z"/>
<path d="M460 2145 c0 -29 -5 -37 -31 -51 -25 -13 -37 -14 -57 -5 -21 10 -23
9 -19 -4 9 -22 -19 -43 -131 -102 -101 -54 -131 -65 -96 -37 10 8 0 5 -23 -7
-23 -12 -39 -27 -36 -32 3 -6 1 -7 -5 -3 -21 13 -58 -14 -60 -46 l-2 -30 32
21 c18 11 94 51 168 88 123 62 141 68 208 72 80 4 89 11 72 57 -10 26 -5 23
47 -26 l58 -55 -57 60 c-58 61 -71 82 -43 71 23 -9 19 37 -5 52 -19 11 -20 10
-20 -23z"/>
<path d="M2062 2130 c0 -14 2 -19 5 -12 2 6 2 18 0 25 -3 6 -5 1 -5 -13z"/>
<path d="M4799 2090 c-21 -22 -51 -41 -70 -45 -19 -4 -46 -14 -61 -21 -16 -8
-28 -10 -28 -5 0 10 -34 24 -60 25 -8 1 -14 7 -12 13 1 7 -2 12 -7 10 -5 -1
-16 7 -24 18 -13 16 -18 17 -38 7 l-24 -12 25 5 c21 5 -34 -36 -99 -74 -17
-10 2 -51 25 -51 8 0 12 -4 9 -10 -3 -5 -1 -10 4 -10 6 0 11 5 11 11 0 5 4 7
10 4 12 -7 124 21 128 33 1 5 10 18 18 28 9 10 13 13 9 7 -3 -7 -1 -13 5 -13
24 0 81 -53 75 -70 -9 -30 -35 -322 -35 -401 0 -51 4 -80 13 -88 11 -9 14 4
15 66 3 95 35 245 61 281 11 15 29 34 42 42 12 8 44 34 71 57 26 24 60 46 73
49 16 4 57 -4 106 -19 l80 -25 -3 39 c-1 28 -6 38 -15 35 -7 -3 -13 -1 -13 5
0 6 -4 7 -10 4 -5 -3 -10 -2 -10 3 0 12 -49 34 -61 27 -5 -4 -9 -1 -9 5 0 6
-4 8 -10 5 -5 -3 -10 -1 -10 5 0 7 -7 9 -16 6 -8 -3 -13 -2 -10 2 3 5 -18 17
-45 26 -34 13 -53 26 -59 42 -5 13 -11 24 -12 23 -2 0 -19 -18 -39 -39z"/>
<path d="M4395 2034 c-18 -16 -22 -22 -9 -15 18 9 53 42 43 41 -2 -1 -17 -12
-34 -26z"/>
<path d="M930 2020 c-19 -11 -30 -19 -25 -19 6 0 26 8 45 19 19 11 31 19 25
19 -5 0 -26 -8 -45 -19z"/>
<path d="M234 2014 c-18 -14 -18 -15 4 -4 12 6 22 13 22 15 0 8 -5 6 -26 -11z"/>
<path d="M4324 1988 l-19 -23 25 20 c14 11 27 21 29 22 2 2 0 3 -6 3 -5 0 -18
-10 -29 -22z"/>
<path d="M865 1990 c-3 -6 1 -7 9 -4 18 7 21 14 7 14 -6 0 -13 -4 -16 -10z"/>
<path d="M164 1974 c-18 -14 -18 -15 4 -4 12 6 22 13 22 15 0 8 -5 6 -26 -11z"/>
<path d="M4274 1954 c-18 -14 -18 -15 4 -4 12 6 22 13 22 15 0 8 -5 6 -26 -11z"/>
<path d="M4555 1930 c-33 -10 -113 -33 -178 -51 -65 -17 -116 -33 -114 -36 3
-2 53 10 112 27 60 16 111 28 113 25 6 -6 -117 -61 -171 -76 -23 -6 -76 -12
-118 -13 -43 0 -76 -3 -74 -6 2 -3 -10 -5 -26 -6 -76 -3 -4 37 154 86 78 24
104 36 92 42 -9 6 -41 2 -85 -10 -38 -10 -67 -14 -63 -9 9 14 -11 2 -80 -50
-31 -24 -63 -43 -70 -43 -7 0 -21 -24 -30 -53 -35 -110 -142 -189 -257 -191
-32 0 -56 -5 -53 -9 3 -5 -8 -2 -25 7 -57 29 -111 113 -113 173 l0 28 -10 -24
c-13 -33 -35 -48 -91 -61 -41 -10 -48 -16 -48 -37 0 -13 -11 -39 -25 -57 -27
-35 -33 -55 -12 -39 6 6 50 25 96 42 82 32 111 31 98 -1 -6 -16 -211 -83 -226
-74 -5 4 -16 -6 -24 -20 -13 -25 -12 -31 6 -61 18 -31 34 -141 16 -112 -4 8
-9 4 -14 -10 -8 -27 -90 -81 -122 -81 -13 0 -23 -5 -23 -11 0 -6 -5 -7 -12 -2
-7 4 -20 8 -28 10 -24 3 -60 52 -72 99 -7 24 -16 44 -21 44 -4 0 -5 5 -1 12 4
7 3 8 -5 4 -14 -9 -53 2 -46 14 6 10 -23 22 -36 14 -5 -3 -9 -1 -9 4 0 6 -19
17 -42 27 -24 9 -53 26 -65 37 l-21 20 -7 -31 c-8 -35 -25 -43 -19 -8 4 18 3
18 -4 4 -4 -10 -27 -38 -52 -63 -33 -33 -59 -49 -106 -64 -81 -24 -137 -28
-161 -9 -16 13 -17 13 -4 -3 7 -10 11 -28 8 -40 -4 -13 -7 -26 -7 -30 -3 -14
-129 -233 -143 -249 -13 -15 -13 -19 4 -35 27 -28 34 -75 14 -99 -9 -11 -13
-13 -9 -5 7 13 5 13 -9 1 -18 -14 -13 -36 5 -25 6 4 24 -8 40 -27 26 -32 28
-32 23 -9 -3 14 -7 57 -8 96 -2 68 0 74 36 126 66 97 144 114 205 44 23 -26
30 -46 35 -95 8 -72 16 -91 29 -68 6 11 4 24 -6 40 -9 13 -15 44 -15 73 0 27
-11 87 -25 134 -31 102 -30 100 -8 100 13 0 24 -22 45 -89 21 -66 32 -88 42
-84 8 2 17 12 20 21 3 10 41 54 84 100 72 76 81 82 117 82 46 0 88 -25 80 -47
-4 -10 3 -7 21 6 24 20 27 20 44 5 24 -21 21 -26 -51 -69 -33 -20 -60 -39 -60
-42 0 -2 16 5 35 17 47 29 45 17 -2 -15 -40 -27 -59 -32 -47 -13 4 7 3 8 -5 4
-6 -4 -9 -11 -6 -16 6 -10 -103 -73 -115 -65 -5 3 -6 -9 -3 -27 4 -27 -1 -39
-24 -64 -16 -16 -35 -28 -41 -26 -7 2 -12 -2 -12 -8 0 -8 -9 -10 -22 -7 -21 6
-23 2 -23 -31 -1 -20 -4 -50 -8 -67 -6 -26 -5 -26 7 5 l14 35 1 -40 c1 -50
-51 -221 -72 -236 -4 -3 -3 -18 3 -33 13 -36 14 -127 0 -106 -6 9 -10 10 -10
3 0 -20 -51 -73 -89 -92 -20 -10 -53 -21 -74 -25 -21 -4 -35 -11 -32 -17 10
-15 -7 -11 -42 11 -17 10 -37 28 -43 39 -6 12 -15 21 -21 21 -6 0 -7 -5 -3
-11 4 -8 -1 -9 -16 -4 -16 5 -20 4 -15 -5 5 -9 1 -10 -14 -5 -15 4 -21 3 -19
-7 2 -9 -7 -13 -29 -12 -18 1 -30 -2 -27 -7 3 -5 0 -9 -5 -9 -6 0 -11 -6 -11
-13 0 -18 101 -82 123 -79 19 4 47 -14 47 -30 0 -5 -6 -6 -12 -2 -10 5 -10 4
-2 -5 18 -19 51 3 59 39 10 45 26 36 23 -13 l-3 -42 42 3 c50 4 78 -9 98 -48
30 -59 9 -103 -60 -128 -28 -10 -27 -11 20 -9 42 2 50 5 48 20 -1 17 2 16 24
-5 l26 -23 -7 38 c-3 20 -9 52 -12 71 -5 28 -1 38 25 65 34 34 85 60 132 66
56 7 161 -14 194 -39 l31 -24 18 32 c14 27 15 37 5 59 -13 28 -34 37 -143 59
-47 9 -56 13 -40 20 12 5 6 6 -19 2 -29 -4 -37 -2 -31 7 5 9 -1 10 -24 6 -19
-4 -32 -2 -32 3 0 6 -10 10 -23 10 -36 0 -61 23 -52 49 6 19 11 21 37 16 26
-6 29 -5 24 11 -27 92 -25 140 13 250 16 46 34 71 80 115 47 44 61 65 66 95
11 65 25 91 63 118 164 113 252 84 453 -151 71 -82 89 -110 90 -136 1 -44 13
-75 23 -58 4 7 2 26 -4 42 -7 16 -10 49 -8 74 5 37 2 47 -18 66 -35 33 -176
216 -213 275 -34 57 -33 81 6 90 13 4 25 5 27 3 1 -2 16 -27 34 -55 28 -44 99
-123 77 -85 -13 23 -5 231 10 267 17 42 74 76 128 76 40 0 133 -41 209 -94 14
-10 30 -18 35 -18 20 0 83 -74 84 -99 0 -15 3 -20 6 -11 3 8 12 29 20 47 14
30 13 34 -32 111 -58 100 -63 129 -23 134 27 4 31 0 75 -85 27 -50 57 -94 70
-101 17 -8 49 -10 115 -4 50 5 94 10 96 13 3 3 -7 27 -21 54 -29 53 -32 61
-18 61 4 0 24 -25 44 -56 32 -52 41 -58 104 -81 80 -29 101 -30 122 -7 9 9 11
14 5 11 -7 -4 -22 2 -35 12 -13 10 -47 26 -75 35 -45 15 -112 65 -88 66 24 1
-45 29 -72 30 -21 0 -49 15 -90 46 -64 50 -77 62 -54 49 9 -5 6 2 -6 16 -11
13 -19 32 -17 42 5 21 17 22 32 3 7 -8 40 -31 74 -51 50 -30 58 -32 40 -13
-58 61 -4 151 117 196 154 57 246 77 323 73 13 -1 17 -11 18 -43 l2 -43 7 50
c13 83 12 175 -2 174 -7 -1 -40 -9 -73 -19z m-518 -182 c-3 -8 -6 -5 -6 6 -1
11 2 17 5 13 3 -3 4 -12 1 -19z m-234 -215 c-7 -2 -19 -2 -25 0 -7 3 -2 5 12
5 14 0 19 -2 13 -5z m-1133 -1101 c0 -5 -7 -17 -15 -28 -14 -18 -14 -17 -4 9
12 27 19 34 19 19z"/>
<path d="M4224 1924 c-18 -14 -18 -15 4 -4 12 6 22 13 22 15 0 8 -5 6 -26 -11z"/>
<path d="M561 1904 c0 -11 3 -14 6 -6 3 7 2 16 -1 19 -3 4 -6 -2 -5 -13z"/>
<path d="M2944 1869 c-19 -22 -19 -22 4 -10 12 6 22 16 22 21 0 15 -5 12 -26
-11z"/>
<path d="M1623 1843 c-18 -7 -16 -23 2 -23 8 0 15 7 15 15 0 8 -1 15 -2 14 -2
0 -9 -3 -15 -6z"/>
<path d="M2785 1841 c9 -16 -33 -23 -57 -10 -21 11 -22 11 -9 -5 9 -11 12 -30
8 -59 -5 -38 -3 -45 27 -75 18 -17 40 -32 48 -32 22 0 136 78 148 100 16 31
12 37 -29 36 -22 -1 -37 2 -35 5 2 4 -3 10 -12 13 -24 9 -31 7 -14 -5 10 -7
11 -9 2 -7 -8 2 -12 6 -10 9 2 3 -3 13 -11 22 -14 18 -67 24 -56 8z"/>
<path d="M4198 1823 c7 -3 16 -2 19 1 4 3 -2 6 -13 5 -11 0 -14 -3 -6 -6z"/>
<path d="M3064 1769 c-10 -12 -61 -48 -111 -81 -51 -33 -93 -66 -93 -73 0 -48
67 -130 78 -95 15 43 133 90 231 91 61 1 108 -25 103 -57 -5 -25 -1 -21 47 59
40 65 47 107 20 107 -6 0 -7 5 -4 11 4 6 1 9 -6 8 -8 -1 -21 0 -29 4 -33 12
-178 47 -197 47 -11 0 -28 -9 -39 -21z m117 -34 c46 -9 99 -21 118 -27 l34
-11 -26 -13 c-35 -19 -79 -23 -140 -12 -77 14 -149 78 -88 78 11 0 56 -7 102
-15z"/>
<path d="M2195 1732 c-24 -3 -34 -12 -52 -49 -20 -42 -20 -48 -6 -69 18 -28
30 -30 55 -7 23 21 101 20 153 -2 21 -8 39 -14 40 -13 25 40 45 82 40 86 -3 3
-5 0 -5 -6 0 -18 -24 -14 -75 10 -32 15 -41 25 -32 31 8 6 6 7 -7 3 -11 -4
-22 -3 -25 2 -8 12 -50 19 -86 14z"/>
<path d="M88 1698 c-15 -15 -16 -18 -3 -18 9 0 18 7 22 15 8 23 0 24 -19 3z"/>
<path d="M4 1685 c-11 -44 14 -46 37 -2 7 12 8 19 4 15 -5 -4 -14 -3 -21 3
-10 8 -15 5 -20 -16z"/>
<path d="M4612 1660 c0 -14 2 -19 5 -12 2 6 2 18 0 25 -3 6 -5 1 -5 -13z"/>
<path d="M362 1590 c-13 -10 -30 -16 -37 -13 -11 4 -15 -3 -15 -25 0 -22 -6
-31 -21 -35 -12 -3 -18 -10 -14 -16 4 -7 0 -8 -11 -4 -12 4 -15 3 -10 -5 4 -7
2 -12 -4 -12 -17 0 -60 47 -60 66 0 15 -4 14 -27 -7 -14 -13 -23 -17 -19 -9 7
13 6 13 -6 0 -22 -25 -97 -18 -121 11 l-20 24 8 -25 c21 -70 53 -100 122 -115
31 -6 33 -5 33 23 0 16 9 37 20 47 19 18 20 17 20 -3 0 -12 6 -22 14 -22 18 0
23 -15 22 -75 -1 -41 -5 -52 -22 -59 -18 -8 -20 -16 -17 -65 2 -31 6 -76 9
-101 6 -44 7 -42 35 73 33 134 36 141 81 190 18 19 43 49 56 66 29 38 35 38
226 6 170 -29 209 -31 116 -6 -49 14 -59 19 -40 22 14 2 -25 14 -93 27 -153
31 -189 41 -182 53 11 16 -19 9 -43 -11z"/>
<path d="M428 1593 c6 -2 18 -2 25 0 6 3 1 5 -13 5 -14 0 -19 -2 -12 -5z"/>
<path d="M488 1583 c6 -2 18 -2 25 0 6 3 1 5 -13 5 -14 0 -19 -2 -12 -5z"/>
<path d="M5020 1578 c0 -6 10 -32 22 -56 l21 -45 -26 -48 c-31 -55 -32 -59
-11 -59 8 0 13 4 10 8 -8 13 22 51 55 67 25 14 29 21 29 60 0 43 -1 45 -30 45
-17 0 -39 9 -50 20 -11 11 -20 15 -20 8z"/>
<path d="M558 1573 c7 -3 16 -2 19 1 4 3 -2 6 -13 5 -11 0 -14 -3 -6 -6z"/>
<path d="M628 1563 c7 -3 16 -2 19 1 4 3 -2 6 -13 5 -11 0 -14 -3 -6 -6z"/>
<path d="M698 1553 c6 -2 18 -2 25 0 6 3 1 5 -13 5 -14 0 -19 -2 -12 -5z"/>
<path d="M788 1543 c6 -2 18 -2 25 0 6 3 1 5 -13 5 -14 0 -19 -2 -12 -5z"/>
<path d="M2127 1519 c-15 -17 -26 -20 -52 -16 -23 4 -38 1 -46 -9 -6 -8 -8
-14 -3 -14 5 0 -13 -20 -39 -45 -54 -50 -78 -56 -101 -23 l-16 22 0 -22 c0
-12 5 -21 12 -19 6 1 13 -5 15 -14 5 -20 -125 -132 -144 -124 -7 2 -13 0 -13
-5 0 -16 36 -12 50 5 24 29 110 97 110 87 0 -6 -18 -33 -40 -61 -22 -28 -40
-55 -40 -61 0 -13 17 -13 26 1 13 22 108 58 134 52 61 -14 79 -32 96 -91 19
-66 35 -87 86 -113 41 -21 81 -66 71 -82 -3 -6 -1 -7 5 -3 20 12 13 46 -24
111 -33 60 -37 64 -64 59 -37 -8 -70 24 -70 67 0 22 -14 47 -55 95 -30 36 -53
69 -50 74 3 4 31 -17 62 -48 31 -32 47 -45 34 -31 -26 32 -20 38 62 63 76 23
163 24 205 2 18 -9 46 -37 61 -61 l28 -44 18 33 18 33 -36 52 c-20 29 -39 70
-42 94 l-7 42 -51 2 c-29 1 -81 5 -117 8 -58 5 -67 3 -83 -16z m233 -28 c0
-17 -62 -34 -122 -33 -64 1 -95 15 -68 32 19 12 190 13 190 1z"/>
<path d="M1996 1464 c-5 -14 -4 -15 9 -4 17 14 19 20 6 20 -5 0 -12 -7 -15
-16z"/>
<path d="M4290 1405 c14 -8 30 -14 35 -14 6 0 -1 6 -15 14 -14 8 -29 14 -35
14 -5 0 1 -6 15 -14z"/>
<path d="M4700 1386 c0 -8 4 -17 9 -20 5 -4 7 3 4 14 -6 23 -13 26 -13 6z"/>
<path d="M1555 1360 c10 -11 20 -20 23 -20 3 0 -3 9 -13 20 -10 11 -20 20 -23
20 -3 0 3 -9 13 -20z"/>
<path d="M4665 1344 c-11 -8 -35 -14 -53 -12 -27 2 -45 -6 -92 -42 -49 -38
-57 -49 -53 -71 4 -20 -2 -31 -22 -48 -15 -11 -36 -21 -46 -21 -20 0 -49 36
-49 62 0 9 -10 22 -22 28 -22 11 -22 10 -4 -4 25 -20 13 -20 -25 -1 -16 9 -27
20 -24 24 2 5 -47 10 -111 10 -111 2 -115 1 -109 -18 13 -41 -70 -82 -102 -50
-7 7 -12 3 -15 -15 -3 -14 -1 -23 3 -20 16 10 9 -16 -21 -76 -40 -79 -134
-221 -126 -190 6 20 5 22 -4 8 -8 -13 -7 -27 5 -53 14 -35 20 -149 6 -126 -4
6 -15 -2 -26 -19 -25 -38 -88 -68 -150 -72 -46 -3 -53 -7 -88 -51 -20 -26 -40
-47 -44 -47 -3 0 2 10 13 23 l19 22 -22 -19 c-12 -10 -21 -22 -20 -26 1 -4
-38 -45 -86 -91 -78 -72 -88 -86 -83 -109 7 -37 -26 -72 -62 -68 -21 2 -30 11
-39 38 -11 33 -12 34 -12 8 -1 -16 -6 -28 -12 -28 -5 0 -7 -6 -3 -13 4 -6 4
-9 -1 -5 -10 9 -37 -11 -30 -22 3 -5 -4 -6 -15 -3 -11 3 -26 0 -34 -6 -7 -6
-21 -9 -30 -5 -12 5 -16 0 -16 -17 -1 -13 -16 -68 -34 -121 l-33 -98 23 0 c14
0 25 8 29 20 17 53 74 66 122 26 48 -40 69 -46 156 -46 l85 0 -56 54 c-40 39
-54 58 -46 66 7 7 17 3 34 -15 13 -14 26 -25 30 -25 4 0 3 28 -2 62 -12 87 -3
107 97 222 76 89 113 106 224 106 108 0 149 -16 204 -81 43 -50 121 -195 112
-209 -13 -22 6 -8 20 14 19 28 13 45 -39 111 -31 39 -182 269 -204 311 -6 11
-7 25 -3 32 4 7 27 -19 61 -68 51 -76 73 -102 51 -62 -10 18 -25 201 -24 293
0 54 50 155 102 207 34 34 34 34 110 30 89 -6 129 -23 229 -97 70 -51 194
-111 232 -111 9 0 33 -10 51 -23 31 -21 39 -22 69 -12 l35 12 -44 8 c-60 10
-123 46 -139 80 -8 14 -12 29 -9 31 3 3 37 -11 76 -30 39 -20 74 -36 78 -35 5
0 -30 20 -77 43 -47 24 -98 56 -113 70 -23 21 -32 24 -48 15 -26 -14 -56 -3
-76 27 -9 14 -30 32 -47 40 -28 14 -29 14 -12 -1 33 -26 11 -17 -73 30 -75 43
-126 83 -70 55 23 -11 23 -10 4 5 -11 8 -25 13 -33 10 -7 -2 -11 -1 -8 4 3 4
-6 13 -19 19 -33 15 -34 46 -2 37 26 -8 137 -68 186 -101 19 -13 38 -21 43
-18 4 3 8 1 8 -5 0 -13 21 -8 50 12 34 24 44 22 75 -14 19 -24 24 -39 20 -59
-5 -22 -1 -29 20 -38 l25 -12 -5 45 c-10 82 47 145 132 145 78 0 127 -69 149
-208 4 -27 10 -40 16 -34 13 13 -28 201 -59 271 -14 30 -34 68 -45 84 -11 15
-18 37 -15 47 3 11 4 20 4 20 -1 0 -11 -7 -22 -16z m-95 -49 c0 -8 -24 -26
-52 -40 l-53 -25 45 40 c49 43 60 48 60 25z m-1130 -818 c0 -1 -28 -29 -62
-62 l-63 -60 60 63 c55 58 65 67 65 59z m-147 -213 c-7 -3 -2 -14 13 -29 29
-29 31 -64 4 -93 -42 -45 -97 -38 -119 17 -17 39 7 88 47 97 15 3 32 7 37 9
15 5 31 4 18 -1z"/>
<path d="M4971 1333 c-35 -24 -35 -31 1 -12 40 21 8 -10 -35 -35 -51 -29 -92
-43 -83 -27 5 7 1 9 -8 5 -9 -3 -13 -11 -9 -18 4 -6 8 -60 8 -121 0 -103 2
-114 32 -176 18 -36 39 -71 46 -78 10 -8 8 1 -5 28 -12 24 -21 67 -23 108 -2
37 -7 98 -10 134 l-7 67 34 25 c57 43 95 57 153 57 40 0 55 4 55 14 0 9 -17
16 -45 20 -25 4 -50 13 -57 20 -10 10 -20 7 -47 -11z"/>
<path d="M4884 1284 c-18 -14 -18 -15 4 -4 12 6 22 13 22 15 0 8 -5 6 -26 -11z"/>
<path d="M140 1281 c0 -4 -22 -18 -50 -29 -42 -18 -59 -33 -48 -44 2 -2 -7
-17 -20 -35 -12 -17 -22 -43 -22 -58 l0 -27 35 31 c20 17 40 31 45 31 4 0 15
3 23 6 9 3 25 -4 38 -17 l22 -22 -9 49 c-4 27 -8 66 -7 87 0 20 -1 37 -3 37
-2 0 -4 -4 -4 -9z"/>
<path d="M7 1274 c-4 -4 -7 -19 -7 -33 0 -23 1 -24 16 -9 11 11 13 21 7 32 -5
9 -12 13 -16 10z"/>
<path d="M2197 1176 c-3 -8 4 -22 15 -33 21 -17 21 -17 15 0 -4 10 -7 25 -7
33 0 18 -16 18 -23 0z"/>
<path d="M1820 1172 c0 -7 -6 -12 -14 -12 -9 0 -4 -17 18 -59 17 -33 31 -59
32 -58 5 6 -19 124 -27 132 -6 5 -9 5 -9 -3z"/>
<path d="M4170 1136 c0 -3 9 -10 20 -16 11 -6 20 -8 20 -6 0 3 -9 10 -20 16
-11 6 -20 8 -20 6z"/>
<path d="M2904 1094 c-18 -14 -18 -15 4 -4 12 6 22 13 22 15 0 8 -5 6 -26 -11z"/>
<path d="M3890 1090 c-6 -11 -8 -20 -6 -20 3 0 10 9 16 20 6 11 8 20 6 20 -3
0 -10 -9 -16 -20z"/>
<path d="M4220 1106 c0 -3 9 -10 20 -16 11 -6 20 -8 20 -6 0 3 -9 10 -20 16
-11 6 -20 8 -20 6z"/>
<path d="M2798 1093 c7 -3 16 -2 19 1 4 3 -2 6 -13 5 -11 0 -14 -3 -6 -6z"/>
<path d="M241 1065 c-1 -32 -10 -49 -26 -56 -6 -2 -8 -29 -5 -64 l5 -60 23 42
c22 43 27 96 12 143 -8 25 -8 24 -9 -5z"/>
<path d="M3450 1045 c13 -14 26 -25 28 -25 3 0 -5 11 -18 25 -13 14 -26 25
-28 25 -3 0 5 -11 18 -25z"/>
<path d="M3860 1040 c-6 -11 -8 -20 -6 -20 3 0 10 9 16 20 6 11 8 20 6 20 -3
0 -10 -9 -16 -20z"/>
<path d="M1565 1011 c3 -18 6 -50 6 -70 1 -35 2 -35 9 9 4 26 3 48 -2 51 -5 3
-9 9 -8 13 1 4 -1 12 -4 19 -4 6 -4 -3 -1 -22z"/>
<path d="M168 976 c5 -69 8 -73 13 -19 2 31 0 54 -6 57 -6 2 -9 -13 -7 -38z"/>
<path d="M1512 979 c23 -41 23 -41 26 -15 2 18 -3 33 -15 42 -31 24 -35 15
-11 -27z"/>
<path d="M3830 990 c-6 -11 -8 -20 -6 -20 3 0 10 9 16 20 6 11 8 20 6 20 -3 0
-10 -9 -16 -20z"/>
<path d="M0 993 c0 -5 19 -20 43 -35 52 -33 107 -86 107 -104 0 -7 5 -16 11
-20 20 -12 -2 40 -30 69 -27 30 -114 97 -125 97 -3 0 -6 -3 -6 -7z"/>
<path d="M1588 915 c-4 -27 -10 -60 -14 -72 -4 -14 -2 -23 5 -23 15 0 23 38
19 96 l-3 49 -7 -50z"/>
<path d="M1886 863 c-6 -14 -5 -15 5 -6 7 7 10 15 7 18 -3 3 -9 -2 -12 -12z"/>
<path d="M2197 856 c-7 -17 -132 -60 -152 -52 -11 4 -15 -3 -15 -29 0 -22 -8
-42 -22 -56 -13 -12 -16 -18 -8 -14 9 5 12 4 7 -1 -5 -5 -14 -9 -20 -9 -7 -1
-24 -4 -38 -9 -22 -6 -25 -12 -23 -46 1 -22 11 -50 23 -66 11 -15 21 -37 21
-49 0 -13 9 -26 23 -32 21 -10 23 -9 19 16 -5 36 69 196 100 212 13 8 54 13
95 13 57 -1 83 -7 127 -28 31 -15 64 -38 75 -52 16 -20 21 -22 30 -10 18 22
-115 199 -144 192 -12 -3 -35 4 -53 14 -39 24 -38 24 -45 6z"/>
<path d="M4887 855 c-6 -14 -15 -17 -53 -12 -34 3 -44 1 -40 -8 2 -7 -9 -29
-26 -49 -16 -20 -28 -43 -25 -50 3 -7 0 -19 -6 -25 -6 -6 -8 -11 -4 -11 4 0 3
-9 -3 -21 -7 -12 -18 -18 -26 -15 -8 3 -14 1 -14 -4 0 -6 -7 -10 -16 -10 -9 0
-12 5 -8 12 5 8 2 9 -10 5 -10 -4 -23 1 -33 12 -16 19 -17 19 -44 -1 -22 -17
-26 -25 -19 -39 6 -10 10 -26 9 -36 -1 -13 -3 -11 -9 7 -7 23 -8 23 -9 -8 -1
-19 -8 -46 -17 -62 -29 -47 -119 -89 -155 -70 -13 8 -21 6 -31 -8 -7 -10 -50
-53 -95 -95 -46 -42 -80 -77 -77 -77 3 0 38 29 77 65 39 35 72 63 74 61 2 -1
-8 -28 -22 -59 -27 -62 -62 -92 -99 -85 -20 4 -26 0 -31 -21 -8 -32 -21 -41
-61 -41 -31 0 -60 21 -47 33 3 4 2 7 -4 7 -5 0 -10 -14 -10 -30 0 -17 -10 -45
-23 -63 -21 -29 -22 -30 -2 -13 21 18 21 18 28 -8 6 -24 10 -26 64 -26 74 0
102 21 126 95 9 32 25 60 36 66 11 6 17 13 14 16 -10 11 69 43 104 43 58 -1
108 -25 243 -117 130 -88 166 -126 168 -173 0 -20 4 -17 17 18 22 57 36 54 28
-8 l-7 -50 83 0 c46 0 107 3 136 6 l52 7 0 57 0 58 -72 8 -73 9 75 6 75 5 -80
2 c-73 2 -84 -1 -124 -28 -33 -23 -47 -27 -62 -20 -24 14 -49 50 -49 73 0 13
-5 17 -16 13 -8 -3 -13 -2 -10 2 3 5 -12 17 -32 28 -69 37 -262 193 -262 213
0 5 6 14 14 20 11 9 25 1 69 -39 49 -45 54 -47 45 -23 -8 21 -7 37 5 65 14 32
23 39 70 53 68 19 102 50 118 104 23 77 90 84 246 26 l63 -24 0 38 c0 36 -2
38 -59 66 -33 15 -72 39 -88 52 -21 18 -9 14 54 -17 46 -22 86 -40 90 -39 5 0
-41 25 -100 55 -70 35 -111 62 -116 76 -7 19 -8 20 -14 3z m-430 -401 c-3 -3
-12 -4 -19 -1 -8 3 -5 6 6 6 11 1 17 -2 13 -5z"/>
<path d="M221 844 c0 -11 3 -14 6 -6 3 7 2 16 -1 19 -3 4 -6 -2 -5 -13z"/>
<path d="M4699 841 c6 -10 7 -22 3 -27 -4 -5 3 0 16 11 22 18 22 20 5 26 -29
12 -34 10 -24 -10z"/>
<path d="M4764 808 l-19 -23 23 19 c21 18 27 26 19 26 -2 0 -12 -10 -23 -22z"/>
<path d="M1505 742 c-17 -9 -57 -36 -88 -60 -32 -24 -62 -40 -67 -37 -5 3 -12
0 -16 -6 -5 -8 -3 -9 6 -4 9 6 11 4 6 -4 -5 -7 -14 -10 -22 -7 -7 3 -16 0 -20
-6 -5 -7 -2 -8 6 -3 9 6 11 4 6 -4 -5 -7 -14 -10 -21 -7 -8 3 -19 -3 -27 -12
-12 -16 -11 -16 7 -2 19 14 19 14 6 -3 -7 -9 -21 -16 -30 -15 -9 2 -15 -2 -14
-9 2 -7 -7 -18 -20 -24 -19 -10 -20 -10 -12 2 6 8 -1 3 -15 -11 -14 -14 -20
-19 -15 -10 9 13 8 13 -10 1 -11 -8 -31 -26 -44 -40 -13 -14 -20 -20 -16 -12
6 9 4 12 -3 7 -7 -4 -12 -17 -12 -30 0 -20 -35 -65 -46 -58 -2 1 -7 2 -11 2
-5 0 -2 -4 6 -9 7 -5 24 -44 36 -87 12 -43 28 -80 35 -82 9 -3 9 1 0 18 -29
54 37 222 109 279 90 71 156 111 182 111 16 0 54 12 86 27 42 19 75 26 118 27
91 0 195 -23 222 -50 28 -28 50 -22 58 17 5 23 1 36 -19 60 -14 17 -26 25 -26
19 0 -11 -14 -11 -117 7 -18 3 -30 9 -27 14 3 5 -19 9 -49 9 -30 0 -67 2 -83
5 -18 3 -41 -2 -59 -13z"/>
<path d="M2671 684 c0 -11 3 -14 6 -6 3 7 2 16 -1 19 -3 4 -6 -2 -5 -13z"/>
<path d="M2657 636 c-4 -15 -6 -31 -2 -34 10 -10 16 6 13 35 l-3 28 -8 -29z"/>
<path d="M4302 580 c0 -14 2 -19 5 -12 2 6 2 18 0 25 -3 6 -5 1 -5 -13z"/>
<path d="M4310 506 c0 -48 0 -49 20 -31 19 18 19 24 -10 65 -7 11 -10 2 -10
-34z"/>
<path d="M1945 470 c-10 -11 -24 -20 -32 -20 -8 0 -11 -5 -7 -11 7 -12 -35 -9
-66 5 -10 4 -65 -39 -175 -140 -88 -80 -179 -160 -202 -177 -23 -18 -42 -36
-43 -40 0 -5 5 -5 10 -2 6 3 10 -1 10 -10 0 -8 14 -24 30 -34 l31 -18 137 136
c75 76 153 145 174 154 49 23 206 24 253 1 19 -9 48 -38 68 -68 28 -42 49 -60
108 -91 95 -49 133 -79 158 -121 18 -29 25 -34 58 -33 32 0 34 2 17 9 -30 12
-54 49 -54 82 0 21 -10 34 -47 60 -26 17 -76 56 -110 85 -38 33 -72 53 -87 53
-27 0 -56 23 -56 45 0 8 -36 42 -80 76 -44 34 -77 65 -74 70 9 16 -2 10 -21
-11z m-182 -96 c-7 -20 -283 -274 -297 -274 -6 0 1 11 14 25 29 29 284 263
287 264 1 1 0 -6 -4 -15z"/>
<path d="M2342 460 c0 -19 2 -27 5 -17 2 9 2 25 0 35 -3 9 -5 1 -5 -18z"/>
<path d="M3990 356 c0 -2 8 -10 18 -17 15 -13 16 -12 3 4 -13 16 -21 21 -21
13z"/>
<path d="M2898 333 c7 -3 16 -2 19 1 4 3 -2 6 -13 5 -11 0 -14 -3 -6 -6z"/>
<path d="M2948 323 c7 -3 16 -2 19 1 4 3 -2 6 -13 5 -11 0 -14 -3 -6 -6z"/>
<path d="M2998 313 c7 -3 16 -2 19 1 4 3 -2 6 -13 5 -11 0 -14 -3 -6 -6z"/>
<path d="M1041 224 c0 -11 3 -14 6 -6 3 7 2 16 -1 19 -3 4 -6 -2 -5 -13z"/>
<path d="M3983 81 c-17 -11 -34 -17 -37 -14 -3 4 -6 1 -6 -5 0 -20 -72 -45
-92 -33 -22 14 -23 7 -2 -13 10 -11 34 -16 68 -16 51 0 54 2 80 41 34 51 30
64 -11 40z"/>
<path d="M1185 81 c3 -5 -2 -12 -11 -15 -10 -4 -13 -2 -9 7 4 6 1 5 -7 -4 -7
-9 -19 -14 -25 -12 -7 3 -13 -1 -13 -7 0 -6 -8 -9 -17 -6 -45 13 -77 17 -65 8
11 -7 8 -14 -14 -31 l-27 -21 137 0 c129 0 136 1 136 20 0 11 -5 20 -11 20 -5
0 -7 4 -4 10 3 5 0 7 -9 4 -8 -3 -23 -1 -33 6 -16 10 -15 10 5 5 33 -9 27 1
-8 14 -17 5 -28 6 -25 2z"/>
<path d="M981 20 c-13 -11 -19 -20 -14 -20 6 0 18 9 28 20 23 25 17 25 -14 0z"/>
<path d="M1401 20 c-22 -19 -22 -20 -3 -20 11 0 22 8 25 20 3 11 4 20 4 20 -1
-1 -13 -10 -26 -20z"/>
</g>
</svg>