<?xml version="1.0" standalone="no"?>
<!DOCTYPE svg PUBLIC "-//W3C//DTD SVG 20010904//EN"
 "http://www.w3.org/TR/2001/REC-SVG-20010904/DTD/svg10.dtd">
<svg version="1.0" xmlns="http://www.w3.org/2000/svg"
 width="70pt" height="70pt" viewBox="0 0 512.000000 512.000000"
 preserveAspectRatio="xMidYMid meet">
<metadata>
Created by potrace 1.16, written by Peter Selinger 2001-2019
</metadata>
<g transform="translate(0.000000,512.000000) scale(0.100000,-0.100000)"
fill="#000000" stroke="none">
<path d="M65 5096 c8 -12 24 -39 36 -61 36 -69 57 -85 108 -85 l45 0 -43 44
c-24 24 -56 46 -71 50 -16 3 -38 19 -51 38 l-24 33 27 -17 c36 -24 61 -23 84
3 l18 20 -72 -2 c-72 -2 -72 -2 -57 -23z"/>
<path d="M240 5100 c-9 -17 -5 -27 21 -60 32 -39 61 -51 74 -29 4 6 13 8 21 5
11 -4 14 7 14 49 l0 55 -60 0 c-49 0 -61 -3 -70 -20z"/>
<path d="M450 5043 l0 -77 -64 -66 c-35 -36 -68 -78 -73 -95 -8 -25 -17 -32
-51 -39 -48 -10 -56 -26 -13 -26 38 0 81 35 81 66 0 16 20 42 63 83 63 61 93
66 41 8 l-29 -32 33 29 c32 30 32 30 32 128 0 59 -4 98 -10 98 -6 0 -10 -32
-10 -77z"/>
<path d="M512 5024 c-2 -86 -5 -106 -24 -130 l-21 -29 27 26 c26 25 27 27 23
130 l-3 104 -2 -101z"/>
<path d="M551 5033 c1 -60 4 -80 9 -63 12 37 12 150 0 150 -6 0 -10 -35 -9
-87z"/>
<path d="M590 5043 c0 -89 -10 -110 -84 -176 l-46 -42 -7 -112 c-3 -61 -3
-118 0 -127 6 -14 9 -14 37 2 l30 17 0 95 0 95 46 48 c25 26 47 47 50 47 12 0
0 -22 -36 -63 l-40 -45 0 -91 c0 -78 3 -94 20 -111 46 -46 70 -18 70 81 0 43
5 81 10 84 6 3 10 27 10 51 0 32 4 44 13 42 8 -3 13 -38 15 -119 l3 -114 -44
-43 -43 -43 -41 30 c-40 29 -41 29 -71 11 -27 -17 -31 -17 -46 -2 -15 15 -16
15 -16 -1 0 -10 7 -31 15 -47 12 -23 22 -30 45 -30 17 0 30 -4 30 -10 0 -20
-66 -11 -88 13 -18 19 -22 40 -29 172 -4 83 -9 130 -11 105 -4 -64 -28 -79
-119 -80 l-72 0 -10 -36 c-5 -20 -18 -42 -28 -49 -15 -11 -16 -16 -4 -38 8
-14 11 -35 8 -46 -4 -16 0 -21 14 -21 10 0 19 -4 19 -10 0 -13 -66 -13 -91 0
-16 9 -19 22 -19 74 0 48 4 65 15 70 8 3 15 17 15 31 0 24 -3 25 -55 25 -55 0
-55 0 -55 -30 0 -18 6 -33 15 -36 21 -9 21 -94 0 -94 -19 0 -22 -90 -2 -91 82
-4 344 4 352 12 21 21 26 7 5 -16 -22 -23 -30 -25 -117 -25 l-93 0 -20 -32
c-11 -18 -20 -36 -20 -40 0 -16 38 -7 55 12 17 18 31 20 184 20 l166 0 80 82
80 81 -80 -71 c-44 -40 -83 -72 -87 -72 -19 0 -4 22 41 60 27 23 69 70 93 103
l43 62 3 118 c4 127 22 164 22 45 0 -77 13 -118 26 -85 11 29 -1 150 -15 155
-23 8 -82 64 -97 93 -9 18 -14 58 -14 109 0 64 -3 80 -15 80 -12 0 -15 -15
-15 -77z m50 -264 c0 -5 -7 -9 -15 -9 -15 0 -20 12 -9 23 8 8 24 -1 24 -14z"/>
<path d="M702 5039 c-2 -84 -2 -85 31 -117 l34 -33 118 3 c88 2 120 6 123 16
3 11 0 12 -18 2 -14 -8 -57 -11 -121 -8 -92 3 -100 5 -126 30 -24 24 -28 38
-34 110 l-6 83 -1 -86z"/>
<path d="M1388 5076 c3 -31 11 -51 28 -67 l24 -22 0 66 c0 66 0 67 -28 67 -26
0 -27 -2 -24 -44z"/>
<path d="M1493 5074 c4 -41 11 -52 82 -117 43 -40 88 -78 101 -85 23 -12 24
-17 24 -136 l0 -123 35 -44 c19 -24 62 -79 97 -123 35 -43 69 -89 76 -102 13
-24 42 -33 42 -14 0 6 -36 49 -80 96 -44 46 -80 88 -80 93 0 11 29 35 35 30
49 -44 174 -170 187 -189 12 -16 18 -20 18 -10 0 8 -62 76 -138 150 -77 74
-145 145 -151 157 -6 12 -11 62 -11 112 0 77 -3 94 -19 110 -27 27 -4 34 32 9
36 -26 35 -9 -2 23 -18 16 -47 28 -73 32 -36 5 -51 15 -95 62 -39 41 -53 64
-53 85 0 21 -5 30 -16 30 -14 0 -16 -8 -11 -46z"/>
<path d="M1570 5105 c0 -30 30 -75 61 -91 60 -31 134 6 141 71 l3 30 -102 3
c-89 2 -103 0 -103 -13z"/>
<path d="M1802 5100 c0 -14 2 -19 5 -12 2 6 2 18 0 25 -3 6 -5 1 -5 -13z"/>
<path d="M1870 5083 c0 -67 -65 -142 -110 -128 -28 9 -26 -10 5 -41 21 -21 25
-35 25 -80 0 -49 4 -59 31 -86 l30 -31 24 23 25 23 15 -36 c19 -47 66 -79 123
-85 38 -3 55 -12 88 -44 32 -30 47 -38 63 -33 47 15 86 -50 44 -74 -14 -8 -15
-12 -4 -25 21 -26 40 -19 47 18 7 43 7 44 -93 139 -64 62 -90 81 -124 88 -94
21 -112 61 -117 257 l-4 152 -34 0 c-33 0 -34 -2 -34 -37z"/>
<path d="M2032 4993 l-2 -133 145 -142 145 -143 0 -88 c0 -85 -1 -88 -25 -97
-38 -14 -81 8 -143 74 l-53 56 -62 0 -61 0 41 -42 c51 -54 93 -117 93 -140 0
-16 12 -18 115 -18 l115 0 0 139 0 139 -37 28 c-51 37 -210 192 -236 229 -19
25 -23 49 -28 150 l-5 120 -2 -132z"/>
<path d="M2102 5004 l3 -116 148 -144 147 -144 0 -133 0 -133 66 -64 c65 -64
124 -143 143 -190 l10 -25 0 28 c1 38 -40 99 -128 189 l-76 78 -5 136 -5 135
-142 140 c-158 156 -158 155 -151 284 2 41 0 75 -5 75 -5 0 -7 -52 -5 -116z"/>
<path d="M2140 5090 c0 -16 5 -30 10 -30 6 0 10 14 10 30 0 17 -4 30 -10 30
-5 0 -10 -13 -10 -30z"/>
<path d="M2170 5018 l0 -102 131 -125 c72 -69 137 -137 145 -152 10 -20 14
-64 14 -151 l0 -123 120 -122 c66 -66 120 -119 120 -116 0 3 -51 60 -112 126
l-113 120 -5 142 -5 141 -68 74 c-89 98 -107 146 -107 285 l0 105 -31 0 -31 0
4 -103 c3 -94 6 -108 31 -146 21 -32 24 -40 10 -33 -23 13 -57 50 -72 79 -6
12 -11 62 -11 112 0 54 -4 91 -10 91 -6 0 -10 -41 -10 -102z"/>
<path d="M2370 4995 c0 -151 6 -169 89 -250 l61 -59 0 -152 0 -152 106 -99
c59 -54 110 -107 115 -118 7 -19 8 -19 8 -1 1 12 -40 62 -104 126 l-105 107 0
140 0 140 -30 42 c-17 23 -37 44 -45 47 -8 3 -28 26 -45 52 -29 45 -30 48 -30
174 0 79 -4 128 -10 128 -6 0 -10 -48 -10 -125z"/>
<path d="M2510 5002 c0 -112 1 -118 23 -127 17 -8 22 -18 22 -45 l0 -35 53 -3
c102 -6 109 36 20 125 l-62 63 -4 70 c-4 66 -6 70 -28 70 -24 0 -24 0 -24
-118z"/>
<path d="M2611 5068 c-1 -51 2 -58 30 -82 17 -14 41 -26 53 -26 12 0 32 -10
44 -23 18 -19 22 -35 22 -89 0 -41 -5 -69 -13 -76 -7 -6 -46 -13 -87 -15 l-75
-3 92 -2 c72 -2 95 -6 109 -19 17 -17 17 -17 11 7 -4 14 -7 105 -7 203 0 111
-4 177 -10 177 -5 0 -10 -24 -10 -53 0 -69 -22 -93 -77 -84 -50 9 -66 28 -74
90 l-6 52 -2 -57z"/>
<path d="M2644 5078 c8 -49 27 -68 68 -68 27 0 28 1 28 55 l0 55 -51 0 -52 0
7 -42z"/>
<path d="M2852 4805 c-1 -350 2 -376 46 -330 20 21 22 32 22 150 l0 127 -30
26 c-32 28 -39 66 -20 103 13 24 33 25 26 2 -4 -13 8 -27 44 -50 37 -25 51
-41 59 -70 6 -21 11 -131 11 -245 0 -202 0 -207 -22 -222 -43 -31 -50 -22 -43
52 3 37 8 149 11 248 l5 182 -31 36 c-18 20 -36 36 -41 36 -20 0 -7 -33 21
-57 l30 -25 0 -157 c0 -145 -2 -159 -20 -176 -18 -17 -20 -31 -20 -168 l0
-150 -75 -72 -75 -71 0 -163 0 -162 48 -51 49 -51 6 148 c4 82 4 187 1 234 -6
79 -5 88 17 115 l23 29 10 -24 c8 -19 11 -6 16 73 l5 97 58 59 57 58 0 201 c0
111 -5 214 -10 228 -6 14 -34 50 -63 79 -107 109 -101 99 -108 194 -3 48 -6
-57 -7 -233z m38 -185 c0 -127 -8 -167 -24 -124 -3 9 -6 72 -6 140 0 104 2
124 15 124 13 0 15 -22 15 -140z"/>
<path d="M2932 5044 l5 -76 76 -76 c113 -116 111 -108 115 -371 3 -205 2 -229
-17 -280 -18 -51 -20 -88 -25 -416 -3 -198 -6 -372 -7 -387 -1 -16 10 -45 26
-68 22 -31 25 -44 17 -52 -7 -7 -12 -45 -12 -95 l0 -83 50 0 c81 0 138 -41
141 -100 1 -19 3 -17 8 10 5 31 10 35 39 38 l34 3 -4 72 -3 72 165 5 165 6
-186 2 c-214 2 -256 12 -318 72 -87 85 -101 162 -101 563 0 229 3 294 14 315
16 30 66 79 141 137 80 62 85 70 85 156 0 69 -2 77 -27 101 -43 40 -72 51
-114 44 -35 -6 -39 -4 -45 18 -11 44 -1 81 24 84 17 3 22 10 22 33 0 21 -14
45 -54 88 l-54 59 -9 103 -8 104 -5 -83 c-7 -108 -24 -111 -28 -4 -3 79 -4 82
-27 82 -24 0 -24 -2 -27 -97 -3 -90 -4 -96 -17 -73 -8 14 -16 58 -19 97 -3 40
-9 73 -15 73 -6 0 -8 -29 -5 -76z m368 -1833 c0 -16 6 -31 15 -35 20 -7 20
-62 -1 -70 -40 -15 -72 37 -38 65 11 9 14 22 10 41 -3 15 -1 28 4 28 6 0 10
-13 10 -29z"/>
<path d="M3152 5038 l-2 -87 53 -62 c63 -74 77 -97 77 -127 0 -14 14 -37 33
-54 l32 -31 5 74 c6 88 -8 109 -70 109 -31 0 -44 7 -74 40 -41 45 -45 58 -49
155 -3 68 -3 67 -5 -17z"/>
<path d="M3199 5060 c-8 -85 -2 -104 44 -134 32 -22 49 -26 107 -26 43 0 70 4
70 11 0 17 112 129 122 123 5 -3 -15 -31 -44 -62 l-53 -57 40 -3 c38 -4 43 -1
108 69 58 61 68 77 65 103 -2 25 -8 32 -29 34 -20 2 -28 -2 -32 -17 -7 -27
-27 -27 -27 -1 0 11 -4 20 -10 20 -5 0 -10 -5 -10 -11 0 -6 -35 -47 -77 -90
l-76 -79 -76 0 c-42 0 -83 5 -91 10 -11 6 -17 34 -20 92 l-5 83 -6 -65z"/>
<path d="M3250 5076 c0 -55 19 -76 68 -76 30 0 44 8 84 50 26 27 48 54 48 60
0 6 -35 10 -84 10 l-85 0 -4 -47 -3 -48 -2 48 c-2 59 -22 62 -22 3z"/>
<path d="M3487 5104 c4 -10 -14 -36 -53 -76 -33 -33 -50 -56 -38 -50 24 13 97
90 113 121 10 18 9 21 -8 21 -14 0 -19 -5 -14 -16z"/>
<path d="M4055 5110 c3 -5 35 -10 71 -10 36 0 64 4 64 10 0 6 -30 10 -71 10
-44 0 -68 -4 -64 -10z"/>
<path d="M4245 5083 c-10 -57 -12 -61 -37 -65 -18 -2 -24 -10 -26 -35 -2 -18
1 -33 6 -33 6 0 32 15 58 33 55 38 67 71 39 113 -22 34 -33 30 -40 -13z"/>
<path d="M4360 5055 c0 -56 3 -65 18 -65 28 0 92 71 92 103 0 26 -2 27 -55 27
l-55 0 0 -65z"/>
<path d="M4483 5086 c4 -27 0 -40 -25 -70 l-29 -36 19 -27 c32 -45 72 -79 72
-62 0 9 -13 28 -30 44 -16 16 -30 36 -30 45 0 9 14 29 30 45 38 36 43 95 9 95
-19 0 -21 -4 -16 -34z"/>
<path d="M4570 5069 c0 -37 -6 -60 -24 -86 -24 -35 -25 -37 -8 -72 14 -30 18
-79 22 -291 l5 -254 52 -36 c28 -19 66 -52 83 -73 18 -21 35 -35 38 -32 3 3
-12 23 -33 45 -21 22 -35 43 -31 47 4 4 30 -15 57 -44 l49 -52 0 -231 c0 -250
2 -263 58 -322 24 -26 31 -28 107 -28 l81 0 39 -40 c21 -22 43 -40 47 -40 4 0
8 36 8 81 l0 81 -35 -31 c-34 -29 -40 -31 -119 -31 -77 0 -85 2 -111 28 -55
54 -55 55 -61 293 -3 123 -7 234 -10 247 -2 12 -21 40 -40 62 -29 32 -43 40
-71 40 -40 0 -88 22 -97 45 -3 9 -6 94 -6 188 1 153 2 170 15 153 10 -13 15
-43 15 -85 l0 -64 24 22 c16 15 31 21 43 17 13 -4 27 2 43 19 l23 25 -61 64
-62 64 0 65 c0 144 -13 277 -27 277 -9 0 -13 -15 -13 -51z"/>
<path d="M4676 5068 c-3 -29 -6 -97 -6 -151 l0 -98 51 -55 c29 -30 56 -54 60
-54 5 0 9 19 9 43 0 38 -5 48 -51 92 l-51 50 6 113 c5 114 -6 155 -18 60z"/>
<path d="M4730 5026 c0 -89 1 -95 25 -110 l25 -16 0 57 c0 41 6 67 20 88 11
17 20 40 20 53 0 20 -5 22 -45 22 l-45 0 0 -94z"/>
<path d="M4910 5108 c0 -7 4 -19 9 -26 6 -11 10 -11 18 0 24 32 24 38 -1 38
-14 0 -26 -6 -26 -12z"/>
<path d="M4951 5070 c-29 -27 -65 -50 -80 -52 l-26 -3 -3 -346 -2 -346 34 -27
c51 -38 65 -32 24 12 -46 48 -49 79 -40 397 l7 240 46 30 c25 16 59 46 75 65
16 19 35 39 42 43 10 7 10 12 1 23 -16 20 -18 19 -78 -36z"/>
<path d="M3950 5026 c0 -65 3 -87 12 -84 7 3 15 15 18 29 9 37 44 32 48 -7 3
-26 8 -33 33 -38 47 -9 69 8 69 54 l0 40 -47 0 c-43 0 -50 4 -90 46 l-43 47 0
-87z"/>
<path d="M814 5086 c-3 -8 -4 -31 -2 -52 l3 -39 79 -3 79 -3 49 48 c26 26 48
50 48 53 0 3 -56 6 -125 8 -101 2 -127 -1 -131 -12z"/>
<path d="M1120 5035 c-32 -32 -48 -55 -39 -55 8 0 30 -15 48 -34 l33 -34 52
58 c33 39 59 59 74 60 27 0 29 21 4 43 -12 11 -36 17 -68 17 -47 0 -53 -3
-104 -55z m90 9 c0 -8 -7 -14 -15 -14 -15 0 -21 21 -9 33 10 9 24 -2 24 -19z"/>
<path d="M3777 5042 c-25 -26 -27 -35 -27 -110 0 -86 9 -102 58 -102 26 0 62
41 62 72 0 20 -6 27 -30 32 -52 10 -36 56 21 56 21 0 24 16 9 54 -13 36 -57
35 -93 -2z"/>
<path d="M5018 4953 l-98 -96 0 -53 0 -52 30 14 c42 21 70 10 70 -27 0 -27 -2
-29 -40 -29 -23 0 -40 -5 -40 -11 0 -8 17 -10 51 -7 48 5 55 3 90 -29 l39 -35
0 36 c0 29 -7 43 -35 67 -34 30 -35 33 -35 102 0 68 2 73 36 108 29 30 35 42
32 72 l-3 37 -97 -97z"/>
<path d="M0 4964 c0 -74 25 -94 114 -94 78 0 85 15 18 40 -23 9 -62 36 -87 60
l-45 44 0 -50z"/>
<path d="M3722 4873 c-3 -166 -8 -175 -110 -173 -37 1 -94 1 -128 1 l-60 -1 4
-139 c3 -77 2 -151 -2 -165 -3 -14 -35 -58 -71 -98 -56 -62 -65 -77 -63 -107
1 -35 1 -35 5 -5 3 22 25 51 81 107 l78 77 51 -36 c38 -27 66 -37 103 -41 49
-5 51 -4 41 15 -6 12 -11 32 -11 45 0 19 -7 26 -27 30 -16 3 -58 34 -95 69
-85 79 -90 108 -28 179 l40 47 80 3 c119 6 121 9 117 185 l-3 139 -2 -132z
m-114 -525 c-7 -19 -38 -22 -38 -4 0 10 9 16 21 16 12 0 19 -5 17 -12z"/>
<path d="M4215 4933 c-91 -74 -110 -113 -56 -113 27 0 31 3 31 28 0 19 11 39
36 63 32 31 80 89 72 89 -2 0 -39 -30 -83 -67z"/>
<path d="M329 4943 c-16 -26 -35 -41 -61 -48 -56 -16 -56 -25 -1 -25 45 0 54
4 77 31 25 29 36 79 18 79 -5 0 -20 -17 -33 -37z"/>
<path d="M1287 4922 c-41 -41 -47 -53 -47 -89 l0 -41 50 -4 c41 -2 56 1 81 20
43 34 64 79 47 100 -22 27 -62 61 -73 62 -6 0 -32 -22 -58 -48z"/>
<path d="M1469 4939 c11 -20 21 -44 21 -53 0 -9 10 -30 21 -46 12 -16 19 -35
16 -44 -7 -17 16 -46 56 -71 l27 -17 0 52 c0 53 0 53 -81 134 -62 61 -76 72
-60 45z"/>
<path d="M3660 4940 c0 -11 2 -20 4 -20 2 0 6 9 9 20 3 11 1 20 -4 20 -5 0 -9
-9 -9 -20z"/>
<path d="M3613 4914 c-9 -15 -31 -33 -48 -40 -23 -10 -25 -13 -10 -14 11 0 30
7 41 15 12 8 24 12 26 9 3 -3 8 9 10 26 6 37 3 37 -19 4z"/>
<path d="M5096 4918 c-10 -14 -16 -44 -16 -80 0 -47 4 -59 20 -68 19 -10 20
-8 20 80 0 49 -2 90 -4 90 -3 0 -12 -10 -20 -22z"/>
<path d="M1114 4888 c47 -42 49 -46 43 -83 -6 -34 -2 -44 33 -88 56 -69 57
-103 4 -157 -74 -77 -20 -170 100 -170 40 0 47 -4 65 -34 17 -27 21 -50 21
-116 l0 -82 -52 -49 c-29 -27 -59 -49 -65 -49 -9 0 -13 -21 -13 -71 0 -65 2
-73 29 -100 l29 -29 230 0 c217 0 231 1 256 21 l26 20 0 164 c0 108 -4 166
-11 171 -6 3 -77 8 -157 9 -130 2 -135 2 -40 -4 l107 -6 41 -40 40 -39 0 -114
c0 -109 -1 -114 -26 -137 -25 -24 -34 -25 -143 -25 l-117 0 -66 68 c-83 84
-87 98 -48 147 29 36 30 41 30 141 0 162 -36 253 -94 238 -28 -7 -31 -3 -40
50 l-8 39 26 -16 c24 -16 26 -16 37 4 10 19 2 30 -79 113 -88 89 -90 92 -97
149 -6 53 -10 60 -43 81 -65 40 -68 39 -18 -6z"/>
<path d="M4325 4903 c-24 -6 -105 -70 -105 -84 0 -5 21 -9 46 -9 37 0 51 -5
75 -29 29 -29 29 -30 29 -155 l0 -126 26 0 c23 0 25 -3 22 -32 -2 -26 -8 -34
-26 -36 -38 -6 -24 -36 18 -40 65 -5 68 2 76 203 7 200 6 208 -57 280 -31 35
-52 40 -104 28z"/>
<path d="M0 4816 l0 -66 95 0 95 0 0 45 0 45 -69 0 c-54 0 -74 4 -95 21 l-26
20 0 -65z"/>
<path d="M3950 4854 c0 -14 -5 -34 -11 -45 -9 -19 -9 -19 10 -10 11 6 40 11
65 11 62 0 76 7 76 41 l0 29 -70 0 c-68 0 -70 -1 -70 -26z"/>
<path d="M2516 4863 c-9 -9 -7 -33 3 -33 12 0 22 28 12 34 -5 3 -11 3 -15 -1z"/>
<path d="M390 4845 c-6 -8 -10 -19 -8 -24 1 -6 8 1 15 14 13 28 11 31 -7 10z"/>
<path d="M3420 4800 l0 -60 68 0 c37 0 84 -3 105 -6 l37 -7 0 66 0 66 -25 -25
c-23 -23 -31 -25 -97 -22 -56 2 -73 6 -73 18 0 8 11 17 25 21 23 6 22 7 -7 8
l-33 1 0 -60z"/>
<path d="M3660 4796 c0 -54 3 -64 15 -60 32 13 34 116 3 122 -16 3 -18 -5 -18
-62z"/>
<path d="M1408 4805 c-21 -23 -38 -47 -38 -52 0 -5 29 -35 64 -66 53 -47 66
-54 76 -42 8 10 9 24 1 52 -6 21 -11 52 -11 69 0 29 -33 85 -48 83 -4 0 -24
-20 -44 -44z"/>
<path d="M1766 4805 c6 -96 24 -141 79 -195 l52 -52 102 -5 c69 -4 101 -2 101
5 0 17 -50 52 -74 52 -23 0 -55 19 -100 59 l-29 26 17 -27 c23 -36 72 -72 121
-89 l40 -14 -54 -3 c-52 -3 -55 -2 -84 35 -17 21 -61 68 -98 105 -56 55 -69
74 -72 105 -4 38 -4 38 -1 -2z"/>
<path d="M233 4824 c-3 -8 -1 -20 5 -26 16 -16 47 -5 50 20 3 18 -1 22 -23 22
-14 0 -28 -7 -32 -16z"/>
<path d="M790 4825 c0 -12 17 -15 91 -15 86 0 91 -1 115 -27 13 -16 49 -55 79
-89 49 -54 58 -74 34 -74 -5 0 -38 36 -75 80 l-67 80 -89 0 -89 0 3 -52 3 -53
53 -3 c42 -2 52 0 52 12 0 12 -11 16 -45 16 -33 0 -45 4 -45 15 0 11 13 15 54
15 l54 0 101 -102 101 -103 0 -95 c0 -80 -4 -103 -25 -148 l-25 -54 0 -322 0
-323 -29 -39 c-67 -92 -57 -88 -294 -94 l-212 -6 212 -2 212 -2 60 53 60 52 1
339 c0 332 0 339 22 375 19 30 23 54 28 162 4 96 9 131 21 145 34 40 30 47 -4
9 -41 -45 -50 -29 -12 21 33 44 32 64 -10 104 -23 22 -35 43 -35 61 0 18 -10
36 -31 53 -29 25 -36 26 -150 26 -99 0 -119 -3 -119 -15z"/>
<path d="M424 4735 c0 -55 1 -76 3 -47 2 29 2 74 0 100 -2 26 -3 2 -3 -53z"/>
<path d="M4498 4818 c6 -8 11 -103 14 -230 2 -125 7 -221 13 -227 12 -12 4
425 -9 452 -4 9 -13 17 -18 17 -7 0 -7 -4 0 -12z"/>
<path d="M3849 4760 c-20 -11 -48 -33 -63 -50 -25 -30 -26 -37 -26 -148 0
-141 4 -150 125 -267 45 -44 92 -100 105 -125 12 -24 36 -57 51 -71 l29 -27 0
-147 0 -147 -30 -35 c-26 -30 -30 -41 -30 -95 l0 -62 35 34 35 34 0 223 c0
210 -1 224 -20 243 -11 11 -24 20 -29 20 -5 0 -15 17 -22 37 -8 25 -43 69
-102 128 -126 126 -127 128 -127 257 0 106 0 108 32 143 17 20 47 45 67 55 20
11 29 19 21 19 -8 0 -31 -9 -51 -19z"/>
<path d="M4125 4773 c125 -5 125 -6 125 -155 l0 -118 40 0 40 0 0 124 c0 102
-3 126 -16 137 -12 10 -54 14 -148 15 -77 0 -94 -1 -41 -3z"/>
<path d="M3977 4759 c-9 -5 -33 -35 -52 -65 -35 -54 -35 -54 -35 -174 0 -134
7 -163 49 -188 16 -9 55 -49 87 -87 33 -39 69 -81 82 -95 17 -19 22 -35 22
-82 l0 -58 120 0 c92 0 120 3 120 13 0 7 -44 53 -97 102 -144 131 -143 128
-143 255 0 108 12 150 44 150 18 0 23 31 18 118 l-4 72 -47 0 c-41 0 -50 -4
-69 -30 -17 -22 -19 -30 -8 -30 7 0 24 -9 37 -19 l24 -19 -29 -31 -29 -30 7
-138 c5 -112 11 -146 28 -179 14 -27 19 -48 14 -60 -7 -17 -14 -12 -54 35 -26
30 -71 78 -99 107 l-53 52 0 132 c0 124 1 134 27 177 14 25 40 54 57 64 31 19
16 27 -17 8z"/>
<path d="M1510 4754 c0 -6 7 -28 15 -48 14 -33 14 -41 1 -67 l-15 -29 72 -70
c60 -58 78 -70 106 -70 l34 0 -52 54 c-39 42 -51 62 -51 86 0 25 -10 42 -44
74 -24 22 -49 50 -55 61 -6 11 -11 15 -11 9z"/>
<path d="M1300 4738 c0 -21 261 -268 284 -268 14 0 -20 38 -118 133 -149 141
-166 156 -166 135z"/>
<path d="M2782 4680 c-11 -18 -23 -20 -102 -20 l-90 0 0 -136 0 -136 84 -87
c47 -49 88 -100 91 -114 13 -50 -14 -136 -56 -182 l-39 -42 0 -116 c0 -115 0
-117 30 -149 l29 -33 1 163 0 164 68 70 67 70 -3 151 c-3 141 -5 152 -28 182
-21 28 -24 43 -25 116 0 46 -4 92 -7 101 -7 17 -8 16 -20 -2z m-70 -853 c3
-100 1 -125 -8 -115 -15 16 -23 236 -9 258 13 20 13 16 17 -143z"/>
<path d="M4966 4634 c-3 -9 -6 -29 -6 -45 0 -28 1 -29 49 -29 28 0 52 4 55 8
6 10 -38 54 -71 71 -17 8 -22 8 -27 -5z"/>
<path d="M4911 4563 c1 -118 12 -169 44 -203 40 -41 60 -39 60 6 0 29 -7 41
-43 70 l-42 36 0 84 c0 49 -4 84 -10 84 -6 0 -10 -32 -9 -77z"/>
<path d="M4715 4579 c-28 -27 -62 -53 -77 -56 -25 -5 -28 -10 -28 -49 0 -54
16 -64 104 -64 l66 0 1 -37 2 -38 8 45 c18 106 8 250 -19 250 -4 0 -30 -23
-57 -51z m43 -121 c-7 -20 -102 -22 -118 -3 -11 13 -5 15 55 15 49 0 66 -3 63
-12z"/>
<path d="M3540 4590 c-11 -11 -20 -28 -20 -38 0 -10 31 -49 70 -87 51 -51 72
-79 76 -105 5 -26 29 -58 94 -125 48 -49 95 -104 104 -122 13 -27 16 -72 16
-288 0 -163 4 -255 10 -255 6 0 10 5 10 10 0 6 14 10 31 10 l30 0 -3 258 c-3
228 -5 261 -22 292 -10 19 -76 94 -147 166 l-129 132 0 86 0 86 -50 0 c-37 0
-55 -5 -70 -20z"/>
<path d="M716 4584 c-3 -8 -1 -24 4 -34 23 -43 12 -79 -40 -134 -27 -29 -50
-56 -50 -59 0 -4 25 -7 55 -7 l55 0 0 125 c0 114 -8 151 -24 109z"/>
<path d="M832 4578 c5 -88 -3 -188 -17 -201 -8 -9 -11 -17 -6 -19 14 -5 140
-157 156 -188 19 -37 22 -468 4 -503 -7 -12 -36 -48 -65 -79 -30 -31 -54 -61
-54 -67 0 -6 20 -11 48 -11 48 1 62 9 112 64 l25 28 5 334 c3 184 2 334 -1
334 -16 0 -19 -48 -19 -307 0 -231 -2 -277 -15 -289 -13 -14 -15 18 -15 289
l0 304 31 39 c30 38 31 42 25 109 l-6 70 -62 58 c-56 51 -67 57 -105 57 -37 0
-42 -3 -41 -22z m47 -117 c6 -10 8 -34 4 -53 -4 -31 0 -41 32 -77 21 -22 33
-41 27 -41 -5 0 -24 16 -41 35 -25 28 -31 45 -31 80 0 24 -4 47 -10 50 -5 3
-10 10 -10 16 0 16 19 10 29 -10z"/>
<path d="M3950 4521 c0 -87 14 -115 54 -109 19 3 21 10 24 96 l3 92 -41 0 -40
0 0 -79z"/>
<path d="M3372 4504 c-4 -83 -13 -105 -66 -153 -148 -135 -176 -166 -176 -202
0 -19 7 -43 15 -53 13 -17 15 -74 15 -338 0 -344 2 -360 54 -407 30 -28 43
-23 25 10 -7 13 -15 38 -19 55 -7 30 -4 28 55 -32 l63 -64 152 0 153 0 84 76
c46 42 90 89 98 105 12 22 15 79 15 280 0 290 -1 295 -92 394 l-50 55 -90 0
c-67 0 -97 4 -119 17 l-29 17 -45 -44 c-65 -64 -75 -91 -75 -208 0 -84 3 -107
21 -136 19 -32 19 -56 1 -56 -4 0 -17 15 -27 33 -16 25 -21 58 -26 147 -3 71
-5 16 -5 -146 l1 -261 28 -36 c28 -37 29 -37 100 -37 l72 -1 52 58 c44 49 55
56 70 47 31 -19 28 -53 -9 -91 -49 -51 -78 -63 -158 -63 -56 0 -70 -3 -70 -15
0 -12 18 -15 102 -15 l101 0 51 53 51 52 -3 88 -3 87 -39 0 c-32 0 -39 -4 -50
-30 -7 -16 -30 -46 -51 -65 -59 -53 -100 -50 -178 16 l-61 51 0 81 c0 64 3 78
12 69 7 -7 13 -38 13 -69 1 -46 5 -59 24 -75 13 -10 25 -17 27 -15 2 2 6 92
10 200 6 177 5 197 -10 203 -25 10 -19 40 15 68 27 23 39 26 112 26 65 0 88
-4 112 -20 17 -11 43 -20 59 -20 23 0 42 -13 83 -55 l53 -55 0 -249 0 -250
-65 -57 c-128 -113 -117 -109 -286 -109 l-149 0 -52 53 -53 52 3 397 2 396 66
55 c76 63 97 101 91 175 -3 47 -3 48 -5 11z"/>
<path d="M1410 4521 c0 -7 16 -31 35 -54 20 -23 40 -59 46 -82 6 -22 13 -46
15 -52 4 -16 344 -19 344 -4 0 5 -18 23 -39 40 -38 31 -41 31 -152 31 l-113 0
-68 67 c-38 37 -68 62 -68 54z"/>
<path d="M120 4510 c0 -5 5 -10 10 -10 6 0 10 5 10 10 0 6 -4 10 -10 10 -5 0
-10 -4 -10 -10z"/>
<path d="M4970 4496 c0 -7 19 -29 43 -48 34 -29 48 -34 75 -30 31 4 32 6 32
48 l0 44 -75 0 c-57 0 -75 -3 -75 -14z"/>
<path d="M4182 4468 c-7 -7 -12 -43 -12 -88 0 -67 3 -79 22 -96 l22 -19 -17
25 c-20 29 -24 149 -5 168 6 6 9 14 7 17 -3 2 -11 -1 -17 -7z"/>
<path d="M4210 4380 l0 -40 46 0 c38 0 45 3 40 16 -3 9 -6 27 -6 40 0 21 -4
24 -40 24 l-40 0 0 -40z"/>
<path d="M15 4340 c-3 -6 1 -13 10 -16 19 -8 30 0 20 15 -8 14 -22 14 -30 1z"/>
<path d="M1146 4293 c2 -61 14 -82 34 -58 27 33 70 11 70 -38 0 -25 3 -28 28
-25 26 3 27 5 27 68 l0 65 -64 7 c-35 4 -71 14 -80 22 -15 13 -16 10 -15 -41z"/>
<path d="M4380 4328 c0 -7 36 -46 80 -88 78 -74 79 -76 74 -115 -5 -35 -2 -46
21 -73 24 -29 32 -32 78 -30 l52 1 -45 4 c-28 3 -54 12 -67 25 -21 20 -23 31
-23 121 l0 99 -34 34 c-30 30 -40 34 -85 34 -33 0 -51 -4 -51 -12z"/>
<path d="M4580 4316 c22 -25 25 -37 28 -131 l4 -104 49 -16 c75 -25 79 -38 72
-243 l-6 -172 31 -39 c38 -48 50 -113 29 -164 -17 -39 -91 -117 -204 -217
l-73 -63 0 -86 0 -87 -52 -58 c-29 -33 -43 -54 -32 -48 12 6 37 29 57 52 37
40 37 41 37 127 l0 86 57 51 c31 28 90 81 129 119 43 39 82 67 94 67 47 0 60
17 60 77 0 53 -3 59 -55 124 l-55 68 0 275 c0 152 -3 276 -7 276 -5 0 -6 -30
-5 -66 2 -39 -1 -71 -7 -77 -8 -8 -11 10 -11 64 l0 75 -57 56 c-32 31 -69 61
-83 68 l-25 13 25 -27z"/>
<path d="M5067 4303 c-22 -23 -36 -28 -72 -27 -25 0 -45 -3 -45 -7 0 -4 12
-21 26 -38 23 -28 31 -31 85 -31 l59 0 0 65 c0 74 -10 81 -53 38z"/>
<path d="M3021 4280 c-89 -70 -85 -53 -89 -399 -3 -277 -2 -304 12 -285 13 18
16 68 18 302 l3 280 58 60 c49 52 68 82 53 82 -2 0 -27 -18 -55 -40z"/>
<path d="M175 4290 c-15 -16 -31 -20 -86 -20 -57 0 -70 -3 -79 -19 -21 -40
-13 -51 38 -51 45 0 51 4 102 55 30 30 52 55 49 55 -3 0 -14 -9 -24 -20z"/>
<path d="M4779 4292 c6 -12 25 -32 41 -44 30 -22 30 -23 30 -120 l0 -98 130 0
c72 0 130 3 130 7 0 4 -10 17 -22 30 -22 23 -18 47 4 25 18 -18 28 -15 28 8 0
18 -7 20 -68 20 l-69 0 -107 97 c-60 53 -103 87 -97 75z"/>
<path d="M286 4279 c-15 -12 -50 -48 -77 -81 l-49 -59 0 -142 0 -143 75 -74
c41 -41 77 -71 80 -68 3 3 -27 40 -67 83 l-73 78 -3 114 c-2 63 -1 125 2 137
3 13 35 55 72 95 l66 71 143 0 c129 0 145 -2 169 -21 29 -23 36 -11 8 14 -16
14 -43 17 -169 17 -138 0 -152 -2 -177 -21z"/>
<path d="M712 4263 c3 -14 12 -17 40 -15 46 4 85 -16 131 -67 49 -54 57 -92
57 -266 -1 -212 -1 -214 -106 -312 l-88 -83 -118 0 c-103 0 -118 -2 -118 -16
0 -15 12 -16 118 -10 69 4 125 12 137 20 11 7 54 47 96 87 l77 74 7 65 c4 36
5 136 3 222 -3 155 -3 157 -33 199 -40 57 -130 118 -173 119 -27 0 -33 -4 -30
-17z"/>
<path d="M4234 4269 c-4 -7 31 -48 89 -103 53 -50 98 -100 101 -111 5 -20 -7
-92 -18 -102 -3 -3 -20 -9 -38 -13 l-33 -8 42 -1 c54 -1 73 24 73 94 0 44 -4
55 -30 80 -28 27 -40 55 -22 55 4 0 27 -14 50 -31 37 -27 42 -36 42 -69 0 -31
7 -44 35 -69 29 -25 45 -31 81 -31 38 0 51 -5 75 -31 l29 -31 0 36 0 36 -69 0
c-91 0 -125 25 -135 99 -5 36 -13 53 -30 65 -14 8 -53 45 -88 81 -58 59 -67
65 -105 65 -23 0 -45 -5 -49 -11z"/>
<path d="M1900 4067 c0 -184 3 -192 74 -204 l36 -6 0 52 c0 47 -2 51 -24 51
-27 0 -49 21 -41 41 3 8 19 23 35 34 29 20 30 22 30 108 l0 87 -55 0 -55 0 0
-163z"/>
<path d="M2109 4148 c-2 -117 -1 -119 37 -158 l34 -35 0 103 c0 97 -2 105 -27
138 -16 18 -31 34 -35 34 -5 0 -9 -37 -9 -82z"/>
<path d="M2167 4210 c3 -11 7 -20 9 -20 2 0 4 9 4 20 0 11 -4 20 -9 20 -5 0
-7 -9 -4 -20z"/>
<path d="M333 4205 c-32 -14 -71 -61 -60 -72 4 -3 28 14 54 37 27 24 50 45 52
47 10 8 -17 1 -46 -12z"/>
<path d="M2250 4170 l0 -50 46 0 c81 0 144 -53 144 -121 0 -31 4 -37 25 -41
24 -5 25 -3 25 46 0 61 -20 98 -91 167 -46 45 -54 49 -100 49 l-49 0 0 -50z"/>
<path d="M2477 4165 c91 -109 87 -97 93 -305 6 -198 8 -205 65 -272 24 -29 31
-46 29 -70 -3 -31 -3 -31 4 -5 l7 28 40 -41 40 -41 3 -454 3 -454 48 -40 c30
-25 59 -41 75 -41 l26 0 0 108 c0 91 -3 111 -20 132 -29 37 -27 104 5 146 24
32 25 37 25 206 0 168 -1 174 -25 210 -30 45 -31 72 -4 117 23 39 12 62 -15
32 -17 -19 -18 -49 -17 -426 1 -238 -2 -405 -7 -405 -15 0 -21 170 -18 515 l4
330 -113 110 c-62 61 -120 124 -129 142 -13 25 -16 66 -16 196 0 163 0 163
-29 208 -16 24 -50 64 -77 89 l-48 45 51 -60z"/>
<path d="M3013 4208 c-12 -20 -16 -738 -4 -738 19 0 33 74 26 131 -4 30 -8
181 -9 337 -1 155 -2 282 -3 282 -1 0 -5 -6 -10 -12z"/>
<path d="M347 4160 c-48 -54 -51 -65 -60 -230 -2 -30 -4 -7 -5 53 -2 88 -5
107 -17 107 -12 0 -15 -17 -15 -97 l0 -98 103 -109 102 -109 95 -4 95 -5 48
37 47 38 0 76 c0 72 -2 79 -29 106 -28 26 -34 28 -100 23 -53 -4 -74 -2 -82 8
-14 17 -75 18 -81 2 -10 -27 4 -38 47 -38 56 0 75 -20 46 -49 -28 -28 -72 -27
-99 2 -17 18 -22 36 -22 74 0 77 5 83 61 83 48 0 49 1 49 30 0 45 -41 41 -91
-9 -38 -38 -39 -40 -39 -110 0 -97 14 -111 111 -111 81 0 109 -11 109 -44 0
-32 -12 -35 -114 -27 -80 6 -91 9 -112 34 -23 26 -24 36 -24 152 l0 124 38 41
c32 32 46 40 75 40 34 0 37 2 37 30 l0 30 -64 0 -64 0 -45 -50z"/>
<path d="M570 4120 l0 -90 78 0 78 0 47 -48 47 -48 0 -100 c0 -55 3 -104 7
-107 3 -4 17 3 30 15 22 21 23 26 23 196 l0 175 -44 43 c-33 33 -51 44 -75 44
-29 0 -31 -2 -31 -39 0 -36 3 -40 30 -46 56 -12 121 -91 91 -110 -16 -9 -140
54 -153 78 -6 12 -12 45 -12 72 l-1 50 -57 3 -58 3 0 -91z"/>
<path d="M1490 4158 c0 -28 -8 -51 -25 -74 -34 -44 -32 -67 11 -114 l36 -40
123 0 c103 0 124 3 129 16 3 9 6 56 6 106 0 88 -1 91 -31 119 -30 28 -34 29
-140 29 l-109 0 0 -42z"/>
<path d="M1140 4141 c0 -35 2 -38 25 -33 27 5 35 38 13 60 -23 23 -38 13 -38
-27z"/>
<path d="M3495 4124 c71 -8 163 -8 158 -1 -2 4 -46 6 -96 5 -51 0 -78 -3 -62
-4z"/>
<path d="M15 4113 c11 -2 29 -6 40 -8 44 -9 55 -52 55 -217 0 -173 -7 -196
-74 -238 -43 -26 -42 -39 1 -17 43 23 84 72 92 109 l7 33 34 -38 c65 -72 83
-69 22 4 l-62 73 0 147 c0 166 4 160 -90 158 -25 -1 -36 -3 -25 -6z"/>
<path d="M1260 4095 c0 -13 4 -14 20 -5 11 6 20 13 20 15 0 3 -9 5 -20 5 -11
0 -20 -7 -20 -15z"/>
<path d="M3670 3973 l0 -136 50 -53 50 -53 0 -111 c0 -85 3 -111 13 -108 9 4
13 63 15 242 2 226 1 240 -18 272 -25 39 -76 84 -96 84 -11 0 -14 -25 -14
-137z"/>
<path d="M3480 4073 c-14 -3 -28 -10 -32 -17 -10 -15 -10 -383 0 -389 4 -3 5
67 3 154 -2 88 0 175 3 194 7 38 6 37 111 53 l60 9 -60 0 c-33 0 -71 -2 -85
-4z"/>
<path d="M28 4037 l32 -33 0 -116 c0 -107 -2 -119 -22 -143 l-23 -26 3 142 c2
90 -1 146 -7 152 -8 8 -11 -40 -11 -158 l0 -169 35 34 35 34 0 133 c0 129 -1
135 -25 158 -13 14 -30 25 -37 25 -6 0 2 -15 20 -33z"/>
<path d="M1142 3828 c1 -134 4 -197 5 -141 l4 103 34 27 c31 25 32 28 19 47
-9 14 -14 48 -14 107 0 87 -5 99 -41 99 -5 0 -8 -100 -7 -242z"/>
<path d="M2260 3992 c0 -56 4 -72 20 -87 20 -18 20 -17 20 62 0 77 -6 93 -36
93 -2 0 -4 -31 -4 -68z"/>
<path d="M3555 4008 c-61 -33 -65 -44 -65 -160 0 -60 5 -118 10 -129 11 -20
45 -26 55 -9 4 6 -3 9 -17 7 -15 -1 -23 4 -26 16 -6 28 17 47 58 47 25 0 40 5
44 16 3 9 6 63 6 120 0 101 -1 104 -22 104 -13 0 -32 -6 -43 -12z"/>
<path d="M4490 3982 c0 -38 43 -72 90 -72 53 0 100 -24 100 -51 0 -11 -4 -18
-10 -14 -5 3 -114 6 -241 7 l-232 2 -20 -25 c-17 -21 -19 -34 -14 -116 4 -58
3 -93 -3 -93 -19 0 -10 -37 15 -60 21 -20 25 -33 25 -80 0 -44 -4 -61 -20 -75
-11 -10 -20 -22 -20 -27 0 -15 26 -9 43 10 14 15 17 40 17 121 0 94 -2 103
-20 108 -22 6 -28 43 -7 43 61 -1 77 -36 77 -173 0 -97 -12 -127 -61 -153 -25
-13 -29 -20 -29 -59 l0 -45 73 0 c103 0 111 8 115 110 4 77 3 83 -22 109 -32
33 -40 74 -32 145 7 50 10 55 34 58 25 3 27 6 27 53 0 45 -2 50 -28 59 -21 8
-34 6 -55 -6 -16 -10 -38 -14 -55 -11 -24 5 -27 2 -27 -21 0 -23 3 -26 26 -20
22 6 25 4 22 -12 -2 -14 -13 -20 -41 -22 l-37 -3 0 59 c0 46 5 66 22 87 l21
27 234 -4 233 -4 0 24 c0 13 -13 37 -29 53 -24 23 -38 29 -73 29 -46 0 -68 11
-86 45 -11 19 -11 19 -12 -3z"/>
<path d="M2108 3754 l3 -235 27 3 27 3 3 155 c2 85 5 156 7 158 2 2 8 1 14 -3
7 -4 11 -66 11 -173 l1 -167 39 -45 39 -45 1 210 0 211 -72 70 c-40 39 -80 75
-88 81 -13 10 -15 -16 -12 -223z"/>
<path d="M2357 3983 c-4 -3 -7 -39 -7 -80 l0 -73 70 0 c66 0 70 1 76 25 11 43
-1 55 -55 55 -52 0 -61 8 -61 56 0 23 -10 31 -23 17z"/>
<path d="M4860 3970 c0 -6 48 -10 124 -10 73 0 127 4 131 10 4 6 -40 10 -124
10 -81 0 -131 -4 -131 -10z"/>
<path d="M4185 3940 c-22 -6 -10 -8 45 -8 50 0 68 2 55 8 -24 10 -59 10 -100
0z"/>
<path d="M4860 3847 c0 -95 11 -107 102 -107 63 0 67 2 97 36 28 32 32 42 29
87 l-3 52 -112 3 -113 3 0 -74z"/>
<path d="M4156 3861 c-24 -27 -36 -77 -35 -151 2 -118 17 -123 18 -6 1 91 4
114 22 142 23 38 21 44 -5 15z"/>
<path d="M4495 3770 c11 -21 15 -60 15 -138 0 -101 2 -110 23 -130 19 -18 34
-22 88 -21 l64 2 -56 6 c-91 10 -99 22 -99 156 0 73 4 115 12 123 7 7 42 12
85 12 42 0 73 4 73 10 0 6 -43 10 -110 10 l-111 0 16 -30z"/>
<path d="M2014 3655 c0 -77 2 -107 3 -67 2 40 2 103 0 140 -2 37 -3 4 -3 -73z"/>
<path d="M2420 3773 c0 -5 18 -27 41 -48 l40 -40 -3 45 c-3 44 -4 45 -40 48
-21 2 -38 -1 -38 -5z"/>
<path d="M1232 3758 c-10 -13 -16 -66 -13 -130 l1 -38 50 0 c32 0 51 -4 52
-12 0 -7 2 -44 3 -83 2 -77 16 -114 64 -159 23 -23 28 -33 20 -43 -23 -26 -63
-15 -108 31 l-44 45 7 67 c4 38 12 75 19 83 13 15 10 14 -37 -9 -27 -14 -30
-13 -52 13 -44 51 -61 8 -19 -47 14 -18 25 -39 25 -47 0 -46 24 -91 67 -126
l46 -38 143 -2 144 -2 60 50 61 50 -3 72 c-4 90 -21 91 -28 2 -5 -65 -6 -67
-55 -110 -47 -41 -75 -55 -75 -37 0 4 23 30 50 57 55 54 70 88 18 38 -46 -43
-70 -53 -126 -53 -145 0 -217 185 -114 293 51 55 120 72 189 47 26 -9 27 -9 9
5 -13 10 -42 15 -80 15 -75 0 -138 -33 -155 -81 -6 -18 -14 -29 -18 -25 -8 7
-9 21 -11 124 l-2 62 -39 0 c-21 0 -43 -6 -49 -12z"/>
<path d="M1565 3740 l29 -30 173 0 173 0 0 30 0 30 -202 0 -202 0 29 -30z"/>
<path d="M4428 3618 c3 -153 3 -153 23 -129 16 20 19 39 19 140 0 78 -4 121
-12 129 -29 29 -33 11 -30 -140z"/>
<path d="M2355 3539 c11 -406 11 -391 -8 -440 -10 -25 -29 -56 -42 -69 -47
-44 -25 -43 24 1 27 24 63 56 80 70 27 23 31 33 31 77 0 67 16 75 25 12 9 -63
-1 -79 -94 -157 -62 -52 -68 -60 -58 -80 12 -27 22 -23 108 48 33 28 56 43 51
32 -6 -11 -18 -26 -28 -33 -9 -8 -33 -39 -54 -70 -21 -30 -57 -73 -80 -95 -57
-55 -70 -84 -70 -156 l0 -62 25 23 c15 14 25 35 25 52 0 39 37 73 87 81 34 6
49 16 85 59 l43 52 3 353 c3 268 1 358 -9 369 -6 8 -43 42 -81 76 l-69 61 6
-204z"/>
<path d="M4570 3635 l0 -85 71 0 72 0 -7 38 c-3 20 -6 58 -6 85 l0 47 -65 0
-65 0 0 -85z"/>
<path d="M754 3643 l-51 -53 -132 0 c-87 0 -131 -4 -131 -11 0 -7 43 -10 135
-7 l134 3 41 40 c38 37 66 74 58 78 -2 1 -26 -22 -54 -50z"/>
<path d="M4812 3660 c24 -41 76 -70 124 -70 36 0 51 -6 84 -36 l40 -36 0 -139
0 -138 -31 -35 c-30 -34 -33 -35 -112 -38 -106 -4 -100 -23 7 -23 l79 1 34 39
33 38 0 129 c0 71 4 138 10 148 8 15 2 25 -38 59 -41 35 -53 41 -95 41 -56 0
-96 18 -127 57 -19 24 -20 25 -8 3z"/>
<path d="M1630 3653 c0 -11 13 -32 30 -48 25 -24 30 -26 36 -12 9 24 -18 72
-44 75 -16 3 -22 -2 -22 -15z"/>
<path d="M137 3653 c-4 -3 -7 -50 -7 -104 0 -54 -4 -101 -10 -104 -22 -14 -10
-54 24 -80 30 -23 35 -33 38 -73 l3 -47 133 -3 133 -3 69 -67 69 -67 3 -100 3
-100 -32 -10 c-56 -16 -37 -25 52 -25 80 0 86 2 120 31 l35 31 0 93 0 94 -117
123 c-109 114 -135 133 -185 137 -30 2 -20 -16 50 -91 141 -152 142 -152 142
-234 0 -40 5 -76 10 -79 6 -3 10 -15 10 -26 0 -15 -6 -20 -22 -17 -21 3 -23
10 -28 73 -3 39 -12 80 -20 91 -8 12 -91 94 -185 183 -93 89 -173 172 -177
184 -3 12 -6 43 -7 68 -1 42 -6 51 -46 88 -48 44 -48 44 -58 34z"/>
<path d="M1766 3628 c4 -13 13 -32 20 -43 10 -13 14 -52 14 -122 0 -57 4 -103
9 -103 5 0 23 16 40 35 31 35 31 37 31 145 l0 110 -61 0 c-58 0 -60 -1 -53
-22z"/>
<path d="M1920 3536 c0 -129 4 -120 -85 -191 -28 -21 -80 -68 -117 -102 l-66
-63 -167 0 c-159 0 -168 1 -208 25 -23 13 -62 45 -87 70 l-44 45 -103 0 -103
0 0 -50 0 -50 101 0 c98 0 103 -1 135 -29 43 -39 79 -43 301 -39 l181 3 99 96
c94 92 143 130 143 111 0 -4 -18 -26 -41 -47 -22 -22 -59 -61 -81 -87 -62 -74
-19 -61 63 19 61 59 69 71 69 103 0 21 7 43 15 50 12 10 15 37 15 126 0 64 -4
115 -10 119 -6 4 -10 -35 -10 -109z"/>
<path d="M43 3611 l-43 -15 0 -78 0 -78 28 0 c49 0 72 36 72 113 0 36 -3 68
-7 70 -5 2 -27 -4 -50 -12z"/>
<path d="M1490 3623 c-64 -20 -90 -56 -90 -124 0 -56 50 -109 104 -109 44 0
89 21 110 52 25 36 20 101 -9 137 -30 35 -82 55 -115 44z"/>
<path d="M323 3613 c-8 -3 -13 -23 -13 -51 1 -42 6 -53 54 -106 l53 -58 231
-2 c185 -1 233 -4 237 -15 3 -7 12 -11 19 -8 8 3 20 -1 26 -9 9 -10 37 -14
111 -14 l99 0 0 40 c0 31 -5 43 -25 56 -14 9 -25 23 -25 32 0 11 -9 7 -32 -15
-56 -52 -61 -53 -300 -53 l-223 0 -55 36 c-69 44 -90 69 -90 105 0 16 -9 38
-20 49 -21 21 -26 22 -47 13z"/>
<path d="M2593 3578 c15 -24 18 -77 23 -458 4 -238 11 -433 16 -436 9 -6 5
354 -8 727 -5 145 -7 158 -27 175 l-21 19 17 -27z"/>
<path d="M4354 3576 c-9 -23 0 -79 13 -83 13 -5 28 58 19 82 -7 19 -25 19 -32
1z"/>
<path d="M4074 3388 c1 -135 5 -191 14 -200 10 -10 12 20 9 152 -2 91 -8 181
-14 200 -9 27 -11 -7 -9 -152z"/>
<path d="M4870 3563 c0 -5 5 -14 11 -20 6 -6 9 -41 7 -87 -2 -42 0 -76 5 -76
4 0 7 38 7 84 0 62 -4 87 -15 96 -8 7 -15 8 -15 3z"/>
<path d="M4930 3472 c0 -113 -11 -132 -80 -132 -47 0 -53 -3 -132 -75 -45 -41
-94 -77 -110 -80 -39 -9 -48 -32 -48 -122 0 -87 -5 -99 -77 -174 l-45 -47 1
-247 c1 -182 -1 -251 -11 -263 -9 -13 -8 -13 8 1 18 17 19 30 15 250 l-3 233
28 35 c15 18 52 60 81 91 48 51 53 61 53 102 0 50 25 86 60 86 11 0 31 17 49
44 55 79 83 96 161 96 43 0 71 5 78 13 6 7 12 42 14 77 3 59 5 65 26 68 19 3
22 10 22 43 0 54 -24 89 -61 89 l-29 0 0 -88z"/>
<path d="M3890 3513 c-1 -37 -40 -102 -91 -152 l-54 -51 36 0 c44 0 76 24 118
87 19 28 31 40 31 29 0 -23 -55 -98 -109 -151 -23 -21 -41 -43 -41 -47 0 -4
39 -8 86 -8 l86 0 -6 73 c-3 39 -6 79 -6 87 -1 8 2 38 6 66 6 46 4 53 -17 68
-30 21 -39 20 -39 -1z"/>
<path d="M4011 3362 c-1 -139 6 -182 31 -182 9 0 9 3 0 12 -8 8 -12 55 -13
143 0 71 -4 139 -9 150 -5 12 -9 -34 -9 -123z"/>
<path d="M4456 3444 c-38 -33 -39 -34 -33 -90 3 -31 8 -59 11 -62 8 -7 81 45
145 104 l54 50 -36 -4 c-25 -3 -48 2 -70 15 l-33 20 -38 -33z"/>
<path d="M2060 3455 c0 -9 18 -35 41 -60 45 -48 59 -99 40 -147 -6 -17 -63
-67 -151 -134 -77 -59 -140 -110 -140 -114 0 -9 20 -25 41 -33 15 -5 119 76
242 189 l37 35 0 97 0 96 -42 43 c-43 44 -68 54 -68 28z"/>
<path d="M4629 3354 c-46 -47 -110 -108 -142 -135 l-58 -49 -135 0 c-73 0
-134 -2 -134 -5 0 -22 37 -69 78 -99 27 -19 68 -56 91 -81 l42 -46 -3 -274 -3
-274 -62 -63 c-35 -35 -63 -67 -63 -71 0 -14 65 -6 105 12 70 31 69 26 66 279
-2 125 -4 257 -6 295 -2 66 -2 68 36 107 l39 40 0 96 0 96 122 124 c67 68 119
126 117 129 -3 2 -43 -34 -90 -81z m-241 -290 c3 -22 -21 -39 -39 -28 -11 6
-12 38 -2 48 13 13 38 1 41 -20z m-42 -39 c20 -22 27 -24 45 -15 18 10 20 9
17 -7 -2 -10 -12 -19 -24 -21 -24 -3 -74 33 -74 54 0 20 10 17 36 -11z"/>
<path d="M3012 3398 c-9 -9 -12 -74 -12 -232 l0 -221 20 30 c18 27 20 47 20
233 0 111 -4 202 -8 202 -4 0 -13 -5 -20 -12z"/>
<path d="M2667 3376 c-12 -31 -7 -110 8 -130 13 -17 15 -84 15 -425 0 -254 -4
-420 -11 -444 -6 -22 -27 -53 -50 -75 l-39 -37 0 -172 c0 -94 3 -178 6 -187 3
-9 15 -16 26 -16 11 0 18 -5 16 -12 -3 -7 -15 -13 -28 -13 -34 0 -38 23 -39
228 -1 111 -5 177 -11 177 -6 0 -10 -75 -10 -204 0 -176 2 -207 16 -221 9 -9
23 -14 31 -11 8 3 25 6 38 6 14 0 38 15 60 37 l35 36 0 148 c0 81 4 159 9 172
8 19 6 27 -5 31 -8 3 -14 10 -14 16 0 17 40 51 52 44 6 -4 8 -3 5 3 -9 15 19
37 38 29 8 -3 15 -17 15 -30 0 -46 21 -76 52 -76 l28 0 0 90 0 90 -30 0 c-18
0 -33 7 -39 19 -6 10 -21 21 -35 25 -13 3 -31 9 -40 12 -10 4 -16 1 -16 -9 0
-10 7 -13 19 -10 26 7 35 -12 15 -31 -19 -20 -28 -20 -44 -1 -8 9 -10 28 -6
49 4 20 2 37 -4 41 -6 4 -10 144 -10 410 l0 404 -23 27 c-21 24 -24 25 -30 10z
m180 -947 c13 -13 5 -49 -12 -49 -19 0 -38 28 -31 45 6 18 27 20 43 4z"/>
<path d="M5 3370 c-4 -6 7 -10 27 -10 25 0 29 3 18 10 -19 13 -37 13 -45 0z"/>
<path d="M2013 3363 c-21 -62 -37 -87 -92 -145 -95 -102 -85 -99 -408 -96
-260 3 -281 4 -320 24 -23 12 -40 17 -37 12 4 -5 25 -18 49 -28 27 -12 54 -34
75 -64 l33 -46 101 0 c76 0 107 4 124 16 12 8 34 14 49 12 26 -3 25 -5 -32
-50 l-60 -48 -98 0 -99 0 -61 56 c-57 51 -65 55 -100 51 -55 -7 -67 -22 -67
-78 l0 -49 60 0 c37 0 60 4 60 11 0 7 -12 9 -31 7 -34 -5 -53 17 -28 33 27 17
58 9 103 -26 l46 -35 210 0 210 0 11 27 c9 24 6 31 -33 70 -40 41 -45 43 -101
43 -50 0 -58 2 -55 18 3 15 18 17 110 20 l107 3 39 -36 c22 -19 43 -35 47 -35
8 0 214 158 258 198 38 36 36 73 -8 117 -40 39 -53 43 -62 18z"/>
<path d="M784 3330 c28 -31 36 -48 36 -78 0 -32 7 -45 50 -87 l50 -49 0 -149
c0 -157 -6 -182 -52 -223 -12 -12 -40 -27 -60 -33 -59 -19 -60 -35 -3 -27 33
4 58 15 78 34 50 46 57 77 57 241 0 145 -1 150 -25 179 -22 26 -25 39 -25 108
0 44 -4 85 -9 92 -8 14 -69 31 -110 32 -22 0 -22 -2 13 -40z"/>
<path d="M650 3327 c0 -17 26 -50 90 -114 l90 -90 0 -90 c0 -127 -5 -144 -64
-207 l-52 -56 -80 0 c-77 0 -83 -2 -135 -38 l-54 -38 -3 -109 -3 -109 39 -40
c74 -78 72 -68 72 -297 l0 -206 -43 -39 c-95 -84 -148 -126 -155 -120 -3 4 27
38 68 77 l75 70 -2 137 c-1 75 -2 164 -3 197 0 57 -2 63 -46 113 -44 50 -48
52 -96 52 -54 0 -102 25 -113 60 -6 18 -15 20 -123 19 -83 0 -110 -3 -94 -10
26 -10 25 -35 -2 -33 -11 1 -16 -6 -16 -22 0 -23 2 -24 80 -24 73 0 82 -2 113
-29 32 -28 34 -29 45 -10 7 10 12 26 12 34 0 27 18 16 89 -50 37 -36 73 -65
79 -65 6 0 22 -14 36 -31 25 -30 26 -34 26 -178 0 -147 0 -149 -26 -175 -15
-14 -30 -26 -35 -26 -5 0 -26 -26 -48 -58 -22 -33 -95 -112 -162 -176 -68 -64
-131 -129 -141 -144 -15 -23 -18 -51 -18 -195 0 -161 -1 -167 -19 -158 -26 14
-31 5 -31 -52 0 -46 4 -56 58 -121 32 -39 67 -84 77 -101 10 -16 37 -49 59
-72 l40 -43 83 0 c60 0 83 4 83 13 0 6 44 53 97 103 l97 92 -17 25 c-9 14 -34
38 -54 53 -21 15 -57 45 -80 67 -22 22 -47 37 -53 35 -7 -2 26 -39 74 -82 47
-43 86 -86 85 -95 0 -9 -42 -53 -92 -98 l-92 -83 -62 0 -62 0 -88 101 c-112
128 -115 134 -108 189 3 25 9 123 14 219 l7 174 132 128 131 129 86 0 87 0 64
62 64 61 0 101 c0 76 -4 107 -16 124 -22 32 -6 51 17 21 16 -20 19 -43 19
-145 l0 -122 -71 -76 -71 -76 -87 0 c-77 0 -90 -3 -107 -22 l-19 -21 28 18
c22 14 39 16 91 11 36 -4 75 -2 91 4 14 5 55 40 91 78 l64 67 0 129 c0 123 -1
131 -26 163 l-26 34 4 189 3 188 -63 65 c-34 36 -62 68 -62 72 0 18 32 64 56
80 22 14 40 17 97 12 l69 -6 53 49 c28 28 56 50 60 50 5 0 16 7 25 15 15 13
16 32 12 138 l-4 122 -94 96 c-52 53 -94 103 -94 112 0 9 -4 19 -10 22 -6 3
-10 -4 -10 -18z"/>
<path d="M2230 3258 c0 -100 -2 -105 -41 -130 -40 -26 -147 -126 -171 -162
-14 -20 0 -11 38 27 59 57 60 57 120 57 50 0 64 4 82 23 20 21 22 34 22 134 0
94 -3 112 -18 126 -10 10 -22 17 -25 17 -4 0 -7 -42 -7 -92z"/>
<path d="M0 3310 c0 -5 15 -10 34 -10 36 0 66 -21 66 -46 0 -20 45 -64 66 -64
13 0 11 5 -10 25 -14 13 -26 28 -26 34 0 5 -12 23 -26 40 -21 25 -33 31 -65
31 -21 0 -39 -4 -39 -10z"/>
<path d="M4988 3250 c-24 -28 -31 -30 -97 -30 -41 0 -71 -4 -71 -10 0 -13 136
-13 161 0 20 11 55 70 41 70 -4 0 -19 -13 -34 -30z"/>
<path d="M0 3244 c0 -7 10 -14 23 -16 33 -5 35 -47 2 -78 -20 -19 -25 -32 -25
-74 l1 -51 59 65 59 65 -23 20 c-13 11 -27 32 -30 46 -4 20 -13 28 -36 31 -20
3 -30 0 -30 -8z"/>
<path d="M2549 3234 l31 -26 0 -258 c0 -248 -1 -258 -21 -285 -35 -44 -119
-105 -145 -105 -39 0 -28 16 41 59 64 41 85 64 85 97 0 14 -7 12 -32 -13 -18
-17 -71 -57 -118 -88 -145 -98 -170 -121 -170 -161 0 -32 2 -34 32 -34 25 0
41 11 86 60 41 45 62 60 82 60 27 0 90 39 143 88 l27 26 0 278 0 279 -25 24
c-13 14 -29 25 -35 25 -6 0 2 -12 19 -26z"/>
<path d="M1110 3196 c0 -2 8 -10 18 -17 15 -13 16 -12 3 4 -13 16 -21 21 -21
13z"/>
<path d="M3452 3143 c3 -55 4 -58 31 -61 22 -3 39 8 90 57 l62 61 -93 0 -93 0
3 -57z"/>
<path d="M3672 3180 c11 -17 8 -25 -30 -63 -23 -23 -42 -45 -42 -49 0 -3 18
-8 39 -12 22 -3 46 -9 55 -12 14 -5 16 4 16 63 0 68 -10 93 -37 93 -11 0 -11
-4 -1 -20z"/>
<path d="M4752 3160 c-8 -13 -8 -20 -2 -20 6 0 13 7 17 15 9 24 -1 27 -15 5z"/>
<path d="M184 3160 c-27 -11 -116 -104 -131 -138 -8 -18 -10 -62 -6 -132 4
-95 8 -109 34 -148 16 -23 29 -45 29 -47 0 -3 -25 -5 -55 -5 l-55 0 0 -35 c0
-32 2 -35 30 -35 17 0 30 -4 30 -10 0 -5 -13 -10 -30 -10 -23 0 -30 -4 -30
-20 0 -19 7 -20 115 -20 l115 0 0 79 0 79 -33 6 c-21 4 -50 24 -82 56 l-50 51
-4 79 c-1 44 0 91 3 103 7 31 81 114 117 132 32 17 184 21 194 5 3 -5 14 -10
23 -10 13 0 13 2 -4 15 -21 16 -173 20 -210 5z m-65 -489 c16 -10 7 -47 -14
-55 -21 -8 -40 31 -24 50 13 16 19 17 38 5z"/>
<path d="M3910 3109 c0 -92 16 -106 112 -98 40 3 75 4 77 3 2 -2 1 -10 -2 -19
-5 -11 -21 -15 -61 -15 -45 0 -54 -3 -50 -15 4 -10 20 -15 44 -15 29 0 40 -5
45 -19 8 -27 -4 -50 -32 -57 -22 -6 -24 -10 -21 -68 l3 -61 76 -3 c73 -3 78
-1 98 24 16 20 21 41 21 81 l0 55 -127 132 c-94 96 -135 132 -155 134 -28 3
-28 3 -28 -59z"/>
<path d="M487 3139 c30 -33 43 -72 43 -130 0 -37 4 -49 15 -49 12 0 15 14 15
68 0 73 -11 92 -70 122 l-25 13 22 -24z"/>
<path d="M3782 3148 c-20 -20 -15 -155 8 -207 14 -30 20 -67 22 -125 l1 -81 6
60 c3 33 10 66 14 73 5 7 30 12 63 12 69 0 70 11 4 83 -48 52 -49 56 -52 123
-3 65 -4 69 -28 72 -14 2 -31 -3 -38 -10z"/>
<path d="M960 2963 c-1 -128 -5 -195 -13 -210 -17 -30 -125 -143 -137 -143 -5
0 -27 7 -48 15 -28 12 -46 13 -64 6 -31 -12 -73 -67 -58 -76 5 -3 10 0 10 9 0
8 14 26 30 40 31 26 39 26 90 -1 14 -7 32 -13 41 -13 14 0 115 104 169 173 10
14 15 64 20 187 4 118 10 172 19 184 12 14 9 16 -23 16 l-36 0 0 -187z"/>
<path d="M5081 3098 l-33 -38 -167 0 c-137 0 -171 3 -190 16 -20 15 -24 15
-38 1 -18 -17 -9 -62 10 -50 7 5 99 10 206 13 l194 5 30 37 c40 50 30 63 -12
16z"/>
<path d="M433 3114 c-3 -8 1 -22 10 -31 13 -14 16 -13 22 6 11 35 -19 59 -32
25z"/>
<path d="M256 3097 c2 -7 20 -19 38 -25 19 -7 54 -35 80 -62 68 -73 65 -100
-20 -179 -36 -34 -62 -66 -59 -71 3 -6 21 -10 39 -10 27 0 43 10 89 59 56 59
68 83 46 97 -7 4 -9 21 -5 43 5 34 2 39 -61 99 -60 56 -70 62 -109 62 -32 0
-42 -4 -38 -13z"/>
<path d="M145 3060 c-16 -16 -27 -31 -24 -33 2 -2 17 11 32 30 36 41 31 43 -8
3z"/>
<path d="M3110 3052 c0 -15 -7 -38 -16 -51 -12 -17 -14 -25 -5 -34 15 -15 31
7 31 46 0 17 5 27 15 27 16 0 35 -30 35 -54 0 -30 -71 -95 -121 -113 -27 -10
-49 -21 -49 -25 0 -5 23 -8 50 -8 28 0 50 -4 50 -10 0 -15 -35 -30 -69 -30
-21 0 -31 -5 -31 -15 0 -9 9 -15 24 -15 26 0 218 147 236 181 15 28 1 97 -24
114 -11 9 -43 15 -73 15 -51 0 -53 -1 -53 -28z m128 -21 c4 -22 -12 -50 -23
-40 -3 3 -8 20 -11 38 -6 29 -4 33 12 29 11 -2 20 -13 22 -27z"/>
<path d="M1688 3043 c25 -35 72 -79 72 -68 0 13 -70 95 -81 95 -6 0 -1 -12 9
-27z"/>
<path d="M4167 3051 c17 -11 43 -37 57 -58 24 -35 26 -46 26 -146 0 -164 -22
-192 -145 -188 -66 2 -72 4 -107 38 -26 25 -38 46 -38 64 0 47 -10 59 -46 59
-40 0 -52 -19 -35 -56 6 -15 22 -27 40 -30 16 -3 48 -26 72 -50 l43 -44 84 0
c81 0 85 1 113 31 21 22 29 41 29 68 0 20 1 83 2 140 l1 104 -41 44 c-25 26
-50 43 -64 43 -21 0 -20 -2 9 -19z"/>
<path d="M176 3029 c-41 -48 -35 -83 23 -140 60 -61 97 -66 142 -18 42 45 38
76 -17 138 -40 44 -51 51 -84 51 -30 0 -44 -6 -64 -31z"/>
<path d="M3458 3033 c6 -2 18 -2 25 0 6 3 1 5 -13 5 -14 0 -19 -2 -12 -5z"/>
<path d="M2664 2915 c0 -60 1 -84 3 -52 2 32 2 81 0 110 -2 29 -3 3 -3 -58z"/>
<path d="M111 2982 c-1 -44 22 -92 62 -128 l32 -29 -26 30 c-36 41 -52 72 -60
120 -6 39 -7 39 -8 7z"/>
<path d="M3478 3003 c-23 -4 -28 -9 -28 -34 0 -56 68 -48 88 10 12 34 10 35
-60 24z"/>
<path d="M4885 3000 l-190 -5 -76 -80 c-42 -44 -81 -90 -88 -102 -7 -14 -11
-83 -11 -188 0 -189 1 -193 79 -270 28 -27 51 -54 51 -60 0 -7 -12 -22 -26
-36 -40 -37 -46 -55 -38 -115 l6 -54 152 0 152 0 34 35 c33 34 36 35 112 35
l78 0 0 30 0 30 -124 0 -123 0 -6 -36 c-9 -56 -21 -64 -98 -64 l-69 0 0 75 0
75 -72 75 c-66 70 -70 77 -55 92 14 15 18 15 44 -2 15 -10 52 -41 81 -69 l53
-50 185 -4 c130 -3 184 -1 184 7 0 7 -59 11 -187 13 -145 2 -187 6 -191 16 -3
11 30 13 187 10 176 -3 223 1 171 15 -14 3 -20 14 -20 31 0 19 5 26 20 26 19
0 20 7 20 181 l0 181 -66 68 -66 68 -123 4 c-68 2 -127 6 -130 10 -4 4 -5 15
-1 24 5 14 24 15 151 12 l145 -3 45 -50 45 -50 -3 54 c-1 42 -6 56 -22 65 -14
7 -80 9 -210 6z m94 -178 c114 -112 127 -141 118 -256 -6 -63 -10 -73 -43
-107 -56 -58 -88 -69 -196 -69 -151 0 -163 4 -240 80 l-68 66 0 95 c0 90 2 98
31 142 17 25 55 69 86 97 l55 50 78 0 79 0 100 -98z"/>
<path d="M4688 2833 c-63 -59 -78 -94 -78 -179 l0 -67 58 -58 57 -57 79 -7
c99 -9 140 2 191 55 39 40 40 43 38 105 -3 79 -26 128 -97 201 -47 49 -56 54
-92 52 l-39 -1 39 -4 c30 -4 49 -15 86 -53 65 -67 90 -121 90 -197 0 -60 -1
-62 -46 -102 l-47 -41 -87 0 -86 0 -62 59 -62 59 0 67 c0 38 6 78 14 93 19 36
96 109 121 115 18 4 17 5 -3 6 -14 1 -41 -16 -74 -46z"/>
<path d="M4818 2823 c7 -3 16 -2 19 1 4 3 -2 6 -13 5 -11 0 -14 -3 -6 -6z"/>
<path d="M4755 2810 c-3 -6 1 -7 9 -4 18 7 21 14 7 14 -6 0 -13 -4 -16 -10z"/>
<path d="M4897 2790 c27 -32 44 -95 33 -124 -4 -12 -27 -39 -50 -60 -40 -36
-46 -38 -91 -34 -58 6 -84 26 -97 76 -9 34 -10 35 -11 9 -1 -35 13 -63 52
-104 29 -31 35 -33 101 -33 62 0 73 3 98 27 24 23 28 35 28 81 0 75 -17 126
-54 159 -26 24 -28 24 -9 3z"/>
<path d="M4759 2772 c-22 -20 -32 -37 -32 -58 0 -56 8 -85 28 -102 19 -16 19
-16 6 1 -14 17 -3 24 15 8 5 -4 22 -11 37 -15 24 -6 34 -1 63 28 37 37 41 59
20 111 -26 61 -86 73 -137 27z"/>
<path d="M3593 2973 c-37 -61 -65 -83 -105 -83 -31 0 -38 -4 -38 -20 0 -16 5
-19 28 -15 15 2 63 7 106 10 117 8 116 9 116 -180 0 -139 2 -155 21 -179 11
-14 26 -26 32 -26 6 0 1 7 -11 16 -21 15 -22 21 -22 180 0 103 4 164 10 164 6
0 10 -58 10 -152 0 -84 4 -158 8 -163 4 -6 27 -22 52 -35 42 -23 54 -25 163
-22 123 3 167 22 51 22 -50 0 -73 5 -94 20 -20 14 -42 19 -79 19 -79 -2 -81 2
-81 162 0 134 -1 141 -31 204 -47 101 -102 132 -136 78z"/>
<path d="M2133 2962 c-37 -24 -42 -32 -45 -67 -5 -96 7 -145 36 -145 7 0 47
35 89 78 l78 77 -36 3 c-30 3 -44 -4 -89 -42 -52 -45 -76 -56 -76 -35 0 21 23
55 73 107 40 41 47 52 32 52 -11 0 -39 -13 -62 -28z"/>
<path d="M4297 2720 c-3 -126 -10 -237 -14 -245 -5 -8 -31 -30 -58 -48 l-50
-32 5 -50 c7 -69 25 -69 102 3 l63 60 3 246 c3 214 2 250 -12 271 -9 14 -20
25 -25 25 -4 0 -11 -103 -14 -230z m6 -294 c8 -21 -17 -50 -37 -43 -23 9 -32
37 -15 48 21 13 46 11 52 -5z"/>
<path d="M1070 2868 c0 -79 -17 -113 -82 -172 l-61 -56 87 0 c83 0 87 1 96 25
5 13 27 41 48 62 66 64 77 103 42 141 -12 12 -32 22 -45 22 -14 0 -25 5 -25
10 0 6 -13 10 -30 10 -29 0 -30 -2 -30 -42z"/>
<path d="M1975 2900 c-3 -5 -1 -10 4 -10 6 0 11 5 11 10 0 6 -2 10 -4 10 -3 0
-8 -4 -11 -10z"/>
<path d="M731 2863 c-29 -35 -34 -37 -112 -45 -84 -8 -109 -20 -132 -63 -7
-14 1 -10 27 13 33 29 43 32 101 32 58 0 68 3 100 31 33 29 62 69 51 69 -2 0
-18 -17 -35 -37z"/>
<path d="M1293 2883 c-22 -8 -14 -33 13 -43 30 -12 144 -13 144 -2 0 4 3 17 6
30 6 21 5 22 -72 21 -44 0 -85 -3 -91 -6z"/>
<path d="M1506 2874 c-9 -8 -16 -22 -16 -31 0 -11 8 -8 31 12 45 37 65 30 84
-30 6 -18 7 -18 16 -3 6 10 5 26 -1 42 -8 23 -15 26 -54 26 -27 0 -51 -6 -60
-16z"/>
<path d="M1874 2879 c-9 -15 12 -17 30 -4 17 13 17 14 -4 12 -12 -1 -24 -5
-26 -8z"/>
<path d="M3267 2883 c-4 -3 -7 -74 -7 -157 0 -83 -4 -156 -8 -162 -4 -6 -33
-27 -65 -48 -31 -21 -60 -42 -63 -47 -3 -5 -34 -9 -70 -9 -54 0 -64 -3 -64
-17 0 -16 9 -18 99 -13 l99 5 58 46 c33 25 65 56 71 70 14 26 17 196 7 287 -6
45 -10 52 -29 52 -12 0 -25 -3 -28 -7z"/>
<path d="M90 2872 c0 -16 104 -122 119 -122 8 0 -13 28 -45 63 -62 65 -74 75
-74 59z"/>
<path d="M3370 2713 c0 -186 1 -183 -111 -272 l-77 -61 -96 0 c-62 0 -96 -4
-96 -11 0 -7 38 -10 119 -7 110 3 121 5 145 27 14 14 26 30 26 37 0 6 7 17 15
24 22 18 29 -8 15 -58 -7 -27 -23 -52 -48 -71 -36 -31 -38 -31 -154 -31 l-118
0 0 -35 0 -35 195 0 195 0 0 325 c0 179 -2 325 -5 325 -3 0 -5 -71 -5 -157z"/>
<path d="M3103 2774 l-113 -85 0 -97 0 -97 62 4 c56 3 68 7 110 42 l47 40 3
140 c2 76 3 139 3 139 0 0 -51 -39 -112 -86z"/>
<path d="M3540 2841 c-75 -5 -85 -8 -88 -26 -3 -19 2 -20 76 -17 124 6 122 9
122 -162 0 -119 3 -145 15 -150 19 -7 20 -26 1 -26 -32 0 -46 46 -46 155 0
141 -3 145 -90 145 -63 0 -70 -2 -70 -20 0 -17 7 -20 45 -20 70 0 85 -21 85
-123 0 -77 2 -85 28 -114 55 -59 81 -66 257 -71 91 -2 166 -9 173 -15 7 -6 25
-30 39 -55 25 -43 26 -50 32 -278 4 -128 10 -237 15 -241 4 -4 21 7 37 25 l29
32 0 160 c0 145 -2 162 -19 179 -11 11 -28 17 -39 15 -16 -5 -19 1 -20 38 -2
50 -45 126 -82 145 -14 7 -64 13 -115 13 -63 0 -96 5 -109 15 -11 8 -34 15
-52 15 -17 0 -43 9 -58 21 l-26 20 0 159 c0 131 -3 161 -16 174 -8 9 -21 15
-27 14 -7 -1 -50 -4 -97 -7z"/>
<path d="M1781 2786 l-51 -55 0 -284 c0 -230 3 -291 15 -320 9 -21 15 -67 15
-110 0 -78 18 -127 75 -201 14 -18 29 -50 35 -72 l10 -39 -4 43 c-3 29 -17 63
-41 99 -53 79 -37 104 16 27 23 -33 85 -106 138 -163 l96 -104 6 -111 c6 -121
1 -143 -36 -152 -28 -7 -33 -29 -9 -38 30 -12 55 -6 79 19 33 32 33 74 0 105
-23 22 -25 31 -25 111 0 79 -2 88 -22 102 -30 20 -21 27 22 18 l35 -7 5 -69
c4 -62 9 -73 37 -101 33 -32 50 -86 39 -127 -3 -13 -23 -42 -44 -65 l-39 -42
-81 0 c-65 0 -88 -4 -117 -21 l-36 -22 20 34 c14 22 21 51 21 83 0 44 4 53 40
86 l41 38 -3 72 c-3 66 -6 75 -30 93 -52 39 -58 24 -58 -150 0 -157 0 -158
-32 -223 l-32 -65 -4 -210 c-4 -201 -5 -211 -28 -244 -22 -33 -24 -45 -24
-170 l0 -135 37 -53 c45 -65 53 -68 19 -7 -24 42 -26 57 -26 160 0 69 -4 114
-10 114 -20 0 -9 49 18 81 l27 33 5 202 c6 227 5 225 84 264 30 14 62 20 113
20 70 0 71 1 107 40 41 46 46 48 46 20 0 -30 -26 -75 -56 -99 -22 -18 -41 -21
-114 -21 -78 0 -89 -2 -108 -23 -21 -22 -22 -33 -22 -168 0 -79 3 -161 7 -182
l6 -38 33 32 c33 32 34 35 34 117 0 46 5 92 11 104 18 34 70 48 179 48 100 0
100 0 138 34 20 19 35 36 32 39 -3 2 -24 7 -46 11 -35 5 -45 2 -68 -19 -25
-23 -35 -25 -119 -25 -71 0 -98 -4 -117 -17 -35 -23 -40 -33 -40 -74 0 -20 -7
-42 -15 -49 -13 -11 -15 -4 -15 53 0 62 2 66 35 96 34 30 40 31 124 31 124 0
125 1 129 181 3 127 2 143 -17 175 -14 23 -21 52 -21 86 0 43 -4 54 -33 83
-23 23 -46 35 -77 40 -37 6 -56 18 -108 68 -35 34 -82 84 -104 110 -40 47 -41
50 -39 119 2 66 -1 75 -34 125 -47 71 -55 122 -55 357 l0 188 71 71 c65 65 69
72 53 84 -28 21 -38 16 -93 -41z"/>
<path d="M1884 2768 c-78 -84 -74 -68 -74 -301 0 -135 -4 -222 -12 -243 -10
-29 -9 -35 19 -70 47 -60 53 -78 53 -151 1 -47 6 -74 17 -88 l16 -20 -9 20
c-13 32 -18 188 -5 180 6 -3 11 -30 11 -60 0 -30 4 -64 9 -77 12 -28 159 -180
254 -261 63 -55 67 -61 67 -100 0 -25 8 -54 20 -72 17 -25 20 -47 20 -135 0
-75 3 -101 11 -93 7 7 10 47 7 111 -2 85 -6 105 -25 131 -15 20 -23 44 -23 71
0 42 -2 45 -115 144 -22 19 -37 38 -33 41 14 14 60 -7 104 -47 24 -22 48 -38
52 -33 9 9 -82 91 -129 115 -62 33 -155 143 -184 220 -15 38 -44 96 -66 130
l-39 61 0 219 0 218 50 55 c28 30 50 58 50 61 0 14 -18 4 -46 -26z"/>
<path d="M1597 2718 l-58 -73 51 55 c46 49 77 90 67 90 -1 0 -29 -33 -60 -72z"/>
<path d="M1303 2750 c-12 -5 -31 -27 -42 -49 -12 -22 -25 -42 -31 -46 -5 -3
-9 -23 -8 -43 1 -36 1 -36 5 -6 2 18 13 40 24 50 10 9 19 22 19 29 0 16 58 70
67 62 3 -4 -6 -20 -20 -35 -24 -25 -27 -36 -27 -95 0 -65 -1 -67 -34 -89 -49
-32 -66 -66 -66 -135 0 -84 5 -94 66 -143 31 -24 62 -59 69 -77 13 -31 17 -33
64 -33 28 0 51 5 51 10 0 6 -15 10 -32 10 -27 0 -48 14 -115 79 l-83 78 0 66
c0 97 15 109 125 104 67 -4 85 -2 89 10 9 23 -2 33 -33 27 -26 -6 -29 -4 -35
35 -8 50 3 69 79 134 30 27 55 52 55 58 0 11 -157 11 -187 -1z"/>
<path d="M2000 2651 l0 -79 -55 -47 -55 -47 0 -125 c0 -131 7 -159 50 -198 12
-11 39 -56 60 -100 40 -87 79 -131 122 -139 50 -9 88 -40 131 -106 l42 -65 3
80 3 80 -46 43 c-38 34 -54 42 -86 42 -33 0 -39 -3 -39 -20 0 -34 -30 -37 -57
-6 -20 24 -23 37 -23 116 0 73 -4 95 -22 125 -20 36 -21 43 -14 275 5 163 4
240 -4 245 -6 4 -10 -21 -10 -74z"/>
<path d="M1582 2637 l-72 -72 0 -192 0 -191 34 -4 c29 -3 41 2 75 35 l41 39 0
229 c0 126 -1 229 -3 229 -1 0 -35 -33 -75 -73z"/>
<path d="M1945 2671 c-3 -10 -21 -35 -40 -56 -30 -31 -35 -43 -35 -84 l0 -47
50 47 c48 45 50 49 50 103 0 55 -13 74 -25 37z"/>
<path d="M2080 2579 c0 -126 -5 -123 78 -45 36 35 42 46 42 82 0 55 -19 74
-76 74 l-44 0 0 -111z"/>
<path d="M590 2662 c-24 -20 -19 -46 12 -63 15 -8 19 -8 14 0 -11 17 37 54 86
68 l43 11 -66 1 c-50 1 -72 -3 -89 -17z"/>
<path d="M312 2654 c-19 -13 -22 -24 -22 -78 0 -67 10 -86 47 -86 31 0 43 28
43 99 0 49 -4 62 -19 71 -25 13 -22 13 -49 -6z"/>
<path d="M3800 2662 c0 -24 39 -42 92 -42 66 0 106 -25 188 -118 45 -51 57
-59 72 -51 12 6 18 21 18 44 0 28 -6 39 -37 60 -21 14 -50 25 -65 25 -38 0
-68 14 -104 48 -26 24 -44 30 -98 36 -36 4 -66 3 -66 -2z"/>
<path d="M1494 2618 l-29 -33 33 29 c30 28 37 36 29 36 -2 0 -16 -15 -33 -32z"/>
<path d="M3463 2604 c-10 -27 2 -49 30 -52 24 -3 27 0 27 26 0 24 -5 31 -26
35 -16 3 -28 0 -31 -9z"/>
<path d="M2595 2580 c-17 -18 -21 -40 -25 -131 -3 -60 -2 -109 1 -109 3 0 15
11 28 24 20 21 21 31 19 131 l-3 107 -20 -22z"/>
<path d="M990 2582 c0 -4 13 -23 30 -42 25 -30 29 -32 30 -15 0 11 3 30 6 43
6 20 3 22 -30 22 -20 0 -36 -4 -36 -8z"/>
<path d="M848 2563 c90 -4 95 -5 119 -33 14 -17 30 -30 36 -30 6 0 -4 16 -23
35 l-34 35 -95 -2 -96 -2 93 -3z"/>
<path d="M695 2331 c-6 -190 -5 -222 9 -249 13 -25 16 -63 16 -184 0 -84 -3
-163 -6 -175 -3 -12 -49 -59 -102 -105 l-96 -83 -93 -3 -93 -4 -50 -45 -51
-46 3 -60 c4 -71 28 -95 28 -27 0 36 7 48 51 96 51 54 52 54 111 54 101 0 98
6 98 -191 0 -111 -3 -168 -10 -164 -6 4 -10 66 -10 154 0 166 -4 178 -63 188
-36 5 -42 3 -88 -43 -52 -51 -59 -75 -33 -112 21 -31 34 -28 79 18 29 30 47
40 65 38 34 -4 41 -38 8 -38 -15 0 -39 -16 -63 -40 l-40 -41 95 -92 95 -92 5
215 c3 136 9 214 15 213 13 -4 19 -344 7 -400 -8 -37 -6 -47 14 -75 40 -54 33
-71 -67 -175 -61 -63 -89 -99 -85 -109 3 -9 6 -67 6 -130 0 -69 4 -114 10
-114 6 0 10 45 10 115 l0 115 91 102 91 101 -6 46 c-3 25 -15 58 -26 73 -19
25 -20 43 -20 262 l0 235 53 58 c29 32 58 71 65 86 8 19 12 93 12 228 0 199 0
200 25 224 22 23 31 25 128 25 104 0 105 0 136 32 29 30 42 78 21 78 -5 0 -10
-4 -10 -9 0 -5 -12 -23 -26 -40 -23 -27 -32 -31 -77 -31 -29 0 -81 -5 -116
-10 -35 -6 -66 -8 -69 -6 -3 3 -4 71 -3 151 1 122 -1 147 -14 151 -17 7 -21
34 -5 34 6 0 10 5 10 10 0 6 -6 10 -14 10 -11 0 -15 -43 -21 -219z"/>
<path d="M1166 2519 c-25 -30 -26 -34 -26 -184 0 -181 4 -189 88 -200 28 -4
52 -3 52 1 0 4 -29 35 -65 69 l-65 63 0 104 c0 95 2 109 25 142 30 44 26 47
-9 5z"/>
<path d="M4226 2524 c-20 -20 -20 -30 0 -38 22 -9 34 1 34 30 0 28 -12 31 -34
8z"/>
<path d="M2385 2488 c-22 -22 -30 -34 -18 -26 21 13 69 68 61 68 -2 0 -22 -19
-43 -42z"/>
<path d="M644 2335 c0 -104 2 -146 3 -92 2 54 2 139 0 190 -1 51 -3 7 -3 -98z"/>
<path d="M797 2513 c-4 -3 -7 -44 -7 -89 0 -72 3 -85 19 -94 27 -14 144 -13
159 2 7 7 12 31 12 53 0 55 -31 85 -87 85 -37 0 -42 -3 -52 -32 -9 -25 -14
-29 -23 -20 -10 10 -9 18 2 40 14 24 23 27 72 30 45 2 56 6 51 17 -4 11 -23
15 -72 15 -37 0 -71 -3 -74 -7z"/>
<path d="M2118 2468 c-25 -17 -28 -26 -28 -71 l1 -52 134 -139 135 -139 0 55
0 55 -42 6 c-35 5 -51 14 -87 54 -69 75 -76 90 -81 174 l-5 78 -27 -21z"/>
<path d="M3460 2480 c0 -5 14 -10 30 -10 17 0 30 5 30 10 0 6 -13 10 -30 10
-16 0 -30 -4 -30 -10z"/>
<path d="M2450 2438 c-25 -41 -25 -54 0 -102 17 -34 18 -51 13 -131 -6 -88 -5
-94 21 -131 24 -36 26 -46 26 -149 0 -119 12 -158 68 -217 l26 -28 148 0 c135
0 148 2 158 19 11 21 14 417 4 469 -4 20 -12 30 -23 30 -9 -1 -27 2 -40 6
l-24 8 7 -164 c4 -110 3 -174 -5 -195 -11 -33 -130 -139 -159 -143 -52 -8 -68
12 -22 28 15 5 58 35 94 66 l66 56 -5 164 c-4 110 -2 170 5 178 7 9 5 19 -8
35 -9 12 -20 19 -24 16 -3 -4 -6 -81 -6 -172 l0 -165 -53 -51 c-52 -51 -85
-65 -146 -65 -45 0 -51 15 -51 127 0 86 -4 111 -21 145 -18 35 -20 55 -17 145
2 85 6 106 20 114 22 12 34 89 19 118 -17 31 -48 26 -71 -11z m340 -541 c0 -7
-26 -38 -57 -69 -44 -43 -69 -60 -106 -69 -46 -11 -50 -10 -70 11 l-22 22 38
-6 c52 -10 114 21 162 80 37 44 55 55 55 31z"/>
<path d="M1022 2440 c0 -14 2 -19 5 -12 2 6 2 18 0 25 -3 6 -5 1 -5 -13z"/>
<path d="M3560 2453 c0 -5 9 -22 20 -40 29 -49 91 -63 275 -63 l151 0 30 -31
29 -30 5 -212 6 -212 2 203 c2 221 -1 240 -54 281 -24 19 -40 21 -171 21 -155
0 -166 3 -237 59 -38 31 -56 38 -56 24z"/>
<path d="M1350 2413 c-58 -6 -70 -17 -70 -65 0 -58 14 -78 55 -78 26 0 42 -8
67 -34 l33 -34 -3 87 c-3 104 -9 132 -25 129 -6 -1 -32 -3 -57 -5z"/>
<path d="M1873 2385 c0 -22 2 -30 4 -17 2 12 2 30 0 40 -3 9 -5 -1 -4 -23z"/>
<path d="M3460 2340 c0 -73 9 -97 25 -69 18 27 58 30 122 8 89 -32 116 -63
121 -142 4 -59 2 -65 -31 -104 -19 -23 -38 -58 -41 -77 -4 -20 -17 -42 -29
-51 -20 -14 -23 -14 -38 7 -17 22 -17 21 -16 -30 1 -32 6 -52 14 -52 22 0 75
54 106 109 l32 56 3 -58 c5 -87 -35 -148 -127 -199 l-31 -17 0 -92 c0 -82 -3
-97 -24 -128 -25 -37 -30 -80 -27 -235 l1 -58 72 -74 71 -74 88 0 c82 0 89 2
108 26 l20 26 -26 33 -27 33 -34 -26 c-31 -23 -37 -25 -75 -15 -26 7 -49 8
-65 2 -26 -10 -42 1 -42 30 0 7 -14 30 -31 52 -16 21 -31 51 -32 66 -2 27 0
28 46 31 l47 3 0 -45 c0 -57 18 -76 74 -76 36 0 47 5 74 36 30 34 32 41 32
112 l0 76 -44 -43 -44 -43 -92 1 c-106 0 -110 2 -110 75 0 44 4 52 43 90 23
22 56 48 74 57 l31 17 4 98 c3 92 5 102 35 144 l31 45 4 195 3 195 -45 5 c-25
3 -70 17 -100 31 -53 25 -76 52 -94 112 -3 10 -15 17 -31 17 -25 0 -25 -1 -25
-80z"/>
<path d="M1020 2369 c0 -22 4 -38 8 -35 8 5 4 76 -4 76 -2 0 -4 -18 -4 -41z"/>
<path d="M0 2360 c0 -5 19 -10 43 -10 41 0 48 -4 115 -74 l72 -74 0 -203 c0
-136 4 -199 10 -189 5 8 10 99 10 202 l0 187 -45 53 c-25 29 -51 65 -57 80 -7
15 -21 29 -32 32 -35 10 -116 7 -116 -4z"/>
<path d="M2230 2345 c0 -26 70 -95 96 -95 22 0 24 4 24 55 l0 55 -60 0 c-47 0
-60 -3 -60 -15z"/>
<path d="M4522 2253 c0 -59 3 -92 5 -73 3 21 18 49 39 72 19 21 34 40 34 42 0
2 -18 19 -40 36 l-40 32 2 -109z"/>
<path d="M3956 2286 c38 -37 44 -49 44 -86 0 -34 -6 -48 -34 -76 -22 -22 -44
-34 -60 -34 -26 0 -27 -1 -24 -57 3 -57 3 -58 37 -63 21 -3 47 -19 72 -45 l39
-39 0 -121 c0 -131 -8 -153 -67 -200 l-28 -23 -3 -176 c-3 -170 -4 -176 -23
-166 -17 10 -19 24 -21 178 l-2 167 -4 -165 c-3 -158 -2 -166 19 -182 12 -10
25 -18 30 -18 5 0 9 69 9 154 0 85 5 167 10 182 6 14 28 46 49 71 l39 44 4
297 c1 163 1 312 -1 330 -4 40 -48 72 -97 72 l-31 0 43 -44z"/>
<path d="M4415 2255 c-64 -72 -69 -75 -111 -75 l-44 0 0 -140 c0 -167 -8 -165
124 -32 l89 90 6 116 c3 64 5 116 4 116 0 0 -31 -34 -68 -75z"/>
<path d="M305 2271 l40 -42 5 -147 6 -147 -28 -39 c-49 -68 -31 -80 20 -12
l32 43 0 149 0 149 -57 44 -58 44 40 -42z"/>
<path d="M983 2289 c-6 -6 -46 -10 -92 -10 -74 0 -81 -1 -81 -19 0 -18 7 -20
68 -20 63 0 71 2 97 30 26 27 34 45 8 19z"/>
<path d="M2400 1990 l0 -313 25 -43 c39 -67 72 -84 188 -100 56 -8 119 -12
140 -8 l38 6 -38 34 c-36 31 -43 33 -111 34 -83 0 -116 14 -150 64 -20 30 -22
44 -22 195 l0 163 -31 43 c-30 42 -31 46 -28 133 2 50 1 94 -3 98 -5 4 -8
-134 -8 -306z"/>
<path d="M0 2254 c0 -8 23 -43 51 -77 l51 -62 -6 -105 c-4 -78 -9 -108 -21
-116 -12 -9 -15 -37 -15 -152 l0 -141 -30 -23 c-24 -18 -30 -29 -30 -60 0 -35
2 -38 19 -29 24 13 61 90 68 141 4 31 18 51 64 98 l59 59 0 185 0 185 -58 57
c-53 52 -60 56 -104 56 -37 0 -48 -4 -48 -16z m180 -328 c0 -30 -16 -42 -35
-26 -25 21 -19 50 10 50 20 0 25 -5 25 -24z m-44 -47 c3 -6 1 -16 -4 -21 -13
-13 -45 8 -36 23 7 12 31 11 40 -2z m40 -73 c-4 -11 -25 -41 -47 -66 -35 -38
-40 -41 -35 -20 3 14 6 41 6 60 0 29 7 40 38 62 36 25 37 26 40 6 2 -11 1 -30
-2 -42z"/>
<path d="M417 2250 c4 -14 6 -80 5 -147 -3 -107 -2 -123 12 -123 14 0 16 17
16 118 0 102 -3 121 -21 147 -18 27 -20 28 -12 5z"/>
<path d="M3802 2051 l-2 -214 -27 -36 c-26 -34 -28 -43 -29 -137 0 -85 -4
-106 -21 -130 -33 -46 -56 -62 -93 -66 -31 -3 -35 -6 -38 -35 l-3 -33 58 0
c58 0 59 0 117 59 l58 58 -9 374 c-9 335 -10 352 -11 160z"/>
<path d="M3886 2238 c-17 -24 -22 -98 -7 -98 5 0 18 11 29 25 11 14 25 25 31
25 20 0 12 -38 -11 -54 -16 -12 -18 -16 -7 -16 46 0 66 83 29 120 -26 26 -45
25 -64 -2z"/>
<path d="M3542 2214 c-45 -31 -66 -109 -41 -155 5 -11 27 -35 47 -53 l36 -34
53 51 c49 47 53 54 53 96 -1 87 -84 140 -148 95z"/>
<path d="M4765 2210 c-10 -17 20 -44 40 -36 9 3 15 14 13 23 -4 21 -43 30 -53
13z"/>
<path d="M3489 2193 c-13 -16 -12 -17 4 -4 16 13 21 21 13 21 -2 0 -10 -8 -17
-17z"/>
<path d="M2130 2113 l0 -93 39 0 c22 0 42 -4 46 -9 3 -5 23 -24 45 -41 l40
-32 0 48 c0 45 -3 49 -85 133 l-85 86 0 -92z"/>
<path d="M3100 2066 l0 -106 53 0 c78 0 91 -14 97 -99 3 -39 10 -71 15 -71 13
0 26 150 19 208 -4 35 -9 42 -27 42 -42 0 -66 26 -69 78 l-3 47 -42 3 -43 3 0
-105z"/>
<path d="M2992 1924 c-2 -197 -5 -249 -18 -280 -24 -58 -14 -191 20 -248 30
-52 96 -113 132 -122 44 -11 206 2 239 19 64 33 106 98 104 160 -1 20 -3 25
-6 12 -13 -57 -27 -88 -55 -115 l-30 -30 -142 0 -143 0 -47 50 -46 49 0 118 0
118 66 63 c56 54 71 63 98 60 31 -3 31 -2 34 45 4 60 -9 77 -59 77 l-39 0 0
-56 c0 -54 -3 -60 -45 -105 -25 -26 -46 -47 -47 -46 0 1 -4 108 -8 237 l-6
235 -2 -241z"/>
<path d="M3250 2131 c0 -23 28 -35 46 -20 24 20 16 39 -16 39 -23 0 -30 -5
-30 -19z"/>
<path d="M3463 2110 c0 -25 2 -35 4 -22 2 12 2 32 0 45 -2 12 -4 2 -4 -23z"/>
<path d="M776 2118 c-14 -20 -16 -81 -16 -468 l0 -445 122 -117 c68 -65 129
-118 136 -118 9 0 11 34 10 143 -2 126 -3 130 -5 40 -2 -57 -8 -103 -12 -103
-5 0 -22 21 -37 48 -37 61 -46 136 -48 368 l-1 181 -42 46 -43 47 0 173 c0
173 -9 227 -37 227 -6 0 -19 -10 -27 -22z m135 -676 c3 -92 9 -177 13 -188 10
-28 -42 -91 -67 -81 -26 10 -24 145 2 179 13 16 20 44 23 90 l3 66 -43 -35
c-24 -19 -46 -32 -50 -28 -4 4 14 25 41 47 40 34 47 45 47 77 0 29 -7 44 -35
71 -19 19 -35 41 -35 49 0 10 19 -3 48 -32 l47 -47 6 -168z"/>
<path d="M850 2125 c0 -8 2 -15 4 -15 2 0 6 7 10 15 3 8 1 15 -4 15 -6 0 -10
-7 -10 -15z"/>
<path d="M885 2130 c4 -6 1 -17 -5 -25 -7 -8 -11 -44 -10 -87 0 -40 0 -84 -2
-98 -1 -14 -1 -53 0 -87 3 -95 22 -77 22 20 l0 83 56 54 c79 77 118 131 102
142 -20 12 -170 10 -163 -2z"/>
<path d="M1614 2101 c-19 -17 -49 -32 -73 -36 -39 -6 -41 -9 -41 -41 l0 -34
85 0 c75 0 85 2 96 21 17 32 -5 120 -30 119 -3 0 -20 -13 -37 -29z"/>
<path d="M0 2025 c0 -85 2 -96 15 -85 21 18 21 152 0 170 -13 11 -15 0 -15
-85z"/>
<path d="M1510 2109 c0 -5 5 -7 10 -4 6 3 10 8 10 11 0 2 -4 4 -10 4 -5 0 -10
-5 -10 -11z"/>
<path d="M4935 2080 l-39 -40 -167 0 c-92 0 -169 -3 -171 -7 -1 -5 -29 -27
-61 -51 -61 -45 -126 -121 -158 -183 -15 -31 -19 -59 -19 -149 0 -123 -10
-154 -60 -190 -28 -20 -30 -25 -30 -90 0 -63 3 -72 36 -116 20 -26 45 -61 55
-78 l19 -31 1 140 c1 281 15 508 31 540 19 35 103 125 138 148 19 12 67 17
201 22 l175 8 35 -44 c36 -45 35 -43 55 -247 4 -39 2 -73 -6 -91 -6 -16 -49
-65 -95 -110 l-83 -81 -64 0 c-72 0 -105 18 -183 99 -21 22 -43 41 -47 41 -4
0 -8 -94 -8 -210 0 -115 3 -210 8 -210 4 0 6 86 4 191 -3 179 -2 190 15 187
17 -3 18 -23 18 -302 l0 -298 39 -34 c36 -31 44 -33 120 -36 80 -3 81 -3 84
-30 3 -28 3 -28 -60 -28 -102 1 -146 14 -186 53 -34 34 -35 39 -33 99 1 35 4
72 8 83 5 18 4 19 -12 5 -10 -8 -31 -33 -47 -54 -27 -37 -28 -44 -28 -153 0
-122 13 -173 48 -192 12 -6 78 -11 156 -11 l136 0 0 55 0 55 -67 0 c-96 0
-138 15 -189 65 -46 46 -63 88 -47 113 17 28 34 26 27 -3 -5 -21 0 -33 27 -62
53 -55 77 -63 184 -63 l95 0 0 44 c0 53 -5 56 -110 56 -75 0 -79 1 -104 31
l-26 31 0 247 c0 136 3 251 6 254 4 3 25 -9 47 -28 36 -31 47 -35 97 -35 59 0
80 -11 80 -44 0 -16 -3 -17 -12 -8 -7 7 -42 12 -85 12 l-73 0 0 -54 c0 -62 3
-64 94 -75 46 -5 54 -11 88 -56 l38 -50 0 -317 c0 -205 4 -318 10 -318 7 0 10
152 10 438 l0 437 92 86 93 86 3 122 c2 69 0 127 -6 134 -16 19 -24 75 -17
108 9 42 25 19 25 -37 0 -32 8 -49 36 -83 48 -56 55 -46 10 14 -48 63 -48 102
-1 158 19 22 35 44 35 48 0 19 -54 69 -75 69 -14 0 -34 -13 -49 -31 -30 -35
-30 -36 -11 -69 8 -14 14 -52 15 -85 0 -33 7 -73 15 -89 10 -20 15 -59 15
-129 l0 -101 -97 -92 -97 -91 -6 -114 -5 -114 -19 28 c-15 22 -19 45 -18 113
1 54 6 91 15 104 14 20 95 92 161 143 l37 29 -5 101 c-13 249 -13 247 -62 298
l-45 45 56 53 56 53 60 -4 c32 -2 59 -1 59 4 0 4 -33 8 -73 8 -72 0 -73 -1
-112 -40z"/>
<path d="M1250 2075 c7 -8 19 -15 26 -15 8 0 14 7 14 15 0 10 -10 15 -26 15
-22 0 -25 -2 -14 -15z"/>
<path d="M1330 2030 l0 -50 55 0 55 0 0 50 0 50 -55 0 -55 0 0 -50z"/>
<path d="M1072 1985 c-48 -48 -78 -82 -67 -77 11 6 36 26 54 46 19 20 42 36
50 36 9 0 -12 -28 -49 -65 -60 -61 -64 -67 -64 -114 -1 -41 4 -56 30 -88 30
-37 33 -38 105 -41 70 -3 76 -1 101 25 26 27 27 31 29 176 3 135 1 148 -17
162 -10 8 -23 15 -29 15 -5 0 -20 3 -33 6 -18 5 -38 -9 -110 -81z"/>
<path d="M3355 2049 l-29 -18 3 -131 c3 -159 -2 -170 -85 -170 l-52 0 -7 -42
c-5 -25 -19 -57 -36 -76 -16 -18 -29 -40 -29 -50 1 -73 40 -83 89 -22 43 54
75 74 106 66 40 -10 30 -36 -46 -112 -40 -41 -68 -77 -65 -83 11 -17 113 -13
142 5 51 34 54 51 54 351 0 153 -4 283 -8 289 -5 8 -16 5 -37 -7z"/>
<path d="M3470 2051 c0 -6 4 -13 10 -16 6 -3 7 1 4 9 -7 18 -14 21 -14 7z"/>
<path d="M3490 2016 c0 -2 8 -10 18 -17 15 -13 16 -12 3 4 -13 16 -21 21 -21
13z"/>
<path d="M4468 1913 c-103 -98 -102 -95 -106 -470 -2 -203 -7 -323 -13 -323
-10 0 -35 25 -82 85 -16 19 -33 35 -38 35 -5 0 -9 -23 -9 -52 0 -48 3 -54 54
-108 l54 -57 34 46 33 46 5 315 c5 303 6 316 27 351 28 44 152 164 161 155 3
-4 -12 -24 -35 -46 -23 -21 -54 -62 -69 -91 l-27 -54 -5 -315 -4 -315 -33 -35
c-18 -19 -45 -53 -59 -74 -26 -39 -26 -40 -26 -238 0 -269 -5 -277 -161 -278
l-97 0 -36 -42 c-20 -24 -43 -50 -51 -59 -12 -13 -15 -53 -15 -202 0 -118 4
-187 10 -187 6 0 10 68 10 184 l0 184 48 51 48 51 65 0 c78 0 92 -9 159 -97
l50 -66 0 -153 0 -154 55 0 c52 0 55 1 55 26 0 14 4 23 10 19 6 -3 10 -15 10
-26 0 -10 7 -19 15 -19 12 0 15 14 15 63 0 53 -4 67 -22 83 l-21 19 17 -27
c28 -43 15 -50 -34 -17 -84 56 -80 48 -80 188 l0 126 61 63 62 62 119 0 119 0
-3 -28 c-3 -27 -4 -27 -94 -32 -89 -5 -92 -6 -135 -44 -24 -22 -49 -47 -54
-55 -6 -9 -10 -59 -10 -111 l0 -95 34 -3 c60 -6 81 4 81 41 0 17 9 50 19 72
25 55 98 135 123 135 16 0 11 -8 -25 -44 -73 -70 -90 -119 -103 -298 -5 -71
-4 -98 5 -98 6 0 11 17 11 40 0 21 10 79 22 127 l22 88 80 78 81 77 3 157 c2
93 0 159 -6 165 -7 7 -10 -42 -11 -142 0 -101 -4 -157 -12 -166 -20 -24 -129
-116 -129 -109 0 3 24 32 54 63 62 66 70 86 61 153 l-7 49 -154 0 -155 0 -42
39 -42 40 -3 136 c-2 75 -1 152 2 170 4 21 26 55 56 89 l50 54 0 256 c0 164 4
256 10 256 6 0 10 25 10 55 0 70 31 133 95 195 l46 45 107 -1 c67 0 116 -5
130 -13 28 -15 36 -10 27 18 -15 48 -27 51 -196 51 l-160 0 -61 -57z m72 24
c0 -1 -23 -25 -52 -52 -29 -28 -46 -41 -38 -30 34 49 90 100 90 82z"/>
<path d="M1513 1943 c-25 -9 -13 -23 21 -23 50 0 86 -38 86 -90 0 -37 2 -40
19 -30 41 22 75 12 121 -35 44 -45 45 -47 51 -128 l6 -82 1 83 2 83 -50 53
c-27 29 -50 62 -50 73 0 11 -16 38 -36 61 -35 41 -37 42 -97 41 -34 0 -68 -3
-74 -6z"/>
<path d="M3495 1920 c-18 -20 -20 -37 -21 -214 l-1 -191 6 176 c5 153 9 180
24 197 10 11 17 28 15 37 -3 15 -6 14 -23 -5z"/>
<path d="M5093 1906 c-25 -31 -23 -62 6 -106 l16 -25 3 37 c2 21 2 57 0 80
l-3 43 -22 -29z"/>
<path d="M932 1908 c-7 -7 -12 -41 -12 -88 0 -75 0 -77 37 -111 21 -18 28 -23
17 -9 -12 14 -27 35 -33 47 -14 28 -14 126 0 140 6 6 10 16 8 23 -3 8 -8 7
-17 -2z"/>
<path d="M21 1825 c-1 -44 -6 -113 -10 -152 -7 -73 1 -93 19 -50 7 14 7 69 2
152 -8 118 -9 123 -11 50z"/>
<path d="M1340 1717 l0 -182 30 -37 c42 -51 80 -55 132 -11 36 30 46 33 102
33 52 0 66 4 84 23 27 28 27 39 4 60 -35 32 -63 21 -150 -58 -45 -41 -89 -75
-97 -75 -9 0 -32 15 -53 34 -37 34 -37 35 -40 125 -3 78 -1 95 17 124 11 18
32 39 46 47 21 11 25 21 25 57 l0 43 -50 0 -50 0 0 -183z"/>
<path d="M3880 1825 c0 -41 3 -75 6 -75 13 0 65 42 74 60 8 14 6 29 -4 55 -13
29 -20 35 -45 35 l-31 0 0 -75z"/>
<path d="M1500 1815 c0 -66 -3 -77 -25 -99 -18 -18 -25 -36 -25 -64 0 -32 -5
-41 -26 -51 -41 -18 -28 -45 25 -49 39 -3 48 1 82 34 l39 38 0 114 c0 125 -8
152 -45 152 -24 0 -25 -2 -25 -75z"/>
<path d="M4630 1802 c-62 -62 -66 -132 -9 -196 56 -65 131 -70 194 -15 59 53
69 127 24 190 -28 40 -69 59 -125 59 -40 0 -51 -5 -84 -38z"/>
<path d="M4222 1793 c-29 -23 -36 -25 -59 -14 -37 17 -48 1 -46 -67 4 -98 -3
-116 -72 -192 l-65 -70 0 -263 c0 -315 7 -297 -120 -297 -72 0 -87 -3 -107
-22 l-23 -21 0 34 c0 52 13 59 111 59 66 0 88 3 92 14 3 8 -1 17 -9 20 -21 8
-17 26 6 26 21 0 27 15 10 25 -6 3 -22 -3 -36 -14 -22 -17 -41 -21 -105 -21
-43 0 -81 -5 -84 -10 -3 -6 -3 -65 1 -131 l7 -122 113 7 c92 6 118 5 143 -8
40 -21 48 -20 76 9 23 22 25 31 25 123 l0 98 -34 33 c-52 51 -58 74 -54 219
l3 129 128 124 127 124 0 106 c0 68 4 109 12 117 22 22 -7 11 -40 -15z"/>
<path d="M4565 1759 c-4 -6 -5 -12 -2 -15 2 -3 7 2 10 11 7 17 1 20 -8 4z"/>
<path d="M4553 1695 c0 -22 2 -30 4 -17 2 12 2 30 0 40 -3 9 -5 -1 -4 -23z"/>
<path d="M2282 1643 l-2 -81 40 -38 c36 -34 40 -43 40 -87 0 -41 5 -55 33 -88
l34 -39 6 -227 c4 -124 7 -419 7 -655 0 -314 3 -428 11 -428 9 0 11 118 9 448
-2 450 0 514 13 543 5 9 -1 34 -12 60 -18 39 -21 65 -21 217 l0 172 -61 58
c-34 31 -65 56 -70 55 -7 -2 -12 28 -22 137 -2 19 -5 -2 -5 -47z"/>
<path d="M3084 1689 c-27 -28 -29 -36 -32 -126 l-4 -95 33 -34 c46 -48 59 -43
15 6 -35 39 -36 42 -36 119 0 72 2 81 30 116 29 36 34 45 27 45 -2 0 -16 -14
-33 -31z"/>
<path d="M3923 1680 c-32 -29 -43 -47 -42 -67 0 -15 3 -22 6 -15 3 7 20 19 39
27 33 14 50 45 42 79 -2 12 -14 6 -45 -24z"/>
<path d="M4896 1690 c-4 -19 -19 -54 -31 -78 -29 -52 -14 -45 21 10 17 26 24
50 22 71 l-3 32 -9 -35z"/>
<path d="M718 1630 c-4 -37 -12 -58 -32 -79 l-26 -27 0 -245 c0 -205 3 -248
16 -267 8 -12 19 -22 25 -22 5 0 0 9 -11 20 -19 19 -20 33 -20 263 0 220 2
245 18 260 16 15 17 3 14 -233 l-3 -248 73 -60 c41 -33 90 -78 111 -101 l37
-41 0 -153 0 -154 -30 -26 c-16 -15 -30 -24 -30 -20 0 4 -16 -8 -35 -27 l-35
-34 0 -133 c0 -107 3 -133 14 -133 21 0 26 23 19 94 -9 94 1 123 62 195 l54
64 4 161 c2 89 7 171 11 183 7 19 -9 39 -108 143 -90 94 -117 129 -122 157 -4
20 -5 144 -2 275 3 131 4 238 3 238 -1 0 -5 -23 -7 -50z"/>
<path d="M1233 1635 c-26 -32 -32 -35 -81 -35 l-54 0 4 -114 c1 -63 6 -118 10
-122 4 -3 39 21 77 55 l70 62 3 94 c2 52 2 95 1 95 -1 0 -15 -16 -30 -35z"/>
<path d="M1000 1586 c0 -54 1 -57 23 -54 34 5 36 56 2 88 l-25 23 0 -57z"/>
<path d="M2779 1621 l-24 -20 28 -28 c15 -15 27 -23 27 -16 0 6 -7 13 -15 17
-20 7 -19 25 2 48 21 24 11 23 -18 -1z"/>
<path d="M426 1623 c-75 -4 -80 -7 -198 -100 l-68 -54 0 -67 c1 -89 22 -134
109 -226 66 -70 70 -76 64 -110 -5 -31 -1 -42 22 -67 33 -34 45 -36 76 -11
l22 19 -28 39 c-16 21 -76 87 -134 146 l-106 108 -3 76 -4 76 51 48 c29 27 73
63 99 80 42 28 54 31 110 29 37 -1 67 2 74 9 9 9 9 12 -2 10 -8 -1 -46 -4 -84
-5z"/>
<path d="M4606 1567 c3 -10 9 -15 12 -12 3 3 0 11 -7 18 -10 9 -11 8 -5 -6z"/>
<path d="M2370 1566 c0 -4 32 -26 70 -51 39 -25 70 -49 70 -53 0 -5 27 -38 60
-74 60 -66 80 -101 80 -141 0 -12 9 -39 20 -60 13 -23 16 -37 8 -37 -13 0
-115 102 -140 140 -16 24 -17 22 -17 -64 l-1 -88 95 -92 c102 -98 111 -118 70
-154 l-25 -22 0 -435 0 -435 40 0 40 0 0 185 0 185 -35 0 c-34 0 -35 1 -35 40
0 38 2 40 30 40 17 0 33 6 35 13 2 6 6 132 7 280 3 237 1 267 -13 267 -20 0
-99 68 -99 86 0 7 11 21 25 30 25 16 26 15 71 -26 25 -23 48 -39 51 -36 3 3
-14 23 -38 45 l-44 39 -5 128 -5 128 -38 8 c-21 4 -58 24 -81 43 -23 19 -65
44 -92 56 -27 12 -61 30 -76 41 -16 11 -28 17 -28 14z"/>
<path d="M1680 1495 c-49 -49 -71 -65 -92 -65 -32 0 -72 -35 -62 -53 21 -36
29 -40 34 -16 5 20 13 25 47 27 35 3 51 13 108 66 62 59 66 65 54 85 -8 11
-16 21 -19 21 -3 0 -35 -29 -70 -65z"/>
<path d="M4201 1509 l-43 -48 3 -306 c3 -257 6 -303 17 -288 9 12 12 33 7 63
-3 25 -8 68 -11 95 l-6 50 21 -25 c28 -33 44 -93 37 -139 -3 -20 -5 -42 -6
-48 0 -7 -13 -19 -29 -27 -36 -19 -51 -61 -51 -143 0 -91 -9 -103 -75 -103
-50 0 -55 -2 -55 -22 0 -22 2 -23 72 -18 l73 5 5 118 c4 103 8 121 24 133 24
17 42 18 52 2 4 -7 -2 -18 -14 -26 -20 -13 -22 -23 -22 -118 0 -110 8 -125 43
-86 15 16 17 47 17 220 l0 201 -45 51 -45 51 0 176 0 176 40 43 c22 24 40 48
40 54 0 14 1 14 -49 -41z"/>
<path d="M2868 1491 c-21 -22 -38 -43 -38 -46 0 -16 110 -131 172 -178 l74
-57 110 0 c80 0 116 -4 130 -14 14 -11 36 -13 84 -9 61 6 85 17 74 35 -3 4
-90 8 -193 8 l-188 0 -39 28 c-55 40 -122 116 -130 146 -3 15 -9 49 -13 78
l-6 51 -37 -42z"/>
<path d="M4725 1510 l-70 -6 65 -2 c36 -1 72 3 80 8 8 5 11 9 5 8 -5 -1 -41
-4 -80 -8z"/>
<path d="M2318 1396 c3 -101 3 -104 -22 -124 -16 -12 -26 -30 -26 -46 0 -25 3
-26 50 -26 l50 0 0 58 c0 46 -4 63 -20 77 -16 14 -19 29 -18 81 1 35 -2 68 -7
73 -7 7 -9 -27 -7 -93z"/>
<path d="M5108 1485 c-3 -5 -6 -26 -6 -45 0 -55 -16 -83 -86 -158 l-66 -69 0
-151 c0 -83 -3 -157 -6 -166 -3 -9 -17 -16 -30 -16 -15 0 -24 -6 -24 -15 0
-16 20 -19 56 -9 21 6 22 12 25 171 l4 166 73 66 73 67 -3 85 c-2 46 -6 80
-10 74z m-28 -170 c-13 -14 -28 -25 -34 -25 -5 0 3 13 19 30 16 16 31 28 33
25 3 -3 -5 -16 -18 -30z"/>
<path d="M1743 1381 l-101 -96 -4 -87 c-3 -77 -6 -90 -29 -115 -46 -50 -47
-56 -42 -259 l6 -192 -55 -59 c-73 -77 -78 -93 -32 -93 26 0 43 8 65 29 l29
29 0 241 0 241 35 39 c19 21 35 48 35 60 0 13 17 40 40 62 38 38 40 43 40 102
0 59 2 65 35 97 l35 34 0 -81 c0 -72 -3 -84 -29 -119 -15 -22 -40 -48 -55 -57
-19 -13 -26 -26 -26 -49 0 -21 -9 -42 -27 -61 -23 -23 -28 -36 -26 -74 2 -67
14 -70 61 -19 30 33 42 54 42 76 0 27 2 30 19 20 11 -5 22 -10 25 -10 3 0 6
33 6 73 0 68 3 77 35 123 33 47 35 53 35 134 0 47 -4 90 -8 96 -4 7 -44 -24
-109 -85z"/>
<path d="M4977 1384 l-87 -93 2 -178 c3 -150 5 -178 18 -178 21 0 25 49 6 65
-13 10 -16 35 -16 116 0 56 5 115 11 131 6 15 46 65 90 109 48 50 79 90 79
103 0 11 -3 21 -7 20 -5 0 -47 -43 -96 -95z"/>
<path d="M1018 1453 c-14 -4 -18 -15 -18 -57 0 -29 6 -60 13 -70 13 -18 15
-18 40 -1 25 16 26 19 12 38 -8 12 -15 38 -15 59 0 21 -3 37 -7 37 -5 -1 -16
-3 -25 -6z"/>
<path d="M2760 1307 c0 -91 3 -106 20 -122 13 -12 25 -15 37 -9 10 4 65 11
123 14 l105 5 -62 38 c-34 21 -88 66 -120 101 -32 35 -68 66 -80 70 -23 7 -23
7 -23 -97z"/>
<path d="M1208 1326 c-88 -73 -96 -94 -100 -278 -1 -86 1 -160 5 -165 5 -4 15
1 23 11 10 15 14 55 14 158 0 150 5 171 57 220 72 68 177 64 248 -11 l30 -32
3 -150 c2 -82 8 -149 13 -149 5 0 9 5 9 11 0 6 2 74 5 152 7 176 2 208 -38
247 -30 29 -34 30 -123 30 l-92 0 -54 -44z"/>
<path d="M2 1300 c0 -19 2 -27 5 -17 2 9 2 25 0 35 -3 9 -5 1 -5 -18z"/>
<path d="M4083 1303 c-20 -27 -23 -44 -23 -128 l0 -96 44 -47 c43 -46 44 -46
39 -17 -3 17 -12 37 -19 45 -9 11 -14 55 -16 145 l-3 130 -22 -32z"/>
<path d="M2472 1207 l4 -92 62 -74 62 -74 0 -167 0 -167 -30 -38 -30 -38 0
-278 c0 -241 2 -279 15 -279 13 0 15 38 15 279 l0 279 35 51 c35 50 35 51 35
163 0 108 1 113 27 140 l27 28 -60 53 c-32 28 -78 71 -101 93 l-43 41 0 87 c0
57 -4 86 -11 86 -8 0 -10 -29 -7 -93z"/>
<path d="M3417 1284 c-9 -10 2 -24 19 -24 8 0 14 7 14 15 0 15 -21 21 -33 9z"/>
<path d="M1268 1235 c-47 -27 -58 -62 -58 -190 0 -70 4 -115 10 -115 6 0 10
41 10 103 0 112 6 127 59 140 30 7 86 -15 99 -40 5 -10 12 -67 14 -126 4 -96
3 -109 -13 -118 -29 -15 -112 -11 -138 8 -14 9 -21 11 -17 5 5 -8 0 -12 -12
-12 -13 0 -24 -12 -33 -36 -9 -24 -45 -63 -108 -117 -52 -45 -97 -88 -99 -96
-3 -8 13 1 35 19 36 30 46 34 95 31 52 -2 57 0 104 42 48 44 49 45 36 78 -10
29 -10 36 3 45 15 11 41 10 75 -4 8 -3 31 -6 50 -7 19 -1 42 -3 50 -6 12 -3
15 21 15 168 l0 173 -31 31 c-38 38 -103 48 -146 24z"/>
<path d="M5053 1212 c-32 -31 -41 -49 -46 -87 -11 -75 -9 -207 3 -200 6 4 10
54 10 118 l0 111 47 48 c56 57 43 65 -14 10z"/>
<path d="M130 1186 c0 -53 2 -57 55 -114 48 -52 55 -65 55 -100 0 -31 5 -45
22 -56 25 -18 98 -22 98 -6 0 5 -16 31 -36 57 -30 39 -35 52 -29 80 6 32 2 38
-74 113 -44 44 -83 80 -86 80 -3 0 -5 -24 -5 -54z"/>
<path d="M4610 1085 c0 -106 1 -115 22 -129 24 -17 59 -20 119 -10 36 6 37 7
42 62 l6 55 -51 56 c-38 42 -62 59 -94 67 l-44 12 0 -113z"/>
<path d="M5075 1164 l-36 -39 3 -260 3 -261 35 -43 c18 -24 36 -39 38 -32 2 6
-10 27 -27 47 l-31 35 -2 232 c-2 295 -4 275 33 313 18 19 30 37 26 40 -4 4
-23 -11 -42 -32z"/>
<path d="M3453 1132 c-9 -5 19 -39 87 -107 81 -81 100 -96 106 -81 5 13 -15
39 -82 107 -49 49 -91 89 -94 89 -3 0 -11 -4 -17 -8z"/>
<path d="M1287 1117 c-15 -10 -17 -26 -15 -97 3 -85 3 -85 31 -88 46 -6 57 12
57 92 0 39 -4 76 -8 82 -12 19 -47 25 -65 11z"/>
<path d="M2995 1120 l-160 -5 225 -5 c264 -6 256 -3 371 -119 53 -54 79 -88
87 -117 15 -53 16 -407 1 -436 -6 -11 -8 -22 -6 -25 3 -3 13 9 21 26 13 24 16
66 16 218 0 103 -5 206 -11 228 -11 42 -115 159 -193 216 -43 32 -15 31 -351
19z"/>
<path d="M5098 1046 c-2 -40 0 -52 10 -49 14 6 17 103 3 103 -5 0 -11 -24 -13
-54z"/>
<path d="M100 1049 c0 -41 6 -50 76 -126 66 -73 80 -83 118 -88 50 -8 106 1
106 17 0 6 -15 7 -39 3 -91 -15 -161 32 -161 109 0 43 -5 50 -77 110 l-23 19
0 -44z"/>
<path d="M3169 1059 c83 -10 132 -36 180 -98 46 -59 51 -90 51 -290 l0 -186
-126 -130 c-69 -71 -130 -140 -135 -153 -12 -32 -12 -202 1 -202 6 0 10 40 10
99 l0 99 76 81 c42 45 94 95 115 112 76 60 52 19 -49 -85 l-102 -105 0 -102
c0 -56 3 -99 7 -96 3 4 6 42 5 84 l-2 77 129 126 c100 97 131 134 141 165 8
27 11 103 8 230 -3 218 -10 240 -93 313 -60 53 -119 72 -214 71 l-76 -2 74 -8z"/>
<path d="M2345 1020 c-11 -5 -72 -9 -135 -9 -153 -1 -160 -6 -160 -107 l0 -74
104 0 c57 0 111 3 120 6 11 4 16 19 16 52 0 42 5 51 47 94 46 47 48 55 8 38z
m-147 -52 c19 -19 15 -66 -7 -78 -31 -16 -49 -12 -67 15 -24 36 -6 75 34 75
15 0 33 -5 40 -12z"/>
<path d="M2861 985 l-31 -36 0 -474 0 -475 25 0 25 0 0 389 c0 373 -1 389 -20
414 -23 29 -26 57 -7 57 7 0 27 -15 45 -33 l32 -33 0 -223 c0 -174 3 -222 13
-219 8 3 13 35 15 103 1 54 8 105 14 112 7 8 35 13 78 13 64 0 69 2 108 38 36
34 42 45 42 80 0 38 -7 49 -64 109 l-64 68 -108 5 c-109 5 -109 5 -112 31 -2
17 6 37 23 58 l27 31 124 0 124 0 63 -57 c35 -32 78 -74 95 -94 l32 -37 0
-158 c0 -106 4 -154 10 -144 5 8 10 85 10 170 0 142 -2 159 -24 205 -13 29
-44 69 -71 93 l-48 42 -162 0 -163 0 -31 -35z m219 -261 c19 -50 -16 -109 -62
-102 -20 3 -23 9 -26 52 -4 66 1 76 43 76 29 0 37 -5 45 -26z"/>
<path d="M794 920 l71 -69 0 -165 c0 -90 3 -162 8 -159 4 2 7 76 7 165 l0 160
-72 69 c-40 38 -76 69 -79 69 -4 0 25 -31 65 -70z"/>
<path d="M5090 818 c0 -129 3 -168 15 -184 8 -10 15 -14 15 -7 0 6 -4 15 -10
18 -6 4 -10 67 -10 156 0 98 4 148 10 144 15 -9 12 4 -5 21 -13 14 -15 -3 -15
-148z"/>
<path d="M0 965 c0 -4 18 -24 39 -45 22 -21 48 -58 59 -82 11 -24 49 -72 86
-108 l66 -64 0 -68 c0 -37 -5 -70 -10 -73 -6 -4 -10 12 -10 40 0 62 -16 89
-93 160 -48 45 -68 71 -76 101 -6 22 -22 51 -36 64 -30 28 -33 13 -5 -32 16
-26 20 -51 20 -113 0 -44 4 -95 10 -114 11 -40 47 -81 70 -81 9 0 38 -20 64
-44 46 -42 48 -46 57 -117 l9 -74 -55 -51 c-30 -28 -55 -54 -55 -57 0 -17 79
9 106 35 l31 29 13 -33 c8 -18 24 -47 37 -64 19 -26 23 -43 23 -102 0 -40 3
-72 8 -72 4 0 6 38 5 84 -2 80 -4 87 -38 131 l-35 47 -1 151 c0 84 -4 176 -8
205 -7 50 -12 57 -88 127 -47 44 -84 86 -88 102 -3 14 -18 40 -31 56 -29 35
-74 72 -74 62z"/>
<path d="M710 955 c0 -5 24 -33 53 -62 l52 -54 5 -157 6 -157 2 158 2 159 -60
61 c-33 34 -60 58 -60 52z"/>
<path d="M2353 921 c-31 -32 -32 -111 -3 -148 19 -24 20 -41 20 -287 l-1 -261
-27 -32 c-50 -59 -78 -69 -179 -63 l-90 5 -87 82 c-85 80 -115 100 -102 67 3
-9 6 -35 6 -58 0 -51 36 -93 115 -134 45 -23 59 -25 148 -23 l98 2 35 -35 c20
-20 46 -36 59 -36 23 0 23 0 30 193 3 105 5 318 3 473 l-3 280 -22 -25z"/>
<path d="M3039 941 l84 -6 60 -68 c60 -66 61 -69 67 -140 l7 -72 2 72 1 72
-56 65 c-30 36 -64 70 -74 76 -10 5 -54 9 -97 8 l-78 -2 84 -5z"/>
<path d="M594 836 l-91 -104 -5 -218 c-3 -121 -2 -227 3 -236 5 -9 27 -38 49
-63 40 -46 40 -47 40 -131 0 -77 2 -84 20 -84 18 0 20 7 20 68 0 38 3 137 7
220 6 149 6 152 -15 152 -11 0 -30 12 -41 26 -18 23 -21 41 -21 134 0 91 3
109 18 123 25 23 64 21 96 -4 31 -25 34 -12 5 25 -29 37 -76 36 -114 -4 l-28
-29 7 -196 c7 -192 6 -195 -14 -195 -19 0 -20 5 -20 207 l0 207 68 63 c57 54
72 63 105 63 20 0 37 4 37 9 0 16 -22 71 -28 71 -4 -1 -48 -47 -98 -104z"/>
<path d="M1742 900 c-18 -22 -49 -47 -68 -55 -33 -14 -34 -15 -34 -74 l0 -61
53 0 c47 0 56 3 75 30 19 25 22 42 22 115 0 47 -3 85 -7 85 -5 0 -23 -18 -41
-40z"/>
<path d="M4092 838 c-2 -103 -3 -107 -29 -128 -18 -14 -37 -20 -55 -18 -33 5
-35 -2 -10 -25 23 -21 75 -22 91 -3 8 9 11 57 8 147 -3 133 -3 133 -5 27z"/>
<path d="M3566 893 c4 -10 10 -48 12 -85 4 -79 22 -92 22 -18 0 48 -21 120
-36 120 -3 0 -3 -8 2 -17z"/>
<path d="M1485 880 c-3 -5 -5 -47 -4 -92 1 -46 2 -103 3 -126 0 -44 0 -44 18
-22 15 18 18 42 18 136 0 93 -3 114 -14 114 -8 0 -18 -4 -21 -10z"/>
<path d="M1004 835 c-25 -61 -17 -70 29 -30 23 21 26 28 17 45 -16 29 -29 25
-46 -15z"/>
<path d="M3693 805 c0 -38 2 -53 4 -32 2 20 2 52 0 70 -2 17 -4 1 -4 -38z"/>
<path d="M2516 838 c-14 -20 -16 -73 -16 -430 0 -265 3 -408 10 -408 6 0 10
102 10 286 l0 285 30 38 c30 37 31 39 28 142 -3 98 -4 104 -25 107 -13 2 -27
-5 -37 -20z"/>
<path d="M740 846 c0 -2 7 -7 16 -10 8 -3 12 -2 9 4 -6 10 -25 14 -25 6z"/>
<path d="M5003 765 c0 -44 2 -61 4 -37 2 23 2 59 0 80 -2 20 -4 1 -4 -43z"/>
<path d="M770 805 c-1 -11 -1 -79 0 -151 l1 -131 -36 -43 c-30 -36 -36 -49
-31 -73 3 -16 6 -114 6 -218 0 -119 4 -189 10 -189 6 0 10 20 10 44 0 47 8 58
44 60 14 1 22 9 24 24 2 12 -1 22 -7 22 -6 0 -11 -4 -11 -10 0 -5 -13 -10 -30
-10 l-30 0 0 134 c0 74 -3 141 -6 150 -3 9 10 32 35 59 l41 44 -1 134 c0 74
-4 143 -9 154 l-9 20 -1 -20z"/>
<path d="M3642 808 c-17 -17 -16 -78 2 -78 9 0 15 15 18 45 3 47 0 53 -20 33z"/>
<path d="M4895 800 c-4 -6 10 -10 34 -10 23 0 41 5 41 10 0 6 -15 10 -34 10
-19 0 -38 -4 -41 -10z"/>
<path d="M1358 763 c-8 -10 -18 -29 -21 -43 -3 -14 -29 -47 -57 -75 -50 -49
-51 -50 -125 -53 -71 -4 -76 -6 -106 -39 -37 -43 -31 -55 11 -19 30 25 37 26
144 26 l113 0 56 59 c47 49 57 66 57 94 0 25 7 39 23 50 21 15 20 16 -29 16
-36 1 -55 -4 -66 -16z"/>
<path d="M2185 753 c11 -2 30 -6 42 -8 12 -3 35 -19 52 -36 29 -28 31 -36 31
-100 l0 -69 -53 -55 c-34 -35 -48 -56 -40 -59 20 -8 15 -44 -6 -56 -11 -5 -33
-10 -49 -10 -24 0 -32 -6 -40 -30 -16 -44 -53 -49 -102 -15 -42 29 -54 68 -24
79 13 5 10 13 -19 45 -45 50 -57 73 -67 130 -6 32 -7 16 -4 -54 3 -55 7 -110
10 -123 3 -13 46 -64 95 -113 l91 -89 62 0 c61 0 64 1 100 41 21 22 43 38 50
36 8 -3 10 53 6 218 -5 219 -5 224 -29 249 -21 22 -33 26 -75 25 -28 -1 -42
-3 -31 -6z"/>
<path d="M1213 699 c-49 -47 -54 -49 -108 -49 -42 0 -65 -6 -86 -21 -25 -18
-29 -26 -28 -67 1 -26 3 -38 6 -27 3 11 21 37 41 58 31 32 42 37 82 37 42 0
50 4 100 55 68 69 63 80 -7 14z"/>
<path d="M2016 690 c-41 -44 -46 -54 -46 -95 0 -38 5 -52 29 -76 17 -17 40
-29 55 -29 30 0 33 17 11 60 -38 73 52 134 110 75 19 -18 25 -35 25 -67 0 -38
-5 -47 -52 -91 -55 -51 -54 -52 23 -31 9 3 38 27 63 54 42 44 46 54 46 97 -1
26 -6 58 -13 70 -19 34 -63 64 -102 69 -111 14 -100 16 -149 -36z"/>
<path d="M4880 691 c0 -42 3 -49 22 -54 31 -9 38 -1 40 46 l1 42 6 -48 c3 -26
11 -49 16 -50 13 -3 18 37 10 79 -6 33 -8 34 -50 34 l-45 0 0 -49z"/>
<path d="M414 495 c0 -126 2 -177 3 -112 2 65 2 168 0 230 -1 62 -3 9 -3 -118z"/>
<path d="M590 602 c0 -97 2 -111 20 -127 20 -18 21 -18 50 16 26 30 29 42 30
99 0 56 -3 69 -25 93 -15 15 -36 27 -50 27 l-25 0 0 -108z"/>
<path d="M3572 688 c6 -18 28 -21 28 -4 0 9 -7 16 -16 16 -9 0 -14 -5 -12 -12z"/>
<path d="M3630 600 c0 -84 -3 -101 -17 -109 -16 -9 -16 -10 -2 -11 39 0 55 57
44 155 -10 98 -25 78 -25 -35z"/>
<path d="M3680 685 c0 -8 5 -15 10 -15 6 0 10 7 10 15 0 8 -4 15 -10 15 -5 0
-10 -7 -10 -15z"/>
<path d="M3720 685 c0 -12 17 -15 95 -15 78 0 95 3 95 15 0 12 -17 15 -95 15
-78 0 -95 -3 -95 -15z"/>
<path d="M360 478 l0 -214 45 -44 45 -44 0 -88 c0 -52 4 -88 10 -88 6 0 10 38
10 93 l0 93 -45 44 -45 44 0 202 c0 125 -4 205 -10 209 -7 4 -10 -68 -10 -207z"/>
<path d="M3234 585 l-61 -65 -75 0 c-44 0 -79 -5 -86 -12 -7 -7 -12 -44 -12
-98 0 -83 -1 -87 -30 -115 -27 -26 -30 -35 -30 -93 0 -60 1 -63 23 -60 20 3
23 10 27 68 5 68 23 103 98 198 42 52 68 68 88 51 24 -20 16 -38 -51 -109 -35
-37 -67 -80 -71 -95 -4 -15 -4 -57 -2 -95 7 -89 0 -100 -62 -100 -53 0 -65 -9
-55 -40 6 -18 15 -20 81 -20 l74 0 0 105 c0 67 5 118 14 138 7 18 52 74 99
123 l86 90 3 97 c2 53 3 97 3 97 0 0 -28 -30 -61 -65z"/>
<path d="M1644 626 c-3 -8 -4 -25 -2 -38 3 -20 9 -23 51 -26 l47 -3 0 40 0 41
-45 0 c-30 0 -47 -5 -51 -14z"/>
<path d="M3578 562 c3 -54 -1 -89 -11 -113 -8 -18 -83 -105 -166 -191 l-151
-158 0 -50 c0 -27 5 -50 10 -50 6 0 10 20 10 44 0 30 5 46 15 50 13 4 13 2 5
-14 -5 -10 -10 -32 -10 -49 0 -31 0 -31 55 -31 61 0 59 -4 55 88 -2 51 0 55
39 93 57 53 31 49 -37 -6 -52 -43 -72 -54 -72 -37 0 4 50 57 110 117 156 156
159 161 167 284 5 83 4 101 -8 101 -11 0 -13 -16 -11 -78z"/>
<path d="M3720 601 l0 -40 105 -3 105 -3 0 43 0 42 -105 0 -105 0 0 -39z"/>
<path d="M3693 595 c0 -22 2 -30 4 -17 2 12 2 30 0 40 -3 9 -5 -1 -4 -23z"/>
<path d="M2618 595 c-16 -21 -18 -53 -18 -309 0 -184 4 -286 10 -286 6 0 10
89 10 246 0 153 4 253 11 265 5 11 9 39 7 63 l-3 44 -17 -23z"/>
<path d="M1 578 c-1 -16 4 -28 9 -28 12 0 12 8 0 35 -8 18 -9 17 -9 -7z"/>
<path d="M5000 576 c0 -13 12 -38 26 -56 25 -29 25 -32 10 -49 -16 -18 -14
-21 31 -60 l48 -41 3 35 c3 31 -3 41 -47 84 -35 34 -51 58 -51 75 0 14 -4 28
-10 31 -6 3 -10 -5 -10 -19z"/>
<path d="M4895 580 c3 -5 8 -10 11 -10 2 0 4 5 4 10 0 6 -5 10 -11 10 -5 0 -7
-4 -4 -10z"/>
<path d="M1360 515 l-72 -65 -88 0 c-91 0 -101 -4 -114 -47 -7 -23 -6 -23 81
-23 80 1 91 3 124 28 51 39 164 172 146 172 -3 0 -37 -29 -77 -65z"/>
<path d="M689 489 l-29 -31 2 -232 2 -231 6 232 5 232 29 30 c17 17 26 31 22
31 -4 0 -21 -14 -37 -31z"/>
<path d="M3671 497 c-13 -21 -12 -21 5 -5 10 10 16 20 13 22 -3 3 -11 -5 -18
-17z"/>
<path d="M1641 478 c-7 -13 -29 -35 -48 -50 -31 -24 -46 -28 -101 -28 -74 0
-121 -18 -157 -62 -21 -25 -25 -40 -25 -98 0 -65 -2 -71 -45 -129 -25 -34 -45
-63 -45 -66 0 -3 12 -5 28 -5 18 0 44 15 77 44 l50 44 1 83 c0 97 6 114 45
134 36 19 72 19 109 0 41 -21 60 -53 60 -102 0 -38 -6 -49 -47 -91 -27 -26
-75 -71 -108 -99 l-60 -52 71 -1 72 0 6 35 c4 22 23 50 52 80 40 39 51 45 87
45 62 0 162 -70 187 -131 9 -21 19 -29 36 -29 13 0 24 4 24 10 0 18 -72 91
-116 116 -23 14 -48 31 -54 39 -7 8 -29 15 -50 15 -56 0 -70 22 -70 108 0 41
-4 72 -10 72 -5 0 -10 11 -10 25 0 23 3 24 72 27 79 3 87 11 74 64 -6 21 -12
24 -50 24 -34 0 -45 -5 -55 -22z"/>
<path d="M3701 466 l-32 -33 45 -38 46 -37 19 23 18 23 27 -29 c28 -30 33 -60
15 -99 -9 -20 -9 -29 1 -41 24 -28 30 -15 30 64 0 70 3 83 25 109 25 30 30 48
19 76 -5 13 -23 16 -93 16 -86 0 -88 -1 -120 -34z"/>
<path d="M4915 485 c-50 -23 -65 -40 -65 -74 0 -17 3 -31 8 -30 13 2 94 98 90
108 -2 6 -15 4 -33 -4z"/>
<path d="M3960 481 c0 -6 4 -13 10 -16 6 -3 7 1 4 9 -7 18 -14 21 -14 7z"/>
<path d="M0 315 c0 -94 4 -165 9 -165 5 0 29 23 53 52 24 28 64 72 91 98 40
39 47 52 47 84 0 30 -7 44 -31 67 -28 26 -38 29 -100 29 l-69 0 0 -165z"/>
<path d="M947 452 c-14 -15 -17 -42 -17 -150 0 -124 -1 -132 -24 -159 -21 -23
-26 -25 -31 -12 -9 24 -1 260 9 284 6 14 2 11 -12 -7 -20 -24 -22 -38 -22
-164 0 -137 0 -138 -27 -168 l-28 -30 28 18 c17 10 36 14 49 10 16 -5 33 6 79
52 l59 58 0 127 c0 109 -2 128 -18 142 -23 21 -25 21 -45 -1z"/>
<path d="M448 342 l4 -86 49 -57 c49 -56 49 -57 49 -128 0 -41 4 -71 10 -71 6
0 10 32 10 75 l0 75 -55 60 -55 60 0 74 c0 41 -3 77 -7 79 -5 3 -7 -34 -5 -81z"/>
<path d="M4860 337 c-31 -28 -83 -77 -118 -108 l-62 -56 0 -86 c0 -103 19
-121 21 -19 2 82 10 124 26 129 9 3 11 -20 6 -96 l-6 -101 46 0 47 0 0 53 c0
41 6 61 25 87 14 19 25 38 25 44 0 5 -14 -9 -31 -32 -30 -40 -49 -53 -49 -32
0 5 16 27 35 49 40 43 42 56 18 83 -13 14 -15 23 -7 35 16 26 30 26 42 -2 19
-42 46 -29 50 23 3 36 6 42 27 42 26 0 35 -17 35 -66 0 -38 4 -41 26 -19 20
20 31 19 43 -4 8 -14 6 -25 -9 -44 -27 -34 -25 -55 5 -69 38 -17 65 12 65 71
0 44 -4 50 -63 109 -56 55 -67 62 -102 62 -34 0 -48 -8 -95 -53z"/>
<path d="M4054 367 c-2 -7 -3 -85 -2 -172 l3 -160 30 0 30 0 5 129 5 128 48
44 49 44 -81 0 c-57 0 -83 -4 -87 -13z"/>
<path d="M1640 291 c0 -75 4 -81 64 -81 23 0 41 -9 61 -30 16 -16 34 -30 40
-30 21 0 102 -78 119 -115 17 -35 36 -47 36 -22 0 17 -25 53 -76 108 -42 46
-74 105 -74 138 0 9 -12 36 -27 59 -27 41 -28 42 -85 42 l-58 0 0 -69z"/>
<path d="M3580 335 l-24 -25 49 -50 c63 -64 86 -64 129 2 17 27 17 29 -1 60
-17 30 -24 33 -74 36 -48 3 -58 0 -79 -23z"/>
<path d="M1080 239 l0 -80 -55 -58 c-30 -32 -55 -61 -55 -64 0 -4 22 -7 50 -7
49 0 50 1 134 88 l85 87 1 58 0 57 -80 0 -80 0 0 -81z"/>
<path d="M4196 295 c-27 -21 -30 -29 -33 -102 -2 -43 0 -105 5 -138 9 -54 10
-46 11 79 1 122 3 137 16 126 12 -10 15 -38 15 -136 0 -170 19 -162 22 9 4
174 22 172 26 -3 4 -175 22 -172 22 4 0 120 -2 136 -21 160 -25 31 -26 32 -63
1z"/>
<path d="M1448 290 c-19 -15 -21 -22 -13 -46 14 -40 57 -45 80 -10 31 47 -22
92 -67 56z"/>
<path d="M3738 196 c-24 -30 -25 -35 -13 -63 15 -35 45 -49 74 -34 11 6 31 11
45 11 21 0 26 5 26 25 0 14 -6 25 -13 25 -7 0 -31 15 -53 34 l-40 34 -26 -32z"/>
<path d="M3520 203 c0 -3 10 -17 22 -30 29 -31 16 -40 -21 -14 l-29 21 -27
-32 -27 -32 41 -34 c27 -22 41 -42 41 -58 0 -22 4 -24 49 -24 48 0 48 0 55 38
10 62 7 70 -31 112 -36 41 -73 67 -73 53z"/>
<path d="M94 93 c-75 -81 -80 -88 -58 -91 17 -2 34 7 58 32 47 50 95 50 142 1
18 -19 35 -35 38 -35 3 0 6 23 6 52 0 47 -3 54 -42 90 -23 21 -46 38 -51 38
-5 0 -47 -39 -93 -87z"/>
<path d="M508 92 c5 -96 10 -108 11 -27 0 39 -3 76 -7 82 -4 7 -6 -18 -4 -55z"/>
<path d="M4915 116 c-11 -16 -15 -41 -13 -72 l3 -47 38 47 c30 36 38 52 33 71
-8 32 -40 33 -61 1z"/>
<path d="M1613 70 c-30 -20 -51 -55 -40 -66 2 -3 53 -3 113 -2 l109 3 -35 38
c-45 49 -99 59 -147 27z"/>
<path d="M3460 36 c0 -25 4 -36 15 -36 9 0 15 9 15 24 0 13 -7 29 -15 36 -13
11 -15 7 -15 -24z"/>
<path d="M3820 40 c-15 -28 -5 -40 36 -40 26 0 34 4 34 18 0 41 -51 57 -70 22z"/>
<path d="M5000 35 c-20 -24 -6 -28 15 -5 10 11 13 20 8 20 -6 0 -16 -7 -23
-15z"/>
<path d="M2144 30 c-50 -20 -35 -30 45 -30 45 0 81 2 81 6 0 8 -67 34 -87 33
-10 0 -28 -4 -39 -9z"/>
<path d="M3695 20 c-18 -20 -17 -20 19 -20 34 0 36 2 26 20 -6 11 -14 20 -19
20 -4 0 -16 -9 -26 -20z"/>
<path d="M137 23 c-15 -14 -6 -23 24 -23 27 0 30 2 19 15 -13 16 -32 19 -43 8z"/>
<path d="M1800 21 c0 -6 4 -13 10 -16 6 -3 7 1 4 9 -7 18 -14 21 -14 7z"/>
<path d="M5100 15 c-10 -12 -10 -15 4 -15 9 0 16 7 16 15 0 8 -2 15 -4 15 -2
0 -9 -7 -16 -15z"/>
<path d="M1125 10 c-14 -6 7 -9 64 -9 46 -1 82 1 80 3 -10 9 -126 14 -144 6z"/>
</g>
</svg>