<?xml version="1.0" standalone="no"?>
<!DOCTYPE svg PUBLIC "-//W3C//DTD SVG 20010904//EN"
 "http://www.w3.org/TR/2001/REC-SVG-20010904/DTD/svg10.dtd">
<svg version="1.0" xmlns="http://www.w3.org/2000/svg"
 width="70pt" height="70pt" viewBox="0 0 512.000000 512.000000"
 preserveAspectRatio="xMidYMid meet">
<metadata>
Created by potrace 1.16, written by Peter Selinger 2001-2019
</metadata>
<g transform="translate(0.000000,512.000000) scale(0.100000,-0.100000)"
fill="#000000" stroke="none">
<path d="M0 5082 c0 -25 17 -77 47 -143 46 -101 48 -107 48 -201 0 -53 3 -99
7 -103 3 -4 40 24 80 62 41 37 117 101 171 142 l97 74 -27 31 c-14 17 -54 64
-87 104 l-61 72 -137 0 -138 0 0 -38z"/>
<path d="M402 5100 c14 -23 38 -26 56 -8 21 21 13 28 -28 28 -38 0 -39 -1 -28
-20z"/>
<path d="M550 5085 c0 -19 1 -35 3 -35 6 0 162 62 166 66 2 2 -35 4 -82 4
l-87 0 0 -35z"/>
<path d="M1338 5028 l92 -93 34 40 34 40 -43 50 -43 50 -83 3 -84 3 93 -93z"/>
<path d="M1617 5021 c80 -90 89 -97 96 -78 10 25 2 99 -14 146 l-11 31 -79 0
-80 0 88 -99z"/>
<path d="M1737 5078 c5 -24 7 -76 6 -116 -1 -87 -11 -91 129 61 l90 97 -116 0
-116 0 7 -42z"/>
<path d="M2000 5106 c0 -30 73 -154 122 -209 l53 -57 73 80 73 79 -25 39 c-46
74 -65 82 -187 82 -86 0 -109 -3 -109 -14z"/>
<path d="M2363 5108 c2 -7 12 -13 22 -13 10 0 20 6 23 13 2 7 -6 12 -23 12
-17 0 -25 -5 -22 -12z"/>
<path d="M2850 5100 c0 -23 -2 -23 39 -9 41 15 40 29 -4 29 -28 0 -35 -4 -35
-20z"/>
<path d="M3008 5101 l-37 -17 25 -54 c14 -30 27 -56 29 -58 2 -2 23 7 47 19
23 13 111 46 193 75 l150 53 -185 0 c-154 -1 -191 -4 -222 -18z"/>
<path d="M3568 5107 c29 -7 49 -7 65 1 18 9 10 11 -43 10 l-65 0 43 -11z"/>
<path d="M3709 5073 c0 -72 -13 -128 -28 -125 -10 2 -11 -10 -6 -50 4 -29 9
-56 11 -59 5 -9 189 48 188 58 -3 21 -35 114 -58 166 -25 56 -27 57 -66 57
l-40 0 -1 -47z"/>
<path d="M3830 5106 c0 -17 65 -141 90 -173 15 -19 20 -20 34 -10 16 12 13 21
-41 105 -54 85 -83 112 -83 78z"/>
<path d="M3990 5111 c0 -5 6 -14 13 -20 11 -8 18 -6 32 9 18 20 17 20 -13 20
-18 0 -32 -4 -32 -9z"/>
<path d="M4082 5078 l-40 -42 37 -43 c21 -23 63 -63 93 -88 34 -28 58 -56 61
-73 6 -25 62 -72 86 -72 8 0 170 261 210 338 l12 22 -210 0 -209 0 -40 -42z"/>
<path d="M4487 4973 c-46 -82 -95 -166 -108 -187 l-23 -39 68 6 c38 4 79 13
91 21 14 9 34 45 50 88 16 40 48 112 72 160 23 48 43 90 43 93 0 3 -24 5 -54
5 l-54 0 -85 -147z"/>
<path d="M4716 5019 c-26 -55 -46 -102 -44 -104 2 -2 38 12 81 31 43 19 107
41 142 50 36 9 65 20 65 23 0 4 -7 28 -16 54 l-16 47 -82 0 -83 0 -47 -101z"/>
<path d="M4998 5078 c9 -24 17 -45 18 -47 2 -1 26 0 53 4 l51 7 0 39 0 39 -69
0 -69 0 16 -42z"/>
<path d="M1006 5089 c-22 -5 -42 -11 -44 -13 -7 -7 19 -86 28 -86 6 0 28 -17
51 -37 l41 -37 130 -2 130 -2 -53 55 c-30 30 -80 72 -113 94 -62 41 -91 46
-170 28z"/>
<path d="M3668 5094 c-4 -6 -10 -29 -14 -51 -8 -51 12 -69 21 -20 8 41 3 87
-7 71z"/>
<path d="M2668 5053 c-49 -20 -88 -40 -88 -44 0 -4 23 -22 52 -40 l51 -33 16
24 c9 14 33 43 53 64 72 75 47 83 -84 29z"/>
<path d="M2854 5049 c-76 -46 -98 -68 -114 -116 -11 -30 -7 -36 91 -170 56
-76 126 -161 155 -190 l54 -52 63 7 c73 9 74 12 31 120 -33 82 -181 399 -198
424 -12 17 -17 15 -82 -23z"/>
<path d="M3305 5054 c-139 -47 -206 -74 -237 -96 l-27 -19 50 -111 c27 -62 52
-115 57 -120 4 -4 35 -3 69 3 59 10 61 12 72 50 14 45 48 106 121 215 42 62
49 77 40 94 -14 26 -26 25 -145 -16z"/>
<path d="M3500 5067 c0 -28 82 -229 95 -234 6 -2 9 16 7 44 -2 27 4 81 12 122
9 41 15 75 13 76 -1 1 -30 5 -64 8 -60 6 -63 6 -63 -16z"/>
<path d="M1864 4973 l-97 -107 34 -29 c87 -73 248 -197 258 -197 6 0 11 3 11
8 0 4 20 43 45 86 l45 79 -60 70 c-33 39 -74 99 -92 134 -18 35 -36 63 -40 63
-4 0 -51 -48 -104 -107z"/>
<path d="M2320 5068 c0 -7 4 -19 9 -27 8 -13 12 -13 26 -1 16 13 16 15 -1 27
-22 16 -34 17 -34 1z"/>
<path d="M835 5046 c-142 -40 -235 -85 -235 -112 0 -24 25 -26 61 -5 51 30
166 76 227 91 40 9 52 16 48 27 -3 8 -6 17 -6 19 0 6 -8 4 -95 -20z"/>
<path d="M3406 4923 c-69 -106 -100 -168 -91 -183 3 -4 26 -2 53 4 81 22 192
60 192 66 0 3 -20 52 -44 109 l-44 104 -66 -100z"/>
<path d="M5051 5001 c-12 -8 -8 -27 24 -110 20 -56 39 -101 41 -101 2 0 4 50
4 110 l0 110 -27 0 c-16 0 -34 -4 -42 -9z"/>
<path d="M820 4971 c-90 -34 -160 -68 -160 -80 0 -10 186 -161 199 -161 5 0
17 22 26 49 13 39 14 55 5 71 -14 27 1 48 38 52 29 3 39 29 28 74 -8 32 -40
31 -136 -5z"/>
<path d="M1483 4958 l-32 -45 31 -30 30 -30 49 15 c27 9 49 19 49 23 0 4 -21
31 -48 59 l-47 52 -32 -44z"/>
<path d="M2438 4937 c-64 -42 -178 -149 -178 -166 0 -14 284 -222 291 -213 3
4 23 56 43 117 21 60 46 126 56 148 l19 38 -40 27 c-22 15 -60 41 -84 59 l-44
32 -63 -42z"/>
<path d="M4893 4964 c-34 -9 -103 -36 -154 -62 l-93 -47 -24 -75 c-14 -43 -26
-111 -29 -160 l-5 -85 47 -29 c47 -29 47 -29 166 -23 197 11 227 16 231 41 2
14 18 28 46 41 25 12 42 26 42 36 0 10 -22 68 -48 131 -27 62 -60 143 -73 181
-13 37 -28 67 -34 66 -5 0 -38 -7 -72 -15z"/>
<path d="M0 4882 c0 -74 3 -87 29 -128 l29 -47 7 32 c10 48 -2 108 -35 171
l-29 55 -1 -83z"/>
<path d="M1010 4907 c0 -14 -3 -34 -7 -44 -6 -17 -5 -17 15 1 26 22 28 39 7
56 -13 11 -15 8 -15 -13z"/>
<path d="M4100 4912 c0 -12 34 -42 48 -42 21 0 13 15 -18 33 -16 10 -30 14
-30 9z"/>
<path d="M3972 4893 c-42 -80 -95 -304 -90 -378 l3 -48 65 -13 c35 -8 68 -10
72 -6 13 13 38 195 38 279 0 89 -10 126 -42 161 -26 27 -34 28 -46 5z"/>
<path d="M1095 4879 c-17 -4 -45 -23 -63 -41 -30 -32 -106 -148 -99 -154 2 -2
240 61 367 99 32 9 49 22 63 45 11 18 17 35 14 38 -19 19 -228 29 -282 13z"/>
<path d="M1583 4851 c-23 -9 -44 -19 -47 -22 -8 -7 116 -139 129 -139 6 1 20
17 33 37 l23 35 -41 54 c-22 30 -44 54 -48 53 -4 -1 -26 -9 -49 -18z"/>
<path d="M3805 4839 c-55 -17 -104 -34 -109 -39 -21 -21 95 -305 121 -295 8 3
18 5 23 5 4 0 13 37 20 82 10 70 44 205 65 261 9 23 -1 22 -120 -14z"/>
<path d="M453 4823 c-106 -79 -254 -207 -275 -235 l-21 -30 72 -72 71 -71 33
19 c91 54 239 125 294 142 35 10 63 23 63 27 0 13 -139 212 -164 236 l-23 22
-50 -38z"/>
<path d="M1396 4834 c-9 -24 -8 -26 14 -14 11 6 18 15 15 21 -9 14 -22 11 -29
-7z"/>
<path d="M4086 4809 c9 -24 14 -54 11 -66 -4 -23 21 -38 105 -61 34 -9 37 -9
29 6 -5 9 -43 50 -85 91 l-75 74 15 -44z"/>
<path d="M2653 4753 c-18 -49 -35 -98 -38 -110 -6 -24 4 -30 21 -14 5 5 44 21
87 36 42 15 77 33 77 39 0 14 -90 128 -105 133 -6 2 -25 -36 -42 -84z"/>
<path d="M708 4798 c12 -14 37 -48 55 -77 29 -45 35 -50 50 -39 16 12 11 19
-55 78 -40 35 -63 52 -50 38z"/>
<path d="M1420 4787 c-33 -11 -36 -16 -58 -97 -16 -58 -24 -116 -25 -185 l-2
-100 88 1 c62 1 92 5 101 15 14 14 86 188 86 206 0 6 -35 47 -77 91 l-78 81
-35 -12z"/>
<path d="M1784 4755 c89 -137 86 -134 112 -123 13 6 24 14 24 18 0 8 -115 110
-140 125 -11 7 -10 1 4 -20z"/>
<path d="M3505 4758 c-53 -21 -284 -78 -315 -78 -29 0 -30 -11 -2 -77 l25 -63
156 0 c123 0 174 -4 240 -20 46 -11 86 -19 88 -16 5 5 -72 188 -101 238 -24
43 -23 43 -91 16z"/>
<path d="M1210 4730 c-220 -61 -252 -72 -243 -80 35 -35 240 -190 275 -207 48
-25 58 -19 58 37 0 40 23 177 40 240 6 23 10 43 8 45 -2 1 -64 -14 -138 -35z"/>
<path d="M2193 4663 l-38 -76 28 -21 c18 -13 43 -21 69 -21 32 0 45 -5 61 -27
15 -20 18 -33 11 -48 -8 -18 3 -33 76 -107 l85 -86 95 33 c52 18 110 41 129
50 l33 16 -88 66 c-49 36 -111 80 -139 99 -27 18 -101 70 -162 116 -62 46
-115 83 -117 83 -3 0 -22 -34 -43 -77z"/>
<path d="M1705 4700 c-8 -16 -15 -31 -15 -34 0 -9 86 -56 103 -56 10 0 17 2
17 5 0 11 -73 115 -81 115 -5 0 -15 -13 -24 -30z"/>
<path d="M0 4649 c0 -48 3 -57 20 -62 29 -8 30 2 4 63 l-23 55 -1 -56z"/>
<path d="M4081 4588 c-6 -57 -14 -115 -17 -129 -5 -22 -1 -28 24 -37 27 -9 38
-6 107 35 42 25 100 67 128 94 l52 47 -60 28 c-33 15 -64 27 -68 25 -9 -2
-109 23 -138 34 -13 5 -17 -11 -28 -97z"/>
<path d="M2727 4641 c-150 -54 -162 -93 -54 -177 101 -79 103 -79 197 -43 44
17 82 35 85 40 13 20 -106 202 -135 206 -8 1 -50 -11 -93 -26z"/>
<path d="M4450 4641 c19 -16 37 -24 39 -19 4 13 -38 47 -59 48 -8 0 1 -13 20
-29z"/>
<path d="M890 4618 c-11 -18 -20 -35 -20 -38 0 -3 43 -45 95 -93 52 -49 137
-140 187 -204 81 -101 94 -113 104 -98 17 23 34 105 34 160 0 44 -1 45 -52 71
-60 30 -84 47 -220 156 -53 43 -99 78 -102 78 -4 0 -15 -15 -26 -32z"/>
<path d="M4390 4588 c-7 -13 -28 -39 -47 -59 -31 -33 -33 -39 -22 -57 11 -18
10 -24 -6 -42 -10 -11 -32 -24 -49 -28 -35 -9 -49 -33 -14 -25 13 2 47 16 76
30 35 17 76 27 122 31 39 2 70 9 70 14 0 37 -26 99 -46 113 -13 8 -35 22 -48
31 -23 14 -25 14 -36 -8z"/>
<path d="M1637 4593 c-9 -15 -19 -143 -12 -143 4 0 30 17 56 37 l49 37 -38 38
c-38 38 -47 44 -55 31z"/>
<path d="M585 4532 c-86 -36 -198 -94 -238 -124 -16 -12 -14 -17 30 -60 l48
-47 91 87 c107 103 180 182 168 182 -5 0 -50 -18 -99 -38z"/>
<path d="M1950 4541 c0 -5 12 -24 27 -42 l27 -32 12 34 c18 49 18 49 -26 49
-22 0 -40 -4 -40 -9z"/>
<path d="M860 4531 c0 -6 15 -51 34 -99 19 -48 42 -118 53 -156 14 -56 24 -73
47 -87 33 -20 110 -32 175 -27 l44 3 -63 80 c-107 135 -290 315 -290 286z"/>
<path d="M1807 4523 c-4 -3 -7 -27 -7 -53 0 -35 -9 -65 -36 -114 -33 -64 -35
-69 -20 -92 9 -13 26 -30 39 -38 24 -14 155 -52 160 -45 2 2 12 46 23 97 l21
94 -29 41 c-16 23 -41 59 -55 80 -21 30 -32 37 -58 37 -17 0 -35 -3 -38 -7z"/>
<path d="M2107 4443 c-30 -94 -63 -260 -55 -268 3 -4 61 -2 127 3 106 9 127
13 162 36 53 35 56 49 25 94 -52 75 -199 211 -228 212 -4 0 -18 -35 -31 -77z"/>
<path d="M3319 4510 c-75 -9 -80 -13 -67 -51 10 -29 12 -30 57 -25 157 18 295
15 374 -10 15 -5 16 -2 5 21 -14 31 -75 51 -199 65 -91 11 -88 11 -170 0z"/>
<path d="M620 4397 c-154 -150 -146 -136 -110 -186 17 -22 37 -41 44 -41 13 0
263 114 274 125 9 9 -74 216 -87 215 -3 -1 -58 -51 -121 -113z"/>
<path d="M1667 4443 c-60 -50 -194 -209 -184 -219 2 -2 37 11 78 30 87 39 172
104 194 147 19 37 16 93 -5 96 -8 1 -46 -23 -83 -54z"/>
<path d="M35 4459 l-35 -31 0 -131 0 -130 109 104 109 104 -61 58 c-34 31 -67
57 -74 57 -7 0 -28 -14 -48 -31z"/>
<path d="M3074 4480 l-22 -9 22 -54 c19 -51 22 -53 28 -30 4 14 19 38 34 54
14 15 23 32 20 38 -8 13 -52 13 -82 1z"/>
<path d="M4590 4470 c0 -15 7 -20 27 -20 25 0 26 0 8 20 -10 11 -22 20 -27 20
-4 0 -8 -9 -8 -20z"/>
<path d="M4782 4453 l-73 -4 53 -48 c29 -27 67 -60 84 -74 l31 -26 79 70 c43
39 81 75 82 80 4 9 -94 9 -256 2z"/>
<path d="M3156 4425 c-24 -22 -27 -31 -22 -59 5 -24 2 -39 -9 -50 -13 -13 -14
-25 -8 -58 l9 -43 61 0 c34 0 65 3 69 8 8 8 -43 189 -60 213 -10 13 -15 12
-40 -11z"/>
<path d="M5080 4417 c-19 -18 -66 -60 -104 -94 l-69 -61 89 -92 88 -91 18 47
c15 38 18 70 16 184 l-3 139 -35 -32z"/>
<path d="M2878 4397 c-43 -16 -75 -34 -72 -39 3 -5 28 -26 55 -48 l49 -39 48
21 c26 11 50 24 55 27 10 10 -33 111 -47 110 -6 -1 -46 -15 -88 -32z"/>
<path d="M4640 4421 c-18 -5 -26 -15 -28 -34 -4 -33 29 -166 55 -222 l18 -41
75 79 74 79 -76 74 c-41 41 -79 74 -84 73 -5 -1 -20 -4 -34 -8z"/>
<path d="M3358 4411 c-38 -4 -71 -10 -74 -14 -3 -3 7 -44 22 -91 23 -71 32
-86 49 -86 41 1 271 20 308 26 28 4 37 2 37 -9 0 -17 -41 -24 -211 -33 -68 -4
-129 -9 -135 -13 -9 -4 -6 -23 7 -68 l20 -63 52 0 c29 0 122 7 208 15 149 13
229 32 229 54 0 11 -84 206 -99 229 -24 38 -269 69 -413 53z"/>
<path d="M4377 4397 c-16 -11 -16 -18 -6 -65 11 -46 18 -56 61 -83 26 -17 52
-29 57 -27 5 1 27 20 50 40 l41 38 -22 55 -21 55 -71 0 c-42 0 -79 -5 -89 -13z"/>
<path d="M1314 4312 c-5 -48 -2 -73 11 -107 9 -25 21 -45 26 -45 10 0 69 78
123 163 l36 57 -94 -3 -95 -2 -7 -63z"/>
<path d="M3889 4327 c26 -48 27 -48 66 -42 51 8 127 44 122 58 -4 13 -54 23
-148 29 l-67 4 27 -49z"/>
<path d="M4293 4363 c-13 -2 -23 -8 -23 -13 0 -12 60 -43 67 -36 8 7 -6 56
-15 55 -4 -1 -17 -4 -29 -6z"/>
<path d="M117 4242 c-141 -143 -144 -152 -61 -211 l56 -40 53 45 c29 25 85 82
125 126 l72 81 -58 58 c-32 33 -61 59 -64 59 -3 0 -59 -53 -123 -118z"/>
<path d="M2630 4301 c-69 -27 -125 -52 -124 -55 1 -4 11 -26 24 -48 22 -39 24
-40 64 -34 72 11 276 82 276 96 0 9 -97 90 -107 89 -4 0 -64 -22 -133 -48z"/>
<path d="M4120 4317 c-49 -28 -142 -170 -134 -203 3 -13 8 -24 11 -24 7 0 170
129 221 175 l44 39 -34 12 c-63 21 -73 22 -108 1z"/>
<path d="M2987 4277 l-37 -23 45 -22 c25 -12 48 -22 50 -22 6 0 -5 61 -14 77
-5 9 -16 6 -44 -10z"/>
<path d="M4269 4273 c-8 -9 -66 -58 -131 -109 -64 -51 -119 -97 -122 -103 -4
-5 15 -58 41 -117 l47 -107 108 113 c95 99 106 116 101 140 -3 15 2 61 12 101
15 69 15 74 -1 86 -24 17 -39 16 -55 -4z"/>
<path d="M3978 4263 l-48 -14 15 -37 c9 -20 17 -37 19 -39 2 -3 53 65 70 95 9
14 5 14 -56 -5z"/>
<path d="M703 4204 c-73 -35 -133 -66 -133 -69 0 -15 255 -384 260 -378 20 22
44 166 44 263 0 99 -19 236 -33 244 -3 2 -66 -25 -138 -60z"/>
<path d="M4553 4239 c-18 -16 -33 -33 -33 -37 0 -4 32 -35 70 -70 39 -36 70
-57 70 -49 0 21 -61 187 -69 187 -3 0 -21 -14 -38 -31z"/>
<path d="M4350 4175 c-7 -42 -11 -77 -8 -80 6 -6 108 84 108 95 0 9 -69 60
-81 60 -3 0 -12 -34 -19 -75z"/>
<path d="M1545 4216 c-32 -14 -77 -39 -100 -55 -38 -28 -40 -32 -39 -79 1 -37
8 -59 28 -85 25 -33 208 -198 227 -205 15 -6 151 91 162 115 24 53 -68 294
-120 314 -55 22 -96 20 -158 -5z"/>
<path d="M4801 4155 c-40 -47 -71 -89 -67 -92 11 -12 284 -27 306 -17 19 9 15
16 -65 102 -48 50 -90 92 -93 92 -4 0 -40 -38 -81 -85z"/>
<path d="M2363 4199 c-49 -34 -115 -49 -222 -49 -42 0 -82 -4 -88 -8 -17 -11
-34 -271 -25 -386 l7 -88 53 -20 c43 -16 67 -19 118 -13 43 4 64 11 64 20 0 7
-16 37 -37 66 -44 65 -55 137 -29 187 26 50 150 166 211 198 30 16 55 34 55
40 0 15 -42 77 -55 80 -5 2 -29 -10 -52 -27z"/>
<path d="M2825 4206 c-47 -22 -109 -83 -175 -173 l-23 -32 26 -88 c14 -48 32
-117 38 -153 13 -72 20 -80 65 -80 25 0 37 8 64 47 19 26 64 81 101 123 75 85
106 155 115 264 l6 61 -60 28 c-72 32 -92 33 -157 3z"/>
<path d="M285 4083 c-117 -107 -127 -118 -103 -121 26 -3 308 130 308 146 0 4
-17 26 -38 50 l-37 43 -130 -118z"/>
<path d="M1780 4186 c0 -2 16 -46 36 -97 22 -56 39 -119 42 -156 4 -51 9 -66
33 -89 l29 -28 0 55 c0 30 5 103 10 163 6 60 9 110 7 113 -4 3 -142 43 -152
43 -3 0 -5 -2 -5 -4z"/>
<path d="M3175 4181 l-60 -6 45 -29 c125 -81 152 -97 157 -92 3 2 -5 34 -17
70 -18 56 -25 66 -43 64 -12 -1 -49 -4 -82 -7z"/>
<path d="M2649 4147 l-76 -22 17 -37 c9 -21 19 -40 22 -43 2 -3 30 24 62 60
31 36 56 65 54 64 -2 0 -37 -11 -79 -22z"/>
<path d="M4297 3992 c-173 -173 -177 -179 -159 -196 19 -16 23 -16 78 0 45 13
73 30 119 72 67 62 145 115 223 151 29 14 52 27 52 31 0 10 -117 120 -127 120
-4 0 -88 -80 -186 -178z"/>
<path d="M3116 4069 c-4 -34 -5 -63 -2 -66 2 -3 33 4 68 16 35 11 70 22 78 24
12 3 -116 87 -133 87 -2 0 -8 -27 -11 -61z"/>
<path d="M986 4099 c-2 -8 -7 -50 -10 -94 -4 -44 -9 -100 -12 -124 -6 -41 -5
-42 13 -33 35 19 234 205 230 215 -10 30 -213 63 -221 36z"/>
<path d="M2434 4085 c-64 -32 -158 -115 -189 -169 -24 -41 -24 -45 -11 -90 20
-67 41 -95 65 -89 39 10 241 241 241 274 0 11 -47 99 -53 99 -2 0 -25 -11 -53
-25z"/>
<path d="M3829 4075 c-20 -7 -92 -18 -160 -24 -67 -6 -124 -13 -126 -15 -2 -2
18 -6 44 -10 26 -4 93 -22 148 -41 l100 -33 39 38 c37 37 39 40 26 69 -14 34
-19 35 -71 16z"/>
<path d="M358 4005 c-102 -51 -143 -76 -135 -83 7 -5 46 -29 87 -52 53 -30 88
-43 120 -45 25 -1 79 -11 120 -23 41 -11 94 -22 118 -25 42 -5 43 -5 29 16 -8
12 -48 77 -91 144 -42 67 -82 126 -89 131 -8 7 -58 -13 -159 -63z"/>
<path d="M1275 4013 c-44 -36 -80 -69 -80 -73 0 -11 166 -141 308 -243 l99
-71 46 13 c47 12 59 18 51 25 -28 24 -278 231 -313 259 -49 40 -55 57 -31 77
16 13 20 47 7 66 -4 8 -35 -11 -87 -53z"/>
<path d="M4740 4025 c0 -24 154 -225 172 -225 6 0 32 18 58 40 37 31 51 51 59
83 5 23 12 52 16 63 6 21 3 22 -82 28 -48 3 -118 9 -155 12 -38 3 -68 3 -68
-1z"/>
<path d="M0 3955 c0 -30 4 -55 8 -55 5 0 21 14 38 31 l29 31 -30 24 c-17 13
-33 24 -37 24 -5 0 -8 -25 -8 -55z"/>
<path d="M4522 3969 c-89 -45 -207 -144 -162 -135 14 3 53 8 88 12 l62 7 48
66 c81 110 81 110 -36 50z"/>
<path d="M5067 3958 c-9 -29 -15 -54 -12 -56 2 -2 17 4 34 14 24 14 31 25 31
50 0 26 -14 44 -34 44 -1 0 -10 -23 -19 -52z"/>
<path d="M3898 3973 c-16 -16 -28 -32 -28 -36 0 -4 23 -18 50 -32 57 -29 61
-23 27 48 l-22 48 -27 -28z"/>
<path d="M4611 3934 c-24 -30 -41 -58 -38 -60 5 -6 125 -23 160 -24 15 0 12
10 -19 58 -57 90 -54 89 -103 26z"/>
<path d="M2483 3882 c-75 -93 -155 -172 -173 -172 -7 0 -10 -14 -8 -32 2 -18
8 -33 13 -33 94 2 284 19 297 26 34 18 22 142 -24 252 -11 26 -24 47 -27 47
-4 0 -39 -40 -78 -88z"/>
<path d="M3332 3933 c-36 -3 -45 -9 -53 -31 -12 -31 -8 -280 4 -299 6 -10 29
-2 90 29 45 22 105 49 132 58 l50 17 -3 104 c-2 57 -7 107 -10 110 -9 9 -156
17 -210 12z"/>
<path d="M1108 3863 l-47 -48 47 -35 c67 -50 122 -101 122 -112 0 -5 -5 -6
-12 -2 -7 5 -8 3 -4 -5 5 -7 10 -10 12 -8 3 3 27 -18 53 -46 l48 -50 118 29
119 30 -70 49 c-38 27 -126 93 -196 147 -69 54 -130 98 -135 98 -5 0 -30 -21
-55 -47z"/>
<path d="M3157 3886 c-95 -39 -169 -100 -241 -197 l-26 -36 31 -7 c66 -13 86
-8 118 32 35 42 44 22 10 -22 -12 -15 -20 -28 -18 -29 4 -3 130 -36 165 -44
13 -3 23 1 27 11 3 8 9 83 13 165 8 172 13 164 -79 127z"/>
<path d="M3600 3852 c0 -32 3 -61 6 -65 6 -6 133 73 134 83 0 5 -118 40 -134
40 -3 0 -6 -26 -6 -58z"/>
<path d="M112 3883 c2 -11 17 -20 38 -24 l35 -7 -30 24 c-35 28 -48 30 -43 7z"/>
<path d="M1755 3813 l-69 -46 54 -49 c46 -41 60 -48 84 -43 16 3 44 5 62 5 34
0 34 0 34 47 0 42 -5 52 -42 90 -23 24 -45 43 -48 43 -3 0 -36 -21 -75 -47z"/>
<path d="M3698 3805 c-42 -28 -80 -53 -82 -56 -9 -9 75 -249 86 -249 6 0 52
22 102 49 50 27 120 61 156 76 73 31 79 36 72 71 -6 31 -45 61 -140 109 -117
58 -108 58 -194 0z"/>
<path d="M83 3805 c-35 -8 -67 -17 -73 -20 -5 -3 -10 -46 -10 -94 l0 -88 75
-12 c41 -7 83 -10 94 -6 25 8 52 75 58 148 3 31 10 57 14 57 14 0 10 -105 -5
-140 -16 -39 -11 -67 14 -75 24 -8 44 -58 36 -90 -5 -18 5 -52 30 -113 21 -48
40 -90 44 -94 14 -17 210 152 210 182 0 3 -28 20 -63 38 -59 30 -147 106 -136
117 3 2 30 -14 60 -36 30 -23 77 -53 106 -67 52 -26 52 -26 74 -7 50 46 50 45
-129 162 -92 60 -183 119 -203 131 -42 26 -101 28 -196 7z"/>
<path d="M5060 3793 c-25 -14 -55 -34 -67 -44 l-23 -17 45 -61 c38 -51 50 -61
75 -61 l30 0 0 105 c0 58 -3 105 -7 105 -5 0 -28 -12 -53 -27z"/>
<path d="M4372 3795 c-41 -7 -75 -15 -76 -17 -2 -2 -11 -23 -20 -48 l-17 -44
63 -57 c35 -32 66 -54 69 -51 4 4 12 25 19 47 7 22 26 69 41 104 16 35 29 68
29 72 0 11 -18 10 -108 -6z"/>
<path d="M4492 3744 c-16 -33 -40 -89 -53 -126 l-23 -66 88 -96 c48 -53 93
-96 99 -96 7 0 54 21 104 47 73 38 93 53 93 69 0 38 33 68 73 66 26 -1 45 6
64 23 l28 24 -90 88 c-103 102 -125 112 -262 120 l-91 6 -30 -59z"/>
<path d="M436 3781 c5 -4 62 -47 128 -95 l118 -86 33 28 c44 36 47 46 27 82
-12 22 -27 31 -52 35 -19 3 -75 15 -125 26 -96 20 -145 25 -129 10z"/>
<path d="M4208 3763 c-25 -6 -22 -18 6 -37 23 -15 25 -14 35 14 11 32 4 35
-41 23z"/>
<path d="M1004 3746 c-11 -8 -26 -33 -32 -55 -7 -23 -25 -50 -43 -63 l-30 -24
23 -21 c13 -11 35 -28 49 -37 27 -17 27 -16 63 25 55 65 60 142 11 175 -18 12
-24 12 -41 0z"/>
<path d="M1175 3690 c10 -11 20 -20 23 -20 3 0 -3 9 -13 20 -10 11 -20 20 -23
20 -3 0 3 -9 13 -20z"/>
<path d="M1100 3662 c0 -26 -11 -55 -34 -92 -19 -30 -33 -56 -31 -58 6 -6 225
42 225 48 0 11 -112 115 -137 129 -22 11 -23 10 -23 -27z"/>
<path d="M3490 3656 c-63 -24 -180 -86 -180 -96 0 -12 67 -149 82 -167 13 -16
161 57 183 90 29 45 -5 191 -44 186 -3 0 -22 -6 -41 -13z"/>
<path d="M4136 3615 c-4 -20 -9 -44 -12 -53 -5 -15 -4 -15 6 1 17 26 28 20 27
-15 0 -18 10 -50 22 -70 l23 -38 36 16 c21 9 45 18 55 21 9 3 17 8 17 12 0 6
-87 92 -141 139 l-27 23 -6 -36z"/>
<path d="M2460 3626 l-135 -11 0 -54 c0 -52 2 -55 45 -88 25 -19 65 -46 89
-61 l43 -25 19 24 c26 34 68 123 85 177 17 57 17 52 2 51 -7 -1 -74 -7 -148
-13z"/>
<path d="M2636 3584 c-10 -31 -35 -90 -57 -132 -29 -57 -36 -78 -27 -84 20
-12 25 -10 51 17 20 22 147 237 147 250 0 3 -22 5 -48 5 l-48 0 -18 -56z"/>
<path d="M3928 3582 c-73 -35 -96 -50 -89 -60 6 -11 28 -12 100 -7 86 7 91 9
91 30 0 12 3 37 6 54 4 17 3 31 -2 31 -5 0 -53 -22 -106 -48z"/>
<path d="M2814 3538 c-28 -46 -55 -89 -59 -96 -4 -8 45 26 109 75 126 94 128
99 36 102 -34 1 -38 -3 -86 -81z"/>
<path d="M2196 3602 c23 -21 82 -51 87 -45 4 3 7 17 7 30 0 21 -4 23 -52 23
-29 0 -48 -4 -42 -8z"/>
<path d="M2910 3519 c-58 -44 -126 -99 -152 -123 -44 -38 -47 -45 -42 -77 8
-45 -16 -72 -59 -67 -39 4 -44 -13 -14 -48 l25 -28 88 17 c165 32 157 26 218
131 39 66 76 113 130 163 l75 70 -52 16 c-109 33 -102 34 -217 -54z"/>
<path d="M746 3518 c-35 -40 -75 -86 -87 -102 -21 -26 -21 -28 -3 -23 126 36
294 92 294 98 0 12 -110 99 -125 99 -8 0 -43 -33 -79 -72z"/>
<path d="M1780 3569 c-102 -19 -101 -12 -15 -92 43 -40 84 -75 91 -80 14 -8
47 70 58 141 l6 42 -47 -1 c-27 -1 -68 -5 -93 -10z"/>
<path d="M2020 3543 c0 -25 1 -26 16 -11 9 9 13 21 10 27 -13 20 -26 11 -26
-16z"/>
<path d="M2048 3496 c-41 -49 -46 -62 -52 -123 -6 -58 -5 -69 10 -80 10 -7 25
-13 33 -13 9 0 58 44 109 97 86 90 92 99 75 111 -24 18 -110 62 -121 62 -5 0
-30 -24 -54 -54z"/>
<path d="M3242 3540 c-73 -17 -169 -104 -233 -211 -43 -72 -48 -93 -21 -85 9
2 53 14 97 27 84 23 238 75 267 90 16 9 14 18 -27 99 -25 50 -46 90 -48 89 -1
-1 -17 -5 -35 -9z"/>
<path d="M5100 3543 c0 -5 5 -15 10 -23 8 -12 10 -11 10 8 0 12 -4 22 -10 22
-5 0 -10 -3 -10 -7z"/>
<path d="M1575 3524 c-22 -8 -47 -17 -55 -20 -9 -3 4 -15 38 -32 29 -15 96
-58 149 -96 l96 -69 19 23 19 23 -98 94 c-53 51 -104 93 -112 92 -9 0 -34 -7
-56 -15z"/>
<path d="M0 3473 l0 -57 33 30 c17 17 44 40 59 51 28 21 28 21 5 27 -12 3 -39
6 -59 6 l-38 0 0 -57z"/>
<path d="M4117 3514 c-10 -35 -18 -114 -12 -114 12 0 65 31 65 38 -1 4 -11 27
-24 51 -19 37 -24 41 -29 25z"/>
<path d="M4958 3513 c-28 -11 -38 -21 -38 -38 0 -36 -33 -59 -75 -51 -31 6
-48 0 -126 -44 l-89 -52 41 -46 c23 -26 88 -100 145 -165 57 -65 104 -113 104
-107 0 6 32 63 70 126 70 113 120 214 120 239 0 19 -92 155 -105 154 -5 0 -27
-7 -47 -16z"/>
<path d="M3758 3493 c-27 -14 -48 -32 -48 -38 0 -6 18 -40 39 -76 43 -71 39
-69 136 -39 33 10 76 21 96 24 34 6 37 9 43 53 11 80 10 82 -26 78 -119 -15
-149 -14 -169 6 -10 10 -20 19 -21 19 -2 0 -24 -12 -50 -27z"/>
<path d="M128 3481 c-25 -16 -65 -46 -87 -66 l-41 -37 0 -90 0 -91 107 6 c110
5 165 16 196 40 17 12 17 16 -4 82 -27 88 -46 125 -64 125 -7 0 -24 14 -37 30
l-24 30 -46 -29z"/>
<path d="M4282 3445 l-54 -25 43 -77 c23 -43 51 -92 63 -109 l21 -31 89 37 90
37 -94 97 c-51 53 -96 96 -99 95 -3 0 -30 -11 -59 -24z"/>
<path d="M1297 3453 c-16 -4 -15 -7 7 -34 30 -35 86 -149 86 -174 0 -9 11 -26
24 -36 13 -10 48 -48 77 -84 29 -36 54 -63 57 -61 8 9 -37 165 -64 217 -38 76
-100 165 -119 173 -18 7 -40 6 -68 -1z"/>
<path d="M2172 3363 c-50 -54 -92 -102 -94 -107 -5 -14 152 -74 222 -85 158
-24 144 -27 196 45 26 36 45 66 43 67 -2 2 -64 42 -136 90 -73 48 -135 87
-137 87 -2 0 -45 -44 -94 -97z"/>
<path d="M3512 3403 c-67 -36 -81 -47 -72 -58 10 -12 21 -10 68 11 31 14 64
28 72 32 19 7 30 23 30 45 0 22 -1 22 -98 -30z"/>
<path d="M3653 3443 c-7 -3 -13 -14 -13 -26 0 -12 -4 -27 -8 -33 -10 -16 -71
-45 -187 -89 -55 -21 -104 -42 -108 -45 -4 -4 0 -26 9 -50 13 -31 26 -46 52
-57 34 -14 36 -13 76 16 60 45 153 97 218 121 l57 21 -31 57 c-45 81 -51 89
-65 85z"/>
<path d="M1178 3428 c-50 -11 -57 -18 -34 -37 23 -19 191 -119 194 -116 8 7
-20 74 -48 118 -32 50 -35 51 -112 35z"/>
<path d="M1479 3356 c47 -86 86 -197 96 -276 l8 -55 46 51 c25 27 65 73 89
101 l43 51 -83 65 c-82 64 -203 137 -227 137 -8 0 3 -29 28 -74z"/>
<path d="M1035 3396 c-22 -7 -65 -19 -95 -26 -104 -24 -327 -100 -351 -119
-13 -10 -32 -33 -42 -50 -15 -26 -16 -30 -2 -25 8 4 20 15 25 24 13 24 70 65
70 50 0 -6 -47 -60 -104 -119 -57 -60 -107 -118 -111 -130 -4 -12 1 -40 11
-67 l17 -45 46 6 c167 22 220 60 435 310 47 55 86 104 86 110 0 5 20 18 45 28
46 19 54 34 33 55 -14 14 -13 14 -63 -2z"/>
<path d="M4143 3369 l-43 -18 0 -78 c0 -75 22 -189 39 -206 4 -4 26 7 49 26
22 19 61 47 86 63 25 16 46 34 46 39 0 11 -116 182 -128 188 -4 3 -26 -4 -49
-14z"/>
<path d="M3876 3309 c-33 -10 -61 -21 -64 -24 -15 -14 103 -157 149 -181 35
-18 40 -8 46 113 l6 92 -27 11 c-35 13 -40 12 -110 -11z"/>
<path d="M1080 3227 c0 -45 -4 -98 -10 -116 -5 -19 -8 -36 -7 -38 5 -4 171
112 185 130 11 12 8 19 -18 37 -17 12 -57 32 -90 45 l-60 24 0 -82z"/>
<path d="M5087 3237 c-15 -29 -56 -97 -92 -152 -36 -54 -65 -100 -65 -101 0
-2 43 18 95 44 l95 47 0 107 c0 60 -1 108 -2 108 -2 0 -15 -24 -31 -53z"/>
<path d="M3694 3251 c-82 -32 -179 -89 -211 -123 -33 -35 -38 -73 -18 -119 10
-21 25 -39 33 -39 19 0 254 48 276 56 10 4 16 1 16 -9 0 -18 -25 -26 -160 -52
-129 -24 -131 -25 -85 -39 69 -22 127 -57 185 -112 31 -30 61 -54 67 -54 6 0
16 21 22 46 12 48 55 136 90 189 29 42 26 61 -17 114 -21 25 -58 74 -81 109
-23 34 -43 62 -44 62 -1 -1 -34 -13 -73 -29z"/>
<path d="M950 3183 c-179 -213 -292 -297 -417 -309 -43 -5 -63 -11 -63 -20 0
-24 72 -188 100 -229 39 -56 81 -94 87 -77 3 7 27 58 54 113 59 121 124 224
188 299 76 89 113 162 119 236 2 35 3 64 1 64 -3 0 -34 -35 -69 -77z"/>
<path d="M1851 3216 c-22 -35 -20 -69 4 -60 10 4 28 94 18 94 -1 0 -11 -15
-22 -34z"/>
<path d="M4453 3214 c-40 -18 -73 -35 -73 -38 0 -23 239 -286 260 -286 9 0 61
36 139 97 12 9 -184 230 -221 249 -15 8 -28 14 -30 13 -2 0 -36 -16 -75 -35z"/>
<path d="M3232 3219 c-29 -10 -97 -30 -150 -45 -53 -15 -100 -30 -104 -34 -4
-3 -12 -39 -18 -80 -6 -44 -18 -86 -30 -101 l-19 -26 28 -28 29 -27 118 22
c66 11 156 26 202 33 45 6 82 14 82 18 0 4 -7 23 -15 42 -8 20 -15 53 -15 73
0 42 -25 134 -43 156 -11 14 -17 14 -65 -3z"/>
<path d="M1985 3195 c9 -48 9 -81 0 -116 -5 -21 0 -34 24 -61 28 -33 36 -36
158 -57 70 -12 135 -24 143 -27 11 -3 26 18 52 70 l37 74 -57 7 c-108 13 -231
61 -339 132 l-26 17 8 -39z"/>
<path d="M2580 3186 c-18 -22 -9 -32 24 -26 28 5 28 5 9 23 -18 15 -22 16 -33
3z"/>
<path d="M362 3150 l-63 -40 17 -32 c9 -18 18 -34 19 -36 2 -2 19 20 38 50 37
58 59 98 55 98 -2 0 -31 -18 -66 -40z"/>
<path d="M1180 3119 c-52 -38 -111 -82 -131 -98 -67 -55 -288 -423 -305 -509
-8 -38 1 -40 54 -13 68 35 130 99 163 168 32 67 181 235 195 220 4 -4 -13 -29
-38 -55 -62 -64 -138 -160 -138 -174 0 -6 10 -2 23 10 23 22 52 30 45 13 -4
-12 -175 -171 -213 -198 -16 -12 -27 -24 -24 -28 4 -3 51 -8 105 -11 l99 -5
50 73 c49 72 49 74 50 153 l0 81 70 66 c39 36 89 81 113 99 l43 34 -4 66 c-3
43 -13 86 -30 122 -14 32 -27 57 -29 56 -2 0 -46 -32 -98 -70z"/>
<path d="M0 3047 l0 -122 29 44 c35 53 112 134 161 170 l36 26 -113 2 -113 1
0 -121z"/>
<path d="M4289 3132 c-31 -20 -72 -51 -92 -68 l-37 -30 64 -96 c35 -52 65
-101 67 -107 3 -9 32 -5 107 13 56 14 123 28 147 32 25 3 45 9 45 11 0 3 -28
36 -63 73 -35 36 -87 96 -116 131 -29 35 -56 67 -60 71 -4 4 -31 -9 -62 -30z"/>
<path d="M1747 3094 c-25 -32 -44 -60 -42 -62 5 -5 115 71 115 79 0 3 -6 13
-13 23 -12 17 -17 14 -60 -40z"/>
<path d="M1384 3124 c16 -42 25 -147 18 -202 -10 -69 -13 -69 71 -2 31 25 57
52 57 61 0 20 -49 84 -98 126 -41 35 -57 41 -48 17z"/>
<path d="M2821 3114 c-36 -8 -66 -15 -67 -17 -8 -8 135 -139 145 -133 15 9 31
73 31 124 0 49 -2 49 -109 26z"/>
<path d="M3370 3074 c0 -60 34 -124 66 -124 l22 0 -18 48 c-11 26 -22 59 -25
74 -3 15 -14 32 -25 38 -19 10 -20 8 -20 -36z"/>
<path d="M214 3059 c-51 -40 -54 -46 -54 -99 0 -40 1 -43 13 -25 23 34 88 155
84 155 -2 0 -22 -14 -43 -31z"/>
<path d="M2590 3081 l-75 -6 -43 -83 c-24 -46 -42 -85 -40 -87 6 -6 211 -25
272 -25 69 0 76 6 76 59 0 27 -84 143 -105 146 -5 1 -44 -1 -85 -4z"/>
<path d="M215 2954 c-79 -135 -128 -274 -97 -274 8 0 33 40 135 219 62 109 64
114 50 142 -8 16 -16 29 -18 29 -2 0 -33 -52 -70 -116z"/>
<path d="M3965 2975 c-46 -46 -72 -100 -91 -185 -16 -70 -13 -140 7 -140 5 0
40 15 77 33 37 19 99 46 137 62 39 16 74 32 79 37 6 4 -6 30 -27 61 -20 29
-37 65 -37 80 0 28 -62 87 -92 87 -10 0 -33 -16 -53 -35z"/>
<path d="M5027 2986 c-72 -30 -71 -29 -57 -55 13 -25 30 -26 98 -6 50 15 52
17 52 50 0 43 -12 44 -93 11z"/>
<path d="M1760 2960 c-41 -21 -84 -39 -96 -40 -17 0 -20 -5 -16 -32 2 -18 9
-39 14 -45 15 -19 1 -61 -22 -68 -24 -7 -37 -51 -23 -74 17 -27 113 -89 172
-112 61 -23 211 -37 248 -22 21 8 18 11 -39 57 -34 27 -90 66 -124 86 -73 42
-204 140 -204 152 0 16 18 7 104 -57 48 -36 93 -65 98 -65 6 0 8 13 4 31 -3
17 -6 76 -6 130 0 118 1 117 -110 59z"/>
<path d="M89 2945 c-21 -28 -45 -67 -55 -87 -16 -35 -16 -39 0 -83 10 -25 23
-44 28 -43 21 7 69 161 66 213 l-3 50 -36 -50z"/>
<path d="M1893 2883 c3 -60 9 -118 12 -130 7 -21 181 -163 201 -163 5 0 29 20
54 45 l43 44 -93 108 c-136 157 -182 203 -204 203 -18 0 -19 -6 -13 -107z"/>
<path d="M4757 2934 c-21 -14 -37 -28 -34 -30 2 -2 32 -1 66 2 l62 7 -22 23
c-13 13 -25 24 -28 24 -4 0 -24 -12 -44 -26z"/>
<path d="M347 2868 c-20 -34 -37 -67 -37 -73 0 -16 79 -228 89 -238 10 -10
233 -68 240 -62 2 2 -20 30 -48 61 -61 67 -70 82 -136 243 -28 69 -56 126 -61
128 -6 2 -27 -25 -47 -59z"/>
<path d="M2810 2906 c0 -9 5 -16 10 -16 6 0 10 4 10 9 0 6 -4 13 -10 16 -5 3
-10 -1 -10 -9z"/>
<path d="M1238 2825 c-76 -74 -87 -89 -93 -128 -12 -76 -4 -83 35 -34 19 25
60 74 92 109 38 43 58 75 63 101 4 20 3 37 -1 37 -5 0 -48 -38 -96 -85z"/>
<path d="M2121 2883 c51 -60 114 -123 120 -123 9 0 61 111 56 117 -4 3 -172
32 -191 33 -5 0 1 -12 15 -27z"/>
<path d="M1487 2828 l-49 -32 44 -22 c33 -17 45 -19 50 -10 12 21 21 96 12 96
-5 0 -31 -14 -57 -32z"/>
<path d="M3345 2841 c-32 -8 -93 -38 -137 -68 l-27 -18 39 -82 c33 -71 110
-173 130 -173 7 0 25 58 65 210 40 155 41 140 -2 139 -21 -1 -51 -4 -68 -8z"/>
<path d="M3481 2753 c-20 -82 -113 -400 -137 -468 -4 -11 21 6 57 41 74 70
137 121 232 188 37 26 74 60 82 76 21 40 19 99 -5 138 -31 51 -137 119 -191
121 -11 1 -21 -24 -38 -96z"/>
<path d="M5052 2829 c-23 -7 -32 -15 -30 -27 2 -13 15 -17 51 -18 46 -2 47 -1
47 27 0 32 -10 34 -68 18z"/>
<path d="M3116 2814 c-43 -7 -81 -16 -84 -19 -3 -3 4 -15 15 -27 l22 -21 76
33 c118 51 112 58 -29 34z"/>
<path d="M2425 2812 c14 -14 265 -123 296 -129 23 -4 26 -1 37 47 7 28 12 57
12 63 0 9 -45 13 -157 15 -87 1 -166 5 -178 8 -13 4 -17 3 -10 -4z"/>
<path d="M2848 2813 c-22 -3 -30 -12 -38 -41 -15 -57 -13 -112 6 -119 9 -3 40
7 70 23 94 51 92 47 50 99 -21 25 -43 44 -49 44 -7 -1 -24 -4 -39 -6z"/>
<path d="M4750 2803 c-14 -3 -36 -15 -50 -27 -30 -27 -116 -86 -126 -86 -12 0
19 32 71 73 l50 40 -48 -7 c-47 -7 -285 -131 -287 -149 0 -4 15 -23 33 -43
l32 -35 125 74 c69 40 158 92 198 116 39 23 72 44 72 46 0 6 -33 4 -70 -2z"/>
<path d="M2356 2747 l-16 -41 47 -41 c26 -22 89 -77 140 -123 l91 -82 35 47
c40 56 67 106 67 126 0 14 -130 74 -281 130 l-67 25 -16 -41z"/>
<path d="M4805 2729 c-142 -96 -236 -169 -230 -179 5 -9 57 4 145 35 62 22
212 151 208 178 -5 36 -29 29 -123 -34z"/>
<path d="M4505 2775 c-5 -2 -54 -13 -107 -25 -99 -22 -115 -33 -82 -61 13 -10
29 -6 106 32 49 24 92 47 95 52 4 7 4 7 -12 2z"/>
<path d="M237 2691 c-20 -38 -37 -73 -37 -78 0 -9 151 -55 157 -49 4 4 -67
180 -76 188 -4 5 -24 -23 -44 -61z"/>
<path d="M1385 2750 c-11 -4 -36 -24 -55 -45 l-35 -36 80 7 c102 9 129 17 133
37 6 32 -75 57 -123 37z"/>
<path d="M3115 2734 c-16 -8 -31 -17 -33 -19 -2 -1 14 -38 36 -81 22 -44 51
-115 66 -159 66 -198 78 -226 91 -215 7 6 25 53 40 105 l28 94 -55 59 c-37 40
-67 87 -93 146 -22 47 -42 86 -45 86 -3 0 -18 -7 -35 -16z"/>
<path d="M4175 2686 c-33 -13 -99 -42 -147 -64 -87 -40 -87 -41 -77 -69 5 -15
18 -39 28 -52 l18 -23 149 82 c82 46 151 85 153 87 5 4 -50 63 -58 63 -3 -1
-33 -11 -66 -24z"/>
<path d="M4890 2677 c-19 -18 -48 -42 -65 -55 l-30 -22 55 2 54 3 13 45 c7 25
12 48 11 52 -2 4 -19 -8 -38 -25z"/>
<path d="M0 2649 c0 -11 4 -18 10 -14 5 3 7 12 3 20 -7 21 -13 19 -13 -6z"/>
<path d="M2955 2634 c-28 -19 -57 -40 -65 -45 -12 -7 -8 -15 25 -43 65 -57
195 -149 202 -143 15 15 -84 267 -105 267 -4 0 -30 -16 -57 -36z"/>
<path d="M5018 2640 l-5 -30 54 0 c52 0 53 0 53 30 0 29 -1 30 -49 30 -47 0
-49 -1 -53 -30z"/>
<path d="M1395 2649 c-27 -5 -66 -10 -86 -12 -37 -3 -68 -34 -164 -162 l-30
-40 30 22 c17 11 59 33 95 47 36 15 82 38 103 52 22 14 41 23 44 20 12 -12
-24 -39 -101 -78 -93 -47 -209 -118 -202 -125 17 -17 208 66 270 118 39 33
126 143 126 160 0 10 -16 10 -85 -2z"/>
<path d="M1625 2630 c-3 -5 -19 -10 -35 -10 -23 0 -33 -7 -45 -30 -8 -16 -35
-54 -60 -85 l-45 -55 43 -62 c88 -128 102 -147 109 -148 8 0 347 226 368 246
12 12 7 14 -38 14 -92 0 -224 56 -270 115 -12 15 -23 21 -27 15z"/>
<path d="M2286 2621 c-3 -5 16 -55 43 -111 27 -57 58 -131 68 -166 10 -35 21
-64 25 -64 4 0 38 29 75 65 l68 65 -31 28 c-93 83 -227 192 -234 192 -5 0 -11
-4 -14 -9z"/>
<path d="M4180 2549 c-80 -45 -151 -87 -158 -93 -10 -10 -6 -21 18 -55 17 -23
37 -44 45 -47 7 -3 81 40 164 97 l150 102 -32 38 c-18 21 -34 39 -37 39 -3 0
-71 -37 -150 -81z"/>
<path d="M5044 2572 c-7 -4 5 -17 32 -34 l44 -27 0 34 c0 33 -2 35 -32 35 -18
0 -38 -4 -44 -8z"/>
<path d="M2825 2554 c-10 -8 -27 -14 -37 -14 -15 0 -18 -8 -18 -50 0 -43 -4
-53 -36 -84 l-35 -34 138 -121 c186 -162 247 -205 280 -196 25 6 25 8 19 58
-3 29 -9 96 -13 150 l-6 98 -60 41 c-32 22 -94 68 -136 103 -70 56 -79 61 -96
49z"/>
<path d="M2218 2494 l-26 -65 47 -44 c62 -58 101 -88 101 -78 -1 50 -65 233
-87 246 -5 3 -21 -23 -35 -59z"/>
<path d="M3795 2501 c-55 -31 -116 -68 -136 -81 -74 -52 -178 -135 -179 -143
0 -5 4 -5 10 -2 5 3 67 21 137 41 121 33 333 125 333 145 0 19 -45 99 -54 98
-6 0 -56 -26 -111 -58z"/>
<path d="M43 2520 c-42 -19 -43 -20 -43 -68 l0 -49 58 -16 c70 -19 205 -47
229 -47 11 0 -17 35 -82 100 -55 55 -104 100 -110 100 -5 0 -29 -9 -52 -20z"/>
<path d="M4927 2420 c-67 -138 -69 -115 31 -257 39 -56 72 -93 82 -93 10 0 32
-3 49 -6 l31 -6 0 203 0 204 -60 38 c-33 20 -63 37 -67 37 -5 0 -34 -54 -66
-120z"/>
<path d="M4780 2523 c-37 -6 -124 -34 -133 -43 -10 -9 121 -90 145 -90 9 0 18
6 21 13 3 6 17 38 31 70 l26 57 -33 -1 c-17 -1 -43 -4 -57 -6z"/>
<path d="M2065 2508 c-11 -6 -22 -12 -24 -14 -5 -4 39 -64 48 -64 15 0 33 48
26 69 -7 23 -20 26 -50 9z"/>
<path d="M276 2483 c17 -16 82 -73 143 -128 62 -55 118 -100 124 -100 7 0 13
10 15 23 3 17 -16 44 -74 105 -78 83 -102 96 -211 121 l-28 6 31 -27z"/>
<path d="M1992 2444 c-27 -19 -27 -24 0 -70 l21 -37 28 34 27 34 -20 27 c-23
32 -26 33 -56 12z"/>
<path d="M4440 2405 c-30 -31 -79 -75 -107 -98 -29 -23 -49 -44 -45 -48 4 -3
45 -14 92 -23 47 -9 129 -27 183 -40 l98 -23 19 27 c11 16 20 33 20 40 0 6
-31 55 -70 109 -94 134 -109 138 -190 56z"/>
<path d="M508 2403 c22 -27 49 -56 61 -67 20 -18 21 -18 31 8 28 74 28 73 -49
90 -38 9 -73 16 -76 16 -4 0 11 -21 33 -47z"/>
<path d="M4376 2434 c-46 -16 -206 -121 -206 -135 0 -18 53 -31 76 -18 30 15
180 156 174 162 -3 2 -22 -2 -44 -9z"/>
<path d="M3945 2419 c-106 -70 -255 -125 -407 -149 -43 -7 -78 -17 -78 -22 0
-10 42 -8 315 18 170 16 226 27 262 50 l22 14 -41 55 c-22 30 -41 55 -42 54
-1 0 -14 -9 -31 -20z"/>
<path d="M4610 2432 c0 -8 91 -144 111 -166 7 -8 49 62 49 81 0 10 -134 93
-149 93 -6 0 -11 -4 -11 -8z"/>
<path d="M1351 2394 c-30 -19 -109 -55 -174 -80 -134 -52 -188 -94 -206 -161
-11 -37 -15 -123 -7 -123 37 0 309 81 360 107 60 31 166 148 166 183 0 12 -72
110 -80 109 -3 -1 -29 -16 -59 -35z"/>
<path d="M699 2384 c-6 -16 -13 -54 -16 -85 -4 -44 -1 -64 16 -97 19 -36 26
-42 54 -42 43 0 118 73 124 120 1 18 13 45 24 62 12 16 20 30 18 32 -2 2 -40
9 -84 15 -44 7 -90 15 -102 18 -18 4 -25 -1 -34 -23z"/>
<path d="M1849 2357 c-106 -72 -123 -86 -118 -91 8 -8 194 16 227 30 l33 13
-26 51 c-14 27 -29 50 -33 50 -4 0 -41 -24 -83 -53z"/>
<path d="M2092 2309 c-80 -89 -80 -90 -34 -164 28 -45 130 -175 137 -175 3 0
18 26 34 58 16 33 51 89 76 127 34 50 45 72 38 85 -9 20 -156 150 -169 150 -5
0 -42 -36 -82 -81z"/>
<path d="M937 2345 c-29 -60 -14 -60 22 0 14 24 16 35 8 35 -8 0 -21 -16 -30
-35z"/>
<path d="M2614 2312 c-17 -15 -55 -47 -83 -71 -50 -41 -51 -44 -35 -62 9 -10
24 -19 32 -19 30 0 159 -70 206 -111 26 -23 61 -66 78 -96 16 -29 31 -53 32
-53 2 0 49 24 105 53 l102 54 -103 75 c-90 66 -152 119 -273 229 l-30 28 -31
-27z"/>
<path d="M3167 2269 c3 -30 9 -72 12 -94 l7 -40 16 30 c15 29 15 34 -8 89 -31
77 -35 79 -27 15z"/>
<path d="M23 2303 c-55 -10 -13 -20 110 -27 139 -7 270 -32 309 -59 13 -9 37
-26 53 -38 17 -11 -1 8 -39 43 l-69 63 -91 12 c-89 12 -228 15 -273 6z"/>
<path d="M1495 2269 c-4 -12 -25 -42 -47 -65 -22 -24 -38 -44 -36 -44 3 0 37
15 77 33 l71 32 -20 33 c-23 37 -36 40 -45 11z"/>
<path d="M4800 2208 c-32 -49 -38 -64 -27 -70 12 -6 178 -48 193 -48 2 0 -23
41 -56 90 -33 50 -63 90 -65 90 -3 0 -23 -28 -45 -62z"/>
<path d="M0 2177 c0 -67 42 -162 67 -153 27 11 173 109 173 117 0 4 -4 19 -9
32 -11 29 -99 57 -179 57 l-52 0 0 -53z"/>
<path d="M843 2186 c-38 -24 -40 -36 -14 -60 18 -17 20 -15 36 29 10 25 16 47
14 49 -2 2 -19 -6 -36 -18z"/>
<path d="M1945 2194 c-16 -7 -42 -13 -56 -14 -14 0 -63 -20 -110 -44 -46 -24
-104 -50 -127 -57 l-44 -13 4 -95 c3 -96 15 -136 56 -189 l18 -23 115 60 c63
32 168 76 234 97 66 20 121 39 123 40 2 1 -32 49 -75 105 -43 57 -85 114 -93
125 -14 20 -18 21 -45 8z"/>
<path d="M3953 2177 c-12 -6 -50 -31 -85 -55 -71 -48 -166 -97 -174 -90 -2 3
33 29 78 59 46 29 94 62 108 73 l25 19 -96 -6 c-91 -6 -98 -8 -132 -39 -48
-44 -177 -120 -251 -147 -84 -31 -95 -38 -89 -59 6 -23 77 -45 143 -45 50 0
285 88 400 150 80 43 166 106 180 133 10 19 8 20 -37 20 -26 0 -58 -6 -70 -13z"/>
<path d="M260 2165 c0 -9 5 -15 11 -13 6 2 11 8 11 13 0 5 -5 11 -11 13 -6 2
-11 -4 -11 -13z"/>
<path d="M1649 2173 c-17 -3 -29 -12 -33 -26 -11 -40 -7 -49 17 -42 48 15 127
54 127 64 0 11 -56 12 -111 4z"/>
<path d="M3625 2163 c-153 -18 -243 -48 -270 -89 -24 -37 -19 -37 36 1 61 42
102 48 49 7 -19 -15 -50 -42 -70 -60 l-35 -32 55 21 c75 28 218 104 255 134
17 14 26 24 20 23 -5 0 -23 -3 -40 -5z"/>
<path d="M4170 2161 c-13 -9 -13 -15 4 -43 10 -18 41 -77 68 -132 l50 -98 36
5 c52 9 135 63 215 141 53 51 67 70 56 76 -67 36 -394 75 -429 51z"/>
<path d="M4046 2110 c-33 -27 -95 -68 -140 -92 -61 -32 -108 -70 -193 -152
-62 -61 -113 -115 -113 -121 0 -5 53 -63 118 -128 l119 -118 22 91 c12 50 31
112 42 137 24 57 24 70 -2 78 -19 6 -59 59 -59 79 0 5 18 -10 40 -34 31 -33
44 -41 62 -37 13 3 50 14 83 23 33 9 102 24 152 33 l93 16 -77 138 c-43 75
-80 137 -83 136 -3 0 -32 -22 -64 -49z"/>
<path d="M309 2131 l-24 -19 24 -49 c28 -58 91 -143 106 -143 13 0 141 128
134 135 -9 8 -198 95 -208 95 -5 0 -19 -9 -32 -19z"/>
<path d="M760 2095 c40 -41 46 -44 57 -29 15 21 4 38 -38 60 -58 29 -65 16
-19 -31z"/>
<path d="M2475 2117 c17 -59 81 -176 125 -231 72 -89 76 -90 141 -50 30 18 58
35 63 37 18 6 -16 77 -61 127 -47 52 -173 123 -241 134 -31 5 -33 4 -27 -17z"/>
<path d="M1508 2112 c-50 -22 -48 -34 5 -30 35 2 43 7 45 26 4 26 0 26 -50 4z"/>
<path d="M162 2050 c-39 -27 -79 -53 -88 -58 -15 -8 -14 -15 6 -76 13 -36 25
-66 29 -66 3 0 44 -7 90 -15 l84 -15 48 37 c27 20 49 38 49 40 0 2 -21 31 -46
65 -25 35 -55 80 -65 101 -11 20 -23 37 -27 37 -4 -1 -40 -23 -80 -50z"/>
<path d="M2381 2026 c-61 -62 -74 -101 -61 -184 17 -102 67 -217 113 -260 l24
-23 33 51 c18 28 61 77 97 110 l65 59 -50 58 c-55 64 -122 164 -142 212 -7 17
-15 31 -19 31 -4 0 -30 -24 -60 -54z"/>
<path d="M842 2049 c-10 -15 -11 -24 -3 -32 15 -15 23 -3 19 27 -3 27 -3 27
-16 5z"/>
<path d="M4625 1982 l-80 -85 50 -17 c114 -39 225 -112 320 -209 21 -23 42
-41 46 -41 4 0 42 30 84 67 70 62 75 69 58 81 -10 7 -103 41 -208 75 -201 65
-224 91 -33 37 61 -18 129 -38 151 -46 30 -11 38 -11 34 -1 -2 6 -19 49 -37
95 -28 74 -34 82 -58 82 -15 0 -73 11 -130 25 -57 14 -106 24 -110 24 -4 -1
-43 -40 -87 -87z"/>
<path d="M1485 2051 c-33 -4 -74 -14 -91 -23 -31 -17 -84 -72 -84 -87 0 -5 33
-11 74 -14 40 -4 94 -16 120 -27 26 -11 50 -20 52 -20 2 0 4 41 4 90 0 50 -3
89 -7 88 -5 0 -35 -4 -68 -7z"/>
<path d="M554 1987 c-27 -29 -72 -76 -99 -106 l-50 -53 109 7 c107 6 213 31
249 58 19 13 -2 32 -149 139 -6 4 -31 -14 -60 -45z"/>
<path d="M1217 2019 c-33 -10 -61 -20 -63 -22 -5 -4 58 -47 68 -47 7 0 61 81
56 84 -2 2 -29 -5 -61 -15z"/>
<path d="M5101 1968 c17 -34 19 -34 19 -5 0 18 -5 27 -15 27 -13 0 -14 -4 -4
-22z"/>
<path d="M1031 1966 l-53 -10 5 -37 c3 -21 17 -63 31 -95 29 -63 126 -212 156
-239 18 -16 18 -16 4 32 -19 60 -13 176 14 253 l19 54 -41 28 c-44 30 -52 31
-135 14z"/>
<path d="M13 1963 c-8 -3 -13 -21 -13 -43 0 -33 4 -39 30 -49 34 -12 37 -5 19
50 -14 41 -20 48 -36 42z"/>
<path d="M3674 1916 c-38 -17 -89 -39 -112 -48 l-43 -17 32 -45 32 -45 22 30
c12 16 35 42 51 58 46 45 98 101 93 100 -2 -1 -36 -15 -75 -33z"/>
<path d="M2988 1892 c-48 -26 -99 -56 -113 -67 l-25 -20 23 -50 c40 -85 46
-85 114 -10 67 74 128 169 118 184 -10 18 -26 13 -117 -37z"/>
<path d="M2258 1893 c-33 -36 -48 -67 -88 -178 -30 -86 -81 -280 -94 -357 l-7
-37 52 -16 c74 -21 124 -19 207 11 71 26 72 27 73 63 0 20 8 61 18 91 l17 55
-34 44 c-67 88 -110 200 -114 298 -2 29 -3 53 -4 53 0 0 -12 -12 -26 -27z"/>
<path d="M1266 1878 c-46 -110 -46 -215 1 -307 19 -38 37 -59 55 -65 24 -8 33
-4 90 49 35 32 99 85 143 118 44 33 80 63 80 67 0 19 -67 102 -97 120 -35 21
-96 36 -195 46 l-63 7 -14 -35z"/>
<path d="M3117 1845 c-16 -25 -60 -79 -99 -120 -84 -90 -82 -113 4 -72 29 14
74 34 100 45 44 19 47 22 55 74 10 53 -1 108 -22 115 -6 2 -23 -17 -38 -42z"/>
<path d="M711 1835 c-50 -24 -91 -48 -91 -53 0 -10 197 -52 242 -52 34 0 58
-9 58 -23 0 -15 -117 -3 -249 27 -134 31 -228 33 -288 9 -24 -10 -43 -20 -43
-23 0 -5 284 -81 370 -99 62 -13 280 -26 280 -16 0 4 -15 33 -34 64 -18 31
-44 76 -56 101 -24 48 -55 86 -81 101 -12 6 -43 -5 -108 -36z"/>
<path d="M4360 1871 c-39 -7 -40 -18 -8 -64 l21 -29 45 46 c41 42 62 55 62 40
0 -3 -18 -26 -40 -51 l-39 -45 26 -37 c15 -20 30 -40 33 -44 4 -4 19 10 35 33
15 22 50 57 76 77 29 22 45 41 40 46 -27 27 -170 43 -251 28z"/>
<path d="M4205 1849 c-80 -14 -235 -50 -235 -54 0 -2 19 -24 43 -48 23 -24 51
-60 62 -80 11 -21 23 -37 27 -37 4 0 14 13 22 28 8 16 50 62 94 103 101 95 99
108 -13 88z"/>
<path d="M3340 1795 c0 -31 -7 -46 -35 -75 -41 -42 -57 -87 -24 -70 49 27 150
103 142 109 -4 3 -25 22 -45 40 l-38 35 0 -39z"/>
<path d="M2038 1801 c-52 -21 -218 -109 -218 -117 0 -6 29 -52 59 -92 l24 -33
84 83 c45 45 83 87 83 93 0 6 9 27 19 48 22 42 17 44 -51 18z"/>
<path d="M4593 1782 c-26 -21 -61 -55 -77 -76 -33 -44 -33 -45 45 -166 l50
-79 87 31 c89 31 181 74 217 102 19 14 18 16 -35 71 -62 63 -192 155 -220 155
-10 0 -40 -17 -67 -38z"/>
<path d="M4246 1740 c-66 -68 -96 -119 -96 -162 0 -24 85 -178 98 -178 4 0 15
44 25 98 10 53 29 124 43 157 37 86 39 101 16 129 l-19 25 -67 -69z"/>
<path d="M0 1749 c0 -28 5 -49 13 -52 9 -4 9 -7 -1 -15 -8 -5 -12 -22 -10 -41
l3 -31 88 64 c49 36 91 66 93 69 2 2 -39 15 -91 29 l-95 25 0 -48z"/>
<path d="M2728 1735 c-181 -121 -276 -232 -294 -344 -7 -41 -6 -41 18 -32 69
26 389 239 426 284 10 12 9 22 -9 52 -12 20 -27 52 -34 70 l-11 34 -96 -64z"/>
<path d="M3920 1709 c-12 -33 -31 -99 -43 -147 l-21 -86 74 -68 c41 -38 99
-87 128 -110 l53 -41 37 17 c20 10 47 24 60 32 l22 14 -55 105 c-30 58 -55
112 -55 121 0 8 -4 12 -10 9 -5 -3 -10 -28 -10 -56 0 -27 -4 -49 -9 -49 -15 0
-20 53 -10 108 10 53 10 53 -36 117 -41 58 -79 95 -96 95 -3 0 -16 -27 -29
-61z"/>
<path d="M3354 1654 c-60 -42 -116 -80 -124 -85 -26 -16 46 -69 203 -150 l144
-75 82 17 c45 9 87 21 93 27 16 16 -16 72 -87 155 -57 67 -156 160 -189 179
-8 4 -56 -22 -122 -68z"/>
<path d="M4362 1693 c-43 -85 -90 -281 -76 -317 3 -9 12 -16 20 -16 27 0 65
24 69 44 20 100 31 139 52 187 l25 56 -29 41 c-15 23 -31 41 -35 42 -4 0 -16
-17 -26 -37z"/>
<path d="M212 1643 c-42 -30 -107 -85 -144 -121 -57 -55 -68 -72 -68 -99 0
-18 4 -33 10 -33 5 0 49 9 97 21 104 24 353 75 587 120 94 18 163 35 155 39
-8 4 -42 10 -76 13 -33 4 -156 31 -272 61 l-212 54 -77 -55z"/>
<path d="M1613 1609 c-90 -71 -143 -119 -143 -131 0 -19 28 -6 61 28 18 19 67
61 107 92 68 54 84 72 63 72 -5 0 -45 -28 -88 -61z"/>
<path d="M1770 1659 c0 -15 53 -99 63 -99 13 0 7 20 -18 59 -26 43 -45 59 -45
40z"/>
<path d="M3055 1629 c-80 -40 -132 -93 -214 -216 -59 -89 -64 -99 -37 -80 86
61 200 160 264 229 99 107 96 122 -13 67z"/>
<path d="M1624 1552 l-102 -78 29 -13 c26 -11 37 -10 87 10 31 12 79 33 105
46 l48 24 -24 42 c-14 23 -29 42 -33 44 -5 2 -55 -32 -110 -75z"/>
<path d="M1962 1535 l-83 -84 29 -43 c17 -24 41 -54 55 -67 l26 -23 6 38 c3
22 16 90 29 152 12 61 22 112 22 111 -1 0 -38 -38 -84 -84z"/>
<path d="M2785 1530 c-126 -89 -245 -162 -318 -196 -35 -17 -37 -20 -31 -53
10 -60 34 -141 42 -141 5 0 35 20 69 44 41 30 71 62 91 98 45 78 137 183 221
254 70 59 83 75 64 81 -5 2 -67 -37 -138 -87z"/>
<path d="M4451 1593 c-11 -23 -51 -177 -51 -195 0 -5 165 48 178 58 5 3 -95
151 -106 158 -5 3 -14 -6 -21 -21z"/>
<path d="M5023 1565 c-46 -30 -86 -55 -91 -55 -11 0 -37 -48 -30 -55 2 -3 31
6 64 18 32 13 80 32 107 41 46 17 47 18 47 62 0 24 -3 44 -8 44 -4 0 -44 -25
-89 -55z"/>
<path d="M905 1530 l-110 -37 -3 -36 c-2 -26 1 -39 11 -43 16 -6 247 101 247
114 0 5 -8 16 -17 24 -16 14 -28 12 -128 -22z"/>
<path d="M3156 1490 c-29 -53 -50 -65 -99 -56 -27 4 -39 -1 -76 -34 -43 -37
-44 -40 -32 -64 8 -14 58 -69 112 -122 l99 -97 49 46 c51 47 187 121 280 152
l53 17 -120 63 c-66 35 -147 81 -180 103 l-59 41 -27 -49z"/>
<path d="M1230 1525 c0 -18 67 -89 73 -78 3 5 -12 27 -33 48 -22 22 -40 35
-40 30z"/>
<path d="M1040 1473 c-19 -14 -34 -31 -34 -39 1 -8 -20 -26 -47 -40 l-49 -24
0 -70 c0 -39 3 -70 6 -70 18 0 130 68 183 111 34 27 61 44 61 37 0 -22 -90
-97 -165 -139 -41 -22 -75 -44 -75 -48 0 -19 -21 -178 -26 -193 -10 -35 13
-17 67 50 29 37 102 117 160 177 l107 110 -77 81 -76 81 -35 -24z"/>
<path d="M5020 1466 c-47 -18 -95 -37 -106 -44 -21 -11 -41 -59 -30 -70 4 -3
57 10 118 30 l113 35 3 41 c2 23 0 42 -5 42 -4 -1 -46 -16 -93 -34z"/>
<path d="M585 1434 c-77 -24 -240 -76 -362 -116 l-223 -72 0 -49 c0 -43 2 -48
18 -42 96 38 345 116 507 160 110 29 208 57 218 60 13 6 17 19 17 56 0 40 -3
49 -17 48 -10 0 -81 -20 -158 -45z"/>
<path d="M4824 1455 c-16 -17 -49 -60 -74 -95 -45 -64 -182 -209 -254 -270
l-40 -33 28 -24 27 -23 31 21 c71 51 215 200 251 260 38 65 72 159 64 182 -2
7 -15 0 -33 -18z"/>
<path d="M345 1425 c-104 -19 -224 -42 -265 -52 l-75 -19 -3 -41 -3 -41 238
77 c131 42 261 84 288 93 74 24 31 20 -180 -17z"/>
<path d="M1769 1421 c-78 -34 -181 -67 -264 -84 l-60 -13 74 -52 c108 -76 402
-222 446 -222 6 0 10 47 10 120 1 66 -2 120 -6 120 -4 0 -35 36 -70 80 -34 44
-63 80 -63 80 -1 -1 -31 -14 -67 -29z"/>
<path d="M4738 1427 c-104 -63 -183 -110 -272 -162 -81 -47 -97 -60 -84 -69 8
-6 27 -30 42 -54 31 -49 29 -49 111 22 70 60 263 287 243 286 -2 0 -19 -10
-40 -23z"/>
<path d="M1418 1414 c-27 -14 -38 -34 -19 -34 5 0 33 11 63 25 53 25 53 25 18
25 -19 -1 -47 -8 -62 -16z"/>
<path d="M4488 1357 c-86 -29 -160 -56 -164 -59 -3 -4 2 -21 13 -37 l19 -31
36 25 c20 14 90 54 155 90 65 35 114 65 108 64 -5 0 -81 -24 -167 -52z"/>
<path d="M4984 1352 c-116 -35 -122 -39 -144 -76 -20 -36 -21 -38 -4 -32 11 4
79 30 152 58 104 40 132 55 132 69 0 23 9 25 -136 -19z"/>
<path d="M3658 1330 c-178 -37 -362 -117 -428 -185 -56 -58 -28 -59 115 -3 72
28 196 67 277 87 l148 36 0 43 c0 48 6 47 -112 22z"/>
<path d="M3864 1325 c-8 -32 -6 -35 29 -28 31 6 31 19 -1 41 -20 13 -22 12
-28 -13z"/>
<path d="M2875 1324 c-11 -9 -76 -49 -145 -91 -117 -70 -192 -126 -300 -221
l-45 -40 60 13 c124 28 283 46 396 44 92 -1 121 2 141 15 25 16 62 30 112 41
l28 6 -74 77 c-40 42 -92 98 -113 124 -37 44 -41 46 -60 32z"/>
<path d="M690 1261 c-126 -70 -233 -136 -205 -126 50 17 179 46 275 62 58 9
106 18 108 19 8 5 -50 104 -61 104 -7 0 -60 -26 -117 -59z"/>
<path d="M4946 1259 c-140 -56 -153 -63 -222 -129 -40 -38 -92 -81 -114 -96
-26 -17 -37 -31 -31 -37 6 -6 83 29 213 96 355 185 328 169 328 200 0 15 -5
27 -12 26 -7 0 -80 -27 -162 -60z"/>
<path d="M2323 1285 c-28 -13 -54 -32 -57 -43 -4 -11 -16 -28 -28 -38 -21 -19
-21 -19 -14 1 20 51 19 55 -11 55 -16 0 -53 6 -83 14 -30 8 -57 13 -59 10 -9
-8 -17 -162 -12 -209 5 -38 10 -51 24 -53 26 -5 72 41 87 89 8 22 17 42 22 45
16 10 7 -73 -12 -111 -11 -22 -20 -40 -20 -41 0 -1 21 -5 48 -8 26 -4 54 -9
64 -12 10 -3 45 21 95 66 l80 71 -18 67 c-10 37 -21 79 -24 95 -6 32 -15 33
-82 2z"/>
<path d="M440 1264 c-69 -19 -195 -58 -280 -87 l-155 -53 -3 -42 c-2 -23 0
-42 3 -42 25 0 320 97 365 120 76 39 228 140 210 139 -8 0 -71 -16 -140 -35z"/>
<path d="M1243 1246 c-60 -45 -184 -166 -169 -166 22 0 187 95 230 133 l49 43
-26 17 c-25 16 -27 16 -84 -27z"/>
<path d="M3896 1271 c-34 -7 -38 -12 -69 -119 -25 -83 -25 -83 -3 -68 11 9 57
38 101 66 44 27 87 54 95 59 13 9 9 15 -20 41 -34 30 -50 33 -104 21z"/>
<path d="M4213 1242 c-29 -14 -53 -29 -53 -33 0 -14 72 -50 89 -44 9 3 29 16
45 29 29 24 29 24 10 50 -23 31 -26 31 -91 -2z"/>
<path d="M3635 1205 c-71 -18 -179 -51 -240 -75 -60 -23 -120 -44 -132 -47
-13 -3 -23 -8 -23 -12 0 -3 20 -29 44 -56 63 -73 116 -159 151 -249 17 -44 36
-81 43 -84 7 -2 50 36 96 85 78 81 85 93 96 147 6 33 32 116 56 185 24 68 43
128 42 132 -2 3 -61 -8 -133 -26z"/>
<path d="M1342 1207 c-26 -27 -27 -48 -8 -86 24 -45 139 -141 170 -141 7 0 48
131 43 137 -11 10 -172 113 -178 113 -3 0 -15 -10 -27 -23z"/>
<path d="M5035 1192 c-38 -21 -152 -82 -253 -136 l-183 -98 35 -24 35 -24 226
116 225 117 0 43 c0 24 -3 44 -7 44 -5 -1 -39 -18 -78 -38z"/>
<path d="M860 1158 c0 -18 5 -40 10 -48 7 -11 10 -2 10 33 0 26 -4 47 -10 47
-5 0 -10 -15 -10 -32z"/>
<path d="M681 1154 c-184 -42 -334 -98 -355 -133 -3 -5 2 -19 12 -30 l17 -22
135 45 c74 24 182 55 240 67 58 13 106 24 108 25 2 1 0 18 -3 38 -9 44 -11 44
-154 10z"/>
<path d="M4301 1157 l-34 -20 68 -34 c37 -19 69 -32 72 -29 8 8 -49 106 -61
105 -6 0 -26 -10 -45 -22z"/>
<path d="M3961 1109 c-153 -80 -168 -92 -181 -140 -6 -22 -10 -47 -8 -54 5
-22 253 125 335 198 22 19 22 22 6 39 -9 10 -21 18 -27 18 -6 0 -62 -27 -125
-61z"/>
<path d="M1220 1094 l-73 -54 2 -63 c3 -74 23 -122 91 -221 76 -110 71 -107
164 -90 43 7 80 15 82 16 1 2 14 20 28 41 24 36 25 38 10 79 -8 24 -18 67 -22
97 -7 53 -9 56 -57 84 -64 37 -110 81 -133 128 l-19 38 -73 -55z"/>
<path d="M1644 1125 c-4 -9 0 -23 9 -32 21 -21 49 -9 45 19 -4 28 -45 38 -54
13z"/>
<path d="M4102 1076 c-23 -19 -110 -94 -193 -167 l-151 -134 6 -99 c3 -54 9
-103 12 -108 4 -6 38 -9 83 -6 154 9 218 72 302 299 32 88 34 99 19 99 -6 0
-76 -32 -156 -71 -224 -110 -196 -68 34 52 68 35 137 75 154 89 l30 26 -41 27
c-22 15 -44 27 -48 26 -5 0 -27 -15 -51 -33z"/>
<path d="M4940 1021 c-91 -48 -183 -96 -204 -107 l-40 -21 28 -18 28 -19 184
92 184 92 0 35 c0 19 -3 34 -7 34 -5 -1 -82 -40 -173 -88z"/>
<path d="M1564 1055 c-33 -79 -39 -148 -20 -217 15 -53 26 -71 74 -117 l57
-53 80 6 c107 9 193 33 211 61 16 25 55 132 57 159 2 15 -16 25 -94 51 -53 18
-127 46 -165 63 -38 17 -84 30 -103 30 -26 -1 -40 5 -57 28 l-23 28 -17 -39z"/>
<path d="M200 1070 c-14 -5 -64 -21 -112 -36 l-88 -26 0 -75 0 -76 29 24 c44
36 215 180 226 190 12 11 -21 10 -55 -1z"/>
<path d="M715 1056 c-317 -80 -415 -130 -617 -317 -92 -85 -98 -93 -98 -130
l0 -40 68 54 c105 84 198 149 305 212 102 59 343 170 435 200 54 18 65 39 21
42 -13 1 -64 -9 -114 -21z"/>
<path d="M3049 1045 c-56 -18 -88 -49 -73 -72 32 -50 81 -41 129 25 19 26 35
50 35 55 0 11 -39 7 -91 -8z"/>
<path d="M4240 1015 l-23 -25 40 17 c23 10 39 21 36 25 -8 15 -30 8 -53 -17z"/>
<path d="M3129 988 c-19 -24 -42 -49 -53 -57 -16 -12 -16 -15 -3 -22 21 -12
47 -1 57 25 4 11 15 38 24 59 9 20 14 37 12 37 -2 0 -19 -19 -37 -42z"/>
<path d="M734 981 c-173 -72 -339 -159 -464 -242 -113 -76 -270 -194 -270
-204 0 -2 13 2 28 7 16 6 41 8 55 4 26 -6 27 -9 27 -71 0 -72 14 -89 80 -101
56 -10 169 -67 238 -119 35 -26 64 -46 66 -44 1 2 11 33 21 69 27 92 98 261
145 342 22 39 40 74 40 79 0 20 -32 58 -70 83 l-39 26 -98 -41 c-54 -23 -145
-67 -203 -99 -151 -83 -162 -87 -120 -50 65 57 329 198 562 299 81 36 98 47
107 72 13 37 9 37 -105 -10z"/>
<path d="M3182 987 c-14 -38 -15 -76 -4 -94 4 -6 30 -12 57 -14 39 -2 49 1 47
12 -4 17 -35 65 -65 102 l-23 27 -12 -33z"/>
<path d="M1034 949 c-38 -34 -70 -63 -72 -64 -10 -8 254 -195 276 -195 7 0 -4
24 -26 58 -61 90 -84 141 -89 204 -3 32 -9 58 -13 58 -5 0 -39 -28 -76 -61z"/>
<path d="M2880 1000 c20 -13 43 -13 35 0 -3 6 -16 10 -28 10 -18 0 -19 -2 -7
-10z"/>
<path d="M4276 986 c-47 -21 -49 -23 -81 -111 -18 -50 -40 -108 -50 -129 l-16
-39 29 19 c104 66 154 120 225 240 3 6 -8 17 -26 26 -30 14 -36 14 -81 -6z"/>
<path d="M5003 954 c-104 -55 -173 -95 -173 -101 0 -6 231 115 245 128 17 17
-3 9 -72 -27z"/>
<path d="M141 875 c-72 -58 -134 -112 -137 -119 -3 -8 -4 -27 -2 -42 3 -27 6
-24 103 66 55 51 126 111 157 133 45 32 55 44 47 54 -7 7 -17 13 -23 13 -7 0
-72 -47 -145 -105z"/>
<path d="M4373 907 c-17 -28 -30 -54 -28 -55 3 -3 53 29 110 71 11 8 -20 37
-39 37 -6 0 -25 -24 -43 -53z"/>
<path d="M4963 888 l-151 -73 46 -39 c26 -22 81 -74 123 -118 74 -77 76 -78
107 -67 31 11 32 12 32 71 l0 60 -27 -21 c-86 -65 -86 -66 -75 -44 6 10 31 38
57 62 l46 42 -3 100 -3 99 -152 -72z"/>
<path d="M3823 907 c-57 -29 -62 -35 -62 -66 l-1 -33 65 63 c57 55 72 72 63
68 -2 -1 -31 -15 -65 -32z"/>
<path d="M2670 923 c-19 -1 -67 -5 -106 -9 -64 -5 -73 -8 -83 -30 -16 -35 -14
-37 16 -17 20 14 54 18 157 21 122 4 156 11 156 33 0 9 -65 10 -140 2z"/>
<path d="M735 869 c-107 -43 -117 -49 -96 -57 8 -2 31 -20 51 -39 l38 -34 23
33 c12 18 42 57 67 86 24 28 38 52 30 51 -7 0 -58 -19 -113 -40z"/>
<path d="M2042 853 c-11 -32 -23 -70 -26 -85 l-6 -27 42 24 c29 16 52 22 71
18 l27 -5 -32 -19 c-18 -11 -56 -30 -85 -44 -46 -22 -53 -29 -72 -80 -12 -31
-21 -62 -21 -69 0 -12 158 -96 180 -96 4 0 6 18 3 39 -7 52 20 172 57 250 36
77 43 124 18 129 -11 2 -18 -2 -18 -11 0 -20 -33 -47 -56 -47 -28 0 -44 19
-44 52 0 45 -16 33 -38 -29z"/>
<path d="M2838 896 c-24 -18 -12 -26 40 -26 44 0 45 0 27 20 -21 23 -43 25
-67 6z"/>
<path d="M4405 854 c-110 -68 -187 -144 -146 -144 17 0 295 146 298 156 2 6
-9 17 -24 24 -16 8 -30 16 -33 17 -3 2 -46 -22 -95 -53z"/>
<path d="M2415 876 c-16 -12 -17 -16 -6 -30 20 -23 28 -20 33 14 5 34 0 36
-27 16z"/>
<path d="M3012 871 c-7 -4 8 -23 37 -49 40 -34 51 -39 60 -28 9 11 1 21 -37
49 -27 19 -54 32 -60 28z"/>
<path d="M887 804 l-47 -52 19 -70 c10 -38 22 -108 26 -156 4 -47 9 -86 11
-86 2 0 37 22 78 49 67 44 209 111 234 111 5 0 15 7 22 15 17 21 7 31 -108
109 -53 37 -117 81 -142 100 l-45 33 -48 -53z"/>
<path d="M2523 849 c-46 -13 -42 -38 14 -75 l47 -30 73 54 c40 30 73 56 73 58
0 8 -176 2 -207 -7z"/>
<path d="M2302 827 c-23 -25 -72 -124 -72 -147 0 -8 14 9 30 39 17 30 32 57
35 60 3 2 26 4 51 2 53 -2 55 9 8 46 l-31 23 -21 -23z"/>
<path d="M2691 788 l-84 -62 59 -53 c33 -29 65 -53 71 -53 36 0 325 129 320
144 -2 6 -23 24 -48 42 -39 27 -54 31 -140 37 l-95 7 -83 -62z"/>
<path d="M4563 829 c-18 -12 -33 -23 -33 -26 0 -3 9 -18 20 -34 l21 -28 61 31
61 31 -39 23 c-47 29 -51 29 -91 3z"/>
<path d="M3581 734 c-40 -41 -71 -80 -69 -85 2 -6 17 -19 33 -29 31 -19 31
-19 73 6 l42 25 0 80 c0 43 -2 79 -4 79 -2 0 -36 -34 -75 -76z"/>
<path d="M4390 742 c-64 -35 -85 -51 -82 -64 5 -24 -9 -23 -41 3 l-27 20 -40
-62 c-22 -34 -39 -64 -37 -66 3 -3 335 144 346 153 5 5 -20 64 -28 64 -3 -1
-44 -22 -91 -48z"/>
<path d="M3147 738 c-13 -24 -58 -104 -100 -178 -41 -74 -89 -155 -105 -179
-29 -43 -30 -45 -16 -90 8 -25 14 -48 14 -51 0 -2 27 40 61 94 104 171 218
413 204 437 -13 20 -35 7 -58 -33z"/>
<path d="M4647 748 l-56 -31 21 -29 c25 -36 107 -97 129 -98 9 0 19 7 22 14 4
11 -11 23 -51 41 -31 14 -64 33 -74 42 -35 32 -17 33 42 3 68 -35 70 -35 70
-16 0 8 7 22 16 31 18 18 11 31 -33 57 -28 16 -30 16 -86 -14z"/>
<path d="M2297 736 c-8 -12 -31 -56 -52 -98 -35 -72 -37 -82 -32 -137 4 -33
13 -75 20 -93 l14 -33 23 45 c12 24 71 94 131 155 60 62 109 114 109 117 0 3
-16 18 -35 32 -28 22 -47 27 -100 30 -57 2 -67 0 -78 -18z"/>
<path d="M3211 691 c-34 -94 -127 -277 -191 -376 -61 -93 -73 -131 -45 -141
24 -10 100 60 154 142 72 111 158 387 130 420 -19 23 -25 17 -48 -45z"/>
<path d="M2965 681 c-72 -32 -147 -64 -168 -70 -20 -7 -37 -14 -37 -16 0 -3
20 -35 44 -72 24 -37 53 -87 65 -110 12 -24 25 -43 29 -43 14 0 212 342 212
365 0 10 -16 4 -145 -54z"/>
<path d="M4158 697 c-26 -18 -61 -50 -78 -72 -31 -39 -92 -158 -105 -205 -12
-42 120 95 164 170 21 36 48 82 60 103 28 45 21 45 -41 4z"/>
<path d="M797 685 c-10 -20 -22 -71 -28 -113 -10 -74 -62 -248 -80 -266 -23
-24 -19 11 10 98 30 92 50 186 38 186 -10 0 -63 -102 -92 -175 -37 -92 -75
-232 -75 -273 l0 -33 32 38 c17 21 80 88 139 148 105 108 107 111 113 166 6
55 -11 186 -31 237 -9 22 -9 22 -26 -13z"/>
<path d="M4786 694 c-13 -34 -4 -46 50 -71 79 -36 89 -18 22 41 -58 51 -63 53
-72 30z"/>
<path d="M3295 689 c-6 -19 -65 -256 -65 -264 0 -3 32 17 72 45 39 27 78 50
85 50 32 0 -23 141 -64 168 -19 12 -24 12 -28 1z"/>
<path d="M4446 639 c-48 -26 -90 -50 -92 -52 -3 -2 37 -36 88 -74 51 -38 111
-86 133 -107 34 -32 42 -36 63 -27 24 12 82 121 82 157 0 14 -13 27 -46 42
-25 12 -66 42 -92 65 l-47 43 -89 -47z"/>
<path d="M1902 670 c-12 -5 -64 -15 -115 -22 -84 -11 -89 -12 -57 -21 19 -5
60 -18 90 -29 30 -10 62 -22 71 -24 11 -4 20 7 32 38 26 68 24 75 -21 58z"/>
<path d="M2478 606 c-77 -66 -182 -182 -200 -221 -15 -34 16 -88 45 -80 56 17
333 213 345 244 4 12 -34 56 -77 90 l-38 31 -75 -64z"/>
<path d="M3486 598 c9 -31 9 -31 35 -23 l22 7 -24 19 c-32 25 -42 24 -33 -3z"/>
<path d="M3583 576 c-77 -38 -82 -43 -78 -68 2 -15 9 -78 16 -140 6 -62 12
-114 12 -114 6 -5 156 18 175 26 17 8 22 18 22 49 0 30 -45 232 -63 282 -1 4
-39 -12 -84 -35z"/>
<path d="M1570 571 c-104 -65 -97 -59 -80 -71 29 -20 147 -51 248 -66 84 -13
109 -13 133 -4 29 12 30 15 23 59 -4 25 -8 49 -11 53 -6 11 -150 55 -203 63
-41 6 -51 2 -110 -34z"/>
<path d="M4783 594 c-8 -22 9 -35 56 -41 59 -8 56 20 -4 41 -41 13 -47 14 -52
0z"/>
<path d="M1471 584 c-36 -8 -66 -16 -68 -17 -1 -2 7 -13 20 -24 l22 -20 54 38
c30 22 50 39 45 38 -5 -1 -38 -7 -73 -15z"/>
<path d="M3965 553 c-22 -8 -73 -17 -112 -20 -40 -3 -73 -10 -73 -14 0 -23 53
-144 76 -175 l27 -35 22 28 c13 15 31 50 40 78 10 27 29 72 42 98 13 27 23 50
21 52 -2 1 -21 -4 -43 -12z"/>
<path d="M4207 513 c-88 -45 -116 -65 -149 -107 -43 -54 -96 -152 -86 -161 18
-19 345 40 521 94 l90 28 -69 57 c-66 55 -189 146 -196 146 -2 -1 -52 -26
-111 -57z"/>
<path d="M1273 540 c-40 -11 -104 -32 -142 -48 -75 -32 -221 -125 -258 -164
-21 -22 -22 -27 -11 -85 11 -58 3 -155 -17 -204 -5 -14 7 -17 85 -22 56 -4
109 -3 135 4 l43 11 1 56 c0 123 71 236 216 347 41 32 75 61 75 65 0 3 -12 18
-27 32 l-28 26 -72 -18z"/>
<path d="M4729 476 l-26 -64 76 35 c42 19 84 37 94 40 32 10 18 20 -48 37 -35
9 -65 16 -67 16 -2 0 -15 -29 -29 -64z"/>
<path d="M1921 513 c1 -10 4 -30 8 -45 l6 -28 39 24 40 24 -42 21 c-50 25 -52
26 -51 4z"/>
<path d="M2634 480 l-61 -49 -7 -122 c-9 -167 -5 -173 156 -207 101 -21 104
-19 110 111 5 85 3 103 -17 145 -19 40 -110 173 -117 172 -2 -1 -30 -23 -64
-50z"/>
<path d="M5111 494 c0 -11 3 -14 6 -6 3 7 2 16 -1 19 -3 4 -6 -2 -5 -13z"/>
<path d="M3329 459 c-35 -23 -68 -45 -73 -49 -5 -5 14 -20 41 -33 49 -25 80
-53 71 -63 -3 -3 -35 11 -70 31 -36 19 -67 35 -70 35 -3 0 -20 -29 -38 -65
-18 -36 -57 -92 -87 -125 -43 -47 -51 -61 -39 -66 9 -3 74 -4 146 -3 l130 4
45 50 46 50 -6 100 c-7 119 -15 175 -25 175 -4 0 -36 -18 -71 -41z"/>
<path d="M1369 435 c-69 -48 -149 -125 -149 -143 0 -8 147 -104 230 -150 l55
-30 70 21 c55 17 80 31 115 67 47 47 130 165 130 184 0 7 -38 17 -92 24 -51 7
-136 27 -189 46 l-97 33 -73 -52z"/>
<path d="M2001 450 c-13 -11 -30 -20 -38 -20 -13 0 -15 -9 -9 -54 9 -81 21
-106 50 -106 13 0 33 8 44 18 20 17 88 140 81 145 -16 11 -82 37 -92 37 -7 -1
-23 -10 -36 -20z"/>
<path d="M4795 378 c-172 -94 -307 -182 -438 -287 l-107 -86 50 -3 50 -3 111
97 c61 54 115 107 119 118 8 20 8 20 16 2 7 -19 -36 -67 -160 -174 l-49 -42
54 0 54 1 60 85 c66 95 172 201 225 226 29 14 165 139 150 138 -3 -1 -63 -33
-135 -72z"/>
<path d="M4993 414 l-32 -26 19 -47 c18 -48 54 -206 65 -294 6 -46 7 -47 41
-47 l34 0 0 177 0 177 -42 43 c-23 24 -45 43 -48 43 -3 -1 -19 -12 -37 -26z"/>
<path d="M0 362 c0 -65 5 -83 42 -160 22 -48 51 -112 64 -142 l22 -55 91 -3
c50 -1 91 -1 91 2 0 3 -16 39 -35 82 -45 99 -105 181 -199 274 l-76 74 0 -72z"/>
<path d="M1879 403 c-8 -2 -23 -18 -34 -36 -10 -18 -40 -63 -67 -100 -27 -38
-48 -70 -46 -72 3 -3 203 53 215 60 7 4 -36 149 -43 151 -5 1 -16 0 -25 -3z"/>
<path d="M2495 373 c-22 -15 -68 -44 -103 -64 l-63 -37 32 -26 c33 -28 141
-86 159 -86 7 0 9 8 5 20 -4 11 -1 53 5 93 7 39 10 84 8 100 l-3 27 -40 -27z"/>
<path d="M2130 375 c0 -2 -9 -28 -20 -56 l-21 -52 37 6 c54 9 60 20 39 67 -10
22 -22 40 -27 40 -4 0 -8 -2 -8 -5z"/>
<path d="M4869 313 c-76 -79 -209 -231 -209 -240 0 -3 5 -22 12 -40 l12 -33
163 0 c149 0 163 2 163 18 0 66 -64 352 -79 352 -4 0 -32 -26 -62 -57z"/>
<path d="M150 342 c0 -6 5 -14 10 -17 6 -4 58 -68 115 -143 130 -171 140 -182
158 -182 18 0 33 44 42 121 l7 56 -59 47 c-94 75 -273 153 -273 118z"/>
<path d="M4538 330 c-38 -23 -282 -82 -417 -101 -80 -11 -153 -25 -162 -30
-34 -18 -31 -64 9 -133 l37 -66 71 0 c63 0 73 3 95 26 44 47 193 171 289 239
52 37 97 69 99 71 7 7 -3 4 -21 -6z"/>
<path d="M3830 317 c0 -4 7 -22 16 -39 12 -22 19 -27 27 -19 8 8 4 18 -16 38
-15 15 -27 24 -27 20z"/>
<path d="M756 229 c-64 -69 -130 -155 -139 -181 -6 -16 3 -18 93 -18 l98 0 13
38 c14 40 14 185 1 209 -7 11 -22 0 -66 -48z"/>
<path d="M4714 238 c-85 -90 -107 -128 -74 -128 9 0 115 123 131 153 19 33
-16 18 -57 -25z"/>
<path d="M1164 205 c-23 -49 -36 -147 -21 -161 4 -4 299 54 305 61 2 1 -25 20
-60 41 -35 21 -89 55 -120 76 -31 21 -62 38 -68 38 -6 0 -22 -25 -36 -55z"/>
<path d="M2165 231 l-40 -18 90 -45 c80 -40 224 -98 243 -98 4 0 -27 17 -68
37 -48 23 -93 55 -127 90 -29 29 -53 53 -55 52 -2 0 -21 -8 -43 -18z"/>
<path d="M3625 235 c-106 -12 -104 -9 -85 -139 14 -96 15 -99 40 -84 14 9 25
9 46 -1 15 -6 31 -8 35 -4 10 11 61 210 57 226 -2 9 -23 10 -93 2z"/>
<path d="M2864 178 c3 -32 0 -60 -5 -63 -15 -10 -10 -35 6 -35 12 0 15 13 14
58 0 31 -5 66 -10 77 -7 14 -8 3 -5 -37z"/>
<path d="M1 108 l-1 -108 50 0 c28 0 50 3 50 8 -1 4 -23 52 -50 107 l-48 100
-1 -107z"/>
<path d="M2047 197 c-27 -11 -27 -12 -21 -73 4 -36 2 -75 -4 -93 l-11 -31 174
0 c167 0 175 1 186 21 l11 21 22 -21 c15 -14 35 -21 64 -21 45 0 60 15 48 47
-6 15 -8 15 -16 3 -15 -24 -125 11 -280 88 -74 37 -137 68 -140 68 -3 1 -17
-3 -33 -9z"/>
<path d="M3752 129 c-23 -46 -44 -94 -47 -107 -6 -22 -4 -23 27 -20 31 3 33 6
39 45 6 44 23 73 45 73 23 0 23 16 0 55 l-23 38 -41 -84z"/>
<path d="M3392 132 c-28 -42 -62 -113 -62 -127 0 -3 28 -5 61 -5 l62 0 -7 53
c-3 28 -6 69 -6 90 0 20 -4 37 -9 37 -5 0 -23 -21 -39 -48z"/>
<path d="M1860 128 c-47 -17 -86 -32 -88 -33 -1 -1 9 -23 24 -48 l26 -47 77 0
c74 0 78 1 89 25 25 54 9 136 -26 134 -9 0 -55 -14 -102 -31z"/>
<path d="M2997 94 c-32 -17 -34 -34 -8 -58 19 -17 81 -39 89 -31 2 2 -9 26
-24 54 -29 49 -29 49 -57 35z"/>
<path d="M3188 93 c-60 -2 -108 -6 -108 -9 0 -3 9 -23 20 -45 l21 -40 90 3 91
3 14 40 c18 52 17 55 -3 53 -10 -1 -66 -4 -125 -5z"/>
<path d="M3812 88 c-6 -7 -12 -29 -14 -48 -2 -29 0 -35 18 -38 20 -3 22 2 25
47 4 51 -7 65 -29 39z"/>
<path d="M4557 50 l-37 -50 27 0 c21 0 33 8 46 31 18 32 23 69 9 69 -4 0 -25
-22 -45 -50z"/>
<path d="M3870 42 c0 -41 1 -42 35 -42 31 0 34 2 26 17 -5 10 -21 29 -35 42
l-26 24 0 -41z"/>
<path d="M1625 49 c-33 -11 -82 -26 -110 -34 -50 -14 -49 -14 79 -14 l128 -1
-6 23 c-3 12 -6 28 -6 35 0 16 -12 14 -85 -9z"/>
<path d="M2560 20 c0 -22 15 -27 23 -7 4 9 6 9 6 0 1 -9 22 -13 73 -13 39 0
69 2 67 5 -4 3 -153 35 -166 35 -2 0 -3 -9 -3 -20z"/>
<path d="M2778 3 c7 -3 16 -2 19 1 4 3 -2 6 -13 5 -11 0 -14 -3 -6 -6z"/>
</g>
</svg>